#N canvas 535 95 905 586 10;
#X declare -lib Gem;
#X text 33 14 Synopsis: [circle];
#X text 54 30 Class: geometric object;
#X text 525 29 Example:;
#X obj 7 65 cnv 15 450 90 empty empty empty 20 12 0 14 #e0e0e0 #404040 0;
#X text 7 69 Description: Renders a circle.;
#X text 16 86 The circle object renders a circle flat disc at the current position with current color. The look of the circle can be changed with the draw message \, its size can be changed via the second inlet.;
#X obj 8 216 cnv 15 450 100 empty empty empty 20 12 0 14 #e0e0e0 #404040 0;
#X text 9 221 Inlets:;
#X obj 8 166 cnv 15 450 40 empty empty empty 20 12 0 14 #bcbcbc #404040 0;
#X text 17 165 Arguments:;
#X text 27 261 Inlet 2: float: size;
#X text 452 8 GEM object;
#X text 27 233 Inlet 1: gemlist;
#X text 9 280 Outlets:;
#X text 21 293 Outlet 1: gemlist;
#X text 63 177 size of the circle;
#X obj 519 47 cnv 15 170 250 empty empty empty 20 12 0 14 #dce4fc #404040 0;
#X obj 525 80 cnv 15 150 100 empty empty empty 20 12 0 14 #14e814 #404040 0;
#X msg 535 95 draw line;
#X msg 535 116 draw fill;
#X msg 535 138 draw point;
#X obj 593 54 gemhead;
#X floatatom 626 130 5 0 0 2 size - - 0;
#X text 64 191 default:1;
#X text 27 247 Inlet 1: message: draw [line|fill|point|default];
#X obj 588 8 declare -lib Gem;
#X obj 541 245 _gemwin;
#X obj 141 447 loadbang;
#X msg 90 418 text \$1;
#X floatatom 91 399 5 0 0 0 - - - 0;
#X obj 379 442 loadbang;
#X msg 328 413 text \$1;
#X floatatom 329 394 5 0 0 0 - - - 0;
#X obj 129 676 loadbang;
#X msg 78 647 text \$1;
#X floatatom 79 628 5 0 0 0 - - - 0;
#X floatatom 739 385 5 0 0 0 - - - 0;
#X msg 262 503 4;
#X obj 205 504 loadbang;
#X obj 355 655 loadbang;
#X msg 304 626 text \$1;
#X floatatom 305 607 4 0 0 0 - - - 0;
#X obj 608 875 loadbang;
#X msg 557 846 text \$1;
#X floatatom 558 827 5 0 0 0 - - - 0;
#X obj 842 876 loadbang;
#X msg 791 847 text \$1;
#X floatatom 792 828 5 0 0 0 - - - 0;
#X floatatom 489 941 5 0 0 0 - - - 0;
#X obj 419 712 loadbang;
#X msg 355 677 font vera.ttf;
#X msg 608 897 font vera.ttf;
#X msg 842 898 font vera.ttf;
#X msg 129 698 font vera.ttf;
#X msg 379 464 font vera.ttf;
#X msg 141 469 font vera.ttf;
#X obj 90 379 r a;
#X obj 328 374 r b;
#X obj 78 608 r c;
#X obj 304 587 r d, f 4;
#X obj 557 807 r e;
#X obj 791 808 r f;
#X obj 35 517 translateXYZ -1 0 0;
#X obj 249 446 translateXYZ 1 0 0;
#X obj 70 746 translateXYZ -1 -2 0;
#X floatatom 480 365 5 0 0 0 - - - 0;
#X floatatom 466 629 5 0 0 0 - - - 0;
#X obj 249 725 translateXYZ -1 2 0;
#X obj 499 888 translateXYZ 1 -2 0;
#X obj 783 946 translateXYZ 1 2 0;
#X obj 751 189 r thirdorder;
#X obj 610 455 r firstorder;
#X obj 841 457 r secondorder;
#X obj 806 211 r fourthorder;
#X obj 823 233 r fifthorder;
#X obj 763 246 r sixthorder;
#X obj 669 508 loadbang;
#X msg 618 479 text \$1;
#X msg 669 530 font vera.ttf;
#X obj 892 515 loadbang;
#X obj 800 540 gemhead;
#X msg 841 486 text \$1;
#X msg 892 537 font vera.ttf;
#X obj 1110 506 loadbang;
#X obj 1018 531 gemhead;
#X msg 1059 477 text \$1;
#X msg 1110 528 font vera.ttf;
#X obj 1333 513 loadbang;
#X obj 1241 538 gemhead;
#X msg 1282 484 text \$1;
#X msg 1333 535 font vera.ttf;
#X obj 1203 517 translateXYZ 3 0 0;
#X obj 1051 453 r thirdorder;
#X obj 1282 455 r fourthorder;
#X obj 539 512 translateXYZ 3 3 0;
#X obj 762 519 translateXYZ 3 2 0;
#X obj 980 510 translateXYZ 3 1 0;
#X obj 1111 698 loadbang;
#X obj 1019 723 gemhead;
#X msg 1060 669 text \$1;
#X msg 1111 720 font vera.ttf;
#X obj 1334 705 loadbang;
#X obj 1242 730 gemhead;
#X msg 1283 676 text \$1;
#X msg 1334 727 font vera.ttf;
#X obj 1052 645 r fifthorder;
#X obj 1283 647 r sixthorder;
#X obj 981 702 translateXYZ 3 -1 0;
#X obj 1204 709 translateXYZ 3 -2 0;
#X obj 593 159 rectangle 2.2 3.2;
#X obj 724 71 loadbang;
#X obj 623 553 text3d 0;
#X obj 846 560 text3d 0;
#X obj 1064 551 text3d 0;
#X obj 1287 558 text3d 0;
#X obj 1065 743 text3d 0;
#X obj 1288 750 text3d 0;
#X obj 118 548 text3d 0;
#X obj 333 487 text3d 0;
#X obj 83 721 text3d 0;
#X obj 332 756 text3d 0;
#X obj 562 920 text3d 0;
#X obj 796 921 text3d 0;
#X msg 438 920 7;
#X obj 168 1068 gemhead;
#X obj 166 1089 translateXYZ 3 -3.2 0;
#X obj 141 1112 color 1 0 0;
#X msg 100 1088 draw line;
#X obj 108 1059 loadbang;
#X obj 405 1062 gemhead;
#X obj 403 1083 translateXYZ 3 -3.2 0;
#X obj 345 1053 loadbang;
#X obj 211 857 r steppy;
#X obj 217 886 sel 0 2 4 6 8 10 12 14;
#X msg 497 1116;
#X msg 573 1107 draw points;
#X obj 503 1029 change;
#X floatatom 553 1030 5 0 0 0 - - - 0;
#X obj 618 1032 t b;
#X obj 620 1054 int;
#X obj 648 1055 + 1;
#X msg 730 1060 0;
#X floatatom 621 1082 5 0 0 0 - - - 0;
#X obj 686 1056 sel 2;
#X obj 667 1087 sel 0 1;
#X msg 664 1109 draw fill;
#X obj 502 1006 r r;
#X msg 210 1036 0 1 0;
#X msg 261 1038 1 0 0;
#X obj 378 1134 circle 0.1;
#X obj 378 1106 color 0 0 1;
#X obj 49 472 gemhead -1;
#X obj 37 701 gemhead -1;
#X obj 287 467 gemhead -1;
#X obj 515 865 gemhead -1;
#X obj 750 901 gemhead -1;
#X obj 577 533 gemhead -1;
#X obj 263 680 gemhead -1;
#X obj 1105 953 loadbang;
#X msg 1054 924 text \$1;
#X msg 1105 975 font vera.ttf;
#X obj 1013 978 gemhead -1;
#X obj 1059 998 text3d 100 bpm;
#X msg 981 1004 3;
#X floatatom 1193 932 5 0 0 0 - - - 0;
#X obj 141 1132 circle 0.44;
#X obj 965 962 loadbang;
#X obj 1046 1023 translateXYZ 3 -3.15 0;
#X connect 18 0 109 0;
#X connect 19 0 109 0;
#X connect 20 0 109 0;
#X connect 21 0 109 0;
#X connect 22 0 109 1;
#X connect 27 0 55 0;
#X connect 28 0 117 0;
#X connect 29 0 28 0;
#X connect 30 0 54 0;
#X connect 31 0 118 0;
#X connect 32 0 31 0;
#X connect 33 0 53 0;
#X connect 34 0 119 0;
#X connect 35 0 34 0;
#X connect 36 0 111 1;
#X connect 36 0 112 1;
#X connect 36 0 113 1;
#X connect 36 0 114 1;
#X connect 36 0 115 1;
#X connect 36 0 116 1;
#X connect 36 0 117 1;
#X connect 36 0 118 1;
#X connect 36 0 119 1;
#X connect 37 0 36 0;
#X connect 38 0 37 0;
#X connect 39 0 50 0;
#X connect 40 0 120 0;
#X connect 41 0 40 0;
#X connect 42 0 51 0;
#X connect 43 0 121 0;
#X connect 44 0 43 0;
#X connect 45 0 52 0;
#X connect 46 0 122 0;
#X connect 47 0 46 0;
#X connect 48 0 36 0;
#X connect 48 0 120 1;
#X connect 48 0 121 1;
#X connect 48 0 122 1;
#X connect 49 0 123 0;
#X connect 50 0 120 0;
#X connect 51 0 121 0;
#X connect 52 0 122 0;
#X connect 53 0 119 0;
#X connect 54 0 118 0;
#X connect 55 0 117 0;
#X connect 56 0 29 0;
#X connect 57 0 32 0;
#X connect 58 0 35 0;
#X connect 59 0 41 0;
#X connect 60 0 44 0;
#X connect 61 0 47 0;
#X connect 62 0 117 0;
#X connect 63 0 118 0;
#X connect 64 0 119 0;
#X connect 65 0 63 2;
#X connect 66 0 67 2;
#X connect 67 0 120 0;
#X connect 68 0 121 0;
#X connect 69 0 122 0;
#X connect 71 0 77 0;
#X connect 72 0 81 0;
#X connect 76 0 78 0;
#X connect 77 0 111 0;
#X connect 78 0 111 0;
#X connect 79 0 82 0;
#X connect 80 0 95 0;
#X connect 81 0 112 0;
#X connect 82 0 112 0;
#X connect 83 0 86 0;
#X connect 84 0 96 0;
#X connect 85 0 113 0;
#X connect 86 0 113 0;
#X connect 87 0 90 0;
#X connect 88 0 91 0;
#X connect 89 0 114 0;
#X connect 90 0 114 0;
#X connect 91 0 114 0;
#X connect 92 0 85 0;
#X connect 93 0 89 0;
#X connect 94 0 111 0;
#X connect 95 0 112 0;
#X connect 96 0 113 0;
#X connect 97 0 100 0;
#X connect 98 0 107 0;
#X connect 99 0 115 0;
#X connect 100 0 115 0;
#X connect 101 0 104 0;
#X connect 102 0 108 0;
#X connect 103 0 116 0;
#X connect 104 0 116 0;
#X connect 105 0 99 0;
#X connect 106 0 103 0;
#X connect 107 0 115 0;
#X connect 108 0 116 0;
#X connect 110 0 18 0;
#X connect 123 0 48 0;
#X connect 124 0 125 0;
#X connect 125 0 126 0;
#X connect 126 0 165 0;
#X connect 127 0 165 0;
#X connect 128 0 127 0;
#X connect 129 0 130 0;
#X connect 130 0 150 0;
#X connect 131 0 135 0;
#X connect 132 0 133 0;
#X connect 133 0 147 0;
#X connect 133 1 147 0;
#X connect 133 2 147 0;
#X connect 133 3 147 0;
#X connect 133 4 147 0;
#X connect 133 5 147 0;
#X connect 133 6 147 0;
#X connect 133 7 147 0;
#X connect 133 8 148 0;
#X connect 135 0 149 0;
#X connect 136 0 137 0;
#X connect 137 0 138 0;
#X connect 138 0 139 0;
#X connect 139 0 140 0;
#X connect 139 0 142 0;
#X connect 139 0 143 0;
#X connect 140 0 139 1;
#X connect 141 0 139 0;
#X connect 142 0 144 0;
#X connect 143 0 141 0;
#X connect 144 0 135 0;
#X connect 144 1 145 0;
#X connect 145 0 149 0;
#X connect 146 0 136 0;
#X connect 147 0 126 1;
#X connect 148 0 126 1;
#X connect 151 0 62 0;
#X connect 152 0 64 0;
#X connect 153 0 63 0;
#X connect 154 0 68 0;
#X connect 155 0 69 0;
#X connect 156 0 94 0;
#X connect 157 0 67 0;
#X connect 158 0 160 0;
#X connect 159 0 162 0;
#X connect 160 0 162 0;
#X connect 161 0 167 0;
#X connect 163 0 162 1;
#X connect 164 0 167 2;
#X connect 166 0 163 0;
#X connect 167 0 162 0;
