#N canvas 53 369 1376 708 10;
#X obj 358 393 *~;
#X obj 259 390 *~;
#X obj 160 393 *~;
#X obj 456 393 *~;
#X obj 517 33 int;
#X obj 517 50 change;
#X floatatom 518 70 5 0 0 0 - - - 0;
#X obj 184 390 r one;
#X obj 285 390 r two;
#X obj 386 390 r three;
#X obj 482 390 r four;
#X obj 482 415 tgl 15 0 empty empty empty 17 7 0 10 #fcfcfc #000000 #000000 0 1;
#X obj 386 413 tgl 15 0 empty empty empty 17 7 0 10 #fcfcfc #000000 #000000 0 1;
#X obj 285 413 tgl 15 0 empty empty empty 17 7 0 10 #fcfcfc #000000 #000000 0 1;
#X obj 189 413 tgl 15 0 empty empty empty 17 7 0 10 #fcfcfc #000000 #000000 0 1;
#X obj 591 259 bng 15 250 50 0 empty empty empty 17 7 0 10 #fcfcfc #000000 #000000;
#X obj 1037 392 readsf~ 2;
#X obj 1048 496 dac~;
#X obj 785 390 *~;
#X obj 686 393 *~;
#X obj 591 386 *~;
#X obj 900 393 *~;
#X obj 921 418 tgl 15 0 empty empty empty 17 7 0 10 #fcfcfc #000000 #000000 0 1;
#X obj 797 417 tgl 15 0 empty empty empty 17 7 0 10 #fcfcfc #000000 #000000 0 1;
#X obj 716 418 tgl 15 0 empty empty empty 17 7 0 10 #fcfcfc #000000 #000000 0 1;
#X obj 610 415 tgl 15 0 empty empty empty 17 7 0 10 #fcfcfc #000000 #000000 0 1;
#X obj 612 390 r five;
#X obj 714 390 r six;
#X obj 814 390 r seven;
#X obj 921 390 r eight;
#X msg 604 128 \; one 0 \; two 0 \; three 0 \; four 0 \; five 1 \; six 0 \; seven 0 \; eight 0 \;;
#X msg 517 133 \; one 0 \; two 0 \; three 0 \; four 1 \; five 0 \; six 0 \; seven 0 \; eight 0 \;;
#X msg 459 128 \; one 0 \; two 0 \; three 1 \; four 0 \; five 0 \; six 0 \; seven 0 \; eight 0 \;;
#X msg 385 128 \; one 0 \; two 1 \; three 0 \; four 0 \; five 0 \; six 0 \; seven 0 \; eight 0 \;;
#X msg 316 128 \; one 1 \; two 0 \; three 0 \; four 0 \; five 0 \; six 0 \; seven 0 \; eight 0 \;;
#X msg 679 128 \; one 0 \; two 0 \; three 0 \; four 0 \; five 0 \; six 1 \; seven 0 \; eight 0 \;;
#X msg 763 128 \; one 0 \; two 0 \; three 0 \; four 0 \; five 0 \; six 0 \; seven 1 \; eight 0 \;;
#X msg 834 128 \; one 0 \; two 0 \; three 0 \; four 0 \; five 0 \; six 0 \; seven 0 \; eight 1 \;;
#X msg 92 49 tempo \$1;
#X msg -94 49 resolution \$1;
#X msg 2 49 reset \$1 \$2;
#X obj 2 28 pack f f;
#X floatatom 156 177 5 0 0 1 beat_time - - 0;
#X floatatom 128 198 5 0 0 1 phase - - 0;
#X floatatom 101 226 5 0 0 1 step - - 0;
#X floatatom 184 155 5 0 0 1 tempo - - 0;
#X obj -237 29 tgl 15 0 empty empty empty 17 7 0 10 #fcfcfc #000000 #000000 0 1;
#X floatatom 94 6 5 0 0 2 tempo - - 0;
#X floatatom 47 9 5 0 0 2 quantum - - 0;
#X floatatom 2 9 5 0 0 2 beat - - 0;
#X floatatom -94 29 5 0 0 2 resolution - - 0;
#X msg -237 50 connect \$1;
#X floatatom 135 267 5 0 0 0 - - - 0;
#X obj 135 245 r #abl_link_num_peers;
#X floatatom 212 136 5 0 0 1 is_playing - - 0;
#X obj -154 29 tgl 15 0 empty empty empty 17 7 0 10 #fcfcfc #000000 #000000 0 1;
#X msg -154 49 play \$1;
#X floatatom 162 30 5 0 0 0 - - - 0;
#X msg 162 49 offset \$1;
#X obj 95 275 sel 0;
#X obj -186 159 hsl 128 15 0 127 0 0 empty empty empty -2 -8 0 10 #fcfcfc #000000 #000000 0 1;
#X obj -185 187 float;
#X obj -42 206 change;
#X obj -181 206 hsl 128 15 0 127 0 0 empty empty empty -2 -8 0 10 #fcfcfc #000000 #000000 0 1;
#X obj -46 232 t b;
#X obj -32 166 int;
#X floatatom -32 184 5 0 0 0 - - - 0;
#X obj -179 232 / 127;
#X obj -178 254 * 8;
#X obj -382 485 *~;
#X obj -384 420 *~;
#X obj -336 355 mod 8;
#X floatatom -335 374 5 0 0 0 - - - 0;
#X floatatom -409 328 5 0 0 0 - - - 0;
#X obj -335 392 sel 0 5;
#X msg 37 37 0;
#X msg -306 419 0;
#X obj -327 449 tgl 15 0 empty empty empty 17 7 0 10 #fcfcfc #000000 #000000 0 1;
#X obj -268 483 *~;
#X obj -270 418 *~;
#X floatatom -221 372 5 0 0 0 - - - 0;
#X msg -192 417 0;
#X obj -213 447 tgl 15 0 empty empty empty 17 7 0 10 #fcfcfc #000000 #000000 0 1;
#X obj -221 390 sel 0 3;
#X obj -222 353 mod 4;
#X obj -196 518 *~;
#X obj -157 494 *~;
#X floatatom -120 362 5 0 0 0 - - - 0;
#X msg -91 407 0;
#X obj -112 437 tgl 15 0 empty empty empty 17 7 0 10 #fcfcfc #000000 #000000 0 1;
#X obj -78 480 *~;
#X obj -49 405 *~;
#X floatatom 0 359 5 0 0 0 - - - 0;
#X msg 29 404 0;
#X obj 5 425 tgl 15 0 empty empty empty 17 7 0 10 #fcfcfc #000000 #000000 0 1;
#X obj 0 377 sel 0 2;
#X obj -4 317 * 0.5;
#X obj 20 625 *~;
#X obj 18 560 *~;
#X floatatom 67 514 5 0 0 0 - - - 0;
#X msg 96 559 0;
#X obj 75 589 tgl 15 0 empty empty empty 17 7 0 10 #fcfcfc #000000 #000000 0 1;
#X obj 84 395 int;
#X obj 79 417 change;
#X obj 67 532 sel 0 1;
#X obj 76 366 * 16;
#X obj 66 495 mod 2;
#X obj 146 622 *~;
#X obj 144 557 *~;
#X floatatom 193 511 5 0 0 0 - - - 0;
#X msg 222 556 0;
#X obj 201 577 tgl 15 0 empty empty empty 17 7 0 10 #fcfcfc #000000 #000000 0 1;
#X obj 193 529 sel 0 1;
#X obj 192 492 mod 4;
#X obj 256 724 *~;
#X obj 254 659 *~;
#X floatatom 303 613 5 0 0 0 - - - 0;
#X msg 332 658 0;
#X obj 311 688 tgl 15 0 empty empty empty 17 7 0 10 #fcfcfc #000000 #000000 0 1;
#X obj 302 594 mod 2;
#X obj 303 631 sel 0 1;
#X obj -362 267 mtof;
#X obj -316 277 line;
#X msg -271 256 100;
#X obj -401 134 vsl 15 128 300 1000 0 0 empty empty empty 0 -9 0 10 #fcfcfc #000000 #000000 0 1;
#X obj -317 157 / 127;
#X obj -386 395 noise~;
#X obj -258 379 noise~;
#X obj -171 383 noise~;
#X obj -51 380 noise~;
#X obj 142 532 noise~;
#X obj 16 535 noise~;
#X obj 252 634 noise~;
#X obj 5 912 bob~, f 15;
#X text -140 983 input monitor;
#N canvas 567 141 764 657 (subpatch) 0;
#X floatatom 110 127 5 0 150 0 - - - 0;
#X obj 177 147 mtof;
#X obj 111 185 line~;
#X floatatom 109 153 7 0 0 0 - - - 0;
#X obj 110 36 loadbang;
#X obj 113 105 hsl 100 15 35 125 0 0 empty empty empty -2 -8 0 10 #fcfcfc #000000 #000000 0 1;
#X text 364 256 MIDI;
#X text 302 242 Hz;
#X obj 109 202 outlet~;
#X text 323 115 cutoff frequency;
#X text 341 98 resonant or, f 13;
#X obj 23 81 / 127;
#X obj 16 26 r d;
#X obj 42 46 no ctlin 5 1;
#X obj 151 128 + 0;
#X obj 110 171 pack 0 400;
#X msg 110 61 117;
#X obj 14 101 * 5;
#X obj 42 113 + 113;
#X connect 0 0 1 0;
#X connect 1 0 3 0;
#X connect 2 0 8 0;
#X connect 3 0 15 0;
#X connect 4 0 16 0;
#X connect 5 0 14 0;
#X connect 11 0 17 0;
#X connect 12 0 11 0;
#X connect 13 0 11 0;
#X connect 14 0 0 0;
#X connect 15 0 2 0;
#X connect 16 0 5 0;
#X connect 17 0 18 0;
#X connect 18 0 5 0;
#X coords 0 -1 1 1 128 121 2 100 100;
#X restore 40 770 pd;
#N canvas 446 160 500 456 (subpatch) 0;
#X obj 114 43 loadbang;
#X obj 117 132 hsl 100 15 0 8 0 0 empty empty empty -2 -8 0 10 #fcfcfc #000000 #000000 0 1;
#X floatatom 114 156 5 0 8 0 - - - 0;
#X obj 115 176 sig~;
#X text 147 158 (0-8);
#X text 327 323 "resonance";
#X text 241 306 (> 4 to oscillate);
#X obj 114 317 outlet~;
#X msg 114 71 2.6;
#X obj 321 160 hsl 100 15 0 8 0 0 empty empty empty -2 -8 0 10 #fcfcfc #000000 #000000 0 1;
#X obj 296 78 / 127;
#X obj 302 108 * 3;
#X obj 307 134 + 1;
#X obj 361 73 * -1;
#X obj 369 96 + 127;
#X obj 113 110 r e;
#X obj 285 50 ctno lin 4 1;
#X connect 0 0 8 0;
#X connect 1 0 2 0;
#X connect 2 0 3 0;
#X connect 3 0 7 0;
#X connect 8 0 1 0;
#X connect 9 0 1 0;
#X connect 10 0 9 0;
#X connect 11 0 12 0;
#X connect 13 0 14 0;
#X connect 14 0 10 0;
#X connect 15 0 13 0;
#X connect 16 0 13 0;
#X coords 0 -1 1 1 140 100 2 100 100;
#X restore 175 791 pd;
#X obj 165 921 r \$0-parameters;
#X obj -134 671 *~ 1;
#X obj -70 624 *~;
#X obj -82 583 *~;
#X floatatom -51 517 5 0 0 0 - - - 0;
#X msg -22 562 0;
#X obj -43 592 tgl 15 0 empty empty empty 17 7 0 10 #fcfcfc #000000 #000000 0 1;
#X obj -102 538 noise~;
#X obj -45 498 mod 2;
#X obj -51 535 sel 0 1;
#X obj -146 864 *~ 1;
#X obj -257 217 \$1 \$1;
#X msg 425 282 4;
#X obj -314 211 + 200;
#X obj -260 902 phasor~;
#X obj 101 114 abl_link~ 1 0 16 96;
#X floatatom 377 301 5 0 0 0 - - - 0;
#X obj 444 329 sel 0;
#X obj 379 280 mod 4;
#X obj 161 82 * 1;
#X obj -1 340 mod 4;
#X obj -120 380 sel 0 1;
#X obj -121 343 mod 2;
#X msg 280 -12 \; one 0 \; two 0 \; three 0 \; four 0 \; five 0 \; six 0 \; seven 0 \; eight 0 \;;
#X obj -19 141 * 16;
#X obj 157 994 sig~;
#X floatatom 157 963 5 0 0 0 - - - 0;
#X floatatom 191 1024 5 0 0 0 - - - 0;
#X text 203 980 resonant frequency in Hz;
#X msg 204 997 2;
#X msg 221 958;
#X msg 92 963 2000;
#X obj 45 930 loadbang;
#X obj 46 995 hip~ 5;
#X obj 634 10 sel 4 2 1 3 5 8 7 6;
#X obj 635 30 sel 5 3 1 2 4 6 8 7;
#X obj -308 183 * 800;
#X obj 634 52 sel 7 4 3 6 5 2 1 8;
#X obj -18 848 hip~ 5;
#N canvas 63 88 767 546 buzz 0;
#X obj 257 361 +~;
#X obj 132 112 *~ 1024;
#X obj 257 160 tabread4~ \$0-cos;
#X obj 131 350 tabread4~ \$0-sin;
#X obj 132 421 /~;
#X obj 132 132 +~ 1;
#X obj 480 250 *~ 1024;
#X obj 480 278 +~ 1;
#X obj 410 311 tabread4~ \$0-1+a2;
#X obj 544 310 tabread4~ \$0-norm;
#X obj 133 444 *~;
#X obj 380 258 *~ -2;
#X obj 257 311 *~;
#X obj 134 473 outlet~;
#X obj 379 45 inlet~;
#X obj 489 66 table \$0-1+a2 1027;
#X obj 489 85 table \$0-norm 1027;
#X text 133 503 out = sqrt[(1-a^2)(1+a^2)] * [sin(x) / (1+a^2 - 2a*cos(x))];
#X obj 489 105 table \$0-cos 1027;
#X obj 489 127 table \$0-sin 1027;
#N canvas 436 142 729 607 init-tables 0;
#X obj 125 75 until;
#X obj 125 104 f 0;
#X obj 153 105 + 1;
#X obj 125 53 t a b;
#X obj 125 150 / 1024;
#X obj 125 127 t a a;
#X obj 343 417 tabwrite \$0-1+a2;
#X obj 125 12 loadbang;
#X obj 547 122 s \$0-cos;
#X obj 509 175 s \$0-sin;
#X msg 509 148 sinesum 1024 1;
#X msg 547 97 cosinesum 1024 0 1;
#X obj 509 67 loadbang;
#X obj 124 412 tabwrite \$0-norm;
#X msg 125 33 1027;
#X text 106 499 writes f(a) = 1+a^2 rsp. normalization into tables;
#X obj 124 330 sqrt;
#X obj 125 214 *;
#X obj 179 272 + 1;
#X obj 125 241 t a a;
#X obj 125 267 swap 1;
#X obj 125 290 -;
#X obj 125 310 /;
#X obj 125 193 t a a;
#X text 107 434 sqrt((1-$f1*$f1)/(1+$f1*$f1));
#X text 341 434 1+$f1*$f1;
#X msg 164 75 0;
#X obj 452 361 + 0;
#X connect 0 0 1 0;
#X connect 1 0 2 0;
#X connect 1 0 5 0;
#X connect 2 0 1 1;
#X connect 3 0 0 0;
#X connect 3 1 26 0;
#X connect 4 0 23 0;
#X connect 5 0 4 0;
#X connect 5 1 27 0;
#X connect 7 0 14 0;
#X connect 10 0 9 0;
#X connect 11 0 8 0;
#X connect 12 0 11 0;
#X connect 12 0 10 0;
#X connect 14 0 3 0;
#X connect 16 0 13 0;
#X connect 17 0 19 0;
#X connect 18 0 22 1;
#X connect 18 0 6 0;
#X connect 19 0 20 0;
#X connect 19 1 18 0;
#X connect 20 0 21 0;
#X connect 20 1 21 1;
#X connect 21 0 22 0;
#X connect 22 0 16 0;
#X connect 23 0 17 0;
#X connect 23 1 17 1;
#X connect 26 0 1 1;
#X connect 27 0 6 1;
#X connect 27 0 13 1;
#X restore 489 45 pd init-tables;
#X text 131 550 cf: James A. Moorer: "Synthesis of Complex Audio Spectra" and Dodge/Jerse: "Computer Music" page 163f;
#X obj 132 89 phasor~ \$1;
#X obj 132 46 inlet;
#N canvas 228 198 627 317 LICENSE-BSD 0;
#X text 121 56 This software is copyrighted by Miller Puckette \, Reality Jockey Ltd. and others. The terms (the "Standard Improved BSD License") apply to all files associated with the software unless explicitly disclaimed in individual files.;
#X text 123 148 See the file LICENSE.txt for the full license text.;
#X restore 633 30 pd LICENSE-BSD;
#X connect 0 0 4 1;
#X connect 1 0 5 0;
#X connect 2 0 12 0;
#X connect 3 0 4 0;
#X connect 4 0 10 0;
#X connect 5 0 2 0;
#X connect 5 0 3 0;
#X connect 6 0 7 0;
#X connect 7 0 8 0;
#X connect 7 0 9 0;
#X connect 8 0 0 1;
#X connect 9 0 10 1;
#X connect 10 0 13 0;
#X connect 11 0 12 1;
#X connect 12 0 0 0;
#X connect 14 0 6 0;
#X connect 14 0 11 0;
#X connect 22 0 1 0;
#X connect 23 0 22 0;
#X restore -387 1083 pd buzz;
#X floatatom -393 845 5 0 0 0 - - - 0;
#X obj -324 962 hsl 128 15 0 0.9 0 0 empty empty empty -2 -8 0 10 #fcfcfc #000000 #000000 0 1;
#X obj -327 992 moses 1;
#X text -331 943 Harmonicity-Env;
#X obj -358 1060 line~;
#X obj -358 1036 pack 0 100;
#X obj -365 917 line;
#X obj -186 1060 / 127;
#X obj -183 916 hip~ 400;
#X obj -51 892 bp~;
#X floatatom 470 884 7 0 0 0 - - - 0;
#X msg 435 904 clear;
#X floatatom 504 911 5 1 50 0 - - - 0;
#X obj 437 944 hip~ 1600 1;
#X obj 6 1033 s~ b;
#X obj 560 1088 *~ 1;
#X floatatom 593 1088 6 0 0 0 - - - 0;
#X obj 555 1156 clip~ -1 1;
#X obj 555 1220 *~ 1;
#X obj 555 1134 *~ 1000;
#X obj 622 1174 dbtorms;
#X obj 622 1154 env~;
#X obj 622 1194 * 1.4142;
#X obj 556 1252 clip~ -0.707 0.707;
#X text 671 1131 1 to 20000;
#N canvas 538 131 366 245 Initial values 0;
#X obj 20 45 \$0;
#X obj 20 17 loadbang;
#X msg 20 73 \; \$1-hsl-rcv)pre 1 \; \$1-hsl-rcv)distortionamount 20000;
#X connect 0 0 2 0;
#X connect 1 0 0 0;
#X restore 604 1224 pd Initial values;
#X msg 712 958 \; pd dsp 0;
#X msg 782 958 \; pd dsp 1;
#X obj 560 964 r~ b;
#X obj -357 808 line;
#X obj -357 784 pack 0 400;
#X obj -362 12 vsl 15 128 0 127 0 0 empty empty empty 0 -9 0 10 #fcfcfc #000000 #000000 0 1;
#X obj -337 18 / 127;
#X obj -339 37 * 4;
#X obj -335 65 int;
#X obj 27 -33 sel 0 1 2 3 4;
#X floatatom -308 66 5 0 0 0 - - - 0;
#X msg 56 131 24;
#X obj -271 -20 tgl 15 0 empty empty empty 17 7 0 10 #fcfcfc #000000 #000000 0 1;
#X obj -279 6 sel 0 1;
#X msg -225 -14 24;
#X msg -286 34 16;
#X msg -335 415 0.5;
#X msg -221 413 0.5;
#X msg -120 403 0.5;
#X msg 0 400 0.5;
#X msg -51 558 0.5;
#X msg 67 555 0.5;
#X msg 193 552 0.5;
#X msg 303 654 0.5;
#X obj 187 309 sel 0 4 8 12;
#X obj 200 338 random 2;
#X obj -201 1262 *~ 1;
#X msg 34 149 16;
#X msg 35 113 16;
#X msg 35 189 8;
#X obj 636 76 sel 1 2 3 4 5 6 7 8;
#X obj 631 -17 sel 8 7 6 5 4 3 2 1;
#X obj -40 1175 notein;
#X obj -33 1199 sel 63;
#X obj -33 1226 tgl 15 0 empty empty empty 17 7 0 10 #fcfcfc #000000 #000000 0 1;
#X msg 67 169 8;
#X obj 952 -9 sel 7 4 3 6 5 2 1 8;
#X obj -408 -21 r a;
#X obj -400 106 r b;
#X obj -235 143 r c;
#X obj -323 125 no ctlin 4 1;
#X obj -189 128 no ctlin 1 1;
#X obj -341 -18 no ctlin 4 1;
#X obj 221 204 s rando;
#X obj 176 217 t b;
#X msg -308 842 800;
#X obj 300 304 * 2;
#X obj 300 322 int;
#X floatatom 302 351 5 0 0 0 - - - 0;
#X obj 397 354 s dubbang;
#X obj 376 332 change;
#X obj 370 356 t b;
#X obj -194 985 r f;
#X obj -187 1039 no ctlin 2 1;
#X obj -181 1115 line;
#X obj -208 1091 pack 0 400;
#X obj -365 893 pack 0 400;
#X obj 701 876 r d;
#X obj 645 1041 / 127;
#X obj 685 985 vsl 16 136 0 127 0 0 empty empty empty 0 -9 0 10 #fcfcfc #000000 #000000 0 1;
#X obj 718 924 line;
#X obj 695 898 pack \$1 400;
#N canvas 469 494 450 300 buzz 0;
#X obj 257 361 +~;
#X obj 132 112 *~ 1024;
#X obj 257 160 tabread4~ \$0-cos;
#X obj 131 350 tabread4~ \$0-sin;
#X obj 132 421 /~;
#X obj 132 132 +~ 1;
#X obj 480 250 *~ 1024;
#X obj 480 278 +~ 1;
#X obj 410 311 tabread4~ \$0-1+a2;
#X obj 544 310 tabread4~ \$0-norm;
#X obj 133 444 *~;
#X obj 380 258 *~ -2;
#X obj 257 311 *~;
#X obj 134 473 outlet~;
#X obj 379 45 inlet~;
#X obj 489 66 table \$0-1+a2 1027;
#X obj 489 85 table \$0-norm 1027;
#X text 133 503 out = sqrt[(1-a^2)(1+a^2)] * [sin(x) / (1+a^2 - 2a*cos(x))];
#X obj 489 105 table \$0-cos 1027;
#X obj 489 127 table \$0-sin 1027;
#N canvas 436 142 729 607 init-tables 0;
#X obj 125 75 until;
#X obj 125 104 f 0;
#X obj 153 105 + 1;
#X obj 125 53 t a b;
#X obj 125 150 / 1024;
#X obj 125 127 t a a;
#X obj 343 417 tabwrite \$0-1+a2;
#X obj 125 12 loadbang;
#X obj 547 122 s \$0-cos;
#X obj 509 175 s \$0-sin;
#X msg 509 148 sinesum 1024 1;
#X msg 547 97 cosinesum 1024 0 1;
#X obj 509 67 loadbang;
#X obj 124 412 tabwrite \$0-norm;
#X msg 125 33 1027;
#X text 106 499 writes f(a) = 1+a^2 rsp. normalization into tables;
#X obj 124 330 sqrt;
#X obj 125 214 *;
#X obj 179 272 + 1;
#X obj 125 241 t a a;
#X obj 125 267 swap 1;
#X obj 125 290 -;
#X obj 125 310 /;
#X obj 125 193 t a a;
#X text 107 434 sqrt((1-$f1*$f1)/(1+$f1*$f1));
#X text 341 434 1+$f1*$f1;
#X msg 164 75 0;
#X obj 452 361 + 0;
#X connect 0 0 1 0;
#X connect 1 0 2 0;
#X connect 1 0 5 0;
#X connect 2 0 1 1;
#X connect 3 0 0 0;
#X connect 3 1 26 0;
#X connect 4 0 23 0;
#X connect 5 0 4 0;
#X connect 5 1 27 0;
#X connect 7 0 14 0;
#X connect 10 0 9 0;
#X connect 11 0 8 0;
#X connect 12 0 11 0;
#X connect 12 0 10 0;
#X connect 14 0 3 0;
#X connect 16 0 13 0;
#X connect 17 0 19 0;
#X connect 18 0 22 1;
#X connect 18 0 6 0;
#X connect 19 0 20 0;
#X connect 19 1 18 0;
#X connect 20 0 21 0;
#X connect 20 1 21 1;
#X connect 21 0 22 0;
#X connect 22 0 16 0;
#X connect 23 0 17 0;
#X connect 23 1 17 1;
#X connect 26 0 1 1;
#X connect 27 0 6 1;
#X connect 27 0 13 1;
#X restore 489 45 pd init-tables;
#X text 131 550 cf: James A. Moorer: "Synthesis of Complex Audio Spectra" and Dodge/Jerse: "Computer Music" page 163f;
#X obj 132 89 phasor~ \$1;
#X obj 132 46 inlet;
#N canvas 228 198 627 317 LICENSE-BSD 0;
#X text 121 56 This software is copyrighted by Miller Puckette \, Reality Jockey Ltd. and others. The terms (the "Standard Improved BSD License") apply to all files associated with the software unless explicitly disclaimed in individual files.;
#X text 123 148 See the file LICENSE.txt for the full license text.;
#X restore 633 30 pd LICENSE-BSD;
#X connect 0 0 4 1;
#X connect 1 0 5 0;
#X connect 2 0 12 0;
#X connect 3 0 4 0;
#X connect 4 0 10 0;
#X connect 5 0 2 0;
#X connect 5 0 3 0;
#X connect 6 0 7 0;
#X connect 7 0 8 0;
#X connect 7 0 9 0;
#X connect 8 0 0 1;
#X connect 9 0 10 1;
#X connect 10 0 13 0;
#X connect 11 0 12 1;
#X connect 12 0 0 0;
#X connect 14 0 6 0;
#X connect 14 0 11 0;
#X connect 22 0 1 0;
#X connect 23 0 22 0;
#X restore -364 765 pd buzz;
#X obj -286 742 *~ 2;
#X msg 1245 278 open 8bars96.wav \, start;
#X obj -102 1143 bp~ 600;
#X obj 585 304 s res;
#X obj 517 301 sel 15;
#X msg 1197 236 open 96loopc.wav \, start;
#X msg 1085 281 open 96loopd.wav \, start;
#X floatatom -321 300 5 0 0 0 - - - 0;
#X obj 667 644 makenote 127 127;
#X obj 674 683 noteout 1;
#X obj 673 663 spigot;
#X obj 779 647 makenote 127 127;
#X obj 786 686 noteout 1;
#X obj 785 666 spigot;
#X obj 881 646 makenote 127 127;
#X obj 888 685 noteout 1;
#X obj 887 665 spigot;
#X obj 678 571 sel 0.5;
#X obj 790 574 sel 0.5;
#X obj 892 573 sel 0.5;
#X obj 533 788 makenote 127 127;
#X obj 540 827 noteout 1;
#X obj 539 807 spigot;
#X obj 645 791 makenote 127 127;
#X obj 652 830 noteout 1;
#X obj 651 810 spigot;
#X obj 747 790 makenote 127 127;
#X obj 754 829 noteout 1;
#X obj 753 809 spigot;
#X obj 545 730 sel 0.5;
#X obj 656 718 sel 0.5;
#X obj 758 717 sel 0.5;
#X obj 333 811 makenote 127 127;
#X obj 340 850 noteout 1;
#X obj 339 830 spigot;
#X obj 445 814 makenote 127 127;
#X obj 452 853 noteout 1;
#X obj 451 833 spigot;
#X obj 344 738 sel 0.5;
#X obj 456 741 sel 0.5;
#X msg 671 623 36;
#X msg 783 626 37;
#X msg 885 625 38;
#X msg 537 767 41;
#X msg 649 770 47;
#X msg 751 769 48;
#X msg 468 794 50;
#X obj 365 773 float;
#X msg 401 776 \$1;
#X obj 398 757 ftom;
#X obj 458 773 float;
#X msg 494 776 \$1;
#X obj 491 757 ftom;
#X obj -390 912 s pi;
#X obj 400 737 r pi;
#X obj 507 736 r pi;
#X obj 568 761 float;
#X msg 604 764 \$1;
#X obj 601 745 ftom;
#X obj 604 726 r pi;
#X obj 678 767 float;
#X msg 714 770 \$1;
#X obj 711 751 ftom;
#X obj 714 732 r pi;
#X obj 800 756 float;
#X msg 836 759 \$1;
#X obj 833 740 ftom;
#X obj 836 721 r pi;
#X obj 933 617 float;
#X msg 969 620 \$1;
#X obj 966 601 ftom;
#X obj 969 582 r pi;
#X obj 812 613 float;
#X msg 848 616 \$1;
#X obj 845 597 ftom;
#X obj 848 578 r pi;
#X obj 704 614 float;
#X msg 740 617 \$1;
#X obj 737 598 ftom;
#X obj 740 579 r pi;
#X obj -120 1176 dac~;
#X obj 1142 391 readsf~ 2;
#X obj 1144 496 dac~;
#X msg 1184 307 open 96loopd.wav \, start;
#X obj -167 -11 loadbang;
#X obj 1268 469 tgl 16 0 empty empty empty 0 -8 0 10 #fcfcfc #000000 #000000 0 1;
#X obj 1183 464 *~ 1;
#X obj 1146 464 *~ 1;
#X obj 1073 463 *~ 1;
#X obj 1036 463 *~ 1;
#X msg 142 -7 96;
#N canvas 0 25 450 300 (subpatch) 0;
#X array scratchoutput 441 float 4;
#X coords 0 1.02 440 -1.02 200 130 1;
#X restore 238 1111 graph;
#X obj 92 1167 tgl 16 0 empty empty empty 0 -8 0 10 #fcfcfc #000000 #000000 0 1;
#X obj 90 1193 metro 50;
#X obj 88 1225 tabwrite~ scratchoutput;
#X msg 632 1130 20000;
#X text 664 1143 dist amount;
#X msg 641 1090 1;
#X text 603 1070 pre amount;
#X text 559 945 scratch pre;
#X floatatom 649 956 5 0 0 0 - - - 0;
#X obj 1099 497 tgl 16 0 empty empty empty 0 -8 0 10 #fcfcfc #000000 #000000 0 1;
#X obj 1121 497 tgl 16 0 empty empty empty 0 -8 0 10 #fcfcfc #000000 #000000 0 1;
#X msg 1035 307 open 8bars96.wav \, start;
#X obj 1030 428 *~ 1.8;
#X obj 1074 426 *~ 1.8;
#X obj 1135 427 *~ 0.9;
#X obj 1179 425 *~ 0.9;
#X obj -108 1003 *~ 0.8;
#X obj -6 1230 * 0.8;
#X obj 837 29 select;
#X obj -377 296 - 200;
#X obj -264 291 r b;
#X obj 516 93 sel 8 7 6 5 4 3 2 1;
#X obj -235 323 * 1;
#X connect 4 0 5 0;
#X connect 5 0 6 0;
#X connect 6 0 379 0;
#X connect 7 0 2 1;
#X connect 7 0 14 0;
#X connect 8 0 1 1;
#X connect 8 0 13 0;
#X connect 9 0 0 1;
#X connect 9 0 12 0;
#X connect 10 0 3 1;
#X connect 10 0 11 0;
#X connect 11 0 90 1;
#X connect 11 0 291 1;
#X connect 12 0 139 1;
#X connect 13 0 78 1;
#X connect 13 0 303 1;
#X connect 14 0 69 1;
#X connect 14 0 300 1;
#X connect 15 0 369 0;
#X connect 15 0 349 0;
#X connect 16 0 370 0;
#X connect 16 1 371 0;
#X connect 16 2 369 0;
#X connect 22 0 97 1;
#X connect 22 0 282 1;
#X connect 23 0 85 1;
#X connect 23 0 279 1;
#X connect 24 0 114 1;
#X connect 24 0 276 1;
#X connect 25 0 107 1;
#X connect 25 0 294 1;
#X connect 26 0 20 1;
#X connect 26 0 25 0;
#X connect 27 0 19 1;
#X connect 27 0 24 0;
#X connect 28 0 18 1;
#X connect 28 0 23 0;
#X connect 29 0 21 1;
#X connect 29 0 22 0;
#X connect 38 0 152 0;
#X connect 39 0 152 0;
#X connect 40 0 152 0;
#X connect 41 0 40 0;
#X connect 43 0 105 0;
#X connect 43 0 161 0;
#X connect 43 0 249 0;
#X connect 44 0 59 0;
#X connect 44 0 155 0;
#X connect 44 0 227 0;
#X connect 44 0 270 0;
#X connect 46 0 51 0;
#X connect 47 0 156 0;
#X connect 48 0 41 1;
#X connect 49 0 41 0;
#X connect 50 0 39 0;
#X connect 51 0 152 0;
#X connect 53 0 52 0;
#X connect 55 0 56 0;
#X connect 56 0 152 0;
#X connect 57 0 58 0;
#X connect 58 0 152 0;
#X connect 59 0 15 0;
#X connect 60 0 61 1;
#X connect 61 0 63 0;
#X connect 62 0 64 0;
#X connect 62 0 71 0;
#X connect 62 0 84 0;
#X connect 62 0 96 0;
#X connect 62 0 159 0;
#X connect 63 0 67 0;
#X connect 64 0 61 0;
#X connect 65 0 66 0;
#X connect 66 0 62 0;
#X connect 67 0 68 0;
#X connect 68 0 4 0;
#X connect 69 0 138 0;
#X connect 70 0 69 0;
#X connect 71 0 72 0;
#X connect 72 0 74 0;
#X connect 73 0 177 0;
#X connect 74 0 219 0;
#X connect 74 1 76 0;
#X connect 76 0 77 0;
#X connect 77 0 70 1;
#X connect 77 0 304 0;
#X connect 78 0 138 0;
#X connect 79 0 78 0;
#X connect 80 0 83 0;
#X connect 81 0 82 0;
#X connect 82 0 79 1;
#X connect 82 0 305 0;
#X connect 83 0 220 0;
#X connect 83 1 81 0;
#X connect 84 0 80 0;
#X connect 85 0 138 0;
#X connect 86 0 85 0;
#X connect 87 0 158 0;
#X connect 88 0 89 0;
#X connect 89 0 86 1;
#X connect 89 0 284 0;
#X connect 90 0 138 0;
#X connect 91 0 90 0;
#X connect 92 0 95 0;
#X connect 93 0 94 0;
#X connect 94 0 91 1;
#X connect 94 0 296 0;
#X connect 95 0 222 0;
#X connect 95 1 93 0;
#X connect 96 0 145 0;
#X connect 96 0 157 0;
#X connect 97 0 138 0;
#X connect 98 0 97 0;
#X connect 99 0 104 0;
#X connect 100 0 101 0;
#X connect 101 0 98 1;
#X connect 101 0 285 0;
#X connect 102 0 103 0;
#X connect 103 0 106 0;
#X connect 103 0 113 0;
#X connect 103 0 119 0;
#X connect 104 0 224 0;
#X connect 104 1 100 0;
#X connect 105 0 102 0;
#X connect 106 0 99 0;
#X connect 107 0 138 0;
#X connect 108 0 107 0;
#X connect 109 0 112 0;
#X connect 110 0 111 0;
#X connect 111 0 108 1;
#X connect 111 0 297 0;
#X connect 112 0 225 0;
#X connect 112 1 110 0;
#X connect 113 0 109 0;
#X connect 114 0 138 0;
#X connect 115 0 114 0;
#X connect 116 0 120 0;
#X connect 117 0 118 0;
#X connect 118 0 115 1;
#X connect 118 0 283 0;
#X connect 119 0 116 0;
#X connect 120 0 226 0;
#X connect 120 1 117 0;
#X connect 122 0 124 0;
#X connect 123 0 148 1;
#X connect 124 0 377 0;
#X connect 125 0 173 0;
#X connect 126 0 70 0;
#X connect 127 0 79 0;
#X connect 128 0 86 0;
#X connect 129 0 91 0;
#X connect 130 0 108 0;
#X connect 131 0 98 0;
#X connect 132 0 115 0;
#X connect 133 0 170 0;
#X connect 135 0 133 1;
#X connect 136 0 133 2;
#X connect 137 0 133 0;
#X connect 138 0 175 0;
#X connect 139 0 138 0;
#X connect 140 0 139 0;
#X connect 141 0 146 0;
#X connect 142 0 143 0;
#X connect 143 0 140 1;
#X connect 143 0 295 0;
#X connect 144 0 140 0;
#X connect 145 0 141 0;
#X connect 146 0 223 0;
#X connect 146 1 142 0;
#X connect 147 0 140 0;
#X connect 147 0 98 0;
#X connect 147 0 108 0;
#X connect 147 0 115 0;
#X connect 147 0 86 0;
#X connect 147 0 79 0;
#X connect 147 0 70 0;
#X connect 148 0 122 0;
#X connect 149 0 155 1;
#X connect 150 0 148 0;
#X connect 151 0 229 0;
#X connect 152 0 44 0;
#X connect 152 1 43 0;
#X connect 152 2 42 0;
#X connect 152 3 45 0;
#X connect 153 0 246 0;
#X connect 155 0 153 0;
#X connect 155 0 154 0;
#X connect 156 0 38 0;
#X connect 157 0 92 0;
#X connect 158 0 221 0;
#X connect 158 1 88 0;
#X connect 159 0 87 0;
#X connect 161 0 65 0;
#X connect 163 0 162 0;
#X connect 166 0 164 0;
#X connect 168 0 163 0;
#X connect 169 0 168 0;
#X connect 169 0 166 0;
#X connect 170 0 374 0;
#X connect 173 0 150 0;
#X connect 175 0 190 0;
#X connect 176 0 191 0;
#X connect 177 0 259 0;
#X connect 178 0 179 0;
#X connect 179 0 182 0;
#X connect 181 0 176 1;
#X connect 182 0 181 0;
#X connect 183 0 176 0;
#X connect 183 0 151 0;
#X connect 183 0 265 0;
#X connect 183 0 319 0;
#X connect 184 0 258 0;
#X connect 185 0 70 0;
#X connect 185 0 79 0;
#X connect 185 0 86 0;
#X connect 185 0 91 0;
#X connect 185 0 98 0;
#X connect 185 0 108 0;
#X connect 185 0 115 0;
#X connect 185 0 140 0;
#X connect 187 0 190 1;
#X connect 188 0 190 0;
#X connect 190 0 133 0;
#X connect 192 0 196 0;
#X connect 192 0 198 0;
#X connect 194 0 195 0;
#X connect 195 0 200 0;
#X connect 196 0 194 0;
#X connect 197 0 199 0;
#X connect 198 0 197 0;
#X connect 199 0 195 1;
#X connect 200 0 229 0;
#X connect 205 0 192 0;
#X connect 207 0 206 0;
#X connect 208 0 209 0;
#X connect 209 0 210 0;
#X connect 210 0 211 0;
#X connect 211 0 213 0;
#X connect 212 0 232 0;
#X connect 212 1 238 0;
#X connect 212 2 230 0;
#X connect 212 3 214 0;
#X connect 212 4 231 0;
#X connect 213 0 212 0;
#X connect 214 0 161 1;
#X connect 216 0 218 0;
#X connect 216 1 217 0;
#X connect 217 0 161 1;
#X connect 218 0 161 1;
#X connect 219 0 77 0;
#X connect 220 0 82 0;
#X connect 221 0 89 0;
#X connect 222 0 94 0;
#X connect 223 0 143 0;
#X connect 224 0 101 0;
#X connect 225 0 111 0;
#X connect 226 0 118 0;
#X connect 227 0 228 0;
#X connect 227 1 228 0;
#X connect 227 2 228 0;
#X connect 227 3 228 0;
#X connect 228 0 215 0;
#X connect 229 0 185 0;
#X connect 230 0 161 1;
#X connect 231 0 161 1;
#X connect 232 0 161 1;
#X connect 235 0 236 0;
#X connect 236 0 237 0;
#X connect 237 0 375 0;
#X connect 238 0 161 1;
#X connect 240 0 208 0;
#X connect 241 0 125 0;
#X connect 242 0 60 0;
#X connect 243 0 125 0;
#X connect 244 0 60 0;
#X connect 245 0 208 0;
#X connect 248 0 259 1;
#X connect 249 0 250 0;
#X connect 250 0 251 0;
#X connect 250 0 253 0;
#X connect 253 0 254 0;
#X connect 254 0 252 0;
#X connect 255 0 184 0;
#X connect 256 0 184 0;
#X connect 257 0 178 0;
#X connect 258 0 257 0;
#X connect 259 0 183 0;
#X connect 260 0 264 0;
#X connect 262 0 261 0;
#X connect 263 0 366 0;
#X connect 264 0 263 0;
#X connect 266 0 115 0;
#X connect 266 0 108 0;
#X connect 266 0 98 0;
#X connect 266 0 140 0;
#X connect 266 0 91 0;
#X connect 266 0 86 0;
#X connect 266 0 70 0;
#X connect 266 0 79 0;
#X connect 268 0 346 0;
#X connect 268 0 346 1;
#X connect 268 0 360 0;
#X connect 270 0 269 0;
#X connect 273 0 377 1;
#X connect 274 0 276 0;
#X connect 274 1 275 1;
#X connect 276 0 275 0;
#X connect 277 0 279 0;
#X connect 277 1 278 1;
#X connect 279 0 278 0;
#X connect 280 0 282 0;
#X connect 280 1 281 1;
#X connect 282 0 281 0;
#X connect 283 0 342 0;
#X connect 284 0 338 0;
#X connect 285 0 334 0;
#X connect 286 0 288 0;
#X connect 286 1 287 1;
#X connect 288 0 287 0;
#X connect 289 0 291 0;
#X connect 289 1 290 1;
#X connect 291 0 290 0;
#X connect 292 0 294 0;
#X connect 292 1 293 1;
#X connect 294 0 293 0;
#X connect 295 0 322 0;
#X connect 296 0 326 0;
#X connect 297 0 330 0;
#X connect 298 0 300 0;
#X connect 298 1 299 1;
#X connect 300 0 299 0;
#X connect 301 0 303 0;
#X connect 301 1 302 1;
#X connect 303 0 302 0;
#X connect 304 0 313 0;
#X connect 305 0 316 0;
#X connect 306 0 274 0;
#X connect 307 0 277 0;
#X connect 308 0 280 0;
#X connect 309 0 286 0;
#X connect 310 0 289 0;
#X connect 311 0 292 0;
#X connect 312 0 301 0;
#X connect 313 0 298 0;
#X connect 314 0 313 1;
#X connect 315 0 314 0;
#X connect 316 0 301 0;
#X connect 317 0 316 1;
#X connect 318 0 317 0;
#X connect 320 0 315 0;
#X connect 321 0 318 0;
#X connect 322 0 286 0;
#X connect 323 0 322 1;
#X connect 324 0 323 0;
#X connect 325 0 324 0;
#X connect 326 0 289 0;
#X connect 327 0 326 1;
#X connect 328 0 327 0;
#X connect 329 0 328 0;
#X connect 330 0 292 0;
#X connect 331 0 330 1;
#X connect 332 0 331 0;
#X connect 333 0 332 0;
#X connect 334 0 280 0;
#X connect 335 0 334 1;
#X connect 336 0 335 0;
#X connect 337 0 336 0;
#X connect 338 0 277 0;
#X connect 339 0 338 1;
#X connect 340 0 339 0;
#X connect 341 0 340 0;
#X connect 342 0 274 0;
#X connect 343 0 342 1;
#X connect 344 0 343 0;
#X connect 345 0 344 0;
#X connect 347 0 372 0;
#X connect 347 1 373 0;
#X connect 347 2 349 0;
#X connect 349 0 347 0;
#X connect 350 0 46 0;
#X connect 350 0 55 0;
#X connect 351 0 352 1;
#X connect 351 0 353 1;
#X connect 351 0 354 1;
#X connect 351 0 355 1;
#X connect 352 0 348 1;
#X connect 353 0 348 0;
#X connect 354 0 17 1;
#X connect 355 0 17 0;
#X connect 356 0 47 0;
#X connect 358 0 359 0;
#X connect 359 0 360 0;
#X connect 361 0 196 1;
#X connect 363 0 193 0;
#X connect 366 0 262 0;
#X connect 366 0 192 1;
#X connect 367 0 354 1;
#X connect 367 0 355 1;
#X connect 368 0 372 1;
#X connect 368 0 373 1;
#X connect 369 0 16 0;
#X connect 370 0 355 0;
#X connect 371 0 354 0;
#X connect 372 0 353 0;
#X connect 373 0 352 0;
#X connect 374 0 268 0;
#X connect 375 0 374 1;
#X connect 377 0 73 0;
#X connect 378 0 380 0;
#X connect 379 0 34 0;
#X connect 379 1 33 0;
#X connect 379 2 32 0;
#X connect 379 3 31 0;
#X connect 379 4 30 0;
#X connect 379 5 35 0;
#X connect 379 6 36 0;
#X connect 379 7 37 0;
#X connect 380 0 273 0;
