#N struct mtx_vis-plot float x float y array mtx_vis-array mtx_vis-element;
#N struct mtx_vis-element float x float y float c float dx float dy;
#N canvas 223 47 1134 651 10;
#X declare -lib iemmatrix;
#X declare -lib Gem;
#X obj 358 393 *~;
#X obj 259 390 *~;
#X obj 160 393 *~;
#X obj 456 393 *~;
#X obj 517 33 int;
#X obj 517 50 change;
#X floatatom 518 70 5 0 0 0 - - - 0;
#X obj 184 390 r one;
#X obj 285 390 r two;
#X obj 386 390 r three;
#X obj 482 390 r four;
#X obj 482 415 tgl 15 0 empty empty empty 17 7 0 10 #fcfcfc #000000 #000000 0 1;
#X obj 386 413 tgl 15 0 empty empty empty 17 7 0 10 #fcfcfc #000000 #000000 0 1;
#X obj 285 413 tgl 15 0 empty empty empty 17 7 0 10 #fcfcfc #000000 #000000 0 1;
#X obj 189 413 tgl 15 0 empty empty empty 17 7 0 10 #fcfcfc #000000 #000000 0 1;
#X obj 591 259 bng 15 250 50 0 empty empty empty 17 7 0 10 #fcfcfc #000000 #000000;
#X obj 1037 392 readsf~ 2;
#X obj 1048 496 dac~;
#X obj 785 390 *~;
#X obj 686 393 *~;
#X obj 591 386 *~;
#X obj 900 393 *~;
#X obj 921 418 tgl 15 0 empty empty empty 17 7 0 10 #fcfcfc #000000 #000000 0 1;
#X obj 797 417 tgl 15 0 empty empty empty 17 7 0 10 #fcfcfc #000000 #000000 0 1;
#X obj 716 418 tgl 15 0 empty empty empty 17 7 0 10 #fcfcfc #000000 #000000 0 1;
#X obj 610 415 tgl 15 0 empty empty empty 17 7 0 10 #fcfcfc #000000 #000000 0 1;
#X obj 612 390 r five;
#X obj 714 390 r six;
#X obj 814 390 r seven;
#X obj 921 390 r eight;
#X msg 604 128 \; one 0 \; two 0 \; three 0 \; four 0 \; five 1 \; six 0 \; seven 0 \; eight 0 \;;
#X msg 517 133 \; one 0 \; two 0 \; three 0 \; four 1 \; five 0 \; six 0 \; seven 0 \; eight 0 \;;
#X msg 459 128 \; one 0 \; two 0 \; three 1 \; four 0 \; five 0 \; six 0 \; seven 0 \; eight 0 \;;
#X msg 385 128 \; one 0 \; two 1 \; three 0 \; four 0 \; five 0 \; six 0 \; seven 0 \; eight 0 \;;
#X msg 316 128 \; one 1 \; two 0 \; three 0 \; four 0 \; five 0 \; six 0 \; seven 0 \; eight 0 \;;
#X msg 679 128 \; one 0 \; two 0 \; three 0 \; four 0 \; five 0 \; six 1 \; seven 0 \; eight 0 \;;
#X msg 763 128 \; one 0 \; two 0 \; three 0 \; four 0 \; five 0 \; six 0 \; seven 1 \; eight 0 \;;
#X msg 834 128 \; one 0 \; two 0 \; three 0 \; four 0 \; five 0 \; six 0 \; seven 0 \; eight 1 \;;
#X msg 92 49 tempo \$1;
#X msg -94 49 resolution \$1;
#X msg 2 49 reset \$1 \$2;
#X obj 2 28 pack f f;
#X floatatom 156 177 5 0 0 1 beat_time - - 0;
#X floatatom 128 198 5 0 0 1 phase - - 0;
#X floatatom 101 226 5 0 0 1 step - - 0;
#X floatatom 184 155 5 0 0 1 tempo - - 0;
#X obj -237 29 tgl 15 0 empty empty empty 17 7 0 10 #fcfcfc #000000 #000000 0 1;
#X floatatom 94 6 5 0 0 2 tempo - - 0;
#X floatatom 47 9 5 0 0 2 quantum - - 0;
#X floatatom 2 9 5 0 0 2 beat - - 0;
#X floatatom -94 29 5 0 0 2 resolution - - 0;
#X msg -237 50 connect \$1;
#X floatatom 135 267 5 0 0 0 - - - 0;
#X obj 135 245 r #abl_link_num_peers;
#X floatatom 212 136 5 0 0 1 is_playing - - 0;
#X obj -154 29 tgl 15 0 empty empty empty 17 7 0 10 #fcfcfc #000000 #000000 0 1;
#X msg -154 49 play \$1;
#X floatatom 162 30 5 0 0 0 - - - 0;
#X msg 162 49 offset \$1;
#X obj 95 275 sel 0;
#X obj -186 159 hsl 128 15 0 127 0 0 empty empty empty -2 -8 0 10 #fcfcfc #000000 #000000 0 1;
#X obj -185 187 float;
#X obj -42 206 change;
#X obj -181 206 hsl 128 15 0 127 0 0 empty empty empty -2 -8 0 10 #fcfcfc #000000 #000000 0 1;
#X obj -46 232 t b;
#X obj -32 166 int;
#X floatatom -32 184 5 0 0 0 - - - 0;
#X obj -179 232 / 127;
#X obj -178 254 * 8;
#X obj -382 485 *~;
#X obj -384 420 *~;
#X obj -336 355 mod 8;
#X floatatom -335 374 5 0 0 0 - - - 0;
#X floatatom -409 328 5 0 0 0 - - - 0;
#X obj -335 392 sel 0 5;
#X msg 37 37 0;
#X msg -306 419 0;
#X obj -327 449 tgl 15 0 empty empty empty 17 7 0 10 #fcfcfc #000000 #000000 0 1;
#X obj -268 483 *~;
#X obj -270 418 *~;
#X floatatom -221 372 5 0 0 0 - - - 0;
#X msg -192 417 0;
#X obj -213 447 tgl 15 0 empty empty empty 17 7 0 10 #fcfcfc #000000 #000000 0 1;
#X obj -221 390 sel 0 3;
#X obj -222 353 mod 4;
#X obj -196 518 *~;
#X obj -157 494 *~;
#X floatatom -120 362 5 0 0 0 - - - 0;
#X msg -91 407 0;
#X obj -112 437 tgl 15 0 empty empty empty 17 7 0 10 #fcfcfc #000000 #000000 0 1;
#X obj -78 480 *~;
#X obj -49 405 *~;
#X floatatom 0 359 5 0 0 0 - - - 0;
#X msg 29 404 0;
#X obj 5 425 tgl 15 0 empty empty empty 17 7 0 10 #fcfcfc #000000 #000000 0 1;
#X obj 0 377 sel 0 2;
#X obj -4 317 * 0.5;
#X obj 20 625 *~;
#X obj 18 560 *~;
#X floatatom 67 514 5 0 0 0 - - - 0;
#X msg 96 559 0;
#X obj 75 589 tgl 15 0 empty empty empty 17 7 0 10 #fcfcfc #000000 #000000 0 1;
#X obj 84 395 int;
#X obj 79 417 change;
#X obj 67 532 sel 0 1;
#X obj 76 366 * 16;
#X obj 66 495 mod 2;
#X obj 146 622 *~;
#X obj 144 557 *~;
#X floatatom 193 511 5 0 0 0 - - - 0;
#X msg 222 556 0;
#X obj 201 577 tgl 15 0 empty empty empty 17 7 0 10 #fcfcfc #000000 #000000 0 1;
#X obj 193 529 sel 0 1;
#X obj 192 492 mod 4;
#X obj 256 724 *~;
#X obj 254 659 *~;
#X floatatom 303 613 5 0 0 0 - - - 0;
#X msg 332 658 0;
#X obj 311 688 tgl 15 0 empty empty empty 17 7 0 10 #fcfcfc #000000 #000000 0 1;
#X obj 302 594 mod 2;
#X obj 303 631 sel 0 1;
#X obj -362 267 mtof;
#X obj -316 277 line;
#X msg -271 256 100;
#X obj -401 134 vsl 15 128 300 2000 0 0 empty empty empty 0 -9 0 10 #fcfcfc #000000 #000000 0 1;
#X obj -317 157 / 127;
#X obj -386 395 noise~;
#X obj -258 379 noise~;
#X obj -171 383 noise~;
#X obj -51 380 noise~;
#X obj 142 532 noise~;
#X obj 16 535 noise~;
#X obj 252 634 noise~;
#X obj 5 912 bob~, f 15;
#X text -140 983 input monitor;
#N canvas 567 141 764 657 (subpatch) 0;
#X floatatom 110 127 5 0 150 0 - - - 0;
#X obj 177 147 mtof;
#X obj 111 185 line~;
#X floatatom 109 153 7 0 0 0 - - - 0;
#X obj 110 36 loadbang;
#X obj 113 105 hsl 100 15 35 125 0 0 empty empty empty -2 -8 0 10 #fcfcfc #000000 #000000 0 1;
#X text 364 256 MIDI;
#X text 302 242 Hz;
#X obj 109 202 outlet~;
#X text 323 115 cutoff frequency;
#X text 341 98 resonant or, f 13;
#X obj 23 81 / 127;
#X obj 16 26 r d;
#X obj 42 46 no ctlin 5 1;
#X obj 151 128 + 0;
#X obj 110 171 pack 0 400;
#X msg 110 61 117;
#X obj 14 101 * 5;
#X obj 42 113 + 113;
#X connect 0 0 1 0;
#X connect 1 0 3 0;
#X connect 2 0 8 0;
#X connect 3 0 15 0;
#X connect 4 0 16 0;
#X connect 5 0 14 0;
#X connect 11 0 17 0;
#X connect 12 0 11 0;
#X connect 13 0 11 0;
#X connect 14 0 0 0;
#X connect 15 0 2 0;
#X connect 16 0 5 0;
#X connect 17 0 18 0;
#X connect 18 0 5 0;
#X coords 0 -1 1 1 128 121 2 100 100;
#X restore 40 770 pd;
#N canvas 446 160 500 456 (subpatch) 0;
#X obj 114 43 loadbang;
#X obj 117 132 hsl 100 15 0 8 0 0 empty empty empty -2 -8 0 10 #fcfcfc #000000 #000000 0 1;
#X floatatom 114 156 5 0 8 0 - - - 0;
#X obj 115 176 sig~;
#X text 147 158 (0-8);
#X text 327 323 "resonance";
#X text 241 306 (> 4 to oscillate);
#X obj 114 317 outlet~;
#X msg 114 71 2.6;
#X obj 321 160 hsl 100 15 0 8 0 0 empty empty empty -2 -8 0 10 #fcfcfc #000000 #000000 0 1;
#X obj 296 78 / 127;
#X obj 302 108 * 3;
#X obj 307 134 + 1;
#X obj 361 73 * -1;
#X obj 369 96 + 127;
#X obj 113 110 r e;
#X obj 285 50 ctno lin 4 1;
#X connect 0 0 8 0;
#X connect 1 0 2 0;
#X connect 2 0 3 0;
#X connect 3 0 7 0;
#X connect 8 0 1 0;
#X connect 9 0 1 0;
#X connect 10 0 9 0;
#X connect 11 0 12 0;
#X connect 13 0 14 0;
#X connect 14 0 10 0;
#X connect 15 0 13 0;
#X connect 16 0 13 0;
#X coords 0 -1 1 1 140 100 2 100 100;
#X restore 175 791 pd;
#X obj 165 921 r \$0-parameters;
#X obj -134 671 *~ 1;
#X obj -70 624 *~;
#X obj -82 583 *~;
#X floatatom -51 517 5 0 0 0 - - - 0;
#X msg -22 562 0;
#X obj -43 592 tgl 15 0 empty empty empty 17 7 0 10 #fcfcfc #000000 #000000 0 1;
#X obj -102 538 noise~;
#X obj -45 498 mod 2;
#X obj -51 535 sel 0 1;
#X obj -146 864 *~ 1;
#X obj -257 217 \$1 \$1;
#X msg 425 282 4;
#X obj -314 211 + 200;
#X obj -260 902 phasor~;
#X floatatom 377 301 5 0 0 0 - - - 0;
#X obj 444 329 sel 0;
#X obj 379 280 mod 4;
#X obj 161 82 * 1;
#X obj -1 340 mod 4;
#X obj -120 380 sel 0 1;
#X obj -121 343 mod 2;
#X msg 280 -12 \; one 0 \; two 0 \; three 0 \; four 0 \; five 0 \; six 0 \; seven 0 \; eight 0 \;;
#X obj -36 144 * 16;
#X obj 157 994 sig~;
#X floatatom 157 963 5 0 0 0 - - - 0;
#X floatatom 191 1024 5 0 0 0 - - - 0;
#X text 203 980 resonant frequency in Hz;
#X msg 204 997 2;
#X msg 221 958;
#X msg 92 963 2000;
#X obj 45 930 loadbang;
#X obj 46 995 hip~ 5;
#X obj 634 10 sel 4 2 1 3 5 8 7 6;
#X obj 635 30 sel 5 3 1 2 4 6 8 7;
#X obj 634 52 sel 7 4 3 6 5 2 1 8;
#X obj -18 848 hip~ 5;
#N canvas 63 88 767 546 buzz 0;
#X obj 257 361 +~;
#X obj 132 112 *~ 1024;
#X obj 257 160 tabread4~ \$0-cos;
#X obj 131 350 tabread4~ \$0-sin;
#X obj 132 421 /~;
#X obj 132 132 +~ 1;
#X obj 480 250 *~ 1024;
#X obj 480 278 +~ 1;
#X obj 410 311 tabread4~ \$0-1+a2;
#X obj 544 310 tabread4~ \$0-norm;
#X obj 133 444 *~;
#X obj 380 258 *~ -2;
#X obj 257 311 *~;
#X obj 134 473 outlet~;
#X obj 379 45 inlet~;
#X obj 489 66 table \$0-1+a2 1027;
#X obj 489 85 table \$0-norm 1027;
#X text 133 503 out = sqrt[(1-a^2)(1+a^2)] * [sin(x) / (1+a^2 - 2a*cos(x))];
#X obj 489 105 table \$0-cos 1027;
#X obj 489 127 table \$0-sin 1027;
#N canvas 436 142 729 607 init-tables 0;
#X obj 125 75 until;
#X obj 125 104 f 0;
#X obj 153 105 + 1;
#X obj 125 53 t a b;
#X obj 125 150 / 1024;
#X obj 125 127 t a a;
#X obj 343 417 tabwrite \$0-1+a2;
#X obj 125 12 loadbang;
#X obj 547 122 s \$0-cos;
#X obj 509 175 s \$0-sin;
#X msg 509 148 sinesum 1024 1;
#X msg 547 97 cosinesum 1024 0 1;
#X obj 509 67 loadbang;
#X obj 124 412 tabwrite \$0-norm;
#X msg 125 33 1027;
#X text 106 499 writes f(a) = 1+a^2 rsp. normalization into tables;
#X obj 124 330 sqrt;
#X obj 125 214 *;
#X obj 179 272 + 1;
#X obj 125 241 t a a;
#X obj 125 267 swap 1;
#X obj 125 290 -;
#X obj 125 310 /;
#X obj 125 193 t a a;
#X text 107 434 sqrt((1-$f1*$f1)/(1+$f1*$f1));
#X text 341 434 1+$f1*$f1;
#X msg 164 75 0;
#X obj 452 361 + 0;
#X connect 0 0 1 0;
#X connect 1 0 2 0;
#X connect 1 0 5 0;
#X connect 2 0 1 1;
#X connect 3 0 0 0;
#X connect 3 1 26 0;
#X connect 4 0 23 0;
#X connect 5 0 4 0;
#X connect 5 1 27 0;
#X connect 7 0 14 0;
#X connect 10 0 9 0;
#X connect 11 0 8 0;
#X connect 12 0 11 0;
#X connect 12 0 10 0;
#X connect 14 0 3 0;
#X connect 16 0 13 0;
#X connect 17 0 19 0;
#X connect 18 0 22 1;
#X connect 18 0 6 0;
#X connect 19 0 20 0;
#X connect 19 1 18 0;
#X connect 20 0 21 0;
#X connect 20 1 21 1;
#X connect 21 0 22 0;
#X connect 22 0 16 0;
#X connect 23 0 17 0;
#X connect 23 1 17 1;
#X connect 26 0 1 1;
#X connect 27 0 6 1;
#X connect 27 0 13 1;
#X restore 489 45 pd init-tables;
#X text 131 550 cf: James A. Moorer: "Synthesis of Complex Audio Spectra" and Dodge/Jerse: "Computer Music" page 163f;
#X obj 132 89 phasor~ \$1;
#X obj 132 46 inlet;
#N canvas 228 198 627 317 LICENSE-BSD 0;
#X text 121 56 This software is copyrighted by Miller Puckette \, Reality Jockey Ltd. and others. The terms (the "Standard Improved BSD License") apply to all files associated with the software unless explicitly disclaimed in individual files.;
#X text 123 148 See the file LICENSE.txt for the full license text.;
#X restore 633 30 pd LICENSE-BSD;
#X connect 0 0 4 1;
#X connect 1 0 5 0;
#X connect 2 0 12 0;
#X connect 3 0 4 0;
#X connect 4 0 10 0;
#X connect 5 0 2 0;
#X connect 5 0 3 0;
#X connect 6 0 7 0;
#X connect 7 0 8 0;
#X connect 7 0 9 0;
#X connect 8 0 0 1;
#X connect 9 0 10 1;
#X connect 10 0 13 0;
#X connect 11 0 12 1;
#X connect 12 0 0 0;
#X connect 14 0 6 0;
#X connect 14 0 11 0;
#X connect 22 0 1 0;
#X connect 23 0 22 0;
#X restore -387 1083 pd buzz;
#X floatatom -393 845 5 0 0 0 - - - 0;
#X obj -324 962 hsl 128 15 0 0.9 0 0 empty empty empty -2 -8 0 10 #fcfcfc #000000 #000000 0 1;
#X obj -327 992 moses 1;
#X text -331 943 Harmonicity-Env;
#X obj -358 1060 line~;
#X obj -358 1036 pack 0 100;
#X obj -365 917 line;
#X obj -186 1060 / 127;
#X obj -183 916 hip~ 400;
#X obj -51 892 bp~;
#X floatatom 470 884 7 0 0 0 - - - 0;
#X msg 435 904 clear;
#X floatatom 504 911 5 1 50 0 - - - 0;
#X obj 437 944 hip~ 1600 1;
#X obj 6 1033 s~ b;
#X obj 560 1088 *~ 1;
#X floatatom 593 1088 6 0 0 0 - - - 0;
#X obj 555 1156 clip~ -1 1;
#X obj 555 1220 *~ 1;
#X obj 555 1134 *~ 1000;
#X obj 622 1174 dbtorms;
#X obj 622 1154 env~;
#X obj 622 1194 * 1.4142;
#X obj 556 1252 clip~ -0.707 0.707;
#X text 671 1131 1 to 20000;
#N canvas 538 131 366 245 Initial values 0;
#X obj 20 45 \$0;
#X obj 20 17 loadbang;
#X msg 20 73 \; \$1-hsl-rcv)pre 1 \; \$1-hsl-rcv)distortionamount 20000;
#X connect 0 0 2 0;
#X connect 1 0 0 0;
#X restore 604 1224 pd Initial values;
#X msg 712 958 \; pd dsp 0;
#X msg 782 958 \; pd dsp 1;
#X obj 560 964 r~ b;
#X obj -357 808 line;
#X obj -357 784 pack 0 400;
#X obj -362 12 vsl 15 128 0 127 0 0 empty empty empty 0 -9 0 10 #fcfcfc #000000 #000000 0 1;
#X obj -337 18 / 127;
#X obj -339 37 * 4;
#X obj -335 65 int;
#X obj 27 -33 sel 0 1 2 3 4;
#X floatatom -308 66 5 0 0 0 - - - 0;
#X obj -271 -20 tgl 15 0 empty empty empty 17 7 0 10 #fcfcfc #000000 #000000 0 1;
#X obj -279 6 sel 0 1;
#X msg -286 34 16;
#X msg -335 415 0.5;
#X msg -221 413 0.5;
#X msg -120 403 0.5;
#X msg 0 400 0.5;
#X msg -51 558 0.5;
#X msg 67 555 0.5;
#X msg 193 552 0.5;
#X msg 303 654 0.5;
#X obj 187 309 sel 0 4 8 12;
#X obj 200 338 random 2;
#X obj -201 1262 *~ 1;
#X obj 636 76 sel 1 2 3 4 5 6 7 8;
#X obj 631 -17 sel 8 7 6 5 4 3 2 1;
#X obj -40 1175 notein;
#X obj -33 1199 sel 63;
#X obj -33 1226 tgl 15 0 empty empty empty 17 7 0 10 #fcfcfc #000000 #000000 0 1;
#X obj 952 -9 sel 7 4 3 6 5 2 1 8;
#X obj -408 -21 r a;
#X obj -400 106 r b;
#X obj -235 143 r c;
#X obj -323 125 no ctlin 4 1;
#X obj -189 128 no ctlin 1 1;
#X obj -341 -18 no ctlin 4 1;
#X obj 221 204 s rando;
#X obj 176 217 t b;
#X msg -308 842 800;
#X obj 300 304 * 2;
#X obj 300 322 int;
#X floatatom 302 351 5 0 0 0 - - - 0;
#X obj 397 354 s dubbang;
#X obj 376 332 change;
#X obj 370 356 t b;
#X obj -194 985 r f;
#X obj -187 1039 no ctlin 2 1;
#X obj -181 1115 line;
#X obj -208 1091 pack 0 400;
#X obj -365 893 pack 0 400;
#X obj 701 876 r d;
#X obj 645 1041 / 127;
#X obj 685 985 vsl 16 136 0 127 0 0 empty empty empty 0 -9 0 10 #fcfcfc #000000 #000000 0 1;
#X obj 718 924 line;
#X obj 695 898 pack \$1 400;
#N canvas 469 494 450 300 buzz 0;
#X obj 257 361 +~;
#X obj 132 112 *~ 1024;
#X obj 257 160 tabread4~ \$0-cos;
#X obj 131 350 tabread4~ \$0-sin;
#X obj 132 421 /~;
#X obj 132 132 +~ 1;
#X obj 480 250 *~ 1024;
#X obj 480 278 +~ 1;
#X obj 410 311 tabread4~ \$0-1+a2;
#X obj 544 310 tabread4~ \$0-norm;
#X obj 133 444 *~;
#X obj 380 258 *~ -2;
#X obj 257 311 *~;
#X obj 134 473 outlet~;
#X obj 379 45 inlet~;
#X obj 489 66 table \$0-1+a2 1027;
#X obj 489 85 table \$0-norm 1027;
#X text 133 503 out = sqrt[(1-a^2)(1+a^2)] * [sin(x) / (1+a^2 - 2a*cos(x))];
#X obj 489 105 table \$0-cos 1027;
#X obj 489 127 table \$0-sin 1027;
#N canvas 436 142 729 607 init-tables 0;
#X obj 125 75 until;
#X obj 125 104 f 0;
#X obj 153 105 + 1;
#X obj 125 53 t a b;
#X obj 125 150 / 1024;
#X obj 125 127 t a a;
#X obj 343 417 tabwrite \$0-1+a2;
#X obj 125 12 loadbang;
#X obj 547 122 s \$0-cos;
#X obj 509 175 s \$0-sin;
#X msg 509 148 sinesum 1024 1;
#X msg 547 97 cosinesum 1024 0 1;
#X obj 509 67 loadbang;
#X obj 124 412 tabwrite \$0-norm;
#X msg 125 33 1027;
#X text 106 499 writes f(a) = 1+a^2 rsp. normalization into tables;
#X obj 124 330 sqrt;
#X obj 125 214 *;
#X obj 179 272 + 1;
#X obj 125 241 t a a;
#X obj 125 267 swap 1;
#X obj 125 290 -;
#X obj 125 310 /;
#X obj 125 193 t a a;
#X text 107 434 sqrt((1-$f1*$f1)/(1+$f1*$f1));
#X text 341 434 1+$f1*$f1;
#X msg 164 75 0;
#X obj 452 361 + 0;
#X connect 0 0 1 0;
#X connect 1 0 2 0;
#X connect 1 0 5 0;
#X connect 2 0 1 1;
#X connect 3 0 0 0;
#X connect 3 1 26 0;
#X connect 4 0 23 0;
#X connect 5 0 4 0;
#X connect 5 1 27 0;
#X connect 7 0 14 0;
#X connect 10 0 9 0;
#X connect 11 0 8 0;
#X connect 12 0 11 0;
#X connect 12 0 10 0;
#X connect 14 0 3 0;
#X connect 16 0 13 0;
#X connect 17 0 19 0;
#X connect 18 0 22 1;
#X connect 18 0 6 0;
#X connect 19 0 20 0;
#X connect 19 1 18 0;
#X connect 20 0 21 0;
#X connect 20 1 21 1;
#X connect 21 0 22 0;
#X connect 22 0 16 0;
#X connect 23 0 17 0;
#X connect 23 1 17 1;
#X connect 26 0 1 1;
#X connect 27 0 6 1;
#X connect 27 0 13 1;
#X restore 489 45 pd init-tables;
#X text 131 550 cf: James A. Moorer: "Synthesis of Complex Audio Spectra" and Dodge/Jerse: "Computer Music" page 163f;
#X obj 132 89 phasor~ \$1;
#X obj 132 46 inlet;
#N canvas 228 198 627 317 LICENSE-BSD 0;
#X text 121 56 This software is copyrighted by Miller Puckette \, Reality Jockey Ltd. and others. The terms (the "Standard Improved BSD License") apply to all files associated with the software unless explicitly disclaimed in individual files.;
#X text 123 148 See the file LICENSE.txt for the full license text.;
#X restore 633 30 pd LICENSE-BSD;
#X connect 0 0 4 1;
#X connect 1 0 5 0;
#X connect 2 0 12 0;
#X connect 3 0 4 0;
#X connect 4 0 10 0;
#X connect 5 0 2 0;
#X connect 5 0 3 0;
#X connect 6 0 7 0;
#X connect 7 0 8 0;
#X connect 7 0 9 0;
#X connect 8 0 0 1;
#X connect 9 0 10 1;
#X connect 10 0 13 0;
#X connect 11 0 12 1;
#X connect 12 0 0 0;
#X connect 14 0 6 0;
#X connect 14 0 11 0;
#X connect 22 0 1 0;
#X connect 23 0 22 0;
#X restore -364 765 pd buzz;
#X obj -286 742 *~ 2;
#X msg 1245 278 open 8bars96.wav \, start;
#X obj -102 1143 bp~ 600;
#X obj 585 304 s res;
#X obj 517 301 sel 15;
#X msg 1197 236 open 96loopc.wav \, start;
#X msg 1085 281 open 96loopd.wav \, start;
#X floatatom -321 300 5 0 0 0 - - - 0;
#X obj 667 644 makenote 127 127;
#X obj 674 683 noteout 1;
#X obj 673 663 spigot;
#X obj 779 647 makenote 127 127;
#X obj 786 686 noteout 1;
#X obj 785 666 spigot;
#X obj 881 646 makenote 127 127;
#X obj 888 685 noteout 1;
#X obj 887 665 spigot;
#X obj 678 571 sel 0.5;
#X obj 790 574 sel 0.5;
#X obj 892 573 sel 0.5;
#X obj 533 788 makenote 127 127;
#X obj 540 827 noteout 1;
#X obj 539 807 spigot;
#X obj 645 791 makenote 127 127;
#X obj 652 830 noteout 1;
#X obj 651 810 spigot;
#X obj 747 790 makenote 127 127;
#X obj 754 829 noteout 1;
#X obj 753 809 spigot;
#X obj 545 730 sel 0.5;
#X obj 656 718 sel 0.5;
#X obj 758 717 sel 0.5;
#X obj 333 811 makenote 127 127;
#X obj 340 850 noteout 1;
#X obj 339 830 spigot;
#X obj 445 814 makenote 127 127;
#X obj 452 853 noteout 1;
#X obj 451 833 spigot;
#X obj 344 738 sel 0.5;
#X obj 456 741 sel 0.5;
#X msg 671 623 36;
#X msg 783 626 37;
#X msg 885 625 38;
#X msg 537 767 41;
#X msg 649 770 47;
#X msg 751 769 48;
#X msg 468 794 50;
#X obj 365 773 float;
#X msg 401 776 \$1;
#X obj 398 757 ftom;
#X obj 458 773 float;
#X msg 494 776 \$1;
#X obj 491 757 ftom;
#X obj -390 912 s pi;
#X obj 400 737 r pi;
#X obj 507 736 r pi;
#X obj 568 761 float;
#X msg 604 764 \$1;
#X obj 601 745 ftom;
#X obj 604 726 r pi;
#X obj 678 767 float;
#X msg 714 770 \$1;
#X obj 711 751 ftom;
#X obj 714 732 r pi;
#X obj 800 756 float;
#X msg 836 759 \$1;
#X obj 833 740 ftom;
#X obj 836 721 r pi;
#X obj 933 617 float;
#X msg 969 620 \$1;
#X obj 966 601 ftom;
#X obj 969 582 r pi;
#X obj 812 613 float;
#X msg 848 616 \$1;
#X obj 845 597 ftom;
#X obj 848 578 r pi;
#X obj 704 614 float;
#X msg 740 617 \$1;
#X obj 737 598 ftom;
#X obj 740 579 r pi;
#X obj -120 1176 dac~;
#X obj 1142 391 readsf~ 2;
#X obj 1144 496 dac~;
#X obj -167 -11 loadbang;
#X obj 1268 469 tgl 16 0 empty empty empty 0 -8 0 10 #fcfcfc #000000 #000000 0 1;
#X obj 1183 464 *~ 1;
#X obj 1146 464 *~ 1;
#X obj 1073 463 *~ 1;
#X obj 1036 463 *~ 1;
#N canvas 0 25 450 300 (subpatch) 0;
#X array scratchoutput 441 float 4;
#X coords 0 1.02 440 -1.02 200 130 1;
#X restore 238 1111 graph;
#X obj 92 1167 tgl 16 0 empty empty empty 0 -8 0 10 #fcfcfc #000000 #000000 0 1;
#X obj 90 1193 metro 50;
#X obj 88 1225 tabwrite~ scratchoutput;
#X msg 632 1130 20000;
#X text 664 1143 dist amount;
#X msg 641 1090 1;
#X text 603 1070 pre amount;
#X text 559 945 scratch pre;
#X floatatom 649 956 5 0 0 0 - - - 0;
#X obj 1099 497 tgl 16 0 empty empty empty 0 -8 0 10 #fcfcfc #000000 #000000 0 1;
#X obj 1121 497 tgl 16 0 empty empty empty 0 -8 0 10 #fcfcfc #000000 #000000 0 1;
#X msg 1035 307 open 8bars96.wav \, start;
#X obj 1135 427 *~ 0.9;
#X obj 1179 425 *~ 0.9;
#X obj -108 1003 *~ 0.8;
#X obj -6 1230 * 0.8;
#X obj 837 29 select;
#X obj -377 296 - 200;
#X obj -264 291 r b;
#X obj 516 93 sel 8 7 6 5 4 3 2 1;
#N canvas 0 211 1323 792 dataselfie 1;
#X text -653 -94 transpose matrices;
#X text -649 -115 [mtx_roll];
#N canvas 460 154 494 171 META 0;
#X text 12 105 AUTHOR IOhannes m zmoelnig;
#X text 12 85 OUTLET_0 matrix;
#X text 12 125 HELP_PATCH_AUTHORS IOhannes m zmölnig;
#X text 12 25 LICENSE GPL-2+;
#X text 12 65 INLET_0 matrix;
#X text 12 5 KEYWORDS control matrix;
#X text 12 44 DESCRIPTION shift columns of a matrix;
#X obj 16 147 declare -lib iemmatrix;
#X restore -656 31 pd META;
#X obj -838 -83 ctlin 1 1;
#X msg -433 -21 matrix;
#X obj -433 -57 metro 50;
#X obj -433 -76 tgl 16 0 empty empty empty 0 -8 0 10 #fcfcfc #000000 #000000 0 1;
#X obj -776 -84 ctlin 2 1;
#X obj -512 -81 ctlin 6 1;
#X obj -435 10 pack s 2 3 0 0 0 0 0 0;
#X obj -708 -82 ctlin 3 1;
#X obj -642 -81 ctlin 4 1;
#X obj -577 -81 ctlin 5 1;
#X obj -720 5 pack 0 0 0 0 0 0;
#X obj -376 -43 - lib GEM;
#X obj 257 -13 mtx_check;
#X obj 260 11 iemmatrix/mtx_plot;
#N canvas 553 387 450 300 div 0;
#X obj 132 66 inlet;
#X obj 140 104 list split 3;
#X obj 141 159 unpack 0 0 0 0 0 0;
#X obj 135 179 / 127;
#X obj 179 274 outlet;
#X obj 166 247 list prepend matrix 3 2;
#X obj 212 231 pack 0 0 0 0 0 0;
#X obj 171 179 / 127;
#X obj 207 180 / 127;
#X obj 244 180 / 127;
#X obj 280 178 / 127;
#X obj 314 180 / 127;
#X obj 300 272 list trim;
#X connect 0 0 1 0;
#X connect 1 1 2 0;
#X connect 2 0 3 0;
#X connect 2 1 7 0;
#X connect 2 2 8 0;
#X connect 2 3 9 0;
#X connect 2 4 10 0;
#X connect 2 5 11 0;
#X connect 3 0 6 0;
#X connect 5 0 12 0;
#X connect 6 0 5 0;
#X connect 7 0 6 1;
#X connect 8 0 6 2;
#X connect 9 0 6 3;
#X connect 10 0 6 4;
#X connect 11 0 6 5;
#X connect 12 0 4 0;
#X restore 321 -13 pd div;
#X obj -436 60 t a a;
#X obj -408 86 mtx_print org;
#X obj -434 38 list trim;
#X obj 413 -34 mtx_reverse;
#X obj 412 -13 mtx_check;
#X obj 421 14 iemmatrix/mtx_plot;
#N canvas 553 387 450 300 div 0;
#X obj 132 66 inlet;
#X obj 140 104 list split 3;
#X obj 141 159 unpack 0 0 0 0 0 0;
#X obj 135 179 / 127;
#X obj 179 274 outlet;
#X obj 166 247 list prepend matrix 3 2;
#X obj 212 231 pack 0 0 0 0 0 0;
#X obj 171 179 / 127;
#X obj 207 180 / 127;
#X obj 244 180 / 127;
#X obj 280 178 / 127;
#X obj 314 180 / 127;
#X obj 300 272 list trim;
#X connect 0 0 1 0;
#X connect 1 1 2 0;
#X connect 2 0 3 0;
#X connect 2 1 7 0;
#X connect 2 2 8 0;
#X connect 2 3 9 0;
#X connect 2 4 10 0;
#X connect 2 5 11 0;
#X connect 3 0 6 0;
#X connect 5 0 12 0;
#X connect 6 0 5 0;
#X connect 7 0 6 1;
#X connect 8 0 6 2;
#X connect 9 0 6 3;
#X connect 10 0 6 4;
#X connect 11 0 6 5;
#X connect 12 0 4 0;
#X restore 477 -12 pd div;
#X obj 102 213 mtx_check;
#X obj 92 174 iemmatrix/mtx_plot;
#N canvas 553 387 450 300 div 0;
#X obj 132 66 inlet;
#X obj 140 104 list split 3;
#X obj 141 159 unpack 0 0 0 0 0 0;
#X obj 135 179 / 127;
#X obj 179 274 outlet;
#X obj 166 247 list prepend matrix 3 2;
#X obj 212 231 pack 0 0 0 0 0 0;
#X obj 171 179 / 127;
#X obj 207 180 / 127;
#X obj 244 180 / 127;
#X obj 280 178 / 127;
#X obj 314 180 / 127;
#X obj 300 272 list trim;
#X connect 0 0 1 0;
#X connect 1 1 2 0;
#X connect 2 0 3 0;
#X connect 2 1 7 0;
#X connect 2 2 8 0;
#X connect 2 3 9 0;
#X connect 2 4 10 0;
#X connect 2 5 11 0;
#X connect 3 0 6 0;
#X connect 5 0 12 0;
#X connect 6 0 5 0;
#X connect 7 0 6 1;
#X connect 8 0 6 2;
#X connect 9 0 6 3;
#X connect 10 0 6 4;
#X connect 11 0 6 5;
#X connect 12 0 4 0;
#X restore 166 213 pd div;
#X floatatom 159 167 5 0 0 0 - - - 0;
#X obj 256 213 mtx_check;
#X obj 257 178 iemmatrix/mtx_plot;
#N canvas 553 387 450 300 div 0;
#X obj 132 66 inlet;
#X obj 140 104 list split 3;
#X obj 141 159 unpack 0 0 0 0 0 0;
#X obj 135 179 / 127;
#X obj 179 274 outlet;
#X obj 166 247 list prepend matrix 3 2;
#X obj 212 231 pack 0 0 0 0 0 0;
#X obj 171 179 / 127;
#X obj 207 180 / 127;
#X obj 244 180 / 127;
#X obj 280 178 / 127;
#X obj 314 180 / 127;
#X obj 300 272 list trim;
#X connect 0 0 1 0;
#X connect 1 1 2 0;
#X connect 2 0 3 0;
#X connect 2 1 7 0;
#X connect 2 2 8 0;
#X connect 2 3 9 0;
#X connect 2 4 10 0;
#X connect 2 5 11 0;
#X connect 3 0 6 0;
#X connect 5 0 12 0;
#X connect 6 0 5 0;
#X connect 7 0 6 1;
#X connect 8 0 6 2;
#X connect 9 0 6 3;
#X connect 10 0 6 4;
#X connect 11 0 6 5;
#X connect 12 0 4 0;
#X restore 320 213 pd div;
#X floatatom 313 167 5 0 0 0 - - - 0;
#X obj 419 217 mtx_check;
#X obj 424 173 iemmatrix/mtx_plot;
#N canvas 553 387 450 300 div 0;
#X obj 132 66 inlet;
#X obj 140 104 list split 3;
#X obj 141 159 unpack 0 0 0 0 0 0;
#X obj 135 179 / 127;
#X obj 179 274 outlet;
#X obj 166 247 list prepend matrix 3 2;
#X obj 212 231 pack 0 0 0 0 0 0;
#X obj 171 179 / 127;
#X obj 207 180 / 127;
#X obj 244 180 / 127;
#X obj 280 178 / 127;
#X obj 314 180 / 127;
#X obj 300 272 list trim;
#X connect 0 0 1 0;
#X connect 1 1 2 0;
#X connect 2 0 3 0;
#X connect 2 1 7 0;
#X connect 2 2 8 0;
#X connect 2 3 9 0;
#X connect 2 4 10 0;
#X connect 2 5 11 0;
#X connect 3 0 6 0;
#X connect 5 0 12 0;
#X connect 6 0 5 0;
#X connect 7 0 6 1;
#X connect 8 0 6 2;
#X connect 9 0 6 3;
#X connect 10 0 6 4;
#X connect 11 0 6 5;
#X connect 12 0 4 0;
#X restore 483 217 pd div;
#X floatatom 476 171 5 0 0 0 - - - 0;
#X obj 573 217 mtx_check;
#X obj 588 172 iemmatrix/mtx_plot;
#N canvas 553 387 450 300 div 0;
#X obj 132 66 inlet;
#X obj 140 104 list split 3;
#X obj 141 159 unpack 0 0 0 0 0 0;
#X obj 135 179 / 127;
#X obj 179 274 outlet;
#X obj 166 247 list prepend matrix 3 2;
#X obj 212 231 pack 0 0 0 0 0 0;
#X obj 171 179 / 127;
#X obj 207 180 / 127;
#X obj 244 180 / 127;
#X obj 280 178 / 127;
#X obj 314 180 / 127;
#X obj 300 272 list trim;
#X connect 0 0 1 0;
#X connect 1 1 2 0;
#X connect 2 0 3 0;
#X connect 2 1 7 0;
#X connect 2 2 8 0;
#X connect 2 3 9 0;
#X connect 2 4 10 0;
#X connect 2 5 11 0;
#X connect 3 0 6 0;
#X connect 5 0 12 0;
#X connect 6 0 5 0;
#X connect 7 0 6 1;
#X connect 8 0 6 2;
#X connect 9 0 6 3;
#X connect 10 0 6 4;
#X connect 11 0 6 5;
#X connect 12 0 4 0;
#X restore 637 217 pd div;
#X floatatom 630 171 5 0 0 0 - - - 0;
#X obj 419 193 mtx_scroll 1;
#X obj 573 193 mtx_scroll 2;
#X obj 242 373 mtx_check;
#X obj 258 336 iemmatrix/mtx_plot;
#X obj 240 353 iemmatrix/mtx_spivot;
#X obj 425 361 mtx_print pivot;
#X obj 425 288 t a a a;
#X obj 516 292 mtx_*;
#X obj 442 323 mtx_-;
#X obj 442 342 mtx_print diff;
#X obj 424 386 mtx_check;
#X obj 424 343 iemmatrix/mtx_plot;
#X obj 425 340 mtx_reverse;
#X obj 65 384 mtx_check;
#X obj 92 337 iemmatrix/mtx_plot;
#N canvas 553 387 450 300 div 0;
#X obj 132 66 inlet;
#X obj 140 104 list split 3;
#X obj 141 159 unpack 0 0 0 0 0 0;
#X obj 135 179 / 127;
#X obj 179 274 outlet;
#X obj 166 247 list prepend matrix 3 2;
#X obj 212 231 pack 0 0 0 0 0 0;
#X obj 171 179 / 127;
#X obj 207 180 / 127;
#X obj 244 180 / 127;
#X obj 280 178 / 127;
#X obj 314 180 / 127;
#X obj 300 272 list trim;
#X connect 0 0 1 0;
#X connect 1 1 2 0;
#X connect 2 0 3 0;
#X connect 2 1 7 0;
#X connect 2 2 8 0;
#X connect 2 3 9 0;
#X connect 2 4 10 0;
#X connect 2 5 11 0;
#X connect 3 0 6 0;
#X connect 5 0 12 0;
#X connect 6 0 5 0;
#X connect 7 0 6 1;
#X connect 8 0 6 2;
#X connect 9 0 6 3;
#X connect 10 0 6 4;
#X connect 11 0 6 5;
#X connect 12 0 4 0;
#X restore 129 384 pd div;
#X obj 65 360 mtx_scroll 1;
#X obj 598 382 mtx_check;
#X obj 588 339 iemmatrix/mtx_plot;
#N canvas 553 387 450 300 div 0;
#X obj 132 66 inlet;
#X obj 140 104 list split 3;
#X obj 141 159 unpack 0 0 0 0 0 0;
#X obj 135 179 / 127;
#X obj 179 274 outlet;
#X obj 166 247 list prepend matrix 3 2;
#X obj 212 231 pack 0 0 0 0 0 0;
#X obj 171 179 / 127;
#X obj 207 180 / 127;
#X obj 244 180 / 127;
#X obj 280 178 / 127;
#X obj 314 180 / 127;
#X obj 300 272 list trim;
#X connect 0 0 1 0;
#X connect 1 1 2 0;
#X connect 2 0 3 0;
#X connect 2 1 7 0;
#X connect 2 2 8 0;
#X connect 2 3 9 0;
#X connect 2 4 10 0;
#X connect 2 5 11 0;
#X connect 3 0 6 0;
#X connect 5 0 12 0;
#X connect 6 0 5 0;
#X connect 7 0 6 1;
#X connect 8 0 6 2;
#X connect 9 0 6 3;
#X connect 10 0 6 4;
#X connect 11 0 6 5;
#X connect 12 0 4 0;
#X restore 662 382 pd div;
#X obj 598 358 mtx_scroll 1;
#X obj 102 189 mtx_scroll 2;
#X obj 256 189 mtx_scroll 1;
#X obj 76 556 mtx_check;
#X obj 92 510 iemmatrix/mtx_plot;
#N canvas 553 387 450 300 div 0;
#X obj 132 66 inlet;
#X obj 140 104 list split 3;
#X obj 141 159 unpack 0 0 0 0 0 0;
#X obj 135 179 / 127;
#X obj 179 274 outlet;
#X obj 166 247 list prepend matrix 3 2;
#X obj 212 231 pack 0 0 0 0 0 0;
#X obj 171 179 / 127;
#X obj 207 180 / 127;
#X obj 244 180 / 127;
#X obj 280 178 / 127;
#X obj 314 180 / 127;
#X obj 300 272 list trim;
#X connect 0 0 1 0;
#X connect 1 1 2 0;
#X connect 2 0 3 0;
#X connect 2 1 7 0;
#X connect 2 2 8 0;
#X connect 2 3 9 0;
#X connect 2 4 10 0;
#X connect 2 5 11 0;
#X connect 3 0 6 0;
#X connect 5 0 12 0;
#X connect 6 0 5 0;
#X connect 7 0 6 1;
#X connect 8 0 6 2;
#X connect 9 0 6 3;
#X connect 10 0 6 4;
#X connect 11 0 6 5;
#X connect 12 0 4 0;
#X restore 109 508 pd div;
#X obj 78 539 mtx_scroll 1;
#X obj 259 548 mtx_check;
#X obj 256 508 iemmatrix/mtx_plot;
#X obj 262 527 mtx_scroll 1;
#X obj 423 542 mtx_check;
#X obj 425 509 iemmatrix/mtx_plot;
#X obj 448 526 mtx_scroll 1;
#X obj 615 548 mtx_check;
#X obj 591 510 iemmatrix/mtx_plot;
#X obj 615 524 mtx_scroll 1;
#X obj -114 557 mtx_check;
#X obj -103 506 iemmatrix/mtx_plot;
#X obj -104 536 mtx_scroll 3;
#X obj 780 543 mtx_check;
#X obj 776 507 iemmatrix/mtx_plot;
#X obj 783 521 mtx_scroll 3;
#N canvas 0 0 879 403 colormaps 0;
#X obj 283 307 array set \$0.colormap;
#X obj 264 17 inlet;
#X obj 264 40 symbol;
#X obj 449 307 list length;
#X obj 449 330 array size \$0.colormap;
#X obj 264 280 t b l l;
#X obj 264 353 outlet;
#X obj 264 63 t b s;
#X msg 264 100 gnuplot2 0 1 2 4 5 7 8 9 109 309 409 508 617 717 826 935 935 944 953 962 962 971 980 990 999 \, magma 0 0 1 2 103 203 204 304 314 414 414 514 614 624 723 723 833 833 843 843 853 864 864 875 886 \, grey 0 111 222 333 444 555 666 777 888 999 \, rainbow 409 308 318 228 238 148 58 58 68 78 177 287 287 387 386 486 586 585 685 684 774 874 863 953 952 942 931 921 910 900 \, gist_ncar 4 12 21 21 14 7 19 39 69 79 89 88 86 85 84 82 80 180 270 370 480 480 590 591 691 791 890 980 980 970 970 960 950 940 920 910 910 900 903 906 809 709 518 628 738 848 858 868 878 878, f 93;
#X text 441 35 colormaps are tables that map input values [0 \, 1] to Pd's data-structure colors (000..999), f 48;
#X obj 264 259 route unknown;
#X obj 135 18 loadbang;
#X msg 135 41 gnuplot2;
#X text 389 198 the values (and names) found here \, are taken from matplotlib;
#X connect 1 0 2 0;
#X connect 2 0 7 0;
#X connect 3 0 4 0;
#X connect 5 0 6 0;
#X connect 5 1 0 0;
#X connect 5 2 3 0;
#X connect 7 0 8 0;
#X connect 7 1 10 1;
#X connect 8 0 10 0;
#X connect 10 0 5 0;
#X connect 11 0 12 0;
#X connect 12 0 2 0;
#X restore 1058 -24 pd colormaps;
#X msg 1058 50 colormap \$1;
#X obj 1058 29 symbol \$0.colormap;
#X msg 1058 -88 gnuplot2;
#X obj 1058 3 bng 18 250 50 0 empty empty empty 0 -9 0 10 #fcfcfc #000000 #000000;
#X msg 1075 -68 grey;
#X msg 1127 -88 magma;
#X msg 1127 -66 rainbow;
#X msg 1127 -44 gist_ncar;
#X obj 1062 78 s coll;
#X obj 604 10 r coll;
#X obj 734 238 r coll;
#X obj 750 411 r coll;
#X obj 878 541 r coll;
#X obj 1115 75 array define \$0.colormap;
#X obj -257 27 hsl 162 19 0 127 0 0 \$0-number1.r empty empty -2 -10 0 12 #fcfcfc #000000 #000000 0 1;
#X obj -258 50 hsl 162 19 0 127 0 0 \$0-number2.r empty empty -2 -10 0 12 #fcfcfc #000000 #000000 0 1;
#X obj -257 72 hsl 162 19 0 127 0 0 \$0-number3.r empty empty -2 -10 0 12 #fcfcfc #000000 #000000 0 1;
#X obj -256 95 hsl 162 19 0 127 0 0 \$0-number4.r empty empty -2 -10 0 12 #fcfcfc #000000 #000000 0 1;
#X obj -256 120 hsl 162 19 0 127 0 0 \$0-number5.r empty empty -2 -10 0 12 #fcfcfc #000000 #000000 0 1;
#X obj -255 145 hsl 162 19 0 127 0 0 \$0-number6.r empty empty -2 -10 0 12 #fcfcfc #000000 #000000 0 1;
#X obj -100 181 mtx_reverse;
#X obj -100 220 mtx_check;
#X obj -92 177 iemmatrix/mtx_plot;
#N canvas 553 387 450 300 div 0;
#X obj 132 66 inlet;
#X obj 140 104 list split 3;
#X obj 141 159 unpack 0 0 0 0 0 0;
#X obj 135 179 / 127;
#X obj 179 274 outlet;
#X obj 166 247 list prepend matrix 3 2;
#X obj 212 231 pack 0 0 0 0 0 0;
#X obj 171 179 / 127;
#X obj 207 180 / 127;
#X obj 244 180 / 127;
#X obj 280 178 / 127;
#X obj 314 180 / 127;
#X obj 300 272 list trim;
#X connect 0 0 1 0;
#X connect 1 1 2 0;
#X connect 2 0 3 0;
#X connect 2 1 7 0;
#X connect 2 2 8 0;
#X connect 2 3 9 0;
#X connect 2 4 10 0;
#X connect 2 5 11 0;
#X connect 3 0 6 0;
#X connect 5 0 12 0;
#X connect 6 0 5 0;
#X connect 7 0 6 1;
#X connect 8 0 6 2;
#X connect 9 0 6 3;
#X connect 10 0 6 4;
#X connect 11 0 6 5;
#X connect 12 0 4 0;
#X restore -35 221 pd div;
#X msg 3 174 mode row;
#X obj -18 186 t a;
#X obj 793 188 mtx_reverse;
#X obj 788 229 mtx_check;
#X obj 756 180 iemmatrix/mtx_plot;
#N canvas 553 387 450 300 div 0;
#X obj 132 66 inlet;
#X obj 140 104 list split 3;
#X obj 141 159 unpack 0 0 0 0 0 0;
#X obj 135 179 / 127;
#X obj 179 274 outlet;
#X obj 166 247 list prepend matrix 3 2;
#X obj 212 231 pack 0 0 0 0 0 0;
#X obj 171 179 / 127;
#X obj 207 180 / 127;
#X obj 244 180 / 127;
#X obj 280 178 / 127;
#X obj 314 180 / 127;
#X obj 300 272 list trim;
#X connect 0 0 1 0;
#X connect 1 1 2 0;
#X connect 2 0 3 0;
#X connect 2 1 7 0;
#X connect 2 2 8 0;
#X connect 2 3 9 0;
#X connect 2 4 10 0;
#X connect 2 5 11 0;
#X connect 3 0 6 0;
#X connect 5 0 12 0;
#X connect 6 0 5 0;
#X connect 7 0 6 1;
#X connect 8 0 6 2;
#X connect 9 0 6 3;
#X connect 10 0 6 4;
#X connect 11 0 6 5;
#X connect 12 0 4 0;
#X restore 853 230 pd div;
#X msg 965 143 mode row;
#X obj 876 167 t a;
#X obj 18 152 loadbang;
#X obj -164 425 print;
#X floatatom -897 564 5 0 0 0 - - - 0;
#X obj -883 542 unpack s f f 0 0 0 0 0 0;
#X floatatom -856 563 5 0 0 0 - - - 0;
#X floatatom -815 563 5 0 0 0 - - - 0;
#X floatatom -773 565 5 0 0 0 - - - 0;
#X floatatom -732 564 5 0 0 0 - - - 0;
#X floatatom -691 564 5 0 0 0 - - - 0;
#X obj -893 622 * 127;
#X obj -895 592 change;
#X obj -847 591 change;
#X obj -798 592 change;
#X obj -751 592 change;
#X obj -703 591 change;
#X obj -654 592 change;
#X obj -847 621 * 127;
#X obj -800 621 * 127;
#X obj -757 621 * 127;
#X obj -711 620 * 127;
#X obj -664 620 * 127;
#X obj -892 647 float;
#X obj -846 648 float;
#X obj -801 647 float;
#X obj -755 648 float;
#X obj -711 645 float;
#X obj -665 646 float;
#X obj -929 644 bng 19 250 50 0 empty empty empty 0 -10 0 12 #fcfcfc #000000 #000000;
#X floatatom -565 173 5 0 0 0 - - - 0;
#X obj -551 151 unpack s f f 0 0 0 0 0 0;
#X floatatom -524 172 5 0 0 0 - - - 0;
#X floatatom -483 172 5 0 0 0 - - - 0;
#X floatatom -441 174 5 0 0 0 - - - 0;
#X floatatom -400 173 5 0 0 0 - - - 0;
#X floatatom -359 173 5 0 0 0 - - - 0;
#X obj -561 231 * 127;
#X obj -563 201 change;
#X obj -515 200 change;
#X obj -466 201 change;
#X obj -419 201 change;
#X obj -371 200 change;
#X obj -322 201 change;
#X obj -515 230 * 127;
#X obj -468 230 * 127;
#X obj -425 230 * 127;
#X obj -379 229 * 127;
#X obj -332 229 * 127;
#X obj -560 256 float;
#X obj -514 257 float;
#X obj -469 256 float;
#X obj -423 257 float;
#X obj -379 254 float;
#X obj -333 255 float;
#X obj -597 253 bng 19 250 50 0 empty empty empty 0 -10 0 12 #fcfcfc #000000 #000000;
#X floatatom -1267 575 5 0 0 0 - - - 0;
#X obj -1253 553 unpack s f f 0 0 0 0 0 0;
#X floatatom -1226 574 5 0 0 0 - - - 0;
#X floatatom -1185 574 5 0 0 0 - - - 0;
#X floatatom -1143 576 5 0 0 0 - - - 0;
#X floatatom -1102 575 5 0 0 0 - - - 0;
#X floatatom -1061 575 5 0 0 0 - - - 0;
#X obj -1263 633 * 127;
#X obj -1265 603 change;
#X obj -1217 602 change;
#X obj -1168 603 change;
#X obj -1121 603 change;
#X obj -1073 602 change;
#X obj -1024 603 change;
#X obj -1217 632 * 127;
#X obj -1170 632 * 127;
#X obj -1127 632 * 127;
#X obj -1081 631 * 127;
#X obj -1034 631 * 127;
#X obj -1262 658 float;
#X obj -1216 659 float;
#X obj -1171 658 float;
#X obj -1125 659 float;
#X obj -1081 656 float;
#X obj -1035 657 float;
#X obj -1299 655 bng 19 250 50 0 empty empty empty 0 -10 0 12 #fcfcfc #000000 #000000;
#X floatatom -916 786 5 0 0 0 - - - 0;
#X obj -902 764 unpack s f f 0 0 0 0 0 0;
#X floatatom -875 785 5 0 0 0 - - - 0;
#X floatatom -834 785 5 0 0 0 - - - 0;
#X floatatom -792 787 5 0 0 0 - - - 0;
#X floatatom -751 786 5 0 0 0 - - - 0;
#X floatatom -710 786 5 0 0 0 - - - 0;
#X obj -912 844 * 127;
#X obj -914 814 change;
#X obj -866 813 change;
#X obj -817 814 change;
#X obj -770 814 change;
#X obj -722 813 change;
#X obj -673 814 change;
#X obj -866 843 * 127;
#X obj -819 843 * 127;
#X obj -776 843 * 127;
#X obj -730 842 * 127;
#X obj -683 842 * 127;
#X obj -911 869 float;
#X obj -865 870 float;
#X obj -820 869 float;
#X obj -774 870 float;
#X obj -730 867 float;
#X obj -684 868 float;
#X obj -948 866 bng 19 250 50 0 empty empty empty 0 -10 0 12 #fcfcfc #000000 #000000;
#X obj 11 -22 s a;
#X obj -560 289 s a;
#X obj -506 291 s b;
#X obj -449 290 s c;
#X obj -412 290 s d;
#X obj -1258 699 s a;
#X obj -1204 701 s b;
#X obj -1147 700 s c;
#X obj -1110 700 s d;
#X obj -891 688 s a;
#X obj -837 690 s b;
#X obj -780 689 s c;
#X obj -743 689 s d;
#X obj -905 900 s a;
#X obj -851 902 s b;
#X obj -794 901 s c;
#X obj -757 901 s d;
#X floatatom -1227 764 5 0 0 0 - - - 0;
#X obj -1213 742 unpack s f f 0 0 0 0 0 0;
#X floatatom -1186 763 5 0 0 0 - - - 0;
#X floatatom -1145 763 5 0 0 0 - - - 0;
#X floatatom -1103 765 5 0 0 0 - - - 0;
#X floatatom -1062 764 5 0 0 0 - - - 0;
#X floatatom -1021 764 5 0 0 0 - - - 0;
#X obj -1223 822 * 127;
#X obj -1225 792 change;
#X obj -1177 791 change;
#X obj -1128 792 change;
#X obj -1081 792 change;
#X obj -1033 791 change;
#X obj -984 792 change;
#X obj -1177 821 * 127;
#X obj -1130 821 * 127;
#X obj -1087 821 * 127;
#X obj -1041 820 * 127;
#X obj -994 820 * 127;
#X obj -1222 847 float;
#X obj -1176 848 float;
#X obj -1131 847 float;
#X obj -1085 848 float;
#X obj -1041 845 float;
#X obj -995 846 float;
#X obj -1259 844 bng 19 250 50 0 empty empty empty 0 -10 0 12 #fcfcfc #000000 #000000;
#X obj -1216 878 s a;
#X obj -1162 880 s b;
#X obj -1105 879 s c;
#X obj -1068 879 s d;
#X obj -361 290 s e;
#X obj -697 691 s e;
#X obj -1072 700 s e;
#X obj -1034 883 s e;
#X floatatom -799 210 5 0 0 0 - - - 0;
#X obj -830 211 t b;
#X obj -649 76 pack s 2 3 0 0 0 0 0 0;
#X floatatom -546 355 5 0 0 0 - - - 0;
#X obj -532 333 unpack s f f 0 0 0 0 0 0;
#X floatatom -505 354 5 0 0 0 - - - 0;
#X floatatom -464 354 5 0 0 0 - - - 0;
#X floatatom -422 356 5 0 0 0 - - - 0;
#X floatatom -381 355 5 0 0 0 - - - 0;
#X floatatom -340 355 5 0 0 0 - - - 0;
#X obj -542 413 * 127;
#X obj -544 383 change;
#X obj -496 382 change;
#X obj -447 383 change;
#X obj -400 383 change;
#X obj -352 382 change;
#X obj -303 383 change;
#X obj -496 412 * 127;
#X obj -449 412 * 127;
#X obj -406 412 * 127;
#X obj -360 411 * 127;
#X obj -313 411 * 127;
#X obj -541 438 float;
#X obj -495 439 float;
#X obj -450 438 float;
#X obj -404 439 float;
#X obj -360 436 float;
#X obj -314 437 float;
#X obj -578 435 bng 19 250 50 0 empty empty empty 0 -10 0 12 #fcfcfc #000000 #000000;
#X obj -541 471 s a;
#X obj -487 473 s b;
#X obj -430 472 s c;
#X obj -393 472 s d;
#X obj -342 472 s e;
#X floatatom -797 420 5 0 0 0 - - - 0;
#X floatatom -512 549 5 0 0 0 - - - 0;
#X obj -498 527 unpack s f f 0 0 0 0 0 0;
#X floatatom -471 548 5 0 0 0 - - - 0;
#X floatatom -430 548 5 0 0 0 - - - 0;
#X floatatom -388 550 5 0 0 0 - - - 0;
#X floatatom -347 549 5 0 0 0 - - - 0;
#X floatatom -306 549 5 0 0 0 - - - 0;
#X obj -508 607 * 127;
#X obj -510 577 change;
#X obj -462 576 change;
#X obj -413 577 change;
#X obj -366 577 change;
#X obj -318 576 change;
#X obj -269 577 change;
#X obj -462 606 * 127;
#X obj -415 606 * 127;
#X obj -372 606 * 127;
#X obj -326 605 * 127;
#X obj -279 605 * 127;
#X obj -507 632 float;
#X obj -461 633 float;
#X obj -416 632 float;
#X obj -370 633 float;
#X obj -326 630 float;
#X obj -280 631 float;
#X obj -544 629 bng 19 250 50 0 empty empty empty 0 -10 0 12 #fcfcfc #000000 #000000;
#X obj -506 673 s a;
#X obj -452 675 s b;
#X obj -395 674 s c;
#X obj -358 674 s d;
#X obj -312 676 s e;
#X floatatom -492 756 5 0 0 0 - - - 0;
#X obj -493 732 unpack s f f 0 0 0 0 0 0;
#X floatatom -451 755 5 0 0 0 - - - 0;
#X floatatom -410 755 5 0 0 0 - - - 0;
#X floatatom -368 757 5 0 0 0 - - - 0;
#X floatatom -327 756 5 0 0 0 - - - 0;
#X floatatom -286 756 5 0 0 0 - - - 0;
#X obj -488 814 * 127;
#X obj -490 784 change;
#X obj -442 783 change;
#X obj -393 784 change;
#X obj -346 784 change;
#X obj -298 783 change;
#X obj -249 784 change;
#X obj -442 813 * 127;
#X obj -395 813 * 127;
#X obj -352 813 * 127;
#X obj -306 812 * 127;
#X obj -259 812 * 127;
#X obj -487 839 float;
#X obj -441 840 float;
#X obj -396 839 float;
#X obj -350 840 float;
#X obj -306 837 float;
#X obj -260 838 float;
#X obj -524 836 bng 19 250 50 0 empty empty empty 0 -10 0 12 #fcfcfc #000000 #000000;
#X obj -486 880 s a;
#X obj -432 882 s b;
#X obj -375 881 s c;
#X obj -338 881 s d;
#X obj -292 883 s e;
#X obj -696 353 sel 0 1 2 3 4 5 6 7;
#X floatatom 1133 306 5 0 0 0 - - - 0;
#X obj 1138 278 unpack s f f 0 0 0 0 0 0;
#X floatatom 1174 305 5 0 0 0 - - - 0;
#X floatatom 1215 305 5 0 0 0 - - - 0;
#X floatatom 1257 307 5 0 0 0 - - - 0;
#X floatatom 1298 306 5 0 0 0 - - - 0;
#X floatatom 1339 306 5 0 0 0 - - - 0;
#X obj 1137 364 * 127;
#X obj 1135 334 change;
#X obj 1183 333 change;
#X obj 1232 334 change;
#X obj 1279 334 change;
#X obj 1327 333 change;
#X obj 1376 334 change;
#X obj 1183 363 * 127;
#X obj 1230 363 * 127;
#X obj 1273 363 * 127;
#X obj 1319 362 * 127;
#X obj 1366 362 * 127;
#X obj 1138 389 float;
#X obj 1184 390 float;
#X obj 1229 389 float;
#X obj 1275 390 float;
#X obj 1319 387 float;
#X obj 1365 388 float;
#X obj 1101 386 bng 19 250 50 0 empty empty empty 0 -10 0 12 #fcfcfc #000000 #000000;
#X obj 1138 422 s a;
#X obj 1192 424 s b;
#X obj 1249 423 s c;
#X obj 1286 423 s d;
#X obj 1337 423 s e;
#X obj -796 448 s r;
#X obj 1593 459 r r;
#X floatatom 1065 534 5 0 0 0 - - - 0;
#X obj 1079 512 unpack s f f 0 0 0 0 0 0;
#X floatatom 1106 533 5 0 0 0 - - - 0;
#X floatatom 1147 533 5 0 0 0 - - - 0;
#X floatatom 1189 535 5 0 0 0 - - - 0;
#X floatatom 1230 534 5 0 0 0 - - - 0;
#X floatatom 1271 534 5 0 0 0 - - - 0;
#X obj 1069 592 * 127;
#X obj 1067 562 change;
#X obj 1115 561 change;
#X obj 1164 562 change;
#X obj 1211 562 change;
#X obj 1259 561 change;
#X obj 1308 562 change;
#X obj 1115 591 * 127;
#X obj 1162 591 * 127;
#X obj 1205 591 * 127;
#X obj 1251 590 * 127;
#X obj 1298 590 * 127;
#X obj 1070 617 float;
#X obj 1116 618 float;
#X obj 1161 617 float;
#X obj 1207 618 float;
#X obj 1251 615 float;
#X obj 1297 616 float;
#X obj 1033 614 bng 19 250 50 0 empty empty empty 0 -10 0 12 #fcfcfc #000000 #000000;
#X obj 1070 650 s a;
#X obj 1124 652 s b;
#X obj 1181 651 s c;
#X obj 1218 651 s d;
#X obj 1269 651 s e;
#X obj -795 234 r dubbang;
#X obj -794 305 t b;
#X obj -794 253 change;
#X floatatom 1069 711 5 0 0 0 - - - 0;
#X obj 1083 689 unpack s f f 0 0 0 0 0 0;
#X floatatom 1110 710 5 0 0 0 - - - 0;
#X floatatom 1151 710 5 0 0 0 - - - 0;
#X floatatom 1193 712 5 0 0 0 - - - 0;
#X floatatom 1234 711 5 0 0 0 - - - 0;
#X floatatom 1275 711 5 0 0 0 - - - 0;
#X obj 1073 769 * 127;
#X obj 1071 739 change;
#X obj 1119 738 change;
#X obj 1168 739 change;
#X obj 1215 739 change;
#X obj 1263 738 change;
#X obj 1312 739 change;
#X obj 1119 768 * 127;
#X obj 1166 768 * 127;
#X obj 1209 768 * 127;
#X obj 1255 767 * 127;
#X obj 1302 767 * 127;
#X obj 1074 794 float;
#X obj 1120 795 float;
#X obj 1165 794 float;
#X obj 1211 795 float;
#X obj 1255 792 float;
#X obj 1301 793 float;
#X obj 1037 791 bng 19 250 50 0 empty empty empty 0 -10 0 12 #fcfcfc #000000 #000000;
#X obj 1074 827 s a;
#X obj 1128 829 s b;
#X obj 1185 828 s c;
#X obj 1222 828 s d;
#X obj 1273 828 s e;
#X obj -2 -178 random 127;
#X obj -7 -142 random 127;
#X obj -6 -118 random 127;
#X obj -2 -98 random 127;
#X obj 0 -73 random 127;
#X obj 1 -46 random 127;
#X obj -36 -111 bng 19 250 50 0 empty empty empty 0 -10 0 12 #fcfcfc #000000 #000000;
#X obj -409 -90 loadbang;
#X floatatom 1077 877 5 0 0 0 - - - 0;
#X obj 1091 855 unpack s f f 0 0 0 0 0 0;
#X floatatom 1118 876 5 0 0 0 - - - 0;
#X floatatom 1159 876 5 0 0 0 - - - 0;
#X floatatom 1201 878 5 0 0 0 - - - 0;
#X floatatom 1242 877 5 0 0 0 - - - 0;
#X floatatom 1283 877 5 0 0 0 - - - 0;
#X obj 1081 935 * 127;
#X obj 1079 905 change;
#X obj 1127 904 change;
#X obj 1176 905 change;
#X obj 1223 905 change;
#X obj 1271 904 change;
#X obj 1320 905 change;
#X obj 1127 934 * 127;
#X obj 1174 934 * 127;
#X obj 1217 934 * 127;
#X obj 1263 933 * 127;
#X obj 1310 933 * 127;
#X obj 1082 960 float;
#X obj 1128 961 float;
#X obj 1173 960 float;
#X obj 1219 961 float;
#X obj 1263 958 float;
#X obj 1309 959 float;
#X obj 1045 957 bng 19 250 50 0 empty empty empty 0 -10 0 12 #fcfcfc #000000 #000000;
#X obj 1082 993 s a;
#X obj 1136 995 s b;
#X obj 1193 994 s c;
#X obj 1230 994 s d;
#X obj 1281 994 s e;
#X floatatom 1404 541 5 0 0 0 - - - 0;
#X obj 1418 519 unpack s f f 0 0 0 0 0 0;
#X floatatom 1445 540 5 0 0 0 - - - 0;
#X floatatom 1486 540 5 0 0 0 - - - 0;
#X floatatom 1528 542 5 0 0 0 - - - 0;
#X floatatom 1569 541 5 0 0 0 - - - 0;
#X floatatom 1610 541 5 0 0 0 - - - 0;
#X obj 1408 599 * 127;
#X obj 1406 569 change;
#X obj 1454 568 change;
#X obj 1503 569 change;
#X obj 1550 569 change;
#X obj 1598 568 change;
#X obj 1647 569 change;
#X obj 1454 598 * 127;
#X obj 1501 598 * 127;
#X obj 1544 598 * 127;
#X obj 1590 597 * 127;
#X obj 1637 597 * 127;
#X obj 1409 624 float;
#X obj 1455 625 float;
#X obj 1500 624 float;
#X obj 1546 625 float;
#X obj 1590 622 float;
#X obj 1636 623 float;
#X obj 1372 621 bng 19 250 50 0 empty empty empty 0 -10 0 12 #fcfcfc #000000 #000000;
#X obj 1409 657 s a;
#X obj 1463 659 s b;
#X obj 1520 658 s c;
#X obj 1557 658 s d;
#X obj 1608 658 s e;
#X floatatom 1409 738 5 0 0 0 - - - 0;
#X obj 1423 716 unpack s f f 0 0 0 0 0 0;
#X floatatom 1450 737 5 0 0 0 - - - 0;
#X floatatom 1491 737 5 0 0 0 - - - 0;
#X floatatom 1533 739 5 0 0 0 - - - 0;
#X floatatom 1574 738 5 0 0 0 - - - 0;
#X floatatom 1615 738 5 0 0 0 - - - 0;
#X obj 1413 796 * 127;
#X obj 1411 766 change;
#X obj 1459 765 change;
#X obj 1508 766 change;
#X obj 1555 766 change;
#X obj 1603 765 change;
#X obj 1652 766 change;
#X obj 1459 795 * 127;
#X obj 1506 795 * 127;
#X obj 1549 795 * 127;
#X obj 1595 794 * 127;
#X obj 1642 794 * 127;
#X obj 1414 821 float;
#X obj 1460 822 float;
#X obj 1505 821 float;
#X obj 1551 822 float;
#X obj 1595 819 float;
#X obj 1641 820 float;
#X obj 1377 818 bng 19 250 50 0 empty empty empty 0 -10 0 12 #fcfcfc #000000 #000000;
#X obj 1414 854 s a;
#X obj 1468 856 s b;
#X obj 1525 855 s c;
#X obj 1562 855 s d;
#X obj 1613 855 s e;
#X floatatom 1038 1078 5 0 0 0 - - - 0;
#X obj 1052 1056 unpack s f f 0 0 0 0 0 0;
#X floatatom 1079 1077 5 0 0 0 - - - 0;
#X floatatom 1120 1077 5 0 0 0 - - - 0;
#X floatatom 1162 1079 5 0 0 0 - - - 0;
#X floatatom 1203 1078 5 0 0 0 - - - 0;
#X floatatom 1244 1078 5 0 0 0 - - - 0;
#X obj 1042 1136 * 127;
#X obj 1040 1106 change;
#X obj 1088 1105 change;
#X obj 1137 1106 change;
#X obj 1184 1106 change;
#X obj 1232 1105 change;
#X obj 1281 1106 change;
#X obj 1088 1135 * 127;
#X obj 1135 1135 * 127;
#X obj 1178 1135 * 127;
#X obj 1224 1134 * 127;
#X obj 1271 1134 * 127;
#X obj 1043 1161 float;
#X obj 1089 1162 float;
#X obj 1134 1161 float;
#X obj 1180 1162 float;
#X obj 1224 1159 float;
#X obj 1270 1160 float;
#X obj 1006 1158 bng 19 250 50 0 empty empty empty 0 -10 0 12 #fcfcfc #000000 #000000;
#X obj 1043 1194 s a;
#X obj 1097 1196 s b;
#X obj 1154 1195 s c;
#X obj 1191 1195 s d;
#X obj 1242 1195 s e;
#X floatatom 1403 1074 5 0 0 0 - - - 0;
#X obj 1417 1052 unpack s f f 0 0 0 0 0 0;
#X floatatom 1444 1073 5 0 0 0 - - - 0;
#X floatatom 1485 1073 5 0 0 0 - - - 0;
#X floatatom 1527 1075 5 0 0 0 - - - 0;
#X floatatom 1568 1074 5 0 0 0 - - - 0;
#X floatatom 1609 1074 5 0 0 0 - - - 0;
#X obj 1407 1132 * 127;
#X obj 1405 1102 change;
#X obj 1453 1101 change;
#X obj 1502 1102 change;
#X obj 1549 1102 change;
#X obj 1597 1101 change;
#X obj 1646 1102 change;
#X obj 1453 1131 * 127;
#X obj 1500 1131 * 127;
#X obj 1543 1131 * 127;
#X obj 1589 1130 * 127;
#X obj 1636 1130 * 127;
#X obj 1408 1157 float;
#X obj 1454 1158 float;
#X obj 1499 1157 float;
#X obj 1545 1158 float;
#X obj 1589 1155 float;
#X obj 1635 1156 float;
#X obj 1371 1154 bng 19 250 50 0 empty empty empty 0 -10 0 12 #fcfcfc #000000 #000000;
#X obj 1408 1190 s a;
#X obj 1462 1192 s b;
#X obj 1519 1191 s c;
#X obj 1556 1191 s d;
#X obj 1607 1191 s e;
#X floatatom 1719 1067 5 0 0 0 - - - 0;
#X obj 1733 1045 unpack s f f 0 0 0 0 0 0;
#X floatatom 1760 1066 5 0 0 0 - - - 0;
#X floatatom 1801 1066 5 0 0 0 - - - 0;
#X floatatom 1843 1068 5 0 0 0 - - - 0;
#X floatatom 1884 1067 5 0 0 0 - - - 0;
#X floatatom 1925 1067 5 0 0 0 - - - 0;
#X obj 1723 1125 * 127;
#X obj 1721 1095 change;
#X obj 1769 1094 change;
#X obj 1818 1095 change;
#X obj 1865 1095 change;
#X obj 1913 1094 change;
#X obj 1962 1095 change;
#X obj 1769 1124 * 127;
#X obj 1816 1124 * 127;
#X obj 1859 1124 * 127;
#X obj 1905 1123 * 127;
#X obj 1952 1123 * 127;
#X obj 1724 1150 float;
#X obj 1770 1151 float;
#X obj 1815 1150 float;
#X obj 1861 1151 float;
#X obj 1905 1148 float;
#X obj 1951 1149 float;
#X obj 1687 1147 bng 19 250 50 0 empty empty empty 0 -10 0 12 #fcfcfc #000000 #000000;
#X obj 1724 1183 s a;
#X obj 1778 1185 s b;
#X obj 1835 1184 s c;
#X obj 1872 1184 s d;
#X obj 1923 1184 s e;
#X obj 1596 497 sel 8 9 10 11 12 13 14 15 16;
#X obj -780 378 random 17;
#X obj -317 290 s f;
#X obj -302 473 s f;
#X obj -267 666 s f;
#X obj -251 881 s f;
#X obj -680 902 s f;
#X obj -731 902 s e;
#X obj -998 878 s f;
#X obj -1023 698 s f;
#X obj -646 686 s f;
#X obj 1380 412 s f;
#X obj 1312 653 s f;
#X obj 1323 832 s f;
#X obj 1332 989 s f;
#X obj 1653 859 s f;
#X obj 1683 657 s f;
#X obj 966 124 loadbang;
#X obj 82 -181 pack 0 400;
#X obj 155 -181 line;
#X obj 71 -142 pack 0 400;
#X obj 144 -142 line;
#X obj 77 -118 pack 0 400;
#X obj 150 -118 line;
#X obj 81 -92 pack 0 400;
#X obj 154 -92 line;
#X obj 87 -68 pack 0 400;
#X obj 160 -68 line;
#X obj 88 -46 pack 0 400;
#X obj 161 -46 line;
#X obj -192 -91 r res;
#X obj -851 237 mod 4;
#X floatatom -848 313 5 0 0 0 - - - 0;
#X obj -848 287 + 1;
#X obj -859 337 * 2;
#X floatatom -708 223 5 0 0 0 - - - 0;
#X obj -861 362 mod 4;
#X floatatom -861 386 5 0 0 0 - - - 0;
#X obj -906 411 s resquick;
#X obj -140 -144 r resquick;
#X floatatom -60 -142 5 0 0 0 - - - 0;
#X obj 421 86 tgl 15 0 empty empty empty 17 7 0 10 #fcfcfc #000000 #000000 0 1;
#X msg 421 107 connect \$1;
#X obj 431 96 tgl 15 0 empty empty empty 17 7 0 10 #fcfcfc #000000 #000000 0 1;
#X msg 431 117 connect \$1;
#X msg -899 140 connect \$1;
#X obj -899 113 tgl 19 0 empty empty empty 0 -10 0 12 #fcfcfc #000000 #000000 0 1;
#X msg -818 166 play \$1;
#X obj -817 141 tgl 19 0 empty empty empty 0 -10 0 12 #fcfcfc #000000 #000000 0 1;
#X obj -147 -125 t b;
#X obj -852 102 loadbang;
#X obj -122 -87 spigot;
#X obj -71 105 tgl 19 0 empty empty empty 0 -10 0 12 #fcfcfc #000000 #000000 0 1;
#X obj 631 -17 sel 8 7 6 5 4 3 2 1;
#X text -87 82 51 trillion 5.16938e+09;
#X text 617 56 factorial 6 X 16? 12240;
#X text 701 103 5.16938e+09 x 12240;
#X obj 802 56 5.16938e+09 x 12240;
#X floatatom 803 79 5 0 0 0 - - - 0;
#X obj 952 60 *;
#X msg 978 32 12240;
#X msg 894 32 5.16938e+09;
#X msg 957 90;
#X floatatom 842 109 90 0 0 0 - - - 0;
#X obj 1719 344 timer;
#X obj 1630 340 bng 19 250 50 0 empty empty empty 0 -10 0 12 #fcfcfc #000000 #000000;
#X floatatom 188 -181 5 0 100 1 number1 \$0-number1.r \$0-number1.s 0;
#X obj 846 -170 bng 20 250 50 0 \$0-save.s \$0-save.r save 22 7 0 10 #fcc4c4 #000000 #000000;
#X obj 796 -170 bng 20 250 50 0 \$0-load.s \$0-load.r load 22 7 0 10 #c4fcc4 #000000 #000000;
#X floatatom 188 -161 5 0 100 1 number2 \$0-number2.r \$0-number2.s 0;
#X floatatom 188 -141 5 0 100 1 number3 \$0-number3.r \$0-number3.s 0;
#N canvas 340 215 826 406 presets 0;
#X obj 50 82 save.param \$0 number1;
#X obj 50 102 save.param \$0 number2;
#X obj 50 122 save.param \$0 number3;
#X obj 50 189 save.param \$0 slider;
#X obj 50 209 save.param \$0 hradio;
#N canvas 370 190 666 385 read.write 0;
#X obj 51 41 r \$0-save.s;
#X msg 90 101 clear;
#X obj 51 61 savepanel;
#X msg 51 141 write \$1;
#X obj 70 121 s \$0-get.values;
#X obj 51 81 t s b b;
#X obj 261 41 r \$0-load.s;
#X obj 261 61 openpanel;
#X obj 261 81 t b s s;
#X msg 280 101 read \$1;
#X obj 280 121 s \$0-to.text.define;
#X obj 51 241 text define \$0-preset;
#X obj 51 171 s \$0-to.text.define;
#X obj 51 221 r \$0-to.text.define;
#X msg 261 141 line 0 \, bang;
#X obj 261 161 text sequence \$0-preset;
#X obj 261 241 t a a;
#X obj 261 281 list split 2;
#X obj 261 221 list prepend \$0;
#X msg 346 257 symbol \$1-\$2;
#X obj 441 237 t a a;
#X obj 441 217 list prepend \$0;
#X msg 496 253 symbol \$1-\$2.r;
#X obj 441 277 list split 2;
#X obj 475 297 send;
#X obj 51 281 r \$0-to.text.set;
#X obj 51 301 text set \$0-preset 1e+06;
#X obj 295 301 array set;
#X obj 261 181 list trim;
#X obj 261 201 route @array;
#N canvas 132 151 450 300 write.preset.name 0;
#X msg 234 202 label \$1;
#X obj 234 222 s \$0-preset.name.r;
#X obj 44 146 loadbang;
#X obj 44 166 symbol no_preset_loaded;
#X obj 234 182 makefilename PRESET_FILE:%s;
#X obj 206 56 list fromsymbol;
#X obj 206 132 list split;
#X obj 234 152 list tosymbol;
#X obj 263 112 + 1;
#X obj 206 36 inlet;
#N canvas 583 113 293 386 find 0;
#X obj 102 46 inlet;
#X obj 102 175 list store;
#X obj 102 90 until;
#X obj 102 112 f;
#X obj 132 112 + 1;
#X msg 102 153 get \$1 1;
#X obj 145 91 0;
#X obj 102 68 t b b a;
#X obj 102 133 t f f;
#X obj 102 196 == 47;
#X obj 102 217 sel 1;
#X obj 102 238 f;
#X obj 159 279 f;
#X obj 159 300 outlet;
#X connect 0 0 7 0;
#X connect 1 0 9 0;
#X connect 1 1 2 1;
#X connect 1 1 12 0;
#X connect 2 0 3 0;
#X connect 3 0 4 0;
#X connect 3 0 8 0;
#X connect 4 0 3 1;
#X connect 5 0 1 0;
#X connect 6 0 3 1;
#X connect 7 0 2 0;
#X connect 7 1 6 0;
#X connect 7 2 1 1;
#X connect 8 0 5 0;
#X connect 8 1 11 1;
#X connect 9 0 10 0;
#X connect 10 0 11 0;
#X connect 11 0 12 1;
#X connect 12 0 13 0;
#X restore 263 92 pd find;
#X obj 206 76 t a a;
#X connect 0 0 1 0;
#X connect 2 0 3 0;
#X connect 3 0 4 0;
#X connect 4 0 0 0;
#X connect 5 0 11 0;
#X connect 6 1 7 0;
#X connect 7 0 4 0;
#X connect 8 0 6 1;
#X connect 9 0 5 0;
#X connect 10 0 8 0;
#X connect 11 0 6 0;
#X connect 11 1 10 0;
#X restore 341 97 pd write.preset.name;
#X connect 0 0 2 0;
#X connect 1 0 12 0;
#X connect 2 0 5 0;
#X connect 3 0 12 0;
#X connect 5 0 3 0;
#X connect 5 1 4 0;
#X connect 5 2 1 0;
#X connect 6 0 7 0;
#X connect 7 0 8 0;
#X connect 8 0 14 0;
#X connect 8 1 9 0;
#X connect 8 2 30 0;
#X connect 9 0 10 0;
#X connect 13 0 11 0;
#X connect 14 0 15 0;
#X connect 15 0 28 0;
#X connect 16 0 17 0;
#X connect 16 1 19 0;
#X connect 17 1 27 0;
#X connect 18 0 16 0;
#X connect 19 0 27 2;
#X connect 20 0 23 0;
#X connect 20 1 22 0;
#X connect 21 0 20 0;
#X connect 22 0 24 1;
#X connect 23 1 24 0;
#X connect 25 0 26 0;
#X connect 28 0 29 0;
#X connect 29 0 18 0;
#X connect 29 1 21 0;
#X restore 50 32 pd read.write;
#X text 253 171 SEND: \$0-<parameter_name>.s;
#X text 253 191 RECEIVE: \$0-<parameter_name>.r;
#X text 253 31 this is the read/write subpatch which should be left as-is., f 82;
#X text 253 81 in order for a parameter that is in the parent patch to be saved in the preset file \, here there needs to be a 'save.param' abstraction with the name of that parameter as the second argument (whilst the first argument is always \$0). The send and receive symbols for each parameter must be formated in this way:, f 82;
#X text 253 231 tables can be saves as well with the [save.table] object. The first argument is \$0 \, the second is the name of the table without \$0-. The object on the left will save the content of a table named "\$0-array1"., f 82;
#X text 253 301 With this method it's still required to create a new 'save.param' (or 'save.table') abstraction for every parameter or table to be saved in the presets \, but at least there is no need to patch all the send and receives individually., f 82;
#X obj 50 232 save.array \$0 array1;
#X obj 45 306 save.param \$0 number4;
#X obj 45 326 save.param \$0 number5;
#X obj 45 346 save.param \$0 number6;
#X restore 906 -170 pd presets;
#X floatatom 188 -120 5 0 100 1 number4 \$0-number4.r \$0-number4.s 0;
#X floatatom 188 -100 5 0 100 1 number5 \$0-number5.r \$0-number5.s 0;
#X floatatom 188 -80 5 0 100 1 number6 \$0-number6.r \$0-number6.s 0;
#N canvas 121 146 803 587 gemdisplayer 0;
#X obj 626 162 gemhead;
#X msg 459 160 RGBA;
#X msg 508 117 GREY;
#X msg 460 140 RGB;
#X obj 502 142 r pix_set_in;
#X obj 518 8 declare -lib Gem;
#N canvas 661 348 725 362 advanced 0;
#X msg 26 210 set 16 16;
#X msg 24 93 fill \$1 \, bang;
#X floatatom 24 76 5 0 1 0 - - - 0;
#X floatatom 186 47 5 0 1 0 - - - 0;
#X floatatom 226 47 5 0 1 0 - - - 0;
#X floatatom 266 47 5 0 1 0 - - - 0;
#X floatatom 312 48 5 0 1 0 - - - 0;
#X obj 24 177 s pix_set_in;
#X text 33 30 fill message fill the whole image with the given values;
#X text 174 133 in RGBA mode you can set each channel;
#X obj 312 64 t b f;
#X obj 266 64 t b f;
#X obj 226 64 t b f;
#X floatatom 446 47 5 0 1 0 - - - 0;
#X floatatom 486 47 5 0 1 0 - - - 0;
#X floatatom 526 47 5 0 1 0 - - - 0;
#X obj 526 64 t b f;
#X obj 486 64 t b f;
#X text 457 135 in RGB mode you can set each channel;
#X msg 446 114 fill \$1 \$2 \$3 \, bang;
#X obj 446 92 pack 0 0 0;
#X obj 26 315 s pix_set_in;
#X text 105 210 set the size of the image;
#X obj 154 272 bng 15 250 50 0 empty empty empty 17 7 0 10 #fcfcfc #000000 #000000;
#X text 176 273 send the image;
#X obj 254 109 pack 0 0 0 0 0 0;
#X msg 205 158 fill \$1 \$2 \$3 \$4 \$5 \$6 \, bang;
#X floatatom 350 46 5 0 1 0 - - - 0;
#X floatatom 396 47 5 0 1 0 - - - 0;
#X obj 396 63 t b f;
#X obj 350 63 t b f;
#X obj 211 -142 r a;
#X floatatom 210 -107 5 0 0 0 - - - 0;
#X obj 210 -83 / 127;
#X floatatom 251 -108 5 0 0 0 - - - 0;
#X obj 251 -84 / 127;
#X obj 252 -143 r b;
#X floatatom 292 -110 5 0 0 0 - - - 0;
#X obj 292 -86 / 127;
#X obj 293 -145 r c;
#X floatatom 207 -23 5 0 0 0 - - - 0;
#X obj 207 1 / 127;
#X floatatom 248 -24 5 0 0 0 - - - 0;
#X obj 248 0 / 127;
#X floatatom 289 -26 5 0 0 0 - - - 0;
#X obj 289 -2 / 127;
#X obj 208 -58 r d;
#X obj 249 -59 r e;
#X obj 290 -61 r f;
#X msg 57 238 set 2 3;
#X connect 0 0 21 0;
#X connect 1 0 7 0;
#X connect 2 0 1 0;
#X connect 3 0 25 0;
#X connect 4 0 12 0;
#X connect 5 0 11 0;
#X connect 6 0 10 0;
#X connect 10 0 25 0;
#X connect 10 1 25 3;
#X connect 11 0 25 0;
#X connect 11 1 25 2;
#X connect 12 0 25 0;
#X connect 12 1 25 1;
#X connect 13 0 20 0;
#X connect 14 0 17 0;
#X connect 15 0 16 0;
#X connect 16 0 20 0;
#X connect 16 1 20 2;
#X connect 17 0 20 0;
#X connect 17 1 20 1;
#X connect 19 0 7 0;
#X connect 20 0 19 0;
#X connect 23 0 21 0;
#X connect 26 0 7 0;
#X connect 27 0 30 0;
#X connect 28 0 29 0;
#X connect 29 0 25 0;
#X connect 29 1 25 5;
#X connect 30 0 25 0;
#X connect 30 1 25 4;
#X connect 31 0 32 0;
#X connect 32 0 33 0;
#X connect 33 0 3 0;
#X connect 34 0 35 0;
#X connect 35 0 4 0;
#X connect 36 0 34 0;
#X connect 37 0 38 0;
#X connect 38 0 5 0;
#X connect 39 0 37 0;
#X connect 40 0 41 0;
#X connect 41 0 6 0;
#X connect 42 0 43 0;
#X connect 43 0 27 0;
#X connect 44 0 45 0;
#X connect 45 0 28 0;
#X connect 46 0 40 0;
#X connect 47 0 42 0;
#X connect 48 0 44 0;
#X connect 49 0 21 0;
#X restore 623 100 pd advanced;
#X obj 666 261 _gemwin \; 0 \; 0 \; color 0.5 0.5 0.5;
#X obj 613 225 _pix2rectangle 3 \; quality 0;
#X obj 731 92 r a;
#X floatatom 730 127 5 0 0 0 - - - 0;
#X obj 730 151 / 127;
#X floatatom 771 126 5 0 0 0 - - - 0;
#X obj 771 150 / 127;
#X obj 772 91 r b;
#X floatatom 812 124 5 0 0 0 - - - 0;
#X obj 812 148 / 127;
#X obj 813 89 r c;
#X floatatom 729 212 5 0 0 0 - - - 0;
#X obj 727 235 / 127;
#X floatatom 768 210 5 0 0 0 - - - 0;
#X obj 768 234 / 127;
#X floatatom 809 208 5 0 0 0 - - - 0;
#X obj 809 232 / 127;
#X obj 728 176 r d;
#X obj 769 175 r e;
#X obj 810 173 r f;
#X obj 715 330 pack 0 0 0 0;
#X obj 671 67 print;
#X msg 512 166 0.3 \, 0.6 \, 1 \, 0.25 0.5 \, 0.75 0.5 0 0 0 1 1 1 0 1 0 1 0 1 1, f 12;
#X obj 614 197 pix_set 2 3;
#X obj 671 37 pack 0 0 0 0 0 0;
#X obj 518 95 loadbang;
#X connect 0 0 30 0;
#X connect 1 0 30 0;
#X connect 2 0 30 0;
#X connect 3 0 30 0;
#X connect 4 0 30 0;
#X connect 9 0 10 0;
#X connect 10 0 11 0;
#X connect 11 0 31 0;
#X connect 12 0 13 0;
#X connect 13 0 31 1;
#X connect 14 0 12 0;
#X connect 15 0 16 0;
#X connect 16 0 31 2;
#X connect 17 0 15 0;
#X connect 18 0 19 0;
#X connect 19 0 31 3;
#X connect 20 0 21 0;
#X connect 21 0 31 4;
#X connect 22 0 23 0;
#X connect 23 0 31 5;
#X connect 24 0 18 0;
#X connect 25 0 20 0;
#X connect 26 0 22 0;
#X connect 29 0 30 1;
#X connect 30 0 8 0;
#X connect 31 0 28 0;
#X connect 31 0 30 1;
#X connect 32 0 2 0;
#X restore 906 -151 pd gemdisplayer;
#X obj -275 -29 s firstorder;
#X obj -276 -46 s secondorder;
#X obj -278 -65 s thirdorder;
#X obj -282 -83 s fourthorder;
#X obj -282 -104 s fifthorder;
#X obj -284 -122 s sixthorder;
#X obj -799 190 abl_link~ 1 0 16 80;
#X connect 3 0 9 3;
#X connect 3 0 13 0;
#X connect 4 0 9 0;
#X connect 5 0 4 0;
#X connect 6 0 5 0;
#X connect 7 0 9 4;
#X connect 7 0 13 1;
#X connect 8 0 9 8;
#X connect 8 0 13 5;
#X connect 9 0 20 0;
#X connect 10 0 9 5;
#X connect 10 0 13 2;
#X connect 11 0 9 6;
#X connect 11 0 13 3;
#X connect 12 0 9 7;
#X connect 12 0 13 4;
#X connect 15 0 21 0;
#X connect 15 0 16 0;
#X connect 15 0 62 0;
#X connect 15 0 63 0;
#X connect 15 0 104 0;
#X connect 15 0 145 0;
#X connect 17 0 15 0;
#X connect 18 0 17 0;
#X connect 20 0 18 0;
#X connect 21 0 22 0;
#X connect 22 0 41 0;
#X connect 22 0 42 0;
#X connect 22 0 23 0;
#X connect 22 0 45 0;
#X connect 22 0 110 0;
#X connect 24 0 22 0;
#X connect 25 0 26 0;
#X connect 25 0 117 0;
#X connect 25 0 277 0;
#X connect 27 0 25 0;
#X connect 28 0 62 1;
#X connect 29 0 30 0;
#X connect 29 0 309 0;
#X connect 31 0 29 0;
#X connect 32 0 63 1;
#X connect 33 0 34 0;
#X connect 33 0 372 0;
#X connect 35 0 33 0;
#X connect 36 0 41 1;
#X connect 37 0 38 0;
#X connect 37 0 405 0;
#X connect 39 0 37 0;
#X connect 40 0 42 1;
#X connect 41 0 33 0;
#X connect 42 0 37 0;
#X connect 43 0 44 0;
#X connect 43 0 47 0;
#X connect 43 0 57 0;
#X connect 43 0 70 0;
#X connect 43 0 79 0;
#X connect 43 0 439 0;
#X connect 45 0 43 0;
#X connect 47 0 53 0;
#X connect 47 1 48 1;
#X connect 48 0 49 1;
#X connect 49 0 50 0;
#X connect 51 0 52 0;
#X connect 51 0 61 0;
#X connect 51 0 73 0;
#X connect 51 0 82 0;
#X connect 51 0 509 0;
#X connect 53 0 49 0;
#X connect 53 0 46 0;
#X connect 53 0 51 0;
#X connect 54 0 55 0;
#X connect 54 0 67 0;
#X connect 54 0 119 0;
#X connect 56 0 54 0;
#X connect 57 0 54 0;
#X connect 58 0 59 0;
#X connect 60 0 58 0;
#X connect 61 0 58 0;
#X connect 61 0 76 0;
#X connect 61 0 540 0;
#X connect 62 0 25 0;
#X connect 63 0 29 0;
#X connect 64 0 65 0;
#X connect 64 0 240 0;
#X connect 66 0 64 0;
#X connect 67 0 64 0;
#X connect 68 0 69 0;
#X connect 68 0 340 0;
#X connect 70 0 68 0;
#X connect 71 0 72 0;
#X connect 73 0 71 0;
#X connect 73 0 571 0;
#X connect 74 0 75 0;
#X connect 76 0 74 0;
#X connect 76 0 602 0;
#X connect 77 0 78 0;
#X connect 77 0 197 0;
#X connect 79 0 77 0;
#X connect 80 0 81 0;
#X connect 82 0 80 0;
#X connect 82 0 633 0;
#X connect 83 0 87 0;
#X connect 84 0 92 0;
#X connect 85 0 84 0;
#X connect 86 0 83 0;
#X connect 87 0 85 0;
#X connect 88 0 83 0;
#X connect 89 0 83 0;
#X connect 90 0 83 0;
#X connect 91 0 83 0;
#X connect 93 0 23 0;
#X connect 93 0 16 0;
#X connect 93 0 106 0;
#X connect 94 0 38 0;
#X connect 94 0 30 0;
#X connect 94 0 26 0;
#X connect 94 0 34 0;
#X connect 94 0 112 0;
#X connect 95 0 59 0;
#X connect 95 0 52 0;
#X connect 95 0 44 0;
#X connect 95 0 55 0;
#X connect 96 0 81 0;
#X connect 96 0 75 0;
#X connect 96 0 72 0;
#X connect 96 0 69 0;
#X connect 96 0 65 0;
#X connect 96 0 78 0;
#X connect 98 0 9 3;
#X connect 98 0 739 0;
#X connect 99 0 9 4;
#X connect 99 0 740 0;
#X connect 100 0 9 5;
#X connect 100 0 741 0;
#X connect 101 0 9 6;
#X connect 101 0 742 0;
#X connect 102 0 9 7;
#X connect 102 0 743 0;
#X connect 103 0 9 8;
#X connect 103 0 744 0;
#X connect 104 0 106 0;
#X connect 104 0 117 0;
#X connect 104 0 171 0;
#X connect 105 0 106 0;
#X connect 107 0 105 0;
#X connect 108 0 109 0;
#X connect 109 0 104 0;
#X connect 110 0 112 0;
#X connect 110 0 478 0;
#X connect 111 0 112 0;
#X connect 113 0 111 0;
#X connect 114 0 115 0;
#X connect 115 0 110 0;
#X connect 116 0 108 0;
#X connect 118 0 126 0;
#X connect 119 3 118 0;
#X connect 119 4 120 0;
#X connect 119 5 121 0;
#X connect 119 6 122 0;
#X connect 119 7 123 0;
#X connect 119 8 124 0;
#X connect 120 0 127 0;
#X connect 121 0 128 0;
#X connect 122 0 129 0;
#X connect 123 0 130 0;
#X connect 124 0 131 0;
#X connect 125 0 137 1;
#X connect 126 0 125 0;
#X connect 127 0 132 0;
#X connect 128 0 133 0;
#X connect 129 0 134 0;
#X connect 130 0 135 0;
#X connect 131 0 136 0;
#X connect 132 0 138 1;
#X connect 133 0 139 1;
#X connect 134 0 140 1;
#X connect 135 0 141 1;
#X connect 136 0 142 1;
#X connect 137 0 231 0;
#X connect 138 0 232 0;
#X connect 139 0 233 0;
#X connect 140 0 234 0;
#X connect 141 0 270 0;
#X connect 142 0 673 0;
#X connect 143 0 137 0;
#X connect 143 0 138 0;
#X connect 143 0 139 0;
#X connect 143 0 140 0;
#X connect 143 0 141 0;
#X connect 143 0 142 0;
#X connect 144 0 152 0;
#X connect 145 3 144 0;
#X connect 145 4 146 0;
#X connect 145 5 147 0;
#X connect 145 6 148 0;
#X connect 145 7 149 0;
#X connect 145 8 150 0;
#X connect 146 0 153 0;
#X connect 147 0 154 0;
#X connect 148 0 155 0;
#X connect 149 0 156 0;
#X connect 150 0 157 0;
#X connect 151 0 163 1;
#X connect 152 0 151 0;
#X connect 153 0 158 0;
#X connect 154 0 159 0;
#X connect 155 0 160 0;
#X connect 156 0 161 0;
#X connect 157 0 162 0;
#X connect 158 0 164 1;
#X connect 159 0 165 1;
#X connect 160 0 166 1;
#X connect 161 0 167 1;
#X connect 162 0 168 1;
#X connect 163 0 223 0;
#X connect 164 0 224 0;
#X connect 165 0 225 0;
#X connect 166 0 226 0;
#X connect 167 0 269 0;
#X connect 168 0 665 0;
#X connect 169 0 163 0;
#X connect 169 0 164 0;
#X connect 169 0 165 0;
#X connect 169 0 166 0;
#X connect 169 0 167 0;
#X connect 169 0 168 0;
#X connect 170 0 178 0;
#X connect 171 3 170 0;
#X connect 171 4 172 0;
#X connect 171 5 173 0;
#X connect 171 6 174 0;
#X connect 171 7 175 0;
#X connect 171 8 176 0;
#X connect 172 0 179 0;
#X connect 173 0 180 0;
#X connect 174 0 181 0;
#X connect 175 0 182 0;
#X connect 176 0 183 0;
#X connect 177 0 189 1;
#X connect 178 0 177 0;
#X connect 179 0 184 0;
#X connect 180 0 185 0;
#X connect 181 0 186 0;
#X connect 182 0 187 0;
#X connect 183 0 188 0;
#X connect 184 0 190 1;
#X connect 185 0 191 1;
#X connect 186 0 192 1;
#X connect 187 0 193 1;
#X connect 188 0 194 1;
#X connect 189 0 227 0;
#X connect 190 0 228 0;
#X connect 191 0 229 0;
#X connect 192 0 230 0;
#X connect 193 0 271 0;
#X connect 194 0 672 0;
#X connect 195 0 189 0;
#X connect 195 0 190 0;
#X connect 195 0 191 0;
#X connect 195 0 192 0;
#X connect 195 0 193 0;
#X connect 195 0 194 0;
#X connect 196 0 204 0;
#X connect 197 3 196 0;
#X connect 197 4 198 0;
#X connect 197 5 199 0;
#X connect 197 6 200 0;
#X connect 197 7 201 0;
#X connect 197 8 202 0;
#X connect 198 0 205 0;
#X connect 199 0 206 0;
#X connect 200 0 207 0;
#X connect 201 0 208 0;
#X connect 202 0 209 0;
#X connect 203 0 215 1;
#X connect 204 0 203 0;
#X connect 205 0 210 0;
#X connect 206 0 211 0;
#X connect 207 0 212 0;
#X connect 208 0 213 0;
#X connect 209 0 214 0;
#X connect 210 0 216 1;
#X connect 211 0 217 1;
#X connect 212 0 218 1;
#X connect 213 0 219 1;
#X connect 214 0 220 1;
#X connect 215 0 235 0;
#X connect 216 0 236 0;
#X connect 217 0 237 0;
#X connect 218 0 238 0;
#X connect 219 0 670 0;
#X connect 220 0 669 0;
#X connect 221 0 215 0;
#X connect 221 0 216 0;
#X connect 221 0 217 0;
#X connect 221 0 218 0;
#X connect 221 0 219 0;
#X connect 221 0 220 0;
#X connect 239 0 247 0;
#X connect 240 3 239 0;
#X connect 240 4 241 0;
#X connect 240 5 242 0;
#X connect 240 6 243 0;
#X connect 240 7 244 0;
#X connect 240 8 245 0;
#X connect 241 0 248 0;
#X connect 242 0 249 0;
#X connect 243 0 250 0;
#X connect 244 0 251 0;
#X connect 245 0 252 0;
#X connect 246 0 258 1;
#X connect 247 0 246 0;
#X connect 248 0 253 0;
#X connect 249 0 254 0;
#X connect 250 0 255 0;
#X connect 251 0 256 0;
#X connect 252 0 257 0;
#X connect 253 0 259 1;
#X connect 254 0 260 1;
#X connect 255 0 261 1;
#X connect 256 0 262 1;
#X connect 257 0 263 1;
#X connect 258 0 265 0;
#X connect 259 0 266 0;
#X connect 260 0 267 0;
#X connect 261 0 268 0;
#X connect 262 0 272 0;
#X connect 263 0 671 0;
#X connect 264 0 258 0;
#X connect 264 0 259 0;
#X connect 264 0 260 0;
#X connect 264 0 261 0;
#X connect 264 0 262 0;
#X connect 264 0 263 0;
#X connect 273 0 694 0;
#X connect 276 0 284 0;
#X connect 277 3 276 0;
#X connect 277 4 278 0;
#X connect 277 5 279 0;
#X connect 277 6 280 0;
#X connect 277 7 281 0;
#X connect 277 8 282 0;
#X connect 278 0 285 0;
#X connect 279 0 286 0;
#X connect 280 0 287 0;
#X connect 281 0 288 0;
#X connect 282 0 289 0;
#X connect 283 0 295 1;
#X connect 284 0 283 0;
#X connect 285 0 290 0;
#X connect 286 0 291 0;
#X connect 287 0 292 0;
#X connect 288 0 293 0;
#X connect 289 0 294 0;
#X connect 290 0 296 1;
#X connect 291 0 297 1;
#X connect 292 0 298 1;
#X connect 293 0 299 1;
#X connect 294 0 300 1;
#X connect 295 0 302 0;
#X connect 296 0 303 0;
#X connect 297 0 304 0;
#X connect 298 0 305 0;
#X connect 299 0 306 0;
#X connect 300 0 666 0;
#X connect 301 0 295 0;
#X connect 301 0 296 0;
#X connect 301 0 297 0;
#X connect 301 0 298 0;
#X connect 301 0 299 0;
#X connect 301 0 300 0;
#X connect 307 0 370 0;
#X connect 307 0 402 0;
#X connect 308 0 316 0;
#X connect 309 3 308 0;
#X connect 309 4 310 0;
#X connect 309 5 311 0;
#X connect 309 6 312 0;
#X connect 309 7 313 0;
#X connect 309 8 314 0;
#X connect 310 0 317 0;
#X connect 311 0 318 0;
#X connect 312 0 319 0;
#X connect 313 0 320 0;
#X connect 314 0 321 0;
#X connect 315 0 327 1;
#X connect 316 0 315 0;
#X connect 317 0 322 0;
#X connect 318 0 323 0;
#X connect 319 0 324 0;
#X connect 320 0 325 0;
#X connect 321 0 326 0;
#X connect 322 0 328 1;
#X connect 323 0 329 1;
#X connect 324 0 330 1;
#X connect 325 0 331 1;
#X connect 326 0 332 1;
#X connect 327 0 334 0;
#X connect 328 0 335 0;
#X connect 329 0 336 0;
#X connect 330 0 337 0;
#X connect 331 0 338 0;
#X connect 332 0 667 0;
#X connect 333 0 327 0;
#X connect 333 0 328 0;
#X connect 333 0 329 0;
#X connect 333 0 330 0;
#X connect 333 0 331 0;
#X connect 333 0 332 0;
#X connect 339 0 347 0;
#X connect 340 3 339 0;
#X connect 340 4 341 0;
#X connect 340 5 342 0;
#X connect 340 6 343 0;
#X connect 340 7 344 0;
#X connect 340 8 345 0;
#X connect 341 0 348 0;
#X connect 342 0 349 0;
#X connect 343 0 350 0;
#X connect 344 0 351 0;
#X connect 345 0 352 0;
#X connect 346 0 358 1;
#X connect 347 0 346 0;
#X connect 348 0 353 0;
#X connect 349 0 354 0;
#X connect 350 0 355 0;
#X connect 351 0 356 0;
#X connect 352 0 357 0;
#X connect 353 0 359 1;
#X connect 354 0 360 1;
#X connect 355 0 361 1;
#X connect 356 0 362 1;
#X connect 357 0 363 1;
#X connect 358 0 365 0;
#X connect 359 0 366 0;
#X connect 360 0 367 0;
#X connect 361 0 368 0;
#X connect 362 0 369 0;
#X connect 363 0 668 0;
#X connect 364 0 358 0;
#X connect 364 0 359 0;
#X connect 364 0 360 0;
#X connect 364 0 361 0;
#X connect 364 0 362 0;
#X connect 364 0 363 0;
#X connect 370 0 195 0;
#X connect 370 1 143 0;
#X connect 370 2 169 0;
#X connect 370 3 264 0;
#X connect 370 4 221 0;
#X connect 370 5 301 0;
#X connect 370 6 333 0;
#X connect 370 7 364 0;
#X connect 371 0 379 0;
#X connect 372 3 371 0;
#X connect 372 4 373 0;
#X connect 372 5 374 0;
#X connect 372 6 375 0;
#X connect 372 7 376 0;
#X connect 372 8 377 0;
#X connect 373 0 380 0;
#X connect 374 0 381 0;
#X connect 375 0 382 0;
#X connect 376 0 383 0;
#X connect 377 0 384 0;
#X connect 378 0 390 1;
#X connect 379 0 378 0;
#X connect 380 0 385 0;
#X connect 381 0 386 0;
#X connect 382 0 387 0;
#X connect 383 0 388 0;
#X connect 384 0 389 0;
#X connect 385 0 391 1;
#X connect 386 0 392 1;
#X connect 387 0 393 1;
#X connect 388 0 394 1;
#X connect 389 0 395 1;
#X connect 390 0 397 0;
#X connect 391 0 398 0;
#X connect 392 0 399 0;
#X connect 393 0 400 0;
#X connect 394 0 401 0;
#X connect 395 0 674 0;
#X connect 396 0 390 0;
#X connect 396 0 391 0;
#X connect 396 0 392 0;
#X connect 396 0 393 0;
#X connect 396 0 394 0;
#X connect 396 0 395 0;
#X connect 403 0 663 0;
#X connect 404 0 412 0;
#X connect 405 3 404 0;
#X connect 405 4 406 0;
#X connect 405 5 407 0;
#X connect 405 6 408 0;
#X connect 405 7 409 0;
#X connect 405 8 410 0;
#X connect 406 0 413 0;
#X connect 407 0 414 0;
#X connect 408 0 415 0;
#X connect 409 0 416 0;
#X connect 410 0 417 0;
#X connect 411 0 423 1;
#X connect 412 0 411 0;
#X connect 413 0 418 0;
#X connect 414 0 419 0;
#X connect 415 0 420 0;
#X connect 416 0 421 0;
#X connect 417 0 422 0;
#X connect 418 0 424 1;
#X connect 419 0 425 1;
#X connect 420 0 426 1;
#X connect 421 0 427 1;
#X connect 422 0 428 1;
#X connect 423 0 430 0;
#X connect 424 0 431 0;
#X connect 425 0 432 0;
#X connect 426 0 433 0;
#X connect 427 0 434 0;
#X connect 428 0 675 0;
#X connect 429 0 423 0;
#X connect 429 0 424 0;
#X connect 429 0 425 0;
#X connect 429 0 426 0;
#X connect 429 0 427 0;
#X connect 429 0 428 0;
#X connect 435 0 437 0;
#X connect 436 0 664 0;
#X connect 437 0 436 0;
#X connect 438 0 446 0;
#X connect 439 3 438 0;
#X connect 439 4 440 0;
#X connect 439 5 441 0;
#X connect 439 6 442 0;
#X connect 439 7 443 0;
#X connect 439 8 444 0;
#X connect 440 0 447 0;
#X connect 441 0 448 0;
#X connect 442 0 449 0;
#X connect 443 0 450 0;
#X connect 444 0 451 0;
#X connect 445 0 457 1;
#X connect 446 0 445 0;
#X connect 447 0 452 0;
#X connect 448 0 453 0;
#X connect 449 0 454 0;
#X connect 450 0 455 0;
#X connect 451 0 456 0;
#X connect 452 0 458 1;
#X connect 453 0 459 1;
#X connect 454 0 460 1;
#X connect 455 0 461 1;
#X connect 456 0 462 1;
#X connect 457 0 464 0;
#X connect 458 0 465 0;
#X connect 459 0 466 0;
#X connect 460 0 467 0;
#X connect 461 0 468 0;
#X connect 462 0 676 0;
#X connect 463 0 457 0;
#X connect 463 0 458 0;
#X connect 463 0 459 0;
#X connect 463 0 460 0;
#X connect 463 0 461 0;
#X connect 463 0 462 0;
#X connect 469 0 681 0;
#X connect 470 0 683 0;
#X connect 471 0 685 0;
#X connect 472 0 687 0;
#X connect 473 0 689 0;
#X connect 474 0 691 0;
#X connect 475 0 470 0;
#X connect 475 0 471 0;
#X connect 475 0 472 0;
#X connect 475 0 473 0;
#X connect 475 0 474 0;
#X connect 475 0 469 0;
#X connect 476 0 6 0;
#X connect 477 0 485 0;
#X connect 478 3 477 0;
#X connect 478 4 479 0;
#X connect 478 5 480 0;
#X connect 478 6 481 0;
#X connect 478 7 482 0;
#X connect 478 8 483 0;
#X connect 479 0 486 0;
#X connect 480 0 487 0;
#X connect 481 0 488 0;
#X connect 482 0 489 0;
#X connect 483 0 490 0;
#X connect 484 0 496 1;
#X connect 485 0 484 0;
#X connect 486 0 491 0;
#X connect 487 0 492 0;
#X connect 488 0 493 0;
#X connect 489 0 494 0;
#X connect 490 0 495 0;
#X connect 491 0 497 1;
#X connect 492 0 498 1;
#X connect 493 0 499 1;
#X connect 494 0 500 1;
#X connect 495 0 501 1;
#X connect 496 0 503 0;
#X connect 497 0 504 0;
#X connect 498 0 505 0;
#X connect 499 0 506 0;
#X connect 500 0 507 0;
#X connect 501 0 677 0;
#X connect 502 0 496 0;
#X connect 502 0 497 0;
#X connect 502 0 498 0;
#X connect 502 0 499 0;
#X connect 502 0 500 0;
#X connect 502 0 501 0;
#X connect 508 0 516 0;
#X connect 509 3 508 0;
#X connect 509 4 510 0;
#X connect 509 5 511 0;
#X connect 509 6 512 0;
#X connect 509 7 513 0;
#X connect 509 8 514 0;
#X connect 510 0 517 0;
#X connect 511 0 518 0;
#X connect 512 0 519 0;
#X connect 513 0 520 0;
#X connect 514 0 521 0;
#X connect 515 0 527 1;
#X connect 516 0 515 0;
#X connect 517 0 522 0;
#X connect 518 0 523 0;
#X connect 519 0 524 0;
#X connect 520 0 525 0;
#X connect 521 0 526 0;
#X connect 522 0 528 1;
#X connect 523 0 529 1;
#X connect 524 0 530 1;
#X connect 525 0 531 1;
#X connect 526 0 532 1;
#X connect 527 0 534 0;
#X connect 528 0 535 0;
#X connect 529 0 536 0;
#X connect 530 0 537 0;
#X connect 531 0 538 0;
#X connect 532 0 679 0;
#X connect 533 0 527 0;
#X connect 533 0 528 0;
#X connect 533 0 529 0;
#X connect 533 0 530 0;
#X connect 533 0 531 0;
#X connect 533 0 532 0;
#X connect 539 0 547 0;
#X connect 540 3 539 0;
#X connect 540 4 541 0;
#X connect 540 5 542 0;
#X connect 540 6 543 0;
#X connect 540 7 544 0;
#X connect 540 8 545 0;
#X connect 541 0 548 0;
#X connect 542 0 549 0;
#X connect 543 0 550 0;
#X connect 544 0 551 0;
#X connect 545 0 552 0;
#X connect 546 0 558 1;
#X connect 547 0 546 0;
#X connect 548 0 553 0;
#X connect 549 0 554 0;
#X connect 550 0 555 0;
#X connect 551 0 556 0;
#X connect 552 0 557 0;
#X connect 553 0 559 1;
#X connect 554 0 560 1;
#X connect 555 0 561 1;
#X connect 556 0 562 1;
#X connect 557 0 563 1;
#X connect 558 0 565 0;
#X connect 559 0 566 0;
#X connect 560 0 567 0;
#X connect 561 0 568 0;
#X connect 562 0 569 0;
#X connect 563 0 678 0;
#X connect 564 0 558 0;
#X connect 564 0 559 0;
#X connect 564 0 560 0;
#X connect 564 0 561 0;
#X connect 564 0 562 0;
#X connect 564 0 563 0;
#X connect 570 0 578 0;
#X connect 571 3 570 0;
#X connect 571 4 572 0;
#X connect 571 5 573 0;
#X connect 571 6 574 0;
#X connect 571 7 575 0;
#X connect 571 8 576 0;
#X connect 572 0 579 0;
#X connect 573 0 580 0;
#X connect 574 0 581 0;
#X connect 575 0 582 0;
#X connect 576 0 583 0;
#X connect 577 0 589 1;
#X connect 578 0 577 0;
#X connect 579 0 584 0;
#X connect 580 0 585 0;
#X connect 581 0 586 0;
#X connect 582 0 587 0;
#X connect 583 0 588 0;
#X connect 584 0 590 1;
#X connect 585 0 591 1;
#X connect 586 0 592 1;
#X connect 587 0 593 1;
#X connect 588 0 594 1;
#X connect 589 0 596 0;
#X connect 590 0 597 0;
#X connect 591 0 598 0;
#X connect 592 0 599 0;
#X connect 593 0 600 0;
#X connect 595 0 589 0;
#X connect 595 0 590 0;
#X connect 595 0 591 0;
#X connect 595 0 592 0;
#X connect 595 0 593 0;
#X connect 595 0 594 0;
#X connect 601 0 609 0;
#X connect 602 3 601 0;
#X connect 602 4 603 0;
#X connect 602 5 604 0;
#X connect 602 6 605 0;
#X connect 602 7 606 0;
#X connect 602 8 607 0;
#X connect 603 0 610 0;
#X connect 604 0 611 0;
#X connect 605 0 612 0;
#X connect 606 0 613 0;
#X connect 607 0 614 0;
#X connect 608 0 620 1;
#X connect 609 0 608 0;
#X connect 610 0 615 0;
#X connect 611 0 616 0;
#X connect 612 0 617 0;
#X connect 613 0 618 0;
#X connect 614 0 619 0;
#X connect 615 0 621 1;
#X connect 616 0 622 1;
#X connect 617 0 623 1;
#X connect 618 0 624 1;
#X connect 619 0 625 1;
#X connect 620 0 627 0;
#X connect 621 0 628 0;
#X connect 622 0 629 0;
#X connect 623 0 630 0;
#X connect 624 0 631 0;
#X connect 626 0 620 0;
#X connect 626 0 621 0;
#X connect 626 0 622 0;
#X connect 626 0 623 0;
#X connect 626 0 624 0;
#X connect 626 0 625 0;
#X connect 632 0 640 0;
#X connect 633 3 632 0;
#X connect 633 4 634 0;
#X connect 633 5 635 0;
#X connect 633 6 636 0;
#X connect 633 7 637 0;
#X connect 633 8 638 0;
#X connect 634 0 641 0;
#X connect 635 0 642 0;
#X connect 636 0 643 0;
#X connect 637 0 644 0;
#X connect 638 0 645 0;
#X connect 639 0 651 1;
#X connect 640 0 639 0;
#X connect 641 0 646 0;
#X connect 642 0 647 0;
#X connect 643 0 648 0;
#X connect 644 0 649 0;
#X connect 645 0 650 0;
#X connect 646 0 652 1;
#X connect 647 0 653 1;
#X connect 648 0 654 1;
#X connect 649 0 655 1;
#X connect 650 0 656 1;
#X connect 651 0 658 0;
#X connect 652 0 659 0;
#X connect 653 0 660 0;
#X connect 654 0 661 0;
#X connect 655 0 662 0;
#X connect 657 0 651 0;
#X connect 657 0 652 0;
#X connect 657 0 653 0;
#X connect 657 0 654 0;
#X connect 657 0 655 0;
#X connect 657 0 656 0;
#X connect 663 0 396 0;
#X connect 663 1 429 0;
#X connect 663 2 463 0;
#X connect 663 3 502 0;
#X connect 663 4 533 0;
#X connect 663 5 564 0;
#X connect 663 6 595 0;
#X connect 663 7 626 0;
#X connect 663 8 657 0;
#X connect 664 0 307 0;
#X connect 680 0 114 0;
#X connect 681 0 682 0;
#X connect 682 0 98 0;
#X connect 683 0 684 0;
#X connect 684 0 99 0;
#X connect 685 0 686 0;
#X connect 685 0 100 0;
#X connect 687 0 688 0;
#X connect 688 0 101 0;
#X connect 689 0 690 0;
#X connect 690 0 102 0;
#X connect 691 0 692 0;
#X connect 692 0 103 0;
#X connect 693 0 714 0;
#X connect 694 0 696 0;
#X connect 695 0 697 0;
#X connect 695 0 701 0;
#X connect 696 0 695 0;
#X connect 697 0 699 0;
#X connect 698 0 697 0;
#X connect 699 0 700 0;
#X connect 702 0 703 0;
#X connect 703 0 712 0;
#X connect 704 0 705 0;
#X connect 706 0 707 0;
#X connect 708 0 745 0;
#X connect 709 0 708 0;
#X connect 710 0 745 0;
#X connect 711 0 710 0;
#X connect 713 0 709 0;
#X connect 713 0 711 0;
#X connect 714 0 475 0;
#X connect 715 0 714 1;
#X connect 720 0 721 0;
#X connect 722 0 725 0;
#X connect 722 0 726 0;
#X connect 723 0 722 1;
#X connect 724 0 722 0;
#X connect 745 0 273 0;
#X connect 745 0 274 0;
#X connect 745 2 698 0;
#X restore 183 -29 pd dataselfie generator;
#X obj 943 873 noteout 2;
#X obj 945 844 makenote 64 127;
#X msg 941 811 63;
#X obj -208 295 / 127;
#X obj -202 321 * 16;
#X obj -215 270 r f;
#X obj -235 323 * 2;
#X msg 1385 301 open 96bpmloope.wav \, start;
#X msg 1184 307 open 96bpmloope.wav \, start;
#X obj 1038 644 readsf~ 2;
#X obj 1049 748 dac~;
#X obj 1143 643 readsf~ 2;
#X obj 1145 748 dac~;
#X obj 1269 721 tgl 16 0 empty empty empty 0 -8 0 10 #fcfcfc #000000 #000000 0 1;
#X obj 1184 716 *~ 1;
#X obj 1147 716 *~ 1;
#X obj 1074 715 *~ 1;
#X obj 1037 715 *~ 1;
#X obj 1100 749 tgl 16 0 empty empty empty 0 -8 0 10 #fcfcfc #000000 #000000 0 1;
#X obj 1122 749 tgl 16 0 empty empty empty 0 -8 0 10 #fcfcfc #000000 #000000 0 1;
#X msg 1036 559 open 96loopd.wav \, start;
#X obj 1031 680 *~ 1.2;
#X obj 1075 678 *~ 1.2;
#X obj 1136 679 *~ 1;
#X obj 1180 677 *~ 1;
#X obj 1030 428 *~ 2;
#X obj 1074 426 *~ 2;
#X obj -384 354 s fre;
#X obj 673 293 s goer;
#X obj 1125 777 * 2;
#X obj -308 183 * 800;
#X msg 35 113 16;
#X msg 68 129 24;
#X msg 67 169 8;
#X msg 34 149 12;
#X msg -201 -36;
#X msg -225 -14 24;
#X msg 35 189 2;
#X msg 142 -7 80;
#X obj 101 114 abl_link~ 1 0 16 80;
#X msg 1185 559 open 80bpmloop.wav \, start;
#X connect 4 0 5 0;
#X connect 5 0 6 0;
#X connect 6 0 367 0;
#X connect 7 0 2 1;
#X connect 7 0 14 0;
#X connect 8 0 1 1;
#X connect 8 0 13 0;
#X connect 9 0 0 1;
#X connect 9 0 12 0;
#X connect 10 0 3 1;
#X connect 10 0 11 0;
#X connect 11 0 90 1;
#X connect 11 0 283 1;
#X connect 12 0 139 1;
#X connect 13 0 78 1;
#X connect 13 0 295 1;
#X connect 14 0 69 1;
#X connect 14 0 292 1;
#X connect 15 0 409 0;
#X connect 15 0 397 0;
#X connect 16 0 394 0;
#X connect 16 1 395 0;
#X connect 22 0 97 1;
#X connect 22 0 274 1;
#X connect 23 0 85 1;
#X connect 23 0 271 1;
#X connect 24 0 114 1;
#X connect 24 0 268 1;
#X connect 25 0 107 1;
#X connect 25 0 286 1;
#X connect 26 0 20 1;
#X connect 26 0 25 0;
#X connect 27 0 19 1;
#X connect 27 0 24 0;
#X connect 28 0 18 1;
#X connect 28 0 23 0;
#X connect 29 0 21 1;
#X connect 29 0 22 0;
#X connect 38 0 408 0;
#X connect 39 0 408 0;
#X connect 40 0 408 0;
#X connect 41 0 40 0;
#X connect 43 0 105 0;
#X connect 43 0 160 0;
#X connect 43 0 241 0;
#X connect 44 0 59 0;
#X connect 44 0 154 0;
#X connect 44 0 223 0;
#X connect 44 0 262 0;
#X connect 46 0 51 0;
#X connect 47 0 155 0;
#X connect 48 0 41 1;
#X connect 49 0 41 0;
#X connect 50 0 39 0;
#X connect 51 0 408 0;
#X connect 53 0 52 0;
#X connect 55 0 56 0;
#X connect 56 0 408 0;
#X connect 57 0 58 0;
#X connect 58 0 408 0;
#X connect 59 0 15 0;
#X connect 59 0 371 0;
#X connect 60 0 61 1;
#X connect 61 0 63 0;
#X connect 62 0 64 0;
#X connect 62 0 71 0;
#X connect 62 0 84 0;
#X connect 62 0 96 0;
#X connect 62 0 158 0;
#X connect 63 0 67 0;
#X connect 64 0 61 0;
#X connect 65 0 66 0;
#X connect 66 0 62 0;
#X connect 67 0 68 0;
#X connect 68 0 4 0;
#X connect 69 0 138 0;
#X connect 70 0 69 0;
#X connect 71 0 72 0;
#X connect 72 0 74 0;
#X connect 73 0 175 0;
#X connect 73 0 396 0;
#X connect 74 0 215 0;
#X connect 74 1 76 0;
#X connect 76 0 77 0;
#X connect 77 0 70 1;
#X connect 77 0 296 0;
#X connect 78 0 138 0;
#X connect 79 0 78 0;
#X connect 80 0 83 0;
#X connect 81 0 82 0;
#X connect 82 0 79 1;
#X connect 82 0 297 0;
#X connect 83 0 216 0;
#X connect 83 1 81 0;
#X connect 84 0 80 0;
#X connect 85 0 138 0;
#X connect 86 0 85 0;
#X connect 87 0 157 0;
#X connect 88 0 89 0;
#X connect 89 0 86 1;
#X connect 89 0 276 0;
#X connect 90 0 138 0;
#X connect 91 0 90 0;
#X connect 92 0 95 0;
#X connect 93 0 94 0;
#X connect 94 0 91 1;
#X connect 94 0 288 0;
#X connect 95 0 218 0;
#X connect 95 1 93 0;
#X connect 96 0 145 0;
#X connect 96 0 156 0;
#X connect 97 0 138 0;
#X connect 98 0 97 0;
#X connect 99 0 104 0;
#X connect 100 0 101 0;
#X connect 101 0 98 1;
#X connect 101 0 277 0;
#X connect 102 0 103 0;
#X connect 103 0 106 0;
#X connect 103 0 113 0;
#X connect 103 0 119 0;
#X connect 104 0 220 0;
#X connect 104 1 100 0;
#X connect 105 0 102 0;
#X connect 106 0 99 0;
#X connect 107 0 138 0;
#X connect 108 0 107 0;
#X connect 109 0 112 0;
#X connect 110 0 111 0;
#X connect 111 0 108 1;
#X connect 111 0 289 0;
#X connect 112 0 221 0;
#X connect 112 1 110 0;
#X connect 113 0 109 0;
#X connect 114 0 138 0;
#X connect 115 0 114 0;
#X connect 116 0 120 0;
#X connect 117 0 118 0;
#X connect 118 0 115 1;
#X connect 118 0 275 0;
#X connect 119 0 116 0;
#X connect 120 0 222 0;
#X connect 120 1 117 0;
#X connect 122 0 124 0;
#X connect 123 0 148 1;
#X connect 124 0 365 0;
#X connect 125 0 399 0;
#X connect 126 0 70 0;
#X connect 127 0 79 0;
#X connect 128 0 86 0;
#X connect 129 0 91 0;
#X connect 130 0 108 0;
#X connect 131 0 98 0;
#X connect 132 0 115 0;
#X connect 133 0 169 0;
#X connect 135 0 133 1;
#X connect 136 0 133 2;
#X connect 137 0 133 0;
#X connect 138 0 173 0;
#X connect 139 0 138 0;
#X connect 140 0 139 0;
#X connect 141 0 146 0;
#X connect 142 0 143 0;
#X connect 143 0 140 1;
#X connect 143 0 287 0;
#X connect 144 0 140 0;
#X connect 145 0 141 0;
#X connect 146 0 219 0;
#X connect 146 1 142 0;
#X connect 147 0 140 0;
#X connect 147 0 98 0;
#X connect 147 0 108 0;
#X connect 147 0 115 0;
#X connect 147 0 86 0;
#X connect 147 0 79 0;
#X connect 147 0 70 0;
#X connect 148 0 122 0;
#X connect 149 0 154 1;
#X connect 150 0 148 0;
#X connect 151 0 225 0;
#X connect 152 0 238 0;
#X connect 154 0 152 0;
#X connect 154 0 153 0;
#X connect 155 0 38 0;
#X connect 156 0 92 0;
#X connect 157 0 217 0;
#X connect 157 1 88 0;
#X connect 158 0 87 0;
#X connect 160 0 65 0;
#X connect 162 0 161 0;
#X connect 165 0 163 0;
#X connect 167 0 162 0;
#X connect 168 0 167 0;
#X connect 168 0 165 0;
#X connect 169 0 362 0;
#X connect 173 0 188 0;
#X connect 174 0 189 0;
#X connect 175 0 251 0;
#X connect 176 0 177 0;
#X connect 177 0 180 0;
#X connect 179 0 174 1;
#X connect 180 0 179 0;
#X connect 181 0 174 0;
#X connect 181 0 151 0;
#X connect 181 0 257 0;
#X connect 181 0 311 0;
#X connect 182 0 250 0;
#X connect 183 0 70 0;
#X connect 183 0 79 0;
#X connect 183 0 86 0;
#X connect 183 0 91 0;
#X connect 183 0 98 0;
#X connect 183 0 108 0;
#X connect 183 0 115 0;
#X connect 183 0 140 0;
#X connect 185 0 188 1;
#X connect 186 0 188 0;
#X connect 188 0 133 0;
#X connect 190 0 194 0;
#X connect 190 0 196 0;
#X connect 192 0 193 0;
#X connect 193 0 198 0;
#X connect 194 0 192 0;
#X connect 195 0 197 0;
#X connect 196 0 195 0;
#X connect 197 0 193 1;
#X connect 198 0 225 0;
#X connect 203 0 190 0;
#X connect 205 0 204 0;
#X connect 206 0 207 0;
#X connect 207 0 208 0;
#X connect 208 0 209 0;
#X connect 209 0 211 0;
#X connect 210 0 406 0;
#X connect 210 1 402 0;
#X connect 210 2 403 0;
#X connect 210 3 401 0;
#X connect 210 4 400 0;
#X connect 211 0 210 0;
#X connect 213 0 214 0;
#X connect 213 1 405 0;
#X connect 214 0 160 1;
#X connect 215 0 77 0;
#X connect 216 0 82 0;
#X connect 217 0 89 0;
#X connect 218 0 94 0;
#X connect 219 0 143 0;
#X connect 220 0 101 0;
#X connect 221 0 111 0;
#X connect 222 0 118 0;
#X connect 223 0 224 0;
#X connect 223 1 224 0;
#X connect 223 2 224 0;
#X connect 223 3 224 0;
#X connect 224 0 212 0;
#X connect 225 0 183 0;
#X connect 228 0 229 0;
#X connect 229 0 230 0;
#X connect 230 0 363 0;
#X connect 232 0 206 0;
#X connect 233 0 125 0;
#X connect 234 0 60 0;
#X connect 235 0 125 0;
#X connect 236 0 60 0;
#X connect 237 0 206 0;
#X connect 240 0 251 1;
#X connect 241 0 242 0;
#X connect 242 0 243 0;
#X connect 242 0 245 0;
#X connect 245 0 246 0;
#X connect 246 0 244 0;
#X connect 247 0 182 0;
#X connect 248 0 182 0;
#X connect 249 0 176 0;
#X connect 250 0 249 0;
#X connect 251 0 181 0;
#X connect 252 0 256 0;
#X connect 254 0 253 0;
#X connect 255 0 356 0;
#X connect 256 0 255 0;
#X connect 258 0 115 0;
#X connect 258 0 108 0;
#X connect 258 0 98 0;
#X connect 258 0 140 0;
#X connect 258 0 91 0;
#X connect 258 0 86 0;
#X connect 258 0 70 0;
#X connect 258 0 79 0;
#X connect 260 0 338 0;
#X connect 260 0 338 1;
#X connect 260 0 350 0;
#X connect 262 0 261 0;
#X connect 265 0 365 1;
#X connect 266 0 268 0;
#X connect 266 1 267 1;
#X connect 268 0 267 0;
#X connect 269 0 271 0;
#X connect 269 1 270 1;
#X connect 271 0 270 0;
#X connect 272 0 274 0;
#X connect 272 1 273 1;
#X connect 274 0 273 0;
#X connect 275 0 334 0;
#X connect 276 0 330 0;
#X connect 277 0 326 0;
#X connect 278 0 280 0;
#X connect 278 1 279 1;
#X connect 280 0 279 0;
#X connect 281 0 283 0;
#X connect 281 1 282 1;
#X connect 283 0 282 0;
#X connect 284 0 286 0;
#X connect 284 1 285 1;
#X connect 286 0 285 0;
#X connect 287 0 314 0;
#X connect 288 0 318 0;
#X connect 289 0 322 0;
#X connect 290 0 292 0;
#X connect 290 1 291 1;
#X connect 292 0 291 0;
#X connect 293 0 295 0;
#X connect 293 1 294 1;
#X connect 295 0 294 0;
#X connect 296 0 305 0;
#X connect 297 0 308 0;
#X connect 298 0 266 0;
#X connect 299 0 269 0;
#X connect 300 0 272 0;
#X connect 301 0 278 0;
#X connect 302 0 281 0;
#X connect 303 0 284 0;
#X connect 304 0 293 0;
#X connect 305 0 290 0;
#X connect 306 0 305 1;
#X connect 307 0 306 0;
#X connect 308 0 293 0;
#X connect 309 0 308 1;
#X connect 310 0 309 0;
#X connect 312 0 307 0;
#X connect 313 0 310 0;
#X connect 314 0 278 0;
#X connect 315 0 314 1;
#X connect 316 0 315 0;
#X connect 317 0 316 0;
#X connect 318 0 281 0;
#X connect 319 0 318 1;
#X connect 320 0 319 0;
#X connect 321 0 320 0;
#X connect 322 0 284 0;
#X connect 323 0 322 1;
#X connect 324 0 323 0;
#X connect 325 0 324 0;
#X connect 326 0 272 0;
#X connect 327 0 326 1;
#X connect 328 0 327 0;
#X connect 329 0 328 0;
#X connect 330 0 269 0;
#X connect 331 0 330 1;
#X connect 332 0 331 0;
#X connect 333 0 332 0;
#X connect 334 0 266 0;
#X connect 335 0 334 1;
#X connect 336 0 335 0;
#X connect 337 0 336 0;
#X connect 339 0 360 0;
#X connect 339 1 361 0;
#X connect 341 0 46 0;
#X connect 341 0 55 0;
#X connect 342 0 343 1;
#X connect 342 0 344 1;
#X connect 342 0 345 1;
#X connect 342 0 346 1;
#X connect 343 0 340 1;
#X connect 344 0 340 0;
#X connect 345 0 17 1;
#X connect 346 0 17 0;
#X connect 348 0 349 0;
#X connect 349 0 350 0;
#X connect 351 0 194 1;
#X connect 353 0 191 0;
#X connect 356 0 254 0;
#X connect 356 0 190 1;
#X connect 357 0 345 1;
#X connect 357 0 346 1;
#X connect 358 0 360 1;
#X connect 358 0 361 1;
#X connect 359 0 16 0;
#X connect 360 0 344 0;
#X connect 361 0 343 0;
#X connect 362 0 260 0;
#X connect 363 0 362 1;
#X connect 365 0 73 0;
#X connect 366 0 375 0;
#X connect 367 0 34 0;
#X connect 367 1 33 0;
#X connect 367 2 32 0;
#X connect 367 3 31 0;
#X connect 367 4 30 0;
#X connect 367 5 35 0;
#X connect 367 6 36 0;
#X connect 367 7 37 0;
#X connect 370 0 369 0;
#X connect 370 1 369 1;
#X connect 371 0 370 0;
#X connect 372 0 373 0;
#X connect 374 0 372 0;
#X connect 375 0 265 0;
#X connect 377 0 339 0;
#X connect 378 0 390 0;
#X connect 378 1 391 0;
#X connect 380 0 392 0;
#X connect 380 1 393 0;
#X connect 382 0 383 1;
#X connect 382 0 384 1;
#X connect 382 0 385 1;
#X connect 382 0 386 1;
#X connect 383 0 381 1;
#X connect 384 0 381 0;
#X connect 385 0 379 1;
#X connect 386 0 379 0;
#X connect 387 0 385 1;
#X connect 387 0 386 1;
#X connect 388 0 398 0;
#X connect 389 0 378 0;
#X connect 390 0 386 0;
#X connect 391 0 385 0;
#X connect 392 0 384 0;
#X connect 393 0 383 0;
#X connect 394 0 346 0;
#X connect 395 0 345 0;
#X connect 398 0 392 1;
#X connect 398 0 393 1;
#X connect 399 0 150 0;
#X connect 400 0 160 1;
#X connect 401 0 160 1;
#X connect 402 0 160 1;
#X connect 403 0 160 1;
#X connect 405 0 160 1;
#X connect 406 0 160 1;
#X connect 407 0 47 0;
#X connect 408 0 44 0;
#X connect 408 1 43 0;
#X connect 408 2 42 0;
#X connect 408 3 45 0;
#X connect 409 0 380 0;
