#N canvas 0 480 730 368 12;
#X obj 116 17 mod 8;
#X floatatom 117 36 5 0 0 0 - - - 0;
#X obj 117 54 sel 0 5;
#X obj 339 -39 r we;
#X floatatom 176 37 5 0 0 0 - - - 0;
#X floatatom 353 35 5 0 0 0 - - - 0;
#X obj 353 53 sel 0 3;
#X obj 352 16 mod 4;
#X floatatom 443 33 5 0 0 0 - - - 0;
#X obj 443 53 sel 0 1;
#X obj 442 14 mod 2;
#X floatatom 47 35 5 0 0 0 - - - 0;
#X obj 47 53 sel 0 2;
#X obj 43 -7 * 0.5;
#X obj 46 16 mod 4;
#X floatatom 261 35 5 0 0 0 - - - 0;
#X obj 376 -57 int;
#X obj 377 -36 change;
#X obj 375 -72 * 16;
#X obj 374 -94 r counters;
#X obj 415 -34 r we;
#X obj 357 111 tgl 19 0 empty empty empty 0 -10 0 12 #fcfcfc #000000 #000000 0 1;
#X obj 454 -38 r we;
#X obj 447 110 tgl 19 0 empty empty empty 0 -10 0 12 #fcfcfc #000000 #000000 0 1;
#X obj 264 112 tgl 19 0 empty empty empty 0 -10 0 12 #fcfcfc #000000 #000000 0 1;
#X obj 49 112 tgl 19 0 empty empty empty 0 -10 0 12 #fcfcfc #000000 #000000 0 1;
#X floatatom 506 31 5 0 0 0 - - - 0;
#X obj 506 49 sel 0 1;
#X obj 505 12 mod 4;
#X obj 511 110 tgl 19 0 empty empty empty 0 -10 0 12 #fcfcfc #000000 #000000 0 1;
#X obj 119 111 tgl 19 0 empty empty empty 0 -10 0 12 #fcfcfc #000000 #000000 0 1;
#X obj 179 112 tgl 19 0 empty empty empty 0 -10 0 12 #fcfcfc #000000 #000000 0 1;
#X obj 176 55 sel 0 1;
#X obj 175 18 mod 2;
#X obj 48 195 abl_link~ 1 0 16 80;
#X floatatom 80 221 5 0 0 1 phase - - 0;
#X floatatom 49 248 5 0 0 1 step - - 0;
#X obj 262 16 mod 4;
#X obj 261 53 sel 0 2;
#X floatatom 567 32 5 0 0 0 - - - 0;
#X obj 567 50 sel 0 1;
#X obj 566 13 mod 3;
#X obj 574 108 tgl 19 0 empty empty empty 0 -10 0 12 #fcfcfc #000000 #000000 0 1;
#X floatatom 628 32 5 0 0 0 - - - 0;
#X obj 635 108 tgl 19 0 empty empty empty 0 -10 0 12 #fcfcfc #000000 #000000 0 1;
#X obj 627 13 mod 6;
#X obj 628 50 sel 0 3;
#X connect 0 0 1 0;
#X connect 1 0 2 0;
#X connect 2 0 30 0;
#X connect 2 1 30 0;
#X connect 3 0 0 0;
#X connect 4 0 32 0;
#X connect 5 0 6 0;
#X connect 6 0 21 0;
#X connect 6 1 21 0;
#X connect 7 0 5 0;
#X connect 8 0 9 0;
#X connect 9 0 23 0;
#X connect 9 1 23 0;
#X connect 10 0 8 0;
#X connect 11 0 12 0;
#X connect 12 0 25 0;
#X connect 12 1 25 0;
#X connect 13 0 14 0;
#X connect 14 0 11 0;
#X connect 15 0 38 0;
#X connect 16 0 17 0;
#X connect 17 0 13 0;
#X connect 17 0 28 0;
#X connect 17 0 33 0;
#X connect 17 0 37 0;
#X connect 17 0 41 0;
#X connect 17 0 45 0;
#X connect 18 0 16 0;
#X connect 19 0 18 0;
#X connect 20 0 7 0;
#X connect 22 0 10 0;
#X connect 26 0 27 0;
#X connect 27 0 29 0;
#X connect 27 1 29 0;
#X connect 28 0 26 0;
#X connect 32 0 31 0;
#X connect 32 1 31 0;
#X connect 33 0 4 0;
#X connect 34 0 36 0;
#X connect 34 1 35 0;
#X connect 37 0 15 0;
#X connect 38 0 24 0;
#X connect 38 1 24 0;
#X connect 39 0 40 0;
#X connect 40 0 42 0;
#X connect 40 1 42 0;
#X connect 41 0 39 0;
#X connect 43 0 46 0;
#X connect 45 0 43 0;
#X connect 46 0 44 0;
#X connect 46 1 44 0;
