#N canvas 2 25 1279 786 10;
#X declare -lib iemmatrix;
#X declare -lib iemmatrix;
#X text 194 36 transpose matrices;
#X obj 189 192 t a a;
#X obj 226 191 mtx_print org;
#N canvas 460 154 494 171 META 0;
#X text 12 105 AUTHOR IOhannes m zmoelnig;
#X text 12 85 OUTLET_0 matrix;
#X text 12 125 HELP_PATCH_AUTHORS IOhannes m zmölnig;
#X text 12 25 LICENSE GPL-2+;
#X text 12 65 INLET_0 matrix;
#X text 12 5 KEYWORDS control matrix;
#X text 12 44 DESCRIPTION shift columns of a matrix;
#X obj 16 147 declare -lib iemmatrix;
#X restore 591 6 pd META;
#X obj 7 47 ctlin 1 1;
#X msg 412 61 matrix;
#X obj 412 25 metro 50;
#X obj 412 6 tgl 16 0 empty empty empty 0 -8 0 10 #fcfcfc #000000 #000000 0 1;
#X obj 191 170 list trim;
#X obj 292 258 mtx_roll 1;
#X obj 71 46 ctlin 2 1;
#X obj 333 48 ctlin 6 1;
#X obj 583 138 pack s 2 3 0 0 0 0 0 0;
#X obj 628 234 mtx_scroll 1;
#X obj 202 336 vsl 16 136 0 127 0 0 empty empty empty 0 -9 0 10 #fcfcfc #000000 #000000 0 1;
#X obj 222 336 vsl 16 136 0 127 0 0 empty empty empty 0 -9 0 10 #fcfcfc #000000 #000000 0 1;
#X obj 242 336 vsl 16 136 0 127 0 0 empty empty empty 0 -9 0 10 #fcfcfc #000000 #000000 0 1;
#X obj 262 336 vsl 16 136 0 127 0 0 empty empty empty 0 -9 0 10 #fcfcfc #000000 #000000 0 1;
#X obj 282 336 vsl 16 136 0 127 0 0 empty empty empty 0 -9 0 10 #fcfcfc #000000 #000000 0 1;
#X obj 302 336 vsl 16 136 0 127 0 0 empty empty empty 0 -9 0 10 #fcfcfc #000000 #000000 0 1;
#X obj 168 281 list split 3;
#X obj 636 279 list split 3;
#X obj 311 281 list split 3;
#X obj 452 278 list split 3;
#X obj 204 301 unpack 0 0 0 0 0 0;
#X obj 1463 496 ctlout 1 1;
#X obj 1483 516 ctlout 2 1;
#X obj 1506 535 ctlout 3 1;
#X obj 1526 555 ctlout 4 1;
#X obj 1546 575 ctlout 5 1;
#X obj 1566 595 ctlout 6 1;
#X obj 627 336 vsl 16 136 0 127 0 0 empty empty empty 0 -9 0 10 #fcfcfc #000000 #000000 0 1;
#X obj 647 336 vsl 16 136 0 127 0 0 empty empty empty 0 -9 0 10 #fcfcfc #000000 #000000 0 1;
#X obj 667 336 vsl 16 136 0 127 0 0 empty empty empty 0 -9 0 10 #fcfcfc #000000 #000000 0 1;
#X obj 687 336 vsl 16 136 0 127 0 0 empty empty empty 0 -9 0 10 #fcfcfc #000000 #000000 0 1;
#X obj 707 336 vsl 16 136 0 127 0 0 empty empty empty 0 -9 0 10 #fcfcfc #000000 #000000 0 1;
#X obj 727 336 vsl 16 136 0 127 0 0 empty empty empty 0 -9 0 10 #fcfcfc #000000 #000000 0 1;
#X obj 629 301 unpack 0 0 0 0 0 0;
#X obj 1888 496 ctlout 1 1;
#X obj 1908 516 ctlout 2 1;
#X obj 1931 535 ctlout 3 1;
#X obj 1951 555 ctlout 4 1;
#X obj 1971 575 ctlout 5 1;
#X obj 1991 595 ctlout 6 1;
#X obj 338 336 vsl 16 136 0 127 0 0 empty empty empty 0 -9 0 10 #fcfcfc #000000 #000000 0 1;
#X obj 358 336 vsl 16 136 0 127 0 0 empty empty empty 0 -9 0 10 #fcfcfc #000000 #000000 0 1;
#X obj 378 336 vsl 16 136 0 127 0 0 empty empty empty 0 -9 0 10 #fcfcfc #000000 #000000 0 1;
#X obj 398 336 vsl 16 136 0 127 0 0 empty empty empty 0 -9 0 10 #fcfcfc #000000 #000000 0 1;
#X obj 418 336 vsl 16 136 0 127 0 0 empty empty empty 0 -9 0 10 #fcfcfc #000000 #000000 0 1;
#X obj 438 336 vsl 16 136 0 127 0 0 empty empty empty 0 -9 0 10 #fcfcfc #000000 #000000 0 1;
#X obj 340 301 unpack 0 0 0 0 0 0;
#X obj 1599 496 ctlout 1 1;
#X obj 1619 516 ctlout 2 1;
#X obj 1642 535 ctlout 3 1;
#X obj 1662 555 ctlout 4 1;
#X obj 1682 575 ctlout 5 1;
#X obj 1702 595 ctlout 6 1;
#X obj 478 333 vsl 16 136 0 127 0 0 empty empty empty 0 -9 0 10 #fcfcfc #000000 #000000 0 1;
#X obj 498 333 vsl 16 136 0 127 0 0 empty empty empty 0 -9 0 10 #fcfcfc #000000 #000000 0 1;
#X obj 518 333 vsl 16 136 0 127 0 0 empty empty empty 0 -9 0 10 #fcfcfc #000000 #000000 0 1;
#X obj 538 333 vsl 16 136 0 127 0 0 empty empty empty 0 -9 0 10 #fcfcfc #000000 #000000 0 1;
#X obj 558 333 vsl 16 136 0 127 0 0 empty empty empty 0 -9 0 10 #fcfcfc #000000 #000000 0 1;
#X obj 578 333 vsl 16 136 0 127 0 0 empty empty empty 0 -9 0 10 #fcfcfc #000000 #000000 0 1;
#X obj 480 298 unpack 0 0 0 0 0 0;
#X obj 1739 493 ctlout 1 1;
#X obj 1759 513 ctlout 2 1;
#X obj 1782 532 ctlout 3 1;
#X obj 1802 552 ctlout 4 1;
#X obj 1822 572 ctlout 5 1;
#X obj 1842 592 ctlout 6 1;
#X obj 450 258 mtx_roll 2;
#X obj 769 282 list split 3;
#X obj 768 340 vsl 16 136 0 127 0 0 empty empty empty 0 -9 0 10 #fcfcfc #000000 #000000 0 1;
#X obj 788 340 vsl 16 136 0 127 0 0 empty empty empty 0 -9 0 10 #fcfcfc #000000 #000000 0 1;
#X obj 808 340 vsl 16 136 0 127 0 0 empty empty empty 0 -9 0 10 #fcfcfc #000000 #000000 0 1;
#X obj 828 340 vsl 16 136 0 127 0 0 empty empty empty 0 -9 0 10 #fcfcfc #000000 #000000 0 1;
#X obj 848 340 vsl 16 136 0 127 0 0 empty empty empty 0 -9 0 10 #fcfcfc #000000 #000000 0 1;
#X obj 868 340 vsl 16 136 0 127 0 0 empty empty empty 0 -9 0 10 #fcfcfc #000000 #000000 0 1;
#X obj 770 305 unpack 0 0 0 0 0 0;
#X obj 2029 500 ctlout 1 1;
#X obj 2049 520 ctlout 2 1;
#X obj 2072 539 ctlout 3 1;
#X obj 2092 559 ctlout 4 1;
#X obj 2112 579 ctlout 5 1;
#X obj 2132 599 ctlout 6 1;
#X obj 772 229 mtx_roll 1;
#X obj 907 287 list split 3;
#X obj 906 345 vsl 16 136 0 127 0 0 empty empty empty 0 -9 0 10 #fcfcfc #000000 #000000 0 1;
#X obj 926 345 vsl 16 136 0 127 0 0 empty empty empty 0 -9 0 10 #fcfcfc #000000 #000000 0 1;
#X obj 946 345 vsl 16 136 0 127 0 0 empty empty empty 0 -9 0 10 #fcfcfc #000000 #000000 0 1;
#X obj 966 345 vsl 16 136 0 127 0 0 empty empty empty 0 -9 0 10 #fcfcfc #000000 #000000 0 1;
#X obj 986 345 vsl 16 136 0 127 0 0 empty empty empty 0 -9 0 10 #fcfcfc #000000 #000000 0 1;
#X obj 1006 345 vsl 16 136 0 127 0 0 empty empty empty 0 -9 0 10 #fcfcfc #000000 #000000 0 1;
#X obj 908 310 unpack 0 0 0 0 0 0;
#X obj 2167 505 ctlout 1 1;
#X obj 2187 525 ctlout 2 1;
#X obj 2210 544 ctlout 3 1;
#X obj 2230 564 ctlout 4 1;
#X obj 2250 584 ctlout 5 1;
#X obj 2270 604 ctlout 6 1;
#X obj 908 230 mtx_roll 2;
#N canvas 121 146 450 300 verticalselfie 0;
#X obj 131 81 * -1;
#X obj 132 101 + 127;
#X obj 242 12 inlet;
#X obj 131 140 outlet;
#X obj 184 84 * -1;
#X obj 185 104 + 127;
#X obj 184 143 outlet;
#X obj 229 84 * -1;
#X obj 230 104 + 127;
#X obj 229 143 outlet;
#X obj 282 87 * -1;
#X obj 283 107 + 127;
#X obj 282 146 outlet;
#X obj 330 90 * -1;
#X obj 331 110 + 127;
#X obj 330 149 outlet;
#X obj 383 93 * -1;
#X obj 384 113 + 127;
#X obj 383 152 outlet;
#X obj 246 39 unpack 0 0 0 0 0 0;
#X obj 428 60 outlet;
#X obj 333 9 list prepend matrix 3 2;
#X obj 155 222 print original *-1+f;
#X obj 159 194 pack 0 0 0 0 0 0;
#X connect 0 0 1 0;
#X connect 1 0 3 0;
#X connect 1 0 23 0;
#X connect 2 0 19 0;
#X connect 2 0 21 0;
#X connect 4 0 5 0;
#X connect 5 0 6 0;
#X connect 5 0 23 1;
#X connect 7 0 8 0;
#X connect 8 0 9 0;
#X connect 8 0 23 2;
#X connect 10 0 11 0;
#X connect 11 0 12 0;
#X connect 11 0 23 3;
#X connect 13 0 14 0;
#X connect 14 0 15 0;
#X connect 14 0 23 4;
#X connect 16 0 17 0;
#X connect 17 0 18 0;
#X connect 17 0 23 4;
#X connect 19 0 0 0;
#X connect 19 1 4 0;
#X connect 19 2 7 0;
#X connect 19 3 10 0;
#X connect 19 4 13 0;
#X connect 19 5 16 0;
#X connect 21 0 20 0;
#X connect 23 0 22 0;
#X restore 207 476 pd verticalselfie;
#X obj 204 500 vsl 16 136 0 127 0 0 empty empty empty 0 -9 0 10 #fcfcfc #000000 #000000 0 1;
#X obj 224 500 vsl 16 136 0 127 0 0 empty empty empty 0 -9 0 10 #fcfcfc #000000 #000000 0 1;
#X obj 244 500 vsl 16 136 0 127 0 0 empty empty empty 0 -9 0 10 #fcfcfc #000000 #000000 0 1;
#X obj 264 500 vsl 16 136 0 127 0 0 empty empty empty 0 -9 0 10 #fcfcfc #000000 #000000 0 1;
#X obj 284 500 vsl 16 136 0 127 0 0 empty empty empty 0 -9 0 10 #fcfcfc #000000 #000000 0 1;
#X obj 304 500 vsl 16 136 0 127 0 0 empty empty empty 0 -9 0 10 #fcfcfc #000000 #000000 0 1;
#X obj 1282 641 ctlout 1 1;
#X obj 1302 661 ctlout 2 1;
#X obj 1325 680 ctlout 3 1;
#X obj 1345 700 ctlout 4 1;
#X obj 1365 720 ctlout 5 1;
#X obj 1385 740 ctlout 6 1;
#N canvas 121 146 450 300 verticalselfie 1;
#X obj 131 81 * -1;
#X obj 132 101 + 127;
#X obj 242 12 inlet;
#X obj 131 140 outlet;
#X obj 184 84 * -1;
#X obj 185 104 + 127;
#X obj 184 143 outlet;
#X obj 229 84 * -1;
#X obj 230 104 + 127;
#X obj 229 143 outlet;
#X obj 282 87 * -1;
#X obj 283 107 + 127;
#X obj 282 146 outlet;
#X obj 330 90 * -1;
#X obj 331 110 + 127;
#X obj 330 149 outlet;
#X obj 383 93 * -1;
#X obj 384 113 + 127;
#X obj 383 152 outlet;
#X obj 246 39 unpack 0 0 0 0 0 0;
#X obj 129 256 print rolled+1 *-1+f;
#X obj 159 194 pack 0 0 0 0 0 0;
#X connect 0 0 1 0;
#X connect 1 0 3 0;
#X connect 1 0 21 0;
#X connect 2 0 19 0;
#X connect 4 0 5 0;
#X connect 5 0 6 0;
#X connect 5 0 21 1;
#X connect 7 0 8 0;
#X connect 8 0 9 0;
#X connect 8 0 21 2;
#X connect 10 0 11 0;
#X connect 11 0 12 0;
#X connect 11 0 21 3;
#X connect 13 0 14 0;
#X connect 14 0 15 0;
#X connect 14 0 21 4;
#X connect 16 0 17 0;
#X connect 17 0 18 0;
#X connect 17 0 21 5;
#X connect 19 0 0 0;
#X connect 19 1 4 0;
#X connect 19 2 7 0;
#X connect 19 3 10 0;
#X connect 19 4 13 0;
#X connect 19 5 16 0;
#X connect 21 0 20 0;
#X restore 338 474 pd verticalselfie;
#X obj 335 498 vsl 16 136 0 127 0 0 empty empty empty 0 -9 0 10 #fcfcfc #000000 #000000 0 1;
#X obj 355 498 vsl 16 136 0 127 0 0 empty empty empty 0 -9 0 10 #fcfcfc #000000 #000000 0 1;
#X obj 375 498 vsl 16 136 0 127 0 0 empty empty empty 0 -9 0 10 #fcfcfc #000000 #000000 0 1;
#X obj 395 498 vsl 16 136 0 127 0 0 empty empty empty 0 -9 0 10 #fcfcfc #000000 #000000 0 1;
#X obj 415 498 vsl 16 136 0 127 0 0 empty empty empty 0 -9 0 10 #fcfcfc #000000 #000000 0 1;
#X obj 435 498 vsl 16 136 0 127 0 0 empty empty empty 0 -9 0 10 #fcfcfc #000000 #000000 0 1;
#X obj 1413 639 ctlout 1 1;
#X obj 1433 659 ctlout 2 1;
#X obj 1456 678 ctlout 3 1;
#X obj 1476 698 ctlout 4 1;
#X obj 1496 718 ctlout 5 1;
#X obj 1516 738 ctlout 6 1;
#N canvas 121 146 450 300 verticalselfie 1;
#X obj 131 81 * -1;
#X obj 132 101 + 127;
#X obj 242 12 inlet;
#X obj 131 140 outlet;
#X obj 184 84 * -1;
#X obj 185 104 + 127;
#X obj 184 143 outlet;
#X obj 229 84 * -1;
#X obj 230 104 + 127;
#X obj 229 143 outlet;
#X obj 282 87 * -1;
#X obj 283 107 + 127;
#X obj 282 146 outlet;
#X obj 330 90 * -1;
#X obj 331 110 + 127;
#X obj 330 149 outlet;
#X obj 383 93 * -1;
#X obj 384 113 + 127;
#X obj 383 152 outlet;
#X obj 246 39 unpack 0 0 0 0 0 0;
#X obj 97 282 print rolled+2 *-1+f;
#X obj 159 194 pack 0 0 0 0 0 0;
#X connect 0 0 1 0;
#X connect 1 0 3 0;
#X connect 1 0 21 0;
#X connect 2 0 19 0;
#X connect 4 0 5 0;
#X connect 5 0 6 0;
#X connect 5 0 21 1;
#X connect 7 0 8 0;
#X connect 8 0 9 0;
#X connect 8 0 21 2;
#X connect 10 0 11 0;
#X connect 11 0 12 0;
#X connect 11 0 21 3;
#X connect 13 0 14 0;
#X connect 14 0 15 0;
#X connect 14 0 21 4;
#X connect 16 0 17 0;
#X connect 17 0 18 0;
#X connect 17 0 21 5;
#X connect 19 0 0 0;
#X connect 19 1 4 0;
#X connect 19 2 7 0;
#X connect 19 3 10 0;
#X connect 19 4 13 0;
#X connect 19 5 16 0;
#X connect 21 0 20 0;
#X restore 485 476 pd verticalselfie;
#X obj 482 500 vsl 16 136 0 127 0 0 empty empty empty 0 -9 0 10 #fcfcfc #000000 #000000 0 1;
#X obj 502 500 vsl 16 136 0 127 0 0 empty empty empty 0 -9 0 10 #fcfcfc #000000 #000000 0 1;
#X obj 522 500 vsl 16 136 0 127 0 0 empty empty empty 0 -9 0 10 #fcfcfc #000000 #000000 0 1;
#X obj 542 500 vsl 16 136 0 127 0 0 empty empty empty 0 -9 0 10 #fcfcfc #000000 #000000 0 1;
#X obj 562 500 vsl 16 136 0 127 0 0 empty empty empty 0 -9 0 10 #fcfcfc #000000 #000000 0 1;
#X obj 582 500 vsl 16 136 0 127 0 0 empty empty empty 0 -9 0 10 #fcfcfc #000000 #000000 0 1;
#X obj 1560 641 ctlout 1 1;
#X obj 1580 661 ctlout 2 1;
#X obj 1603 680 ctlout 3 1;
#X obj 1623 700 ctlout 4 1;
#X obj 1643 720 ctlout 5 1;
#X obj 1663 740 ctlout 6 1;
#N canvas 121 146 450 300 verticalselfie 0;
#X obj 131 81 * -1;
#X obj 132 101 + 127;
#X obj 242 12 inlet;
#X obj 131 140 outlet;
#X obj 184 84 * -1;
#X obj 185 104 + 127;
#X obj 184 143 outlet;
#X obj 229 84 * -1;
#X obj 230 104 + 127;
#X obj 229 143 outlet;
#X obj 282 87 * -1;
#X obj 283 107 + 127;
#X obj 282 146 outlet;
#X obj 330 90 * -1;
#X obj 331 110 + 127;
#X obj 330 149 outlet;
#X obj 383 93 * -1;
#X obj 384 113 + 127;
#X obj 383 152 outlet;
#X obj 246 39 unpack 0 0 0 0 0 0;
#X obj 132 258 print scrolled *-1+f;
#X obj 159 194 pack 0 0 0 0 0 0;
#X connect 0 0 1 0;
#X connect 1 0 3 0;
#X connect 1 0 21 0;
#X connect 2 0 19 0;
#X connect 4 0 5 0;
#X connect 5 0 6 0;
#X connect 5 0 21 1;
#X connect 7 0 8 0;
#X connect 8 0 9 0;
#X connect 8 0 21 2;
#X connect 10 0 11 0;
#X connect 11 0 12 0;
#X connect 11 0 21 3;
#X connect 13 0 14 0;
#X connect 14 0 15 0;
#X connect 14 0 21 4;
#X connect 16 0 17 0;
#X connect 17 0 18 0;
#X connect 17 0 21 5;
#X connect 19 0 0 0;
#X connect 19 1 4 0;
#X connect 19 2 7 0;
#X connect 19 3 10 0;
#X connect 19 4 13 0;
#X connect 19 5 16 0;
#X connect 21 0 20 0;
#X restore 632 473 pd verticalselfie;
#X obj 629 497 vsl 16 136 0 127 0 0 empty empty empty 0 -9 0 10 #fcfcfc #000000 #000000 0 1;
#X obj 649 497 vsl 16 136 0 127 0 0 empty empty empty 0 -9 0 10 #fcfcfc #000000 #000000 0 1;
#X obj 669 497 vsl 16 136 0 127 0 0 empty empty empty 0 -9 0 10 #fcfcfc #000000 #000000 0 1;
#X obj 689 497 vsl 16 136 0 127 0 0 empty empty empty 0 -9 0 10 #fcfcfc #000000 #000000 0 1;
#X obj 709 497 vsl 16 136 0 127 0 0 empty empty empty 0 -9 0 10 #fcfcfc #000000 #000000 0 1;
#X obj 729 497 vsl 16 136 0 127 0 0 empty empty empty 0 -9 0 10 #fcfcfc #000000 #000000 0 1;
#X obj 1707 638 ctlout 1 1;
#X obj 1727 658 ctlout 2 1;
#X obj 1750 677 ctlout 3 1;
#X obj 1770 697 ctlout 4 1;
#X obj 1790 717 ctlout 5 1;
#X obj 1810 737 ctlout 6 1;
#N canvas 121 146 450 300 verticalselfie 0;
#X obj 131 81 * -1;
#X obj 132 101 + 127;
#X obj 242 12 inlet;
#X obj 131 140 outlet;
#X obj 184 84 * -1;
#X obj 185 104 + 127;
#X obj 184 143 outlet;
#X obj 229 84 * -1;
#X obj 230 104 + 127;
#X obj 229 143 outlet;
#X obj 282 87 * -1;
#X obj 283 107 + 127;
#X obj 282 146 outlet;
#X obj 330 90 * -1;
#X obj 331 110 + 127;
#X obj 330 149 outlet;
#X obj 383 93 * -1;
#X obj 384 113 + 127;
#X obj 383 152 outlet;
#X obj 246 39 unpack 0 0 0 0 0 0;
#X obj 99 255 print scrolled and rolled+1 *-1+f;
#X obj 159 194 pack 0 0 0 0 0 0;
#X connect 0 0 1 0;
#X connect 1 0 3 0;
#X connect 1 0 21 0;
#X connect 2 0 19 0;
#X connect 4 0 5 0;
#X connect 5 0 6 0;
#X connect 5 0 21 1;
#X connect 7 0 8 0;
#X connect 8 0 9 0;
#X connect 8 0 21 2;
#X connect 10 0 11 0;
#X connect 11 0 12 0;
#X connect 11 0 21 3;
#X connect 13 0 14 0;
#X connect 14 0 15 0;
#X connect 14 0 21 4;
#X connect 16 0 17 0;
#X connect 17 0 18 0;
#X connect 17 0 21 5;
#X connect 19 0 0 0;
#X connect 19 1 4 0;
#X connect 19 2 7 0;
#X connect 19 3 10 0;
#X connect 19 4 13 0;
#X connect 19 5 16 0;
#X connect 21 0 20 0;
#X restore 770 476 pd verticalselfie;
#X obj 767 500 vsl 16 136 0 127 0 0 empty empty empty 0 -9 0 10 #fcfcfc #000000 #000000 0 1;
#X obj 787 500 vsl 16 136 0 127 0 0 empty empty empty 0 -9 0 10 #fcfcfc #000000 #000000 0 1;
#X obj 807 500 vsl 16 136 0 127 0 0 empty empty empty 0 -9 0 10 #fcfcfc #000000 #000000 0 1;
#X obj 827 500 vsl 16 136 0 127 0 0 empty empty empty 0 -9 0 10 #fcfcfc #000000 #000000 0 1;
#X obj 847 500 vsl 16 136 0 127 0 0 empty empty empty 0 -9 0 10 #fcfcfc #000000 #000000 0 1;
#X obj 867 500 vsl 16 136 0 127 0 0 empty empty empty 0 -9 0 10 #fcfcfc #000000 #000000 0 1;
#X obj 1845 641 ctlout 1 1;
#X obj 1865 661 ctlout 2 1;
#X obj 1888 680 ctlout 3 1;
#X obj 1908 700 ctlout 4 1;
#X obj 1928 720 ctlout 5 1;
#X obj 1948 740 ctlout 6 1;
#N canvas 121 146 450 300 verticalselfie 1;
#X obj 131 81 * -1;
#X obj 132 101 + 127;
#X obj 242 12 inlet;
#X obj 131 140 outlet;
#X obj 184 84 * -1;
#X obj 185 104 + 127;
#X obj 184 143 outlet;
#X obj 229 84 * -1;
#X obj 230 104 + 127;
#X obj 229 143 outlet;
#X obj 282 87 * -1;
#X obj 283 107 + 127;
#X obj 282 146 outlet;
#X obj 330 90 * -1;
#X obj 331 110 + 127;
#X obj 330 149 outlet;
#X obj 383 93 * -1;
#X obj 384 113 + 127;
#X obj 383 152 outlet;
#X obj 246 39 unpack 0 0 0 0 0 0;
#X obj 80 238 print scrolled and rolled+2 *-1+f;
#X obj 159 194 pack 0 0 0 0 0 0;
#X connect 0 0 1 0;
#X connect 1 0 3 0;
#X connect 1 0 21 0;
#X connect 2 0 19 0;
#X connect 4 0 5 0;
#X connect 5 0 6 0;
#X connect 5 0 21 1;
#X connect 7 0 8 0;
#X connect 8 0 9 0;
#X connect 8 0 21 2;
#X connect 10 0 11 0;
#X connect 11 0 12 0;
#X connect 11 0 21 3;
#X connect 13 0 14 0;
#X connect 14 0 15 0;
#X connect 14 0 21 4;
#X connect 16 0 17 0;
#X connect 17 0 18 0;
#X connect 17 0 21 5;
#X connect 19 0 0 0;
#X connect 19 1 4 0;
#X connect 19 2 7 0;
#X connect 19 3 10 0;
#X connect 19 4 13 0;
#X connect 19 5 16 0;
#X connect 21 0 20 0;
#X restore 909 478 pd verticalselfie;
#X obj 906 502 vsl 16 136 0 127 0 0 empty empty empty 0 -9 0 10 #fcfcfc #000000 #000000 0 1;
#X obj 926 502 vsl 16 136 0 127 0 0 empty empty empty 0 -9 0 10 #fcfcfc #000000 #000000 0 1;
#X obj 946 502 vsl 16 136 0 127 0 0 empty empty empty 0 -9 0 10 #fcfcfc #000000 #000000 0 1;
#X obj 966 502 vsl 16 136 0 127 0 0 empty empty empty 0 -9 0 10 #fcfcfc #000000 #000000 0 1;
#X obj 986 502 vsl 16 136 0 127 0 0 empty empty empty 0 -9 0 10 #fcfcfc #000000 #000000 0 1;
#X obj 1006 502 vsl 16 136 0 127 0 0 empty empty empty 0 -9 0 10 #fcfcfc #000000 #000000 0 1;
#X obj 1984 643 ctlout 1 1;
#X obj 2004 663 ctlout 2 1;
#X obj 2027 682 ctlout 3 1;
#X obj 2047 702 ctlout 4 1;
#X obj 2067 722 ctlout 5 1;
#X obj 2087 742 ctlout 6 1;
#X obj 196 683 list split 3;
#X obj 195 741 vsl 16 136 0 127 0 0 empty empty empty 0 -9 0 10 #fcfcfc #000000 #000000 0 1;
#X obj 215 741 vsl 16 136 0 127 0 0 empty empty empty 0 -9 0 10 #fcfcfc #000000 #000000 0 1;
#X obj 235 741 vsl 16 136 0 127 0 0 empty empty empty 0 -9 0 10 #fcfcfc #000000 #000000 0 1;
#X obj 255 741 vsl 16 136 0 127 0 0 empty empty empty 0 -9 0 10 #fcfcfc #000000 #000000 0 1;
#X obj 275 741 vsl 16 136 0 127 0 0 empty empty empty 0 -9 0 10 #fcfcfc #000000 #000000 0 1;
#X obj 295 741 vsl 16 136 0 127 0 0 empty empty empty 0 -9 0 10 #fcfcfc #000000 #000000 0 1;
#X obj 197 706 unpack 0 0 0 0 0 0;
#X obj 1355 905 ctlout 1 1;
#X obj 1375 925 ctlout 2 1;
#X obj 1398 944 ctlout 3 1;
#X obj 1418 964 ctlout 4 1;
#X obj 1438 984 ctlout 5 1;
#X obj 1458 1004 ctlout 6 1;
#X obj 195 664 mtx_transpose;
#X obj 139 48 ctlin 3 1;
#X obj 205 49 ctlin 4 1;
#X obj 270 49 ctlin 5 1;
#X obj 331 686 list split 3;
#X obj 330 744 vsl 16 136 0 127 0 0 empty empty empty 0 -9 0 10 #fcfcfc #000000 #000000 0 1;
#X obj 350 744 vsl 16 136 0 127 0 0 empty empty empty 0 -9 0 10 #fcfcfc #000000 #000000 0 1;
#X obj 370 744 vsl 16 136 0 127 0 0 empty empty empty 0 -9 0 10 #fcfcfc #000000 #000000 0 1;
#X obj 390 744 vsl 16 136 0 127 0 0 empty empty empty 0 -9 0 10 #fcfcfc #000000 #000000 0 1;
#X obj 410 744 vsl 16 136 0 127 0 0 empty empty empty 0 -9 0 10 #fcfcfc #000000 #000000 0 1;
#X obj 430 744 vsl 16 136 0 127 0 0 empty empty empty 0 -9 0 10 #fcfcfc #000000 #000000 0 1;
#X obj 332 709 unpack 0 0 0 0 0 0;
#X obj 1486 896 ctlout 1 1;
#X obj 1506 916 ctlout 2 1;
#X obj 1529 935 ctlout 3 1;
#X obj 1549 955 ctlout 4 1;
#X obj 1566 986 ctlout 5 1;
#X obj 1586 1006 ctlout 6 1;
#X obj 327 672 mtx_transpose;
#X obj 478 685 list split 3;
#X obj 477 743 vsl 16 136 0 127 0 0 empty empty empty 0 -9 0 10 #fcfcfc #000000 #000000 0 1;
#X obj 497 743 vsl 16 136 0 127 0 0 empty empty empty 0 -9 0 10 #fcfcfc #000000 #000000 0 1;
#X obj 517 743 vsl 16 136 0 127 0 0 empty empty empty 0 -9 0 10 #fcfcfc #000000 #000000 0 1;
#X obj 537 743 vsl 16 136 0 127 0 0 empty empty empty 0 -9 0 10 #fcfcfc #000000 #000000 0 1;
#X obj 557 743 vsl 16 136 0 127 0 0 empty empty empty 0 -9 0 10 #fcfcfc #000000 #000000 0 1;
#X obj 577 743 vsl 16 136 0 127 0 0 empty empty empty 0 -9 0 10 #fcfcfc #000000 #000000 0 1;
#X obj 479 708 unpack 0 0 0 0 0 0;
#X obj 1633 895 ctlout 1 1;
#X obj 1653 915 ctlout 2 1;
#X obj 1676 934 ctlout 3 1;
#X obj 1696 954 ctlout 4 1;
#X obj 1715 977 ctlout 5 1;
#X obj 1735 997 ctlout 6 1;
#X obj 643 686 list split 3;
#X obj 642 744 vsl 16 136 0 127 0 0 empty empty empty 0 -9 0 10 #fcfcfc #000000 #000000 0 1;
#X obj 662 744 vsl 16 136 0 127 0 0 empty empty empty 0 -9 0 10 #fcfcfc #000000 #000000 0 1;
#X obj 682 744 vsl 16 136 0 127 0 0 empty empty empty 0 -9 0 10 #fcfcfc #000000 #000000 0 1;
#X obj 702 744 vsl 16 136 0 127 0 0 empty empty empty 0 -9 0 10 #fcfcfc #000000 #000000 0 1;
#X obj 722 744 vsl 16 136 0 127 0 0 empty empty empty 0 -9 0 10 #fcfcfc #000000 #000000 0 1;
#X obj 742 744 vsl 16 136 0 127 0 0 empty empty empty 0 -9 0 10 #fcfcfc #000000 #000000 0 1;
#X obj 644 709 unpack 0 0 0 0 0 0;
#X obj 1798 896 ctlout 1 1;
#X obj 1818 916 ctlout 2 1;
#X obj 1841 935 ctlout 3 1;
#X obj 1861 955 ctlout 4 1;
#X obj 1881 975 ctlout 5 1;
#X obj 1901 995 ctlout 6 1;
#X obj 642 670 mtx_transpose;
#X obj 478 664 mtx_transpose;
#X obj 807 692 list split 3;
#X obj 806 750 vsl 16 136 0 127 0 0 empty empty empty 0 -9 0 10 #fcfcfc #000000 #000000 0 1;
#X obj 826 750 vsl 16 136 0 127 0 0 empty empty empty 0 -9 0 10 #fcfcfc #000000 #000000 0 1;
#X obj 846 750 vsl 16 136 0 127 0 0 empty empty empty 0 -9 0 10 #fcfcfc #000000 #000000 0 1;
#X obj 866 750 vsl 16 136 0 127 0 0 empty empty empty 0 -9 0 10 #fcfcfc #000000 #000000 0 1;
#X obj 886 750 vsl 16 136 0 127 0 0 empty empty empty 0 -9 0 10 #fcfcfc #000000 #000000 0 1;
#X obj 906 750 vsl 16 136 0 127 0 0 empty empty empty 0 -9 0 10 #fcfcfc #000000 #000000 0 1;
#X obj 808 715 unpack 0 0 0 0 0 0;
#X obj 1962 902 ctlout 1 1;
#X obj 1982 922 ctlout 2 1;
#X obj 2005 941 ctlout 3 1;
#X obj 2025 961 ctlout 4 1;
#X obj 2045 981 ctlout 5 1;
#X obj 2065 1001 ctlout 6 1;
#X obj 935 694 list split 3;
#X obj 934 752 vsl 16 136 0 127 0 0 empty empty empty 0 -9 0 10 #fcfcfc #000000 #000000 0 1;
#X obj 954 752 vsl 16 136 0 127 0 0 empty empty empty 0 -9 0 10 #fcfcfc #000000 #000000 0 1;
#X obj 974 752 vsl 16 136 0 127 0 0 empty empty empty 0 -9 0 10 #fcfcfc #000000 #000000 0 1;
#X obj 994 752 vsl 16 136 0 127 0 0 empty empty empty 0 -9 0 10 #fcfcfc #000000 #000000 0 1;
#X obj 1014 752 vsl 16 136 0 127 0 0 empty empty empty 0 -9 0 10 #fcfcfc #000000 #000000 0 1;
#X obj 1034 752 vsl 16 136 0 127 0 0 empty empty empty 0 -9 0 10 #fcfcfc #000000 #000000 0 1;
#X obj 936 717 unpack 0 0 0 0 0 0;
#X obj 2090 904 ctlout 1 1;
#X obj 2110 924 ctlout 2 1;
#X obj 2133 943 ctlout 3 1;
#X obj 2153 963 ctlout 4 1;
#X obj 2173 983 ctlout 5 1;
#X obj 2193 1003 ctlout 6 1;
#X obj 934 674 mtx_transpose;
#X obj 807 671 mtx_transpose;
#X obj 37 37 print;
#X obj 159 644 print original trasnposed;
#X obj 315 644 print rolled+1 trasnposed;
#X obj 470 644 print rolled+2 trasnposed;
#X obj 627 645 print scrolled+1 trasnposed;
#X obj 795 645 print scrolled+1 rolled+1 trasnposed;
#X obj 1018 676 print scrolled+1 rolled+1 trasnposed;
#X obj 519 257 print rolled+2;
#X obj 359 258 print rolled+1;
#X obj 642 257 print scrolled+1;
#N canvas 121 146 450 300 verticalselfie 0;
#X obj 131 81 * -1;
#X obj 132 101 + 127;
#X obj 242 12 inlet;
#X obj 131 140 outlet;
#X obj 184 84 * -1;
#X obj 185 104 + 127;
#X obj 184 143 outlet;
#X obj 229 84 * -1;
#X obj 230 104 + 127;
#X obj 229 143 outlet;
#X obj 282 87 * -1;
#X obj 283 107 + 127;
#X obj 282 146 outlet;
#X obj 330 90 * -1;
#X obj 331 110 + 127;
#X obj 330 149 outlet;
#X obj 383 93 * -1;
#X obj 384 113 + 127;
#X obj 383 152 outlet;
#X obj 246 39 unpack 0 0 0 0 0 0;
#X obj 428 60 outlet;
#X obj 333 9 list prepend matrix 3 2;
#X obj 64 238 print original transposed& *-1+f;
#X obj 159 194 pack 0 0 0 0 0 0;
#X connect 0 0 1 0;
#X connect 1 0 3 0;
#X connect 1 0 23 0;
#X connect 2 0 19 0;
#X connect 2 0 21 0;
#X connect 4 0 5 0;
#X connect 5 0 6 0;
#X connect 5 0 23 1;
#X connect 7 0 8 0;
#X connect 8 0 9 0;
#X connect 8 0 23 2;
#X connect 10 0 11 0;
#X connect 11 0 12 0;
#X connect 11 0 23 3;
#X connect 13 0 14 0;
#X connect 14 0 15 0;
#X connect 14 0 23 4;
#X connect 16 0 17 0;
#X connect 17 0 18 0;
#X connect 17 0 23 5;
#X connect 19 0 0 0;
#X connect 19 1 4 0;
#X connect 19 2 7 0;
#X connect 19 3 10 0;
#X connect 19 4 13 0;
#X connect 19 5 16 0;
#X connect 21 0 20 0;
#X connect 23 0 22 0;
#X restore 192 904 pd verticalselfie;
#X obj 189 928 vsl 16 136 0 127 0 0 empty empty empty 0 -9 0 10 #fcfcfc #000000 #000000 0 1;
#X obj 209 928 vsl 16 136 0 127 0 0 empty empty empty 0 -9 0 10 #fcfcfc #000000 #000000 0 1;
#X obj 229 928 vsl 16 136 0 127 0 0 empty empty empty 0 -9 0 10 #fcfcfc #000000 #000000 0 1;
#X obj 249 928 vsl 16 136 0 127 0 0 empty empty empty 0 -9 0 10 #fcfcfc #000000 #000000 0 1;
#X obj 269 928 vsl 16 136 0 127 0 0 empty empty empty 0 -9 0 10 #fcfcfc #000000 #000000 0 1;
#X obj 289 928 vsl 16 136 0 127 0 0 empty empty empty 0 -9 0 10 #fcfcfc #000000 #000000 0 1;
#X obj 191 1462 ctlout 1 1;
#X obj 211 1482 ctlout 2 1;
#X obj 234 1501 ctlout 3 1;
#X obj 254 1521 ctlout 4 1;
#X obj 274 1541 ctlout 5 1;
#X obj 294 1561 ctlout 6 1;
#N canvas 121 146 450 300 verticalselfie 0;
#X obj 131 81 * -1;
#X obj 132 101 + 127;
#X obj 242 12 inlet;
#X obj 131 140 outlet;
#X obj 184 84 * -1;
#X obj 185 104 + 127;
#X obj 184 143 outlet;
#X obj 229 84 * -1;
#X obj 230 104 + 127;
#X obj 229 143 outlet;
#X obj 282 87 * -1;
#X obj 283 107 + 127;
#X obj 282 146 outlet;
#X obj 330 90 * -1;
#X obj 331 110 + 127;
#X obj 330 149 outlet;
#X obj 383 93 * -1;
#X obj 384 113 + 127;
#X obj 383 152 outlet;
#X obj 246 39 unpack 0 0 0 0 0 0;
#X obj 428 60 outlet;
#X obj 333 9 list prepend matrix 3 2;
#X obj 71 232 print original rolled+1&transposed& *-1+f;
#X obj 159 194 pack 0 0 0 0 0 0;
#X connect 0 0 1 0;
#X connect 1 0 3 0;
#X connect 1 0 23 0;
#X connect 2 0 19 0;
#X connect 2 0 21 0;
#X connect 4 0 5 0;
#X connect 5 0 6 0;
#X connect 5 0 23 1;
#X connect 7 0 8 0;
#X connect 8 0 9 0;
#X connect 8 0 23 2;
#X connect 10 0 11 0;
#X connect 11 0 12 0;
#X connect 11 0 23 3;
#X connect 13 0 14 0;
#X connect 14 0 15 0;
#X connect 14 0 23 4;
#X connect 16 0 17 0;
#X connect 17 0 18 0;
#X connect 17 0 23 5;
#X connect 19 0 0 0;
#X connect 19 1 4 0;
#X connect 19 2 7 0;
#X connect 19 3 10 0;
#X connect 19 4 13 0;
#X connect 19 5 16 0;
#X connect 21 0 20 0;
#X connect 23 0 22 0;
#X restore 327 906 pd verticalselfie;
#X obj 324 930 vsl 16 136 0 127 0 0 empty empty empty 0 -9 0 10 #fcfcfc #000000 #000000 0 1;
#X obj 344 930 vsl 16 136 0 127 0 0 empty empty empty 0 -9 0 10 #fcfcfc #000000 #000000 0 1;
#X obj 364 930 vsl 16 136 0 127 0 0 empty empty empty 0 -9 0 10 #fcfcfc #000000 #000000 0 1;
#X obj 384 930 vsl 16 136 0 127 0 0 empty empty empty 0 -9 0 10 #fcfcfc #000000 #000000 0 1;
#X obj 404 930 vsl 16 136 0 127 0 0 empty empty empty 0 -9 0 10 #fcfcfc #000000 #000000 0 1;
#X obj 424 930 vsl 16 136 0 127 0 0 empty empty empty 0 -9 0 10 #fcfcfc #000000 #000000 0 1;
#X obj 326 1464 ctlout 1 1;
#X obj 346 1484 ctlout 2 1;
#X obj 369 1503 ctlout 3 1;
#X obj 389 1523 ctlout 4 1;
#X obj 409 1543 ctlout 5 1;
#X obj 429 1563 ctlout 6 1;
#N canvas 121 146 450 300 verticalselfie 0;
#X obj 131 81 * -1;
#X obj 132 101 + 127;
#X obj 242 12 inlet;
#X obj 131 140 outlet;
#X obj 184 84 * -1;
#X obj 185 104 + 127;
#X obj 184 143 outlet;
#X obj 229 84 * -1;
#X obj 230 104 + 127;
#X obj 229 143 outlet;
#X obj 282 87 * -1;
#X obj 283 107 + 127;
#X obj 282 146 outlet;
#X obj 330 90 * -1;
#X obj 331 110 + 127;
#X obj 330 149 outlet;
#X obj 383 93 * -1;
#X obj 384 113 + 127;
#X obj 383 152 outlet;
#X obj 246 39 unpack 0 0 0 0 0 0;
#X obj 428 60 outlet;
#X obj 333 9 list prepend matrix 3 2;
#X obj 106 240 print original rolled+2&transposed& *-1+f;
#X obj 159 194 pack 0 0 0 0 0 0;
#X connect 0 0 1 0;
#X connect 1 0 3 0;
#X connect 1 0 23 0;
#X connect 2 0 19 0;
#X connect 2 0 21 0;
#X connect 4 0 5 0;
#X connect 5 0 6 0;
#X connect 5 0 23 1;
#X connect 7 0 8 0;
#X connect 8 0 9 0;
#X connect 8 0 23 2;
#X connect 10 0 11 0;
#X connect 11 0 12 0;
#X connect 11 0 23 3;
#X connect 13 0 14 0;
#X connect 14 0 15 0;
#X connect 14 0 23 4;
#X connect 16 0 17 0;
#X connect 17 0 18 0;
#X connect 17 0 23 5;
#X connect 19 0 0 0;
#X connect 19 1 4 0;
#X connect 19 2 7 0;
#X connect 19 3 10 0;
#X connect 19 4 13 0;
#X connect 19 5 16 0;
#X connect 21 0 20 0;
#X connect 23 0 22 0;
#X restore 472 906 pd verticalselfie;
#X obj 469 930 vsl 16 136 0 127 0 0 empty empty empty 0 -9 0 10 #fcfcfc #000000 #000000 0 1;
#X obj 489 930 vsl 16 136 0 127 0 0 empty empty empty 0 -9 0 10 #fcfcfc #000000 #000000 0 1;
#X obj 509 930 vsl 16 136 0 127 0 0 empty empty empty 0 -9 0 10 #fcfcfc #000000 #000000 0 1;
#X obj 529 930 vsl 16 136 0 127 0 0 empty empty empty 0 -9 0 10 #fcfcfc #000000 #000000 0 1;
#X obj 549 930 vsl 16 136 0 127 0 0 empty empty empty 0 -9 0 10 #fcfcfc #000000 #000000 0 1;
#X obj 569 930 vsl 16 136 0 127 0 0 empty empty empty 0 -9 0 10 #fcfcfc #000000 #000000 0 1;
#X obj 471 1464 ctlout 1 1;
#X obj 491 1484 ctlout 2 1;
#X obj 514 1503 ctlout 3 1;
#X obj 534 1523 ctlout 4 1;
#X obj 554 1543 ctlout 5 1;
#X obj 574 1563 ctlout 6 1;
#N canvas 121 146 450 300 verticalselfie 0;
#X obj 131 81 * -1;
#X obj 132 101 + 127;
#X obj 242 12 inlet;
#X obj 131 140 outlet;
#X obj 184 84 * -1;
#X obj 185 104 + 127;
#X obj 184 143 outlet;
#X obj 229 84 * -1;
#X obj 230 104 + 127;
#X obj 229 143 outlet;
#X obj 282 87 * -1;
#X obj 283 107 + 127;
#X obj 282 146 outlet;
#X obj 330 90 * -1;
#X obj 331 110 + 127;
#X obj 330 149 outlet;
#X obj 383 93 * -1;
#X obj 384 113 + 127;
#X obj 383 152 outlet;
#X obj 246 39 unpack 0 0 0 0 0 0;
#X obj 428 60 outlet;
#X obj 333 9 list prepend matrix 3 2;
#X obj 76 249 print original scrolled+1 &transposed& *-1+f;
#X obj 159 194 pack 0 0 0 0 0 0;
#X connect 0 0 1 0;
#X connect 1 0 3 0;
#X connect 1 0 23 0;
#X connect 2 0 19 0;
#X connect 2 0 21 0;
#X connect 4 0 5 0;
#X connect 5 0 6 0;
#X connect 5 0 23 1;
#X connect 7 0 8 0;
#X connect 8 0 9 0;
#X connect 8 0 23 2;
#X connect 10 0 11 0;
#X connect 11 0 12 0;
#X connect 11 0 23 3;
#X connect 13 0 14 0;
#X connect 14 0 15 0;
#X connect 14 0 23 4;
#X connect 16 0 17 0;
#X connect 17 0 18 0;
#X connect 17 0 23 5;
#X connect 19 0 0 0;
#X connect 19 1 4 0;
#X connect 19 2 7 0;
#X connect 19 3 10 0;
#X connect 19 4 13 0;
#X connect 19 5 16 0;
#X connect 21 0 20 0;
#X connect 23 0 22 0;
#X restore 640 909 pd verticalselfie;
#X obj 637 933 vsl 16 136 0 127 0 0 empty empty empty 0 -9 0 10 #fcfcfc #000000 #000000 0 1;
#X obj 657 933 vsl 16 136 0 127 0 0 empty empty empty 0 -9 0 10 #fcfcfc #000000 #000000 0 1;
#X obj 677 933 vsl 16 136 0 127 0 0 empty empty empty 0 -9 0 10 #fcfcfc #000000 #000000 0 1;
#X obj 697 933 vsl 16 136 0 127 0 0 empty empty empty 0 -9 0 10 #fcfcfc #000000 #000000 0 1;
#X obj 717 933 vsl 16 136 0 127 0 0 empty empty empty 0 -9 0 10 #fcfcfc #000000 #000000 0 1;
#X obj 737 933 vsl 16 136 0 127 0 0 empty empty empty 0 -9 0 10 #fcfcfc #000000 #000000 0 1;
#X obj 639 1467 ctlout 1 1;
#X obj 659 1487 ctlout 2 1;
#X obj 682 1506 ctlout 3 1;
#X obj 702 1526 ctlout 4 1;
#X obj 722 1546 ctlout 5 1;
#X obj 742 1566 ctlout 6 1;
#N canvas 121 146 450 300 verticalselfie 0;
#X obj 131 81 * -1;
#X obj 132 101 + 127;
#X obj 242 12 inlet;
#X obj 131 140 outlet;
#X obj 184 84 * -1;
#X obj 185 104 + 127;
#X obj 184 143 outlet;
#X obj 229 84 * -1;
#X obj 230 104 + 127;
#X obj 229 143 outlet;
#X obj 282 87 * -1;
#X obj 283 107 + 127;
#X obj 282 146 outlet;
#X obj 330 90 * -1;
#X obj 331 110 + 127;
#X obj 330 149 outlet;
#X obj 383 93 * -1;
#X obj 384 113 + 127;
#X obj 383 152 outlet;
#X obj 246 39 unpack 0 0 0 0 0 0;
#X obj 428 60 outlet;
#X obj 333 9 list prepend matrix 3 2;
#X obj 90 256 print original scrolled+1 & rolled+1transposed& *-1+f;
#X obj 159 194 pack 0 0 0 0 0 0;
#X connect 0 0 1 0;
#X connect 1 0 3 0;
#X connect 1 0 23 0;
#X connect 2 0 19 0;
#X connect 2 0 21 0;
#X connect 4 0 5 0;
#X connect 5 0 6 0;
#X connect 5 0 23 1;
#X connect 7 0 8 0;
#X connect 8 0 9 0;
#X connect 8 0 23 2;
#X connect 10 0 11 0;
#X connect 11 0 12 0;
#X connect 11 0 23 3;
#X connect 13 0 14 0;
#X connect 14 0 15 0;
#X connect 14 0 23 4;
#X connect 16 0 17 0;
#X connect 17 0 18 0;
#X connect 17 0 23 5;
#X connect 19 0 0 0;
#X connect 19 1 4 0;
#X connect 19 2 7 0;
#X connect 19 3 10 0;
#X connect 19 4 13 0;
#X connect 19 5 16 0;
#X connect 21 0 20 0;
#X connect 23 0 22 0;
#X restore 799 911 pd verticalselfie;
#X obj 796 935 vsl 16 136 0 127 0 0 empty empty empty 0 -9 0 10 #fcfcfc #000000 #000000 0 1;
#X obj 816 935 vsl 16 136 0 127 0 0 empty empty empty 0 -9 0 10 #fcfcfc #000000 #000000 0 1;
#X obj 836 935 vsl 16 136 0 127 0 0 empty empty empty 0 -9 0 10 #fcfcfc #000000 #000000 0 1;
#X obj 856 935 vsl 16 136 0 127 0 0 empty empty empty 0 -9 0 10 #fcfcfc #000000 #000000 0 1;
#X obj 876 935 vsl 16 136 0 127 0 0 empty empty empty 0 -9 0 10 #fcfcfc #000000 #000000 0 1;
#X obj 896 935 vsl 16 136 0 127 0 0 empty empty empty 0 -9 0 10 #fcfcfc #000000 #000000 0 1;
#X obj 798 1469 ctlout 1 1;
#X obj 818 1489 ctlout 2 1;
#X obj 841 1508 ctlout 3 1;
#X obj 861 1528 ctlout 4 1;
#X obj 881 1548 ctlout 5 1;
#X obj 901 1568 ctlout 6 1;
#N canvas 121 146 450 300 verticalselfie 1;
#X obj 131 81 * -1;
#X obj 132 101 + 127;
#X obj 242 12 inlet;
#X obj 131 140 outlet;
#X obj 184 84 * -1;
#X obj 185 104 + 127;
#X obj 184 143 outlet;
#X obj 229 84 * -1;
#X obj 230 104 + 127;
#X obj 229 143 outlet;
#X obj 282 87 * -1;
#X obj 283 107 + 127;
#X obj 282 146 outlet;
#X obj 330 90 * -1;
#X obj 331 110 + 127;
#X obj 330 149 outlet;
#X obj 383 93 * -1;
#X obj 384 113 + 127;
#X obj 383 152 outlet;
#X obj 246 39 unpack 0 0 0 0 0 0;
#X obj 428 60 outlet;
#X obj 333 9 list prepend matrix 3 2;
#X obj 40 234 print original scrolled+1 & rolled+2transposed& *-1+f;
#X obj 159 194 pack 0 0 0 0 0 0;
#X connect 0 0 1 0;
#X connect 1 0 3 0;
#X connect 1 0 23 0;
#X connect 2 0 19 0;
#X connect 2 0 21 0;
#X connect 4 0 5 0;
#X connect 5 0 6 0;
#X connect 5 0 23 1;
#X connect 7 0 8 0;
#X connect 8 0 9 0;
#X connect 8 0 23 2;
#X connect 10 0 11 0;
#X connect 11 0 12 0;
#X connect 11 0 23 3;
#X connect 13 0 14 0;
#X connect 14 0 15 0;
#X connect 14 0 23 4;
#X connect 16 0 17 0;
#X connect 17 0 18 0;
#X connect 17 0 23 5;
#X connect 19 0 0 0;
#X connect 19 1 4 0;
#X connect 19 2 7 0;
#X connect 19 3 10 0;
#X connect 19 4 13 0;
#X connect 19 5 16 0;
#X connect 21 0 20 0;
#X connect 23 0 22 0;
#X restore 967 906 pd verticalselfie;
#X obj 964 930 vsl 16 136 0 127 0 0 empty empty empty 0 -9 0 10 #fcfcfc #000000 #000000 0 1;
#X obj 984 930 vsl 16 136 0 127 0 0 empty empty empty 0 -9 0 10 #fcfcfc #000000 #000000 0 1;
#X obj 1004 930 vsl 16 136 0 127 0 0 empty empty empty 0 -9 0 10 #fcfcfc #000000 #000000 0 1;
#X obj 1024 930 vsl 16 136 0 127 0 0 empty empty empty 0 -9 0 10 #fcfcfc #000000 #000000 0 1;
#X obj 1044 930 vsl 16 136 0 127 0 0 empty empty empty 0 -9 0 10 #fcfcfc #000000 #000000 0 1;
#X obj 1064 930 vsl 16 136 0 127 0 0 empty empty empty 0 -9 0 10 #fcfcfc #000000 #000000 0 1;
#X obj 966 1464 ctlout 1 1;
#X obj 986 1484 ctlout 2 1;
#X obj 1009 1503 ctlout 3 1;
#X obj 1029 1523 ctlout 4 1;
#X obj 1049 1543 ctlout 5 1;
#X obj 1069 1563 ctlout 6 1;
#X obj 784 249 print scrolledandrolled+1;
#X obj 942 249 print scrolledandrolledrolled+2;
#X text 198 15 comment;
#X obj 192 214 declare -lib iemmatrix;
#X obj -275 -29 s firstorder;
#X obj -276 -46 s secondorder;
#X obj -278 -65 s thirdorder;
#X obj -282 -83 s fourthorder;
#X obj -282 -104 s fifthorder;
#X obj -284 -122 s sixthorder;
#X obj 854 27 r sixthorder;
#X obj 762 31 r fifthorder;
#X obj 735 -2 r fourthorder;
#X obj 686 -20 r thirdorder;
#X obj 679 -69 r secondorder;
#X obj 577 55 r firstorder;
#X obj -41 461 vsl 16 136 0 127 0 0 firstorder empty empty 0 -9 0 10 #fcfcfc #000000 #000000 0 1;
#X obj -21 461 vsl 16 136 0 127 0 0 secondorder empty empty 0 -9 0 10 #fcfcfc #000000 #000000 0 1;
#X obj -1 461 vsl 16 136 0 127 0 0 thirdorder empty empty 0 -9 0 10 #fcfcfc #000000 #000000 0 1;
#X obj 19 461 vsl 16 136 0 127 0 0 fourthorder empty empty 0 -9 0 10 #fcfcfc #000000 #000000 0 1;
#X obj 39 461 vsl 16 136 0 127 0 0 fifthorder empty empty 0 -9 0 10 #fcfcfc #000000 #000000 0 1;
#X obj 59 461 vsl 16 136 0 127 0 0 sixthorder empty empty 0 -9 0 10 #fcfcfc #000000 #000000 0 1;
#X connect 1 0 9 0;
#X connect 1 0 13 0;
#X connect 1 0 70 0;
#X connect 1 0 193 0;
#X connect 1 1 2 0;
#X connect 5 0 12 0;
#X connect 6 0 5 0;
#X connect 7 0 6 0;
#X connect 8 0 1 0;
#X connect 9 0 22 0;
#X connect 9 0 211 0;
#X connect 12 0 8 0;
#X connect 12 0 20 0;
#X connect 13 0 21 0;
#X connect 13 0 85 0;
#X connect 13 0 240 0;
#X connect 13 0 100 0;
#X connect 14 0 25 0;
#X connect 15 0 26 0;
#X connect 16 0 27 0;
#X connect 17 0 28 0;
#X connect 18 0 29 0;
#X connect 19 0 30 0;
#X connect 20 1 24 0;
#X connect 20 1 101 0;
#X connect 21 1 37 0;
#X connect 21 1 140 0;
#X connect 21 1 281 0;
#X connect 22 1 50 0;
#X connect 22 1 114 0;
#X connect 22 1 280 0;
#X connect 23 1 63 0;
#X connect 23 1 127 0;
#X connect 23 1 279 0;
#X connect 24 0 14 0;
#X connect 24 1 15 0;
#X connect 24 2 16 0;
#X connect 24 3 17 0;
#X connect 24 4 18 0;
#X connect 24 5 19 0;
#X connect 31 0 38 0;
#X connect 32 0 39 0;
#X connect 33 0 40 0;
#X connect 34 0 41 0;
#X connect 35 0 42 0;
#X connect 36 0 43 0;
#X connect 37 0 31 0;
#X connect 37 1 32 0;
#X connect 37 2 33 0;
#X connect 37 3 34 0;
#X connect 37 4 35 0;
#X connect 37 5 36 0;
#X connect 44 0 51 0;
#X connect 45 0 52 0;
#X connect 46 0 53 0;
#X connect 47 0 54 0;
#X connect 48 0 55 0;
#X connect 49 0 56 0;
#X connect 50 0 44 0;
#X connect 50 1 45 0;
#X connect 50 2 46 0;
#X connect 50 3 47 0;
#X connect 50 4 48 0;
#X connect 50 5 49 0;
#X connect 57 0 64 0;
#X connect 58 0 65 0;
#X connect 59 0 66 0;
#X connect 60 0 67 0;
#X connect 61 0 68 0;
#X connect 62 0 69 0;
#X connect 63 0 57 0;
#X connect 63 1 58 0;
#X connect 63 2 59 0;
#X connect 63 3 60 0;
#X connect 63 4 61 0;
#X connect 63 5 62 0;
#X connect 70 0 23 0;
#X connect 70 0 241 0;
#X connect 71 1 78 0;
#X connect 71 1 153 0;
#X connect 71 1 360 0;
#X connect 72 0 79 0;
#X connect 73 0 80 0;
#X connect 74 0 81 0;
#X connect 75 0 82 0;
#X connect 76 0 83 0;
#X connect 77 0 84 0;
#X connect 78 0 72 0;
#X connect 78 1 73 0;
#X connect 78 2 74 0;
#X connect 78 3 75 0;
#X connect 78 4 76 0;
#X connect 78 5 77 0;
#X connect 85 0 71 0;
#X connect 85 0 271 0;
#X connect 86 1 93 0;
#X connect 86 1 166 0;
#X connect 86 1 361 0;
#X connect 87 0 94 0;
#X connect 88 0 95 0;
#X connect 89 0 96 0;
#X connect 90 0 97 0;
#X connect 91 0 98 0;
#X connect 92 0 99 0;
#X connect 93 0 87 0;
#X connect 93 1 88 0;
#X connect 93 2 89 0;
#X connect 93 3 90 0;
#X connect 93 4 91 0;
#X connect 93 5 92 0;
#X connect 100 0 86 0;
#X connect 100 0 270 0;
#X connect 101 0 102 0;
#X connect 101 1 103 0;
#X connect 101 2 104 0;
#X connect 101 3 105 0;
#X connect 101 4 106 0;
#X connect 101 5 107 0;
#X connect 102 0 108 0;
#X connect 103 0 109 0;
#X connect 104 0 110 0;
#X connect 105 0 111 0;
#X connect 106 0 112 0;
#X connect 107 0 113 0;
#X connect 114 0 115 0;
#X connect 114 1 116 0;
#X connect 114 2 117 0;
#X connect 114 3 118 0;
#X connect 114 4 119 0;
#X connect 114 5 120 0;
#X connect 115 0 121 0;
#X connect 116 0 122 0;
#X connect 117 0 123 0;
#X connect 118 0 124 0;
#X connect 119 0 125 0;
#X connect 120 0 126 0;
#X connect 127 0 128 0;
#X connect 127 1 129 0;
#X connect 127 2 130 0;
#X connect 127 3 131 0;
#X connect 127 4 132 0;
#X connect 127 5 133 0;
#X connect 128 0 134 0;
#X connect 129 0 135 0;
#X connect 130 0 136 0;
#X connect 131 0 137 0;
#X connect 132 0 138 0;
#X connect 133 0 139 0;
#X connect 140 0 141 0;
#X connect 140 1 142 0;
#X connect 140 2 143 0;
#X connect 140 3 144 0;
#X connect 140 4 145 0;
#X connect 140 5 146 0;
#X connect 141 0 147 0;
#X connect 142 0 148 0;
#X connect 143 0 149 0;
#X connect 144 0 150 0;
#X connect 145 0 151 0;
#X connect 146 0 152 0;
#X connect 153 0 154 0;
#X connect 153 1 155 0;
#X connect 153 2 156 0;
#X connect 153 3 157 0;
#X connect 153 4 158 0;
#X connect 153 5 159 0;
#X connect 154 0 160 0;
#X connect 155 0 161 0;
#X connect 156 0 162 0;
#X connect 157 0 163 0;
#X connect 158 0 164 0;
#X connect 159 0 165 0;
#X connect 166 0 167 0;
#X connect 166 1 168 0;
#X connect 166 2 169 0;
#X connect 166 3 170 0;
#X connect 166 4 171 0;
#X connect 166 5 172 0;
#X connect 167 0 173 0;
#X connect 168 0 174 0;
#X connect 169 0 175 0;
#X connect 170 0 176 0;
#X connect 171 0 177 0;
#X connect 172 0 178 0;
#X connect 179 1 186 0;
#X connect 179 1 273 0;
#X connect 179 1 282 0;
#X connect 180 0 187 0;
#X connect 181 0 188 0;
#X connect 182 0 189 0;
#X connect 183 0 190 0;
#X connect 184 0 191 0;
#X connect 185 0 192 0;
#X connect 186 0 180 0;
#X connect 186 1 181 0;
#X connect 186 2 182 0;
#X connect 186 3 183 0;
#X connect 186 4 184 0;
#X connect 186 5 185 0;
#X connect 193 0 179 0;
#X connect 197 1 204 0;
#X connect 197 1 274 0;
#X connect 197 1 295 0;
#X connect 198 0 205 0;
#X connect 199 0 206 0;
#X connect 200 0 207 0;
#X connect 201 0 208 0;
#X connect 202 0 209 0;
#X connect 203 0 210 0;
#X connect 204 0 198 0;
#X connect 204 1 199 0;
#X connect 204 2 200 0;
#X connect 204 3 201 0;
#X connect 204 4 202 0;
#X connect 204 5 203 0;
#X connect 211 0 197 0;
#X connect 212 1 219 0;
#X connect 212 1 275 0;
#X connect 212 1 308 0;
#X connect 213 0 220 0;
#X connect 214 0 221 0;
#X connect 215 0 222 0;
#X connect 216 0 223 0;
#X connect 217 0 224 0;
#X connect 218 0 225 0;
#X connect 219 0 213 0;
#X connect 219 1 214 0;
#X connect 219 2 215 0;
#X connect 219 3 216 0;
#X connect 219 4 217 0;
#X connect 219 5 218 0;
#X connect 226 1 233 0;
#X connect 226 1 276 0;
#X connect 226 1 321 0;
#X connect 227 0 234 0;
#X connect 228 0 235 0;
#X connect 229 0 236 0;
#X connect 230 0 237 0;
#X connect 231 0 238 0;
#X connect 232 0 239 0;
#X connect 233 0 227 0;
#X connect 233 1 228 0;
#X connect 233 2 229 0;
#X connect 233 3 230 0;
#X connect 233 4 231 0;
#X connect 233 5 232 0;
#X connect 240 0 226 0;
#X connect 241 0 212 0;
#X connect 242 1 249 0;
#X connect 242 1 277 0;
#X connect 242 1 334 0;
#X connect 243 0 250 0;
#X connect 244 0 251 0;
#X connect 245 0 252 0;
#X connect 246 0 253 0;
#X connect 247 0 254 0;
#X connect 248 0 255 0;
#X connect 249 0 243 0;
#X connect 249 1 244 0;
#X connect 249 2 245 0;
#X connect 249 3 246 0;
#X connect 249 4 247 0;
#X connect 249 5 248 0;
#X connect 256 1 263 0;
#X connect 256 1 278 0;
#X connect 256 1 347 0;
#X connect 257 0 264 0;
#X connect 258 0 265 0;
#X connect 259 0 266 0;
#X connect 260 0 267 0;
#X connect 261 0 268 0;
#X connect 262 0 269 0;
#X connect 263 0 257 0;
#X connect 263 1 258 0;
#X connect 263 2 259 0;
#X connect 263 3 260 0;
#X connect 263 4 261 0;
#X connect 263 5 262 0;
#X connect 270 0 256 0;
#X connect 271 0 242 0;
#X connect 282 0 283 0;
#X connect 282 1 284 0;
#X connect 282 2 285 0;
#X connect 282 3 286 0;
#X connect 282 4 287 0;
#X connect 282 5 288 0;
#X connect 283 0 289 0;
#X connect 284 0 290 0;
#X connect 285 0 291 0;
#X connect 286 0 292 0;
#X connect 287 0 293 0;
#X connect 288 0 294 0;
#X connect 295 0 296 0;
#X connect 295 1 297 0;
#X connect 295 2 298 0;
#X connect 295 3 299 0;
#X connect 295 4 300 0;
#X connect 295 5 301 0;
#X connect 296 0 302 0;
#X connect 297 0 303 0;
#X connect 298 0 304 0;
#X connect 299 0 305 0;
#X connect 300 0 306 0;
#X connect 301 0 307 0;
#X connect 308 0 309 0;
#X connect 308 1 310 0;
#X connect 308 2 311 0;
#X connect 308 3 312 0;
#X connect 308 4 313 0;
#X connect 308 5 314 0;
#X connect 309 0 315 0;
#X connect 310 0 316 0;
#X connect 311 0 317 0;
#X connect 312 0 318 0;
#X connect 313 0 319 0;
#X connect 314 0 320 0;
#X connect 321 0 322 0;
#X connect 321 1 323 0;
#X connect 321 2 324 0;
#X connect 321 3 325 0;
#X connect 321 4 326 0;
#X connect 321 5 327 0;
#X connect 322 0 328 0;
#X connect 323 0 329 0;
#X connect 324 0 330 0;
#X connect 325 0 331 0;
#X connect 326 0 332 0;
#X connect 327 0 333 0;
#X connect 334 0 335 0;
#X connect 334 1 336 0;
#X connect 334 2 337 0;
#X connect 334 3 338 0;
#X connect 334 4 339 0;
#X connect 334 5 340 0;
#X connect 335 0 341 0;
#X connect 336 0 342 0;
#X connect 337 0 343 0;
#X connect 338 0 344 0;
#X connect 339 0 345 0;
#X connect 340 0 346 0;
#X connect 347 0 348 0;
#X connect 347 1 349 0;
#X connect 347 2 350 0;
#X connect 347 3 351 0;
#X connect 347 4 352 0;
#X connect 347 5 353 0;
#X connect 348 0 354 0;
#X connect 349 0 355 0;
#X connect 350 0 356 0;
#X connect 351 0 357 0;
#X connect 352 0 358 0;
#X connect 353 0 359 0;
#X connect 370 0 12 8;
#X connect 371 0 12 7;
#X connect 372 0 12 6;
#X connect 373 0 12 5;
#X connect 374 0 12 4;
#X connect 375 0 12 3;
