#N struct mtx_vis-plot float x float y array mtx_vis-array mtx_vis-element;
#N struct mtx_vis-element float x float y float c float dx float dy;
#N canvas 594 88 1440 750 10;
#X declare -lib iemmatrix;
#X declare -lib Gem;
#X declare -lib iemmatrix;
#X text -240 -14 transpose matrices;
#X text -236 -35 [mtx_roll];
#X obj -245 142 t a a;
#X obj -208 141 mtx_print org;
#N canvas 460 154 494 171 META 0;
#X text 12 105 AUTHOR IOhannes m zmoelnig;
#X text 12 85 OUTLET_0 matrix;
#X text 12 125 HELP_PATCH_AUTHORS IOhannes m zmölnig;
#X text 12 25 LICENSE GPL-2+;
#X text 12 65 INLET_0 matrix;
#X text 12 5 KEYWORDS control matrix;
#X text 12 44 DESCRIPTION shift columns of a matrix;
#X obj 16 147 declare -lib iemmatrix;
#X restore 159 4 pd META;
#X obj -425 -3 ctlin 1 1;
#X msg -20 59 matrix;
#X obj -20 23 metro 50;
#X obj -20 4 tgl 16 0 empty empty empty 0 -8 0 10 #fcfcfc #000000 #000000 0 1;
#X obj -243 120 list trim;
#X obj -140 256 mtx_roll 1;
#X obj -363 -4 ctlin 2 1;
#X obj -99 -1 ctlin 6 1;
#X obj -20 95 pack s 2 3 0 0 0 0 0 0;
#X obj 196 232 mtx_scroll 1;
#X obj -230 334 vsl 16 136 0 127 0 0 empty empty empty 0 -9 0 10 #fcfcfc #000000 #000000 0 1;
#X obj -210 334 vsl 16 136 0 127 0 0 empty empty empty 0 -9 0 10 #fcfcfc #000000 #000000 0 1;
#X obj -190 334 vsl 16 136 0 127 0 0 empty empty empty 0 -9 0 10 #fcfcfc #000000 #000000 0 1;
#X obj -170 334 vsl 16 136 0 127 0 0 empty empty empty 0 -9 0 10 #fcfcfc #000000 #000000 0 1;
#X obj -150 334 vsl 16 136 0 127 0 0 empty empty empty 0 -9 0 10 #fcfcfc #000000 #000000 0 1;
#X obj -130 334 vsl 16 136 0 127 0 0 empty empty empty 0 -9 0 10 #fcfcfc #000000 #000000 0 1;
#X obj -264 263 list split 3;
#X obj 204 277 list split 3;
#X obj -121 279 list split 3;
#X obj 20 276 list split 3;
#X obj -228 299 unpack 0 0 0 0 0 0;
#X obj 195 334 vsl 16 136 0 127 0 0 empty empty empty 0 -9 0 10 #fcfcfc #000000 #000000 0 1;
#X obj 215 334 vsl 16 136 0 127 0 0 empty empty empty 0 -9 0 10 #fcfcfc #000000 #000000 0 1;
#X obj 235 334 vsl 16 136 0 127 0 0 empty empty empty 0 -9 0 10 #fcfcfc #000000 #000000 0 1;
#X obj 255 334 vsl 16 136 0 127 0 0 empty empty empty 0 -9 0 10 #fcfcfc #000000 #000000 0 1;
#X obj 275 334 vsl 16 136 0 127 0 0 empty empty empty 0 -9 0 10 #fcfcfc #000000 #000000 0 1;
#X obj 295 334 vsl 16 136 0 127 0 0 empty empty empty 0 -9 0 10 #fcfcfc #000000 #000000 0 1;
#X obj 197 299 unpack 0 0 0 0 0 0;
#X obj -94 334 vsl 16 136 0 127 0 0 empty empty empty 0 -9 0 10 #fcfcfc #000000 #000000 0 1;
#X obj -74 334 vsl 16 136 0 127 0 0 empty empty empty 0 -9 0 10 #fcfcfc #000000 #000000 0 1;
#X obj -54 334 vsl 16 136 0 127 0 0 empty empty empty 0 -9 0 10 #fcfcfc #000000 #000000 0 1;
#X obj -34 334 vsl 16 136 0 127 0 0 empty empty empty 0 -9 0 10 #fcfcfc #000000 #000000 0 1;
#X obj -14 334 vsl 16 136 0 127 0 0 empty empty empty 0 -9 0 10 #fcfcfc #000000 #000000 0 1;
#X obj 6 334 vsl 16 136 0 127 0 0 empty empty empty 0 -9 0 10 #fcfcfc #000000 #000000 0 1;
#X obj -92 299 unpack 0 0 0 0 0 0;
#X obj 46 331 vsl 16 136 0 127 0 0 empty empty empty 0 -9 0 10 #fcfcfc #000000 #000000 0 1;
#X obj 66 331 vsl 16 136 0 127 0 0 empty empty empty 0 -9 0 10 #fcfcfc #000000 #000000 0 1;
#X obj 86 331 vsl 16 136 0 127 0 0 empty empty empty 0 -9 0 10 #fcfcfc #000000 #000000 0 1;
#X obj 106 331 vsl 16 136 0 127 0 0 empty empty empty 0 -9 0 10 #fcfcfc #000000 #000000 0 1;
#X obj 126 331 vsl 16 136 0 127 0 0 empty empty empty 0 -9 0 10 #fcfcfc #000000 #000000 0 1;
#X obj 146 331 vsl 16 136 0 127 0 0 empty empty empty 0 -9 0 10 #fcfcfc #000000 #000000 0 1;
#X obj 48 296 unpack 0 0 0 0 0 0;
#X obj 18 256 mtx_roll 2;
#X obj 341 268 list split 3;
#X obj 336 338 vsl 16 136 0 127 0 0 empty empty empty 0 -9 0 10 #fcfcfc #000000 #000000 0 1;
#X obj 356 338 vsl 16 136 0 127 0 0 empty empty empty 0 -9 0 10 #fcfcfc #000000 #000000 0 1;
#X obj 376 338 vsl 16 136 0 127 0 0 empty empty empty 0 -9 0 10 #fcfcfc #000000 #000000 0 1;
#X obj 396 338 vsl 16 136 0 127 0 0 empty empty empty 0 -9 0 10 #fcfcfc #000000 #000000 0 1;
#X obj 416 338 vsl 16 136 0 127 0 0 empty empty empty 0 -9 0 10 #fcfcfc #000000 #000000 0 1;
#X obj 436 338 vsl 16 136 0 127 0 0 empty empty empty 0 -9 0 10 #fcfcfc #000000 #000000 0 1;
#X obj 338 303 unpack 0 0 0 0 0 0;
#X obj 340 227 mtx_roll 1;
#X obj 475 285 list split 3;
#X obj 476 228 mtx_roll 2;
#N canvas 121 146 450 300 verticalselfie 0;
#X obj 131 81 * -1;
#X obj 132 101 + 127;
#X obj 242 12 inlet;
#X obj 131 140 outlet;
#X obj 184 84 * -1;
#X obj 185 104 + 127;
#X obj 184 143 outlet;
#X obj 229 84 * -1;
#X obj 230 104 + 127;
#X obj 229 143 outlet;
#X obj 282 87 * -1;
#X obj 283 107 + 127;
#X obj 282 146 outlet;
#X obj 330 90 * -1;
#X obj 331 110 + 127;
#X obj 330 149 outlet;
#X obj 383 93 * -1;
#X obj 384 113 + 127;
#X obj 383 152 outlet;
#X obj 246 39 unpack 0 0 0 0 0 0;
#X obj 428 60 outlet;
#X obj 333 9 list prepend matrix 3 2;
#X obj 155 222 print original *-1+f;
#X obj 159 194 pack 0 0 0 0 0 0;
#X obj 464 207 list prepend matrix 3 2;
#X obj 725 249 outlet;
#X obj 563 232 list trim;
#X connect 0 0 1 0;
#X connect 1 0 3 0;
#X connect 1 0 23 0;
#X connect 2 0 19 0;
#X connect 2 0 21 0;
#X connect 4 0 5 0;
#X connect 5 0 6 0;
#X connect 5 0 23 1;
#X connect 7 0 8 0;
#X connect 8 0 9 0;
#X connect 8 0 23 2;
#X connect 10 0 11 0;
#X connect 11 0 12 0;
#X connect 11 0 23 3;
#X connect 13 0 14 0;
#X connect 14 0 15 0;
#X connect 14 0 23 4;
#X connect 16 0 17 0;
#X connect 17 0 18 0;
#X connect 17 0 23 4;
#X connect 19 0 0 0;
#X connect 19 1 4 0;
#X connect 19 2 7 0;
#X connect 19 3 10 0;
#X connect 19 4 13 0;
#X connect 19 5 16 0;
#X connect 23 0 22 0;
#X connect 23 0 20 0;
#X connect 23 0 24 0;
#X connect 24 0 26 0;
#X connect 26 0 25 0;
#X restore -229 604 pd verticalselfie;
#X obj -225 630 vsl 16 136 0 127 0 0 empty empty empty 0 -9 0 10 #fcfcfc #000000 #000000 0 1;
#X obj -205 630 vsl 16 136 0 127 0 0 empty empty empty 0 -9 0 10 #fcfcfc #000000 #000000 0 1;
#X obj -185 630 vsl 16 136 0 127 0 0 empty empty empty 0 -9 0 10 #fcfcfc #000000 #000000 0 1;
#X obj -165 630 vsl 16 136 0 127 0 0 empty empty empty 0 -9 0 10 #fcfcfc #000000 #000000 0 1;
#X obj -145 630 vsl 16 136 0 127 0 0 empty empty empty 0 -9 0 10 #fcfcfc #000000 #000000 0 1;
#X obj -125 630 vsl 16 136 0 127 0 0 empty empty empty 0 -9 0 10 #fcfcfc #000000 #000000 0 1;
#N canvas 121 146 450 300 verticalselfie 0;
#X obj 131 81 * -1;
#X obj 132 101 + 127;
#X obj 242 12 inlet;
#X obj 131 140 outlet;
#X obj 184 84 * -1;
#X obj 185 104 + 127;
#X obj 184 143 outlet;
#X obj 229 84 * -1;
#X obj 230 104 + 127;
#X obj 229 143 outlet;
#X obj 282 87 * -1;
#X obj 283 107 + 127;
#X obj 282 146 outlet;
#X obj 330 90 * -1;
#X obj 331 110 + 127;
#X obj 330 149 outlet;
#X obj 383 93 * -1;
#X obj 384 113 + 127;
#X obj 383 152 outlet;
#X obj 246 39 unpack 0 0 0 0 0 0;
#X obj 129 256 print rolled+1 *-1+f;
#X obj 159 194 pack 0 0 0 0 0 0;
#X obj 402 13 outlet;
#X obj 397 212 list prepend matrix 3 2;
#X obj 658 254 outlet;
#X obj 496 237 list trim;
#X connect 0 0 1 0;
#X connect 1 0 3 0;
#X connect 1 0 21 0;
#X connect 2 0 19 0;
#X connect 4 0 5 0;
#X connect 5 0 6 0;
#X connect 5 0 21 1;
#X connect 7 0 8 0;
#X connect 8 0 9 0;
#X connect 8 0 21 2;
#X connect 10 0 11 0;
#X connect 11 0 12 0;
#X connect 11 0 21 3;
#X connect 13 0 14 0;
#X connect 14 0 15 0;
#X connect 14 0 21 4;
#X connect 16 0 17 0;
#X connect 17 0 18 0;
#X connect 17 0 21 5;
#X connect 19 0 0 0;
#X connect 19 1 4 0;
#X connect 19 2 7 0;
#X connect 19 3 10 0;
#X connect 19 4 13 0;
#X connect 19 5 16 0;
#X connect 21 0 20 0;
#X connect 21 0 22 0;
#X connect 21 0 23 0;
#X connect 23 0 25 0;
#X connect 25 0 24 0;
#X restore -91 604 pd verticalselfie;
#X obj -94 628 vsl 16 136 0 127 0 0 empty empty empty 0 -9 0 10 #fcfcfc #000000 #000000 0 1;
#X obj -74 628 vsl 16 136 0 127 0 0 empty empty empty 0 -9 0 10 #fcfcfc #000000 #000000 0 1;
#X obj -54 628 vsl 16 136 0 127 0 0 empty empty empty 0 -9 0 10 #fcfcfc #000000 #000000 0 1;
#X obj -34 628 vsl 16 136 0 127 0 0 empty empty empty 0 -9 0 10 #fcfcfc #000000 #000000 0 1;
#X obj -14 628 vsl 16 136 0 127 0 0 empty empty empty 0 -9 0 10 #fcfcfc #000000 #000000 0 1;
#X obj 6 628 vsl 16 136 0 127 0 0 empty empty empty 0 -9 0 10 #fcfcfc #000000 #000000 0 1;
#N canvas 121 146 450 300 verticalselfie 0;
#X obj 131 81 * -1;
#X obj 132 101 + 127;
#X obj 242 12 inlet;
#X obj 131 140 outlet;
#X obj 184 84 * -1;
#X obj 185 104 + 127;
#X obj 184 143 outlet;
#X obj 229 84 * -1;
#X obj 230 104 + 127;
#X obj 229 143 outlet;
#X obj 282 87 * -1;
#X obj 283 107 + 127;
#X obj 282 146 outlet;
#X obj 330 90 * -1;
#X obj 331 110 + 127;
#X obj 330 149 outlet;
#X obj 383 93 * -1;
#X obj 384 113 + 127;
#X obj 383 152 outlet;
#X obj 246 39 unpack 0 0 0 0 0 0;
#X obj 97 282 print rolled+2 *-1+f;
#X obj 159 194 pack 0 0 0 0 0 0;
#X obj 423 26 outlet;
#X obj 428 206 list prepend matrix 3 2;
#X obj 689 248 outlet;
#X obj 527 231 list trim;
#X connect 0 0 1 0;
#X connect 1 0 3 0;
#X connect 1 0 21 0;
#X connect 2 0 19 0;
#X connect 4 0 5 0;
#X connect 5 0 6 0;
#X connect 5 0 21 1;
#X connect 7 0 8 0;
#X connect 8 0 9 0;
#X connect 8 0 21 2;
#X connect 10 0 11 0;
#X connect 11 0 12 0;
#X connect 11 0 21 3;
#X connect 13 0 14 0;
#X connect 14 0 15 0;
#X connect 14 0 21 4;
#X connect 16 0 17 0;
#X connect 17 0 18 0;
#X connect 17 0 21 5;
#X connect 19 0 0 0;
#X connect 19 1 4 0;
#X connect 19 2 7 0;
#X connect 19 3 10 0;
#X connect 19 4 13 0;
#X connect 19 5 16 0;
#X connect 21 0 20 0;
#X connect 21 0 22 0;
#X connect 21 0 23 0;
#X connect 23 0 25 0;
#X connect 25 0 24 0;
#X restore 56 606 pd verticalselfie;
#X obj 53 630 vsl 16 136 0 127 0 0 empty empty empty 0 -9 0 10 #fcfcfc #000000 #000000 0 1;
#X obj 73 630 vsl 16 136 0 127 0 0 empty empty empty 0 -9 0 10 #fcfcfc #000000 #000000 0 1;
#X obj 93 630 vsl 16 136 0 127 0 0 empty empty empty 0 -9 0 10 #fcfcfc #000000 #000000 0 1;
#X obj 113 630 vsl 16 136 0 127 0 0 empty empty empty 0 -9 0 10 #fcfcfc #000000 #000000 0 1;
#X obj 133 630 vsl 16 136 0 127 0 0 empty empty empty 0 -9 0 10 #fcfcfc #000000 #000000 0 1;
#X obj 153 630 vsl 16 136 0 127 0 0 empty empty empty 0 -9 0 10 #fcfcfc #000000 #000000 0 1;
#N canvas 121 146 575 300 verticalselfie 0;
#X obj 131 81 * -1;
#X obj 132 101 + 127;
#X obj 242 12 inlet;
#X obj 131 140 outlet;
#X obj 184 84 * -1;
#X obj 185 104 + 127;
#X obj 184 143 outlet;
#X obj 229 84 * -1;
#X obj 230 104 + 127;
#X obj 229 143 outlet;
#X obj 282 87 * -1;
#X obj 283 107 + 127;
#X obj 282 146 outlet;
#X obj 330 90 * -1;
#X obj 331 110 + 127;
#X obj 330 149 outlet;
#X obj 383 93 * -1;
#X obj 384 113 + 127;
#X obj 383 152 outlet;
#X obj 246 39 unpack 0 0 0 0 0 0;
#X obj 132 258 print scrolled *-1+f;
#X obj 159 194 pack 0 0 0 0 0 0;
#X obj 526 78 outlet;
#X obj 474 206 list prepend matrix 3 2;
#X obj 735 248 outlet;
#X obj 573 231 list trim;
#X connect 0 0 1 0;
#X connect 1 0 3 0;
#X connect 1 0 21 0;
#X connect 2 0 19 0;
#X connect 4 0 5 0;
#X connect 5 0 6 0;
#X connect 5 0 21 1;
#X connect 7 0 8 0;
#X connect 8 0 9 0;
#X connect 8 0 21 2;
#X connect 10 0 11 0;
#X connect 11 0 12 0;
#X connect 11 0 21 3;
#X connect 13 0 14 0;
#X connect 14 0 15 0;
#X connect 14 0 21 4;
#X connect 16 0 17 0;
#X connect 17 0 18 0;
#X connect 17 0 21 5;
#X connect 19 0 0 0;
#X connect 19 1 4 0;
#X connect 19 2 7 0;
#X connect 19 3 10 0;
#X connect 19 4 13 0;
#X connect 19 5 16 0;
#X connect 21 0 20 0;
#X connect 21 0 22 0;
#X connect 21 0 23 0;
#X connect 23 0 25 0;
#X connect 25 0 24 0;
#X restore 203 603 pd verticalselfie;
#X obj 200 627 vsl 16 136 0 127 0 0 empty empty empty 0 -9 0 10 #fcfcfc #000000 #000000 0 1;
#X obj 220 627 vsl 16 136 0 127 0 0 empty empty empty 0 -9 0 10 #fcfcfc #000000 #000000 0 1;
#X obj 240 627 vsl 16 136 0 127 0 0 empty empty empty 0 -9 0 10 #fcfcfc #000000 #000000 0 1;
#X obj 260 627 vsl 16 136 0 127 0 0 empty empty empty 0 -9 0 10 #fcfcfc #000000 #000000 0 1;
#X obj 280 627 vsl 16 136 0 127 0 0 empty empty empty 0 -9 0 10 #fcfcfc #000000 #000000 0 1;
#X obj 300 627 vsl 16 136 0 127 0 0 empty empty empty 0 -9 0 10 #fcfcfc #000000 #000000 0 1;
#N canvas 121 146 627 300 verticalselfie 0;
#X obj 131 81 * -1;
#X obj 132 101 + 127;
#X obj 242 12 inlet;
#X obj 131 140 outlet;
#X obj 184 84 * -1;
#X obj 185 104 + 127;
#X obj 184 143 outlet;
#X obj 229 84 * -1;
#X obj 230 104 + 127;
#X obj 229 143 outlet;
#X obj 282 87 * -1;
#X obj 283 107 + 127;
#X obj 282 146 outlet;
#X obj 330 90 * -1;
#X obj 331 110 + 127;
#X obj 330 149 outlet;
#X obj 383 93 * -1;
#X obj 384 113 + 127;
#X obj 383 152 outlet;
#X obj 246 39 unpack 0 0 0 0 0 0;
#X obj 99 255 print scrolled and rolled+1 *-1+f;
#X obj 159 194 pack 0 0 0 0 0 0;
#X obj 555 89 outlet;
#X obj 385 206 list prepend matrix 3 2;
#X obj 646 248 outlet;
#X obj 484 231 list trim;
#X connect 0 0 1 0;
#X connect 1 0 3 0;
#X connect 1 0 21 0;
#X connect 2 0 19 0;
#X connect 4 0 5 0;
#X connect 5 0 6 0;
#X connect 5 0 21 1;
#X connect 7 0 8 0;
#X connect 8 0 9 0;
#X connect 8 0 21 2;
#X connect 10 0 11 0;
#X connect 11 0 12 0;
#X connect 11 0 21 3;
#X connect 13 0 14 0;
#X connect 14 0 15 0;
#X connect 14 0 21 4;
#X connect 16 0 17 0;
#X connect 17 0 18 0;
#X connect 17 0 21 5;
#X connect 19 0 0 0;
#X connect 19 1 4 0;
#X connect 19 2 7 0;
#X connect 19 3 10 0;
#X connect 19 4 13 0;
#X connect 19 5 16 0;
#X connect 21 0 20 0;
#X connect 21 0 22 0;
#X connect 21 0 23 0;
#X connect 23 0 25 0;
#X connect 25 0 24 0;
#X restore 341 606 pd verticalselfie;
#X obj 338 630 vsl 16 136 0 127 0 0 empty empty empty 0 -9 0 10 #fcfcfc #000000 #000000 0 1;
#X obj 358 630 vsl 16 136 0 127 0 0 empty empty empty 0 -9 0 10 #fcfcfc #000000 #000000 0 1;
#X obj 378 630 vsl 16 136 0 127 0 0 empty empty empty 0 -9 0 10 #fcfcfc #000000 #000000 0 1;
#X obj 398 630 vsl 16 136 0 127 0 0 empty empty empty 0 -9 0 10 #fcfcfc #000000 #000000 0 1;
#X obj 418 630 vsl 16 136 0 127 0 0 empty empty empty 0 -9 0 10 #fcfcfc #000000 #000000 0 1;
#X obj 438 630 vsl 16 136 0 127 0 0 empty empty empty 0 -9 0 10 #fcfcfc #000000 #000000 0 1;
#N canvas 121 146 792 402 verticalselfie 0;
#X obj 131 81 * -1;
#X obj 132 101 + 127;
#X obj 242 12 inlet;
#X obj 131 140 outlet;
#X obj 184 84 * -1;
#X obj 185 104 + 127;
#X obj 184 143 outlet;
#X obj 229 84 * -1;
#X obj 230 104 + 127;
#X obj 229 143 outlet;
#X obj 282 87 * -1;
#X obj 283 107 + 127;
#X obj 282 146 outlet;
#X obj 330 90 * -1;
#X obj 331 110 + 127;
#X obj 330 149 outlet;
#X obj 383 93 * -1;
#X obj 384 113 + 127;
#X obj 383 152 outlet;
#X obj 246 39 unpack 0 0 0 0 0 0;
#X obj 80 238 print scrolled and rolled+2 *-1+f;
#X obj 159 194 pack 0 0 0 0 0 0;
#X obj 582 58 outlet;
#X obj 396 206 list prepend matrix 3 2;
#X obj 657 248 outlet;
#X obj 495 231 list trim;
#X connect 0 0 1 0;
#X connect 1 0 3 0;
#X connect 1 0 21 0;
#X connect 2 0 19 0;
#X connect 4 0 5 0;
#X connect 5 0 6 0;
#X connect 5 0 21 1;
#X connect 7 0 8 0;
#X connect 8 0 9 0;
#X connect 8 0 21 2;
#X connect 10 0 11 0;
#X connect 11 0 12 0;
#X connect 11 0 21 3;
#X connect 13 0 14 0;
#X connect 14 0 15 0;
#X connect 14 0 21 4;
#X connect 16 0 17 0;
#X connect 17 0 18 0;
#X connect 17 0 21 5;
#X connect 19 0 0 0;
#X connect 19 1 4 0;
#X connect 19 2 7 0;
#X connect 19 3 10 0;
#X connect 19 4 13 0;
#X connect 19 5 16 0;
#X connect 21 0 20 0;
#X connect 21 0 22 0;
#X connect 21 0 23 0;
#X connect 23 0 25 0;
#X connect 25 0 24 0;
#X restore 480 608 pd verticalselfie;
#X obj 477 632 vsl 16 136 0 127 0 0 empty empty empty 0 -9 0 10 #fcfcfc #000000 #000000 0 1;
#X obj 497 632 vsl 16 136 0 127 0 0 empty empty empty 0 -9 0 10 #fcfcfc #000000 #000000 0 1;
#X obj 517 632 vsl 16 136 0 127 0 0 empty empty empty 0 -9 0 10 #fcfcfc #000000 #000000 0 1;
#X obj 537 632 vsl 16 136 0 127 0 0 empty empty empty 0 -9 0 10 #fcfcfc #000000 #000000 0 1;
#X obj 557 632 vsl 16 136 0 127 0 0 empty empty empty 0 -9 0 10 #fcfcfc #000000 #000000 0 1;
#X obj 577 632 vsl 16 136 0 127 0 0 empty empty empty 0 -9 0 10 #fcfcfc #000000 #000000 0 1;
#X obj -244 946 list split 3;
#X obj -244 926 mtx_transpose;
#X obj -295 -2 ctlin 3 1;
#X obj -229 -1 ctlin 4 1;
#X obj -164 -1 ctlin 5 1;
#X obj -109 949 list split 3;
#X obj -111 925 mtx_transpose;
#X obj 39 947 list split 3;
#X obj 204 948 list split 3;
#X obj 203 925 mtx_transpose;
#X obj 39 926 mtx_transpose;
#X obj 368 954 list split 3;
#X obj 494 955 list split 3;
#X obj 495 936 mtx_transpose;
#X obj 368 933 mtx_transpose;
#X obj -280 906 print original trasnposed;
#X obj -124 906 print rolled+1 trasnposed;
#X obj 31 906 print rolled+2 trasnposed;
#X obj 188 907 print scrolled+1 trasnposed;
#X obj 356 907 print scrolled+1 rolled+1 trasnposed;
#X obj 87 255 print rolled+2;
#X obj -73 256 print rolled+1;
#X obj 210 255 print scrolled+1;
#N canvas 121 146 905 300 verticalselfie 0;
#X obj 131 81 * -1;
#X obj 132 101 + 127;
#X obj 242 12 inlet;
#X obj 131 140 outlet;
#X obj 184 84 * -1;
#X obj 185 104 + 127;
#X obj 184 143 outlet;
#X obj 229 84 * -1;
#X obj 230 104 + 127;
#X obj 229 143 outlet;
#X obj 282 87 * -1;
#X obj 283 107 + 127;
#X obj 282 146 outlet;
#X obj 330 90 * -1;
#X obj 331 110 + 127;
#X obj 330 149 outlet;
#X obj 383 93 * -1;
#X obj 384 113 + 127;
#X obj 383 152 outlet;
#X obj 246 39 unpack 0 0 0 0 0 0;
#X obj 513 92 outlet;
#X obj 333 9 list prepend matrix 3 2;
#X obj 64 238 print original transposed& *-1+f;
#X obj 159 194 pack 0 0 0 0 0 0;
#X obj 337 206 list prepend matrix 3 2;
#X obj 598 248 outlet;
#X obj 436 231 list trim;
#X connect 0 0 1 0;
#X connect 1 0 3 0;
#X connect 1 0 23 0;
#X connect 2 0 19 0;
#X connect 2 0 21 0;
#X connect 4 0 5 0;
#X connect 5 0 6 0;
#X connect 5 0 23 1;
#X connect 7 0 8 0;
#X connect 8 0 9 0;
#X connect 8 0 23 2;
#X connect 10 0 11 0;
#X connect 11 0 12 0;
#X connect 11 0 23 3;
#X connect 13 0 14 0;
#X connect 14 0 15 0;
#X connect 14 0 23 4;
#X connect 16 0 17 0;
#X connect 17 0 18 0;
#X connect 17 0 23 5;
#X connect 19 0 0 0;
#X connect 19 1 4 0;
#X connect 19 2 7 0;
#X connect 19 3 10 0;
#X connect 19 4 13 0;
#X connect 19 5 16 0;
#X connect 23 0 22 0;
#X connect 23 0 20 0;
#X connect 23 0 24 0;
#X connect 24 0 26 0;
#X connect 26 0 25 0;
#X restore -234 1283 pd verticalselfie;
#X obj -240 1312 vsl 16 136 0 127 0 0 empty empty empty 0 -9 0 10 #fcfcfc #000000 #000000 0 1;
#X obj -220 1312 vsl 16 136 0 127 0 0 empty empty empty 0 -9 0 10 #fcfcfc #000000 #000000 0 1;
#X obj -200 1312 vsl 16 136 0 127 0 0 empty empty empty 0 -9 0 10 #fcfcfc #000000 #000000 0 1;
#X obj -180 1312 vsl 16 136 0 127 0 0 empty empty empty 0 -9 0 10 #fcfcfc #000000 #000000 0 1;
#X obj -160 1312 vsl 16 136 0 127 0 0 empty empty empty 0 -9 0 10 #fcfcfc #000000 #000000 0 1;
#X obj -140 1312 vsl 16 136 0 127 0 0 empty empty empty 0 -9 0 10 #fcfcfc #000000 #000000 0 1;
#N canvas 121 146 450 300 verticalselfie 1;
#X obj 131 81 * -1;
#X obj 132 101 + 127;
#X obj 242 12 inlet;
#X obj 131 140 outlet;
#X obj 184 84 * -1;
#X obj 185 104 + 127;
#X obj 184 143 outlet;
#X obj 229 84 * -1;
#X obj 230 104 + 127;
#X obj 229 143 outlet;
#X obj 282 87 * -1;
#X obj 283 107 + 127;
#X obj 282 146 outlet;
#X obj 330 90 * -1;
#X obj 331 110 + 127;
#X obj 330 149 outlet;
#X obj 383 93 * -1;
#X obj 384 113 + 127;
#X obj 383 152 outlet;
#X obj 246 39 unpack 0 0 0 0 0 0;
#X obj 428 60 outlet;
#X obj 333 9 list prepend matrix 3 2;
#X obj 71 232 print original rolled+1&transposed& *-1+f;
#X obj 159 194 pack 0 0 0 0 0 0;
#X obj 337 206 list prepend matrix 3 2;
#X obj 475 248 outlet;
#X obj 436 231 list trim;
#X connect 0 0 1 0;
#X connect 1 0 3 0;
#X connect 1 0 23 0;
#X connect 2 0 19 0;
#X connect 2 0 21 0;
#X connect 4 0 5 0;
#X connect 5 0 6 0;
#X connect 5 0 23 1;
#X connect 7 0 8 0;
#X connect 8 0 9 0;
#X connect 8 0 23 2;
#X connect 10 0 11 0;
#X connect 11 0 12 0;
#X connect 11 0 23 3;
#X connect 13 0 14 0;
#X connect 14 0 15 0;
#X connect 14 0 23 4;
#X connect 16 0 17 0;
#X connect 17 0 18 0;
#X connect 17 0 23 5;
#X connect 19 0 0 0;
#X connect 19 1 4 0;
#X connect 19 2 7 0;
#X connect 19 3 10 0;
#X connect 19 4 13 0;
#X connect 19 5 16 0;
#X connect 23 0 22 0;
#X connect 23 0 20 0;
#X connect 23 0 24 0;
#X connect 24 0 26 0;
#X connect 26 0 25 0;
#X restore -99 1285 pd verticalselfie;
#X obj -105 1314 vsl 16 136 0 127 0 0 empty empty empty 0 -9 0 10 #fcfcfc #000000 #000000 0 1;
#X obj -85 1314 vsl 16 136 0 127 0 0 empty empty empty 0 -9 0 10 #fcfcfc #000000 #000000 0 1;
#X obj -65 1314 vsl 16 136 0 127 0 0 empty empty empty 0 -9 0 10 #fcfcfc #000000 #000000 0 1;
#X obj -45 1314 vsl 16 136 0 127 0 0 empty empty empty 0 -9 0 10 #fcfcfc #000000 #000000 0 1;
#X obj -25 1314 vsl 16 136 0 127 0 0 empty empty empty 0 -9 0 10 #fcfcfc #000000 #000000 0 1;
#X obj -5 1314 vsl 16 136 0 127 0 0 empty empty empty 0 -9 0 10 #fcfcfc #000000 #000000 0 1;
#N canvas 121 146 450 300 verticalselfie 1;
#X obj 131 81 * -1;
#X obj 132 101 + 127;
#X obj 242 12 inlet;
#X obj 131 140 outlet;
#X obj 184 84 * -1;
#X obj 185 104 + 127;
#X obj 184 143 outlet;
#X obj 229 84 * -1;
#X obj 230 104 + 127;
#X obj 229 143 outlet;
#X obj 282 87 * -1;
#X obj 283 107 + 127;
#X obj 282 146 outlet;
#X obj 330 90 * -1;
#X obj 331 110 + 127;
#X obj 330 149 outlet;
#X obj 383 93 * -1;
#X obj 384 113 + 127;
#X obj 383 152 outlet;
#X obj 246 39 unpack 0 0 0 0 0 0;
#X obj 428 60 outlet;
#X obj 333 9 list prepend matrix 3 2;
#X obj 106 240 print original rolled+2&transposed& *-1+f;
#X obj 159 194 pack 0 0 0 0 0 0;
#X obj 337 206 list prepend matrix 3 2;
#X obj 475 248 outlet;
#X obj 436 231 list trim;
#X connect 0 0 1 0;
#X connect 1 0 3 0;
#X connect 1 0 23 0;
#X connect 2 0 19 0;
#X connect 2 0 21 0;
#X connect 4 0 5 0;
#X connect 5 0 6 0;
#X connect 5 0 23 1;
#X connect 7 0 8 0;
#X connect 8 0 9 0;
#X connect 8 0 23 2;
#X connect 10 0 11 0;
#X connect 11 0 12 0;
#X connect 11 0 23 3;
#X connect 13 0 14 0;
#X connect 14 0 15 0;
#X connect 14 0 23 4;
#X connect 16 0 17 0;
#X connect 17 0 18 0;
#X connect 17 0 23 5;
#X connect 19 0 0 0;
#X connect 19 1 4 0;
#X connect 19 2 7 0;
#X connect 19 3 10 0;
#X connect 19 4 13 0;
#X connect 19 5 16 0;
#X connect 23 0 22 0;
#X connect 23 0 20 0;
#X connect 23 0 24 0;
#X connect 24 0 26 0;
#X connect 26 0 25 0;
#X restore 46 1285 pd verticalselfie;
#X obj 40 1314 vsl 16 136 0 127 0 0 empty empty empty 0 -9 0 10 #fcfcfc #000000 #000000 0 1;
#X obj 60 1314 vsl 16 136 0 127 0 0 empty empty empty 0 -9 0 10 #fcfcfc #000000 #000000 0 1;
#X obj 80 1314 vsl 16 136 0 127 0 0 empty empty empty 0 -9 0 10 #fcfcfc #000000 #000000 0 1;
#X obj 100 1314 vsl 16 136 0 127 0 0 empty empty empty 0 -9 0 10 #fcfcfc #000000 #000000 0 1;
#X obj 120 1314 vsl 16 136 0 127 0 0 empty empty empty 0 -9 0 10 #fcfcfc #000000 #000000 0 1;
#X obj 140 1314 vsl 16 136 0 127 0 0 empty empty empty 0 -9 0 10 #fcfcfc #000000 #000000 0 1;
#N canvas 121 146 450 300 verticalselfie 1;
#X obj 131 81 * -1;
#X obj 132 101 + 127;
#X obj 242 12 inlet;
#X obj 131 140 outlet;
#X obj 184 84 * -1;
#X obj 185 104 + 127;
#X obj 184 143 outlet;
#X obj 229 84 * -1;
#X obj 230 104 + 127;
#X obj 229 143 outlet;
#X obj 282 87 * -1;
#X obj 283 107 + 127;
#X obj 282 146 outlet;
#X obj 330 90 * -1;
#X obj 331 110 + 127;
#X obj 330 149 outlet;
#X obj 383 93 * -1;
#X obj 384 113 + 127;
#X obj 383 152 outlet;
#X obj 246 39 unpack 0 0 0 0 0 0;
#X obj 428 60 outlet;
#X obj 333 9 list prepend matrix 3 2;
#X obj 76 249 print original scrolled+1 &transposed& *-1+f;
#X obj 159 194 pack 0 0 0 0 0 0;
#X obj 337 206 list prepend matrix 3 2;
#X obj 475 248 outlet;
#X obj 436 231 list trim;
#X connect 0 0 1 0;
#X connect 1 0 3 0;
#X connect 1 0 23 0;
#X connect 2 0 19 0;
#X connect 2 0 21 0;
#X connect 4 0 5 0;
#X connect 5 0 6 0;
#X connect 5 0 23 1;
#X connect 7 0 8 0;
#X connect 8 0 9 0;
#X connect 8 0 23 2;
#X connect 10 0 11 0;
#X connect 11 0 12 0;
#X connect 11 0 23 3;
#X connect 13 0 14 0;
#X connect 14 0 15 0;
#X connect 14 0 23 4;
#X connect 16 0 17 0;
#X connect 17 0 18 0;
#X connect 17 0 23 5;
#X connect 19 0 0 0;
#X connect 19 1 4 0;
#X connect 19 2 7 0;
#X connect 19 3 10 0;
#X connect 19 4 13 0;
#X connect 19 5 16 0;
#X connect 23 0 22 0;
#X connect 23 0 20 0;
#X connect 23 0 24 0;
#X connect 24 0 26 0;
#X connect 26 0 25 0;
#X restore 214 1288 pd verticalselfie;
#X obj 208 1317 vsl 16 136 0 127 0 0 empty empty empty 0 -9 0 10 #fcfcfc #000000 #000000 0 1;
#X obj 228 1317 vsl 16 136 0 127 0 0 empty empty empty 0 -9 0 10 #fcfcfc #000000 #000000 0 1;
#X obj 248 1317 vsl 16 136 0 127 0 0 empty empty empty 0 -9 0 10 #fcfcfc #000000 #000000 0 1;
#X obj 268 1317 vsl 16 136 0 127 0 0 empty empty empty 0 -9 0 10 #fcfcfc #000000 #000000 0 1;
#X obj 288 1317 vsl 16 136 0 127 0 0 empty empty empty 0 -9 0 10 #fcfcfc #000000 #000000 0 1;
#X obj 308 1317 vsl 16 136 0 127 0 0 empty empty empty 0 -9 0 10 #fcfcfc #000000 #000000 0 1;
#N canvas 121 146 450 300 verticalselfie 1;
#X obj 131 81 * -1;
#X obj 132 101 + 127;
#X obj 242 12 inlet;
#X obj 131 140 outlet;
#X obj 184 84 * -1;
#X obj 185 104 + 127;
#X obj 184 143 outlet;
#X obj 229 84 * -1;
#X obj 230 104 + 127;
#X obj 229 143 outlet;
#X obj 282 87 * -1;
#X obj 283 107 + 127;
#X obj 282 146 outlet;
#X obj 330 90 * -1;
#X obj 331 110 + 127;
#X obj 330 149 outlet;
#X obj 383 93 * -1;
#X obj 384 113 + 127;
#X obj 383 152 outlet;
#X obj 246 39 unpack 0 0 0 0 0 0;
#X obj 428 60 outlet;
#X obj 333 9 list prepend matrix 3 2;
#X obj 90 256 print original scrolled+1 & rolled+1transposed& *-1+f;
#X obj 159 194 pack 0 0 0 0 0 0;
#X obj 337 206 list prepend matrix 3 2;
#X obj 475 248 outlet;
#X obj 436 231 list trim;
#X connect 0 0 1 0;
#X connect 1 0 3 0;
#X connect 1 0 23 0;
#X connect 2 0 19 0;
#X connect 2 0 21 0;
#X connect 4 0 5 0;
#X connect 5 0 6 0;
#X connect 5 0 23 1;
#X connect 7 0 8 0;
#X connect 8 0 9 0;
#X connect 8 0 23 2;
#X connect 10 0 11 0;
#X connect 11 0 12 0;
#X connect 11 0 23 3;
#X connect 13 0 14 0;
#X connect 14 0 15 0;
#X connect 14 0 23 4;
#X connect 16 0 17 0;
#X connect 17 0 18 0;
#X connect 17 0 23 5;
#X connect 19 0 0 0;
#X connect 19 1 4 0;
#X connect 19 2 7 0;
#X connect 19 3 10 0;
#X connect 19 4 13 0;
#X connect 19 5 16 0;
#X connect 23 0 22 0;
#X connect 23 0 20 0;
#X connect 23 0 24 0;
#X connect 24 0 26 0;
#X connect 26 0 25 0;
#X restore 373 1290 pd verticalselfie;
#X obj 367 1319 vsl 16 136 0 127 0 0 empty empty empty 0 -9 0 10 #fcfcfc #000000 #000000 0 1;
#X obj 387 1319 vsl 16 136 0 127 0 0 empty empty empty 0 -9 0 10 #fcfcfc #000000 #000000 0 1;
#X obj 407 1319 vsl 16 136 0 127 0 0 empty empty empty 0 -9 0 10 #fcfcfc #000000 #000000 0 1;
#X obj 427 1319 vsl 16 136 0 127 0 0 empty empty empty 0 -9 0 10 #fcfcfc #000000 #000000 0 1;
#X obj 447 1319 vsl 16 136 0 127 0 0 empty empty empty 0 -9 0 10 #fcfcfc #000000 #000000 0 1;
#X obj 467 1319 vsl 16 136 0 127 0 0 empty empty empty 0 -9 0 10 #fcfcfc #000000 #000000 0 1;
#N canvas 263 60 683 397 verticalselfie 1;
#X obj 131 81 * -1;
#X obj 132 101 + 127;
#X obj 242 12 inlet;
#X obj 131 140 outlet;
#X obj 184 84 * -1;
#X obj 185 104 + 127;
#X obj 184 143 outlet;
#X obj 229 84 * -1;
#X obj 230 104 + 127;
#X obj 229 143 outlet;
#X obj 282 87 * -1;
#X obj 283 107 + 127;
#X obj 282 146 outlet;
#X obj 330 90 * -1;
#X obj 331 110 + 127;
#X obj 330 149 outlet;
#X obj 383 93 * -1;
#X obj 384 113 + 127;
#X obj 383 152 outlet;
#X obj 246 39 unpack 0 0 0 0 0 0;
#X obj 428 60 outlet;
#X obj 333 9 list prepend matrix 3 2;
#X obj 40 234 print original scrolled+1 & rolled+2transposed& *-1+f;
#X obj 159 194 pack 0 0 0 0 0 0;
#X obj 337 206 list prepend matrix 3 2;
#X obj 544 238 outlet;
#X obj 547 218 list trim;
#X connect 0 0 1 0;
#X connect 1 0 3 0;
#X connect 1 0 23 0;
#X connect 2 0 19 0;
#X connect 2 0 21 0;
#X connect 4 0 5 0;
#X connect 5 0 6 0;
#X connect 5 0 23 1;
#X connect 7 0 8 0;
#X connect 8 0 9 0;
#X connect 8 0 23 2;
#X connect 10 0 11 0;
#X connect 11 0 12 0;
#X connect 11 0 23 3;
#X connect 13 0 14 0;
#X connect 14 0 15 0;
#X connect 14 0 23 4;
#X connect 16 0 17 0;
#X connect 17 0 18 0;
#X connect 17 0 23 5;
#X connect 19 0 0 0;
#X connect 19 1 4 0;
#X connect 19 2 7 0;
#X connect 19 3 10 0;
#X connect 19 4 13 0;
#X connect 19 5 16 0;
#X connect 23 0 22 0;
#X connect 23 0 20 0;
#X connect 23 0 24 0;
#X connect 24 0 26 0;
#X connect 26 0 25 0;
#X restore 536 1281 pd verticalselfie;
#X obj 535 1314 vsl 16 136 0 127 0 0 empty empty empty 0 -9 0 10 #fcfcfc #000000 #000000 0 1;
#X obj 555 1314 vsl 16 136 0 127 0 0 empty empty empty 0 -9 0 10 #fcfcfc #000000 #000000 0 1;
#X obj 575 1314 vsl 16 136 0 127 0 0 empty empty empty 0 -9 0 10 #fcfcfc #000000 #000000 0 1;
#X obj 595 1314 vsl 16 136 0 127 0 0 empty empty empty 0 -9 0 10 #fcfcfc #000000 #000000 0 1;
#X obj 615 1314 vsl 16 136 0 127 0 0 empty empty empty 0 -9 0 10 #fcfcfc #000000 #000000 0 1;
#X obj 635 1314 vsl 16 136 0 127 0 0 empty empty empty 0 -9 0 10 #fcfcfc #000000 #000000 0 1;
#X obj 352 247 print scrolledandrolled+1;
#X obj 510 247 print scrolledandrolledrolled+2;
#X text -333 324 original;
#X obj -307 85 pack 0 0 0 0 0 0;
#X obj -140 236 spigot;
#X obj -95 237 tgl 16 0 empty empty empty 0 -8 0 10 #fcfcfc #000000 #000000 0 1;
#X obj 20 234 spigot;
#X obj 64 240 tgl 16 0 empty empty empty 0 -8 0 10 #fcfcfc #000000 #000000 0 1;
#X obj 197 213 spigot;
#X obj 241 213 tgl 16 0 empty empty empty 0 -8 0 10 #fcfcfc #000000 #000000 0 1;
#X obj 340 195 spigot;
#X obj 384 195 tgl 16 0 empty empty empty 0 -8 0 10 #fcfcfc #000000 #000000 0 1;
#X obj 342 211 mtx_scroll 1;
#X obj 477 207 mtx_scroll 1;
#X obj 477 187 spigot;
#X obj 521 187 tgl 16 0 empty empty empty 0 -8 0 10 #fcfcfc #000000 #000000 0 1;
#N canvas 0 25 879 403 colormaps 1;
#X obj 283 307 array set \$0.colormap;
#X obj 264 17 inlet;
#X obj 264 40 symbol;
#X obj 449 307 list length;
#X obj 449 330 array size \$0.colormap;
#X obj 264 280 t b l l;
#X obj 264 353 outlet;
#X obj 264 63 t b s;
#X msg 264 100 gnuplot2 0 1 2 4 5 7 8 9 109 309 409 508 617 717 826 935 935 944 953 962 962 971 980 990 999 \, magma 0 0 1 2 103 203 204 304 314 414 414 514 614 624 723 723 833 833 843 843 853 864 864 875 886 \, grey 0 111 222 333 444 555 666 777 888 999 \, rainbow 409 308 318 228 238 148 58 58 68 78 177 287 287 387 386 486 586 585 685 684 774 874 863 953 952 942 931 921 910 900 \, gist_ncar 4 12 21 21 14 7 19 39 69 79 89 88 86 85 84 82 80 180 270 370 480 480 590 591 691 791 890 980 980 970 970 960 950 940 920 910 910 900 903 906 809 709 518 628 738 848 858 868 878 878, f 93;
#X text 441 35 colormaps are tables that map input values [0 \, 1] to Pd's data-structure colors (000..999), f 48;
#X obj 264 259 route unknown;
#X obj 135 18 loadbang;
#X msg 135 41 gnuplot2;
#X text 389 198 the values (and names) found here \, are taken from matplotlib;
#X connect 1 0 2 0;
#X connect 2 0 7 0;
#X connect 3 0 4 0;
#X connect 5 0 6 0;
#X connect 5 1 0 0;
#X connect 5 2 3 0;
#X connect 7 0 8 0;
#X connect 7 1 10 1;
#X connect 8 0 10 0;
#X connect 10 0 5 0;
#X connect 11 0 12 0;
#X connect 12 0 2 0;
#X restore 816 -21 pd colormaps;
#X msg 814 36 colormap \$1;
#X obj 815 14 symbol \$0.colormap;
#X msg 815 -103 gnuplot2;
#X obj 815 -12 bng 18 250 50 0 empty empty empty 0 -9 0 10 #fcfcfc #000000 #000000;
#X msg 984 -77 grey;
#X msg 884 -103 magma;
#X msg 971 -56 rainbow;
#X msg 919 -15 gist_ncar;
#X obj 658 -101 array define \$0.colormap;
#X obj 37 37 - lib GEM;
#X obj 599 -39 declare -lib Gem;
#X obj -341 277 s a;
#X obj -296 975 s b;
#N canvas 208 233 501 539 convolution 0;
#X obj 444 311 matrix;
#X text 314 310 see also help for;
#X text 90 15 [mtx_conv];
#X text 47 34 2-dimensional convolution;
#X text 18 63 you can calculate the convolution of a matrix with a filter matrix kernel (2 dimensional FIR filtering). Of course \, it can also be used for 1-dimensional FIR convolutions.;
#X msg 42 127 bang;
#X obj 42 151 t b b b;
#X obj 64 215 t a a;
#X obj 94 248 mtx_print orig;
#X obj 64 274 mtx_conv;
#X obj 173 197 t a a;
#X obj 200 224 mtx_print filter_kernel;
#N canvas 460 154 337 171 META 0;
#X text 12 105 AUTHOR IOhannes m zmoelnig;
#X text 12 85 OUTLET_0 matrix;
#X text 12 125 HELP_PATCH_AUTHORS IOhannes m zmölnig;
#X text 12 25 LICENSE GPL-2+;
#X text 12 65 INLET_0 matrix;
#X text 12 5 KEYWORDS control matrix math;
#X text 12 45 DESCRIPTION 2d matrix convolution;
#X obj 16 147 declare -lib iemmatrix;
#X restore 442 8 pd META;
#X msg 173 174 matrix 2 3 6 5 7 4 3 7;
#X obj 27 197 matrix 2 3 3 6 5 3 2 3;
#X msg 59 176 element 2 2 16;
#X obj 408 129 r a;
#X obj 447 130 r b;
#X obj 375 153 list trim;
#X obj 440 198 print b;
#X obj 67 363 mtx_print convolution dfilter;
#X obj 84 321 spigot;
#X obj 336 33 inlet;
#X connect 5 0 6 0;
#X connect 6 0 14 0;
#X connect 6 2 13 0;
#X connect 7 0 9 0;
#X connect 9 0 21 0;
#X connect 10 0 9 1;
#X connect 13 0 10 0;
#X connect 14 0 7 0;
#X connect 15 0 14 0;
#X connect 16 0 18 0;
#X connect 17 0 10 0;
#X connect 18 0 7 0;
#X connect 21 0 20 0;
#X connect 22 0 21 1;
#X restore -621 581 pd convolution data;
#N canvas 441 247 622 300 difference 1;
#X obj 82 136 mtx_diff;
#X obj 79 73 r a;
#X obj 83 113 list trim;
#X obj 175 113 list trim;
#X msg 274 130 mode row;
#X msg 274 104 mode column;
#X msg 361 103 mode col;
#X msg 427 103 mode :;
#X obj 272 156 t a;
#X msg 434 125 direction -1;
#X msg 433 147 direction 1;
#X obj 100 265 print diff;
#X obj 300 217 list split 3;
#X obj 334 239 unpack 0 0 0 0 0 0;
#X floatatom 322 260 5 0 0 0 - - - 0;
#X floatatom 357 260 5 0 0 0 - - - 0;
#X floatatom 322 300 5 0 0 0 - - - 0;
#X floatatom 393 262 5 0 0 0 - - - 0;
#X floatatom 428 262 5 0 0 0 - - - 0;
#X floatatom 463 262 5 0 0 0 - - - 0;
#X floatatom 498 262 5 0 0 0 - - - 0;
#X obj 94 225 list split 3;
#X obj -48 267 print "_____________";
#X obj 291 64 loadbang;
#X obj 252 12 inlet;
#X obj 203 74 r b;
#X obj 84 95 spigot;
#X obj 189 94 spigot;
#X obj 253 34 tgl 16 0 empty empty empty 0 -8 0 10 #fcfcfc #000000 #000000 0 1;
#X connect 0 0 12 0;
#X connect 0 0 21 0;
#X connect 1 0 26 0;
#X connect 2 0 0 0;
#X connect 3 0 0 0;
#X connect 4 0 8 0;
#X connect 5 0 8 0;
#X connect 6 0 8 0;
#X connect 7 0 8 0;
#X connect 8 0 0 0;
#X connect 9 0 8 0;
#X connect 10 0 8 0;
#X connect 12 1 13 0;
#X connect 13 2 17 0;
#X connect 13 3 18 0;
#X connect 13 4 19 0;
#X connect 13 5 20 0;
#X connect 21 1 11 0;
#X connect 23 0 5 0;
#X connect 23 0 10 0;
#X connect 24 0 28 0;
#X connect 25 0 27 0;
#X connect 26 0 2 0;
#X connect 27 0 3 0;
#X connect 28 0 27 1;
#X connect 28 0 26 1;
#X restore -617 627 pd difference;
#X obj -619 557 tgl 16 0 empty empty empty 0 -8 0 10 #fcfcfc #000000 #000000 0 1;
#X obj -226 484 pack 0 0 0 0 0 0;
#X obj -206 504 spigot;
#N canvas 63 88 450 300 midisend 0;
#X obj 253 16 inlet;
#X obj 194 85 ctlout 1 1;
#X obj 256 84 ctlout 2 1;
#X obj 322 83 ctlout 3 1;
#X obj 193 104 ctlout 4 1;
#X obj 262 104 ctlout 5 1;
#X obj 330 104 ctlout 6 1;
#X obj 253 39 unpack 0 0 0 0 0 0;
#X floatatom 224 175 5 0 0 0 - - - 0;
#X connect 0 0 7 0;
#X connect 7 0 1 0;
#X connect 7 1 2 0;
#X connect 7 2 3 0;
#X connect 7 3 4 0;
#X connect 7 4 5 0;
#X connect 7 5 6 0;
#X connect 8 0 2 0;
#X restore -202 523 pd midisend;
#X obj -225 504 tgl 16 0 empty empty empty 0 -8 0 10 #fcfcfc #000000 #000000 0 1;
#X obj -81 487 pack 0 0 0 0 0 0;
#X obj -61 507 spigot;
#N canvas 63 88 450 300 midisend 0;
#X obj 253 16 inlet;
#X obj 194 85 ctlout 1 1;
#X obj 256 84 ctlout 2 1;
#X obj 322 83 ctlout 3 1;
#X obj 193 104 ctlout 4 1;
#X obj 262 104 ctlout 5 1;
#X obj 330 104 ctlout 6 1;
#X obj 253 39 unpack 0 0 0 0 0 0;
#X floatatom 368 40 5 0 0 0 - - - 0;
#X connect 0 0 7 0;
#X connect 7 0 1 0;
#X connect 7 0 8 0;
#X connect 7 1 2 0;
#X connect 7 2 3 0;
#X connect 7 3 4 0;
#X connect 7 4 5 0;
#X connect 7 5 6 0;
#X restore -57 526 pd midisend;
#X obj -80 507 tgl 16 0 empty empty empty 0 -8 0 10 #fcfcfc #000000 #000000 0 1;
#X obj 58 485 pack 0 0 0 0 0 0;
#X obj 78 505 spigot;
#N canvas 63 88 450 300 midisend 0;
#X obj 253 16 inlet;
#X obj 194 85 ctlout 1 1;
#X obj 256 84 ctlout 2 1;
#X obj 322 83 ctlout 3 1;
#X obj 193 104 ctlout 4 1;
#X obj 262 104 ctlout 5 1;
#X obj 330 104 ctlout 6 1;
#X obj 253 39 unpack 0 0 0 0 0 0;
#X floatatom 368 40 5 0 0 0 - - - 0;
#X connect 0 0 7 0;
#X connect 7 0 1 0;
#X connect 7 0 8 0;
#X connect 7 1 2 0;
#X connect 7 2 3 0;
#X connect 7 3 4 0;
#X connect 7 4 5 0;
#X connect 7 5 6 0;
#X restore 82 524 pd midisend;
#X obj 59 505 tgl 16 0 empty empty empty 0 -8 0 10 #fcfcfc #000000 #000000 0 1;
#X obj 208 489 pack 0 0 0 0 0 0;
#X obj 228 509 spigot;
#N canvas 63 88 450 300 midisend 0;
#X obj 253 16 inlet;
#X obj 194 85 ctlout 1 1;
#X obj 256 84 ctlout 2 1;
#X obj 322 83 ctlout 3 1;
#X obj 193 104 ctlout 4 1;
#X obj 262 104 ctlout 5 1;
#X obj 330 104 ctlout 6 1;
#X obj 253 39 unpack 0 0 0 0 0 0;
#X floatatom 368 40 5 0 0 0 - - - 0;
#X connect 0 0 7 0;
#X connect 7 0 1 0;
#X connect 7 0 8 0;
#X connect 7 1 2 0;
#X connect 7 2 3 0;
#X connect 7 3 4 0;
#X connect 7 4 5 0;
#X connect 7 5 6 0;
#X restore 232 528 pd midisend;
#X obj 209 509 tgl 16 0 empty empty empty 0 -8 0 10 #fcfcfc #000000 #000000 0 1;
#X obj 346 494 pack 0 0 0 0 0 0;
#X obj 366 514 spigot;
#N canvas 63 88 450 300 midisend 0;
#X obj 253 16 inlet;
#X obj 194 85 ctlout 1 1;
#X obj 256 84 ctlout 2 1;
#X obj 322 83 ctlout 3 1;
#X obj 193 104 ctlout 4 1;
#X obj 262 104 ctlout 5 1;
#X obj 330 104 ctlout 6 1;
#X obj 253 39 unpack 0 0 0 0 0 0;
#X floatatom 368 40 5 0 0 0 - - - 0;
#X connect 0 0 7 0;
#X connect 7 0 1 0;
#X connect 7 0 8 0;
#X connect 7 1 2 0;
#X connect 7 2 3 0;
#X connect 7 3 4 0;
#X connect 7 4 5 0;
#X connect 7 5 6 0;
#X restore 370 533 pd midisend;
#X obj 347 514 tgl 16 0 empty empty empty 0 -8 0 10 #fcfcfc #000000 #000000 0 1;
#X obj 478 342 vsl 16 136 0 127 0 0 empty empty empty 0 -9 0 10 #fcfcfc #000000 #000000 0 1;
#X obj 498 342 vsl 16 136 0 127 0 0 empty empty empty 0 -9 0 10 #fcfcfc #000000 #000000 0 1;
#X obj 518 342 vsl 16 136 0 127 0 0 empty empty empty 0 -9 0 10 #fcfcfc #000000 #000000 0 1;
#X obj 538 342 vsl 16 136 0 127 0 0 empty empty empty 0 -9 0 10 #fcfcfc #000000 #000000 0 1;
#X obj 558 342 vsl 16 136 0 127 0 0 empty empty empty 0 -9 0 10 #fcfcfc #000000 #000000 0 1;
#X obj 578 342 vsl 16 136 0 127 0 0 empty empty empty 0 -9 0 10 #fcfcfc #000000 #000000 0 1;
#X obj 480 307 unpack 0 0 0 0 0 0;
#X obj 488 498 pack 0 0 0 0 0 0;
#X obj 508 518 spigot;
#N canvas 63 88 450 300 midisend 0;
#X obj 253 16 inlet;
#X obj 194 85 ctlout 1 1;
#X obj 256 84 ctlout 2 1;
#X obj 322 83 ctlout 3 1;
#X obj 193 104 ctlout 4 1;
#X obj 262 104 ctlout 5 1;
#X obj 330 104 ctlout 6 1;
#X obj 253 39 unpack 0 0 0 0 0 0;
#X floatatom 368 40 5 0 0 0 - - - 0;
#X connect 0 0 7 0;
#X connect 7 0 1 0;
#X connect 7 0 8 0;
#X connect 7 1 2 0;
#X connect 7 2 3 0;
#X connect 7 3 4 0;
#X connect 7 4 5 0;
#X connect 7 5 6 0;
#X restore 512 537 pd midisend;
#X obj 489 518 tgl 16 0 empty empty empty 0 -8 0 10 #fcfcfc #000000 #000000 0 1;
#X obj -225 776 pack 0 0 0 0 0 0;
#X obj -205 796 spigot;
#N canvas 63 88 450 300 midisend 0;
#X obj 253 16 inlet;
#X obj 194 85 ctlout 1 1;
#X obj 256 84 ctlout 2 1;
#X obj 322 83 ctlout 3 1;
#X obj 193 104 ctlout 4 1;
#X obj 262 104 ctlout 5 1;
#X obj 330 104 ctlout 6 1;
#X obj 253 39 unpack 0 0 0 0 0 0;
#X floatatom 370 40 5 0 0 0 - - - 0;
#X connect 0 0 7 0;
#X connect 7 0 1 0;
#X connect 7 0 8 0;
#X connect 7 1 2 0;
#X connect 7 2 3 0;
#X connect 7 3 4 0;
#X connect 7 4 5 0;
#X connect 7 5 6 0;
#X restore -201 815 pd midisend;
#X obj -224 796 tgl 16 0 empty empty empty 0 -8 0 10 #fcfcfc #000000 #000000 0 1;
#X obj -95 781 pack 0 0 0 0 0 0;
#X obj -75 801 spigot;
#N canvas 63 88 450 300 midisend 0;
#X obj 253 16 inlet;
#X obj 194 85 ctlout 1 1;
#X obj 256 84 ctlout 2 1;
#X obj 322 83 ctlout 3 1;
#X obj 193 104 ctlout 4 1;
#X obj 262 104 ctlout 5 1;
#X obj 330 104 ctlout 6 1;
#X obj 253 39 unpack 0 0 0 0 0 0;
#X floatatom 370 40 5 0 0 0 - - - 0;
#X connect 0 0 7 0;
#X connect 7 0 1 0;
#X connect 7 0 8 0;
#X connect 7 1 2 0;
#X connect 7 2 3 0;
#X connect 7 3 4 0;
#X connect 7 4 5 0;
#X connect 7 5 6 0;
#X restore -71 820 pd midisend;
#X obj -94 801 tgl 16 0 empty empty empty 0 -8 0 10 #fcfcfc #000000 #000000 0 1;
#X obj 61 787 pack 0 0 0 0 0 0;
#X obj 81 807 spigot;
#N canvas 63 88 450 300 midisend 0;
#X obj 253 16 inlet;
#X obj 194 85 ctlout 1 1;
#X obj 256 84 ctlout 2 1;
#X obj 322 83 ctlout 3 1;
#X obj 193 104 ctlout 4 1;
#X obj 262 104 ctlout 5 1;
#X obj 330 104 ctlout 6 1;
#X obj 253 39 unpack 0 0 0 0 0 0;
#X floatatom 370 40 5 0 0 0 - - - 0;
#X connect 0 0 7 0;
#X connect 7 0 1 0;
#X connect 7 0 8 0;
#X connect 7 1 2 0;
#X connect 7 2 3 0;
#X connect 7 3 4 0;
#X connect 7 4 5 0;
#X connect 7 5 6 0;
#X restore 85 826 pd midisend;
#X obj 62 807 tgl 16 0 empty empty empty 0 -8 0 10 #fcfcfc #000000 #000000 0 1;
#X obj 218 791 pack 0 0 0 0 0 0;
#X obj 238 811 spigot;
#N canvas 63 88 450 300 midisend 0;
#X obj 253 16 inlet;
#X obj 194 85 ctlout 1 1;
#X obj 256 84 ctlout 2 1;
#X obj 322 83 ctlout 3 1;
#X obj 193 104 ctlout 4 1;
#X obj 262 104 ctlout 5 1;
#X obj 330 104 ctlout 6 1;
#X obj 253 39 unpack 0 0 0 0 0 0;
#X floatatom 370 40 5 0 0 0 - - - 0;
#X connect 0 0 7 0;
#X connect 7 0 1 0;
#X connect 7 0 8 0;
#X connect 7 1 2 0;
#X connect 7 2 3 0;
#X connect 7 3 4 0;
#X connect 7 4 5 0;
#X connect 7 5 6 0;
#X restore 242 830 pd midisend;
#X obj 219 811 tgl 16 0 empty empty empty 0 -8 0 10 #fcfcfc #000000 #000000 0 1;
#X obj 345 791 pack 0 0 0 0 0 0;
#X obj 365 811 spigot;
#N canvas 63 88 450 300 midisend 0;
#X obj 253 16 inlet;
#X obj 194 85 ctlout 1 1;
#X obj 256 84 ctlout 2 1;
#X obj 322 83 ctlout 3 1;
#X obj 193 104 ctlout 4 1;
#X obj 262 104 ctlout 5 1;
#X obj 330 104 ctlout 6 1;
#X obj 253 39 unpack 0 0 0 0 0 0;
#X floatatom 370 40 5 0 0 0 - - - 0;
#X connect 0 0 7 0;
#X connect 7 0 1 0;
#X connect 7 0 8 0;
#X connect 7 1 2 0;
#X connect 7 2 3 0;
#X connect 7 3 4 0;
#X connect 7 4 5 0;
#X connect 7 5 6 0;
#X restore 369 830 pd midisend;
#X obj 346 811 tgl 16 0 empty empty empty 0 -8 0 10 #fcfcfc #000000 #000000 0 1;
#X obj 497 790 pack 0 0 0 0 0 0;
#X obj 517 810 spigot;
#N canvas 63 88 450 300 midisend 0;
#X obj 253 16 inlet;
#X obj 194 85 ctlout 1 1;
#X obj 256 84 ctlout 2 1;
#X obj 322 83 ctlout 3 1;
#X obj 193 104 ctlout 4 1;
#X obj 262 104 ctlout 5 1;
#X obj 330 104 ctlout 6 1;
#X obj 253 39 unpack 0 0 0 0 0 0;
#X floatatom 370 40 5 0 0 0 - - - 0;
#X connect 0 0 7 0;
#X connect 7 0 1 0;
#X connect 7 0 8 0;
#X connect 7 1 2 0;
#X connect 7 2 3 0;
#X connect 7 3 4 0;
#X connect 7 4 5 0;
#X connect 7 5 6 0;
#X restore 521 829 pd midisend;
#X obj 498 810 tgl 16 0 empty empty empty 0 -8 0 10 #fcfcfc #000000 #000000 0 1;
#X obj -248 1019 vsl 16 136 0 127 0 0 empty empty empty 0 -9 0 10 #fcfcfc #000000 #000000 0 1;
#X obj -228 1019 vsl 16 136 0 127 0 0 empty empty empty 0 -9 0 10 #fcfcfc #000000 #000000 0 1;
#X obj -208 1019 vsl 16 136 0 127 0 0 empty empty empty 0 -9 0 10 #fcfcfc #000000 #000000 0 1;
#X obj -188 1019 vsl 16 136 0 127 0 0 empty empty empty 0 -9 0 10 #fcfcfc #000000 #000000 0 1;
#X obj -168 1019 vsl 16 136 0 127 0 0 empty empty empty 0 -9 0 10 #fcfcfc #000000 #000000 0 1;
#X obj -148 1019 vsl 16 136 0 127 0 0 empty empty empty 0 -9 0 10 #fcfcfc #000000 #000000 0 1;
#X obj -246 984 unpack 0 0 0 0 0 0;
#X obj 177 1019 vsl 16 136 0 127 0 0 empty empty empty 0 -9 0 10 #fcfcfc #000000 #000000 0 1;
#X obj 197 1019 vsl 16 136 0 127 0 0 empty empty empty 0 -9 0 10 #fcfcfc #000000 #000000 0 1;
#X obj 217 1019 vsl 16 136 0 127 0 0 empty empty empty 0 -9 0 10 #fcfcfc #000000 #000000 0 1;
#X obj 237 1019 vsl 16 136 0 127 0 0 empty empty empty 0 -9 0 10 #fcfcfc #000000 #000000 0 1;
#X obj 257 1019 vsl 16 136 0 127 0 0 empty empty empty 0 -9 0 10 #fcfcfc #000000 #000000 0 1;
#X obj 277 1019 vsl 16 136 0 127 0 0 empty empty empty 0 -9 0 10 #fcfcfc #000000 #000000 0 1;
#X obj 179 984 unpack 0 0 0 0 0 0;
#X obj -112 1019 vsl 16 136 0 127 0 0 empty empty empty 0 -9 0 10 #fcfcfc #000000 #000000 0 1;
#X obj -92 1019 vsl 16 136 0 127 0 0 empty empty empty 0 -9 0 10 #fcfcfc #000000 #000000 0 1;
#X obj -72 1019 vsl 16 136 0 127 0 0 empty empty empty 0 -9 0 10 #fcfcfc #000000 #000000 0 1;
#X obj -52 1019 vsl 16 136 0 127 0 0 empty empty empty 0 -9 0 10 #fcfcfc #000000 #000000 0 1;
#X obj -32 1019 vsl 16 136 0 127 0 0 empty empty empty 0 -9 0 10 #fcfcfc #000000 #000000 0 1;
#X obj -12 1019 vsl 16 136 0 127 0 0 empty empty empty 0 -9 0 10 #fcfcfc #000000 #000000 0 1;
#X obj -110 984 unpack 0 0 0 0 0 0;
#X obj 28 1016 vsl 16 136 0 127 0 0 empty empty empty 0 -9 0 10 #fcfcfc #000000 #000000 0 1;
#X obj 48 1016 vsl 16 136 0 127 0 0 empty empty empty 0 -9 0 10 #fcfcfc #000000 #000000 0 1;
#X obj 68 1016 vsl 16 136 0 127 0 0 empty empty empty 0 -9 0 10 #fcfcfc #000000 #000000 0 1;
#X obj 88 1016 vsl 16 136 0 127 0 0 empty empty empty 0 -9 0 10 #fcfcfc #000000 #000000 0 1;
#X obj 108 1016 vsl 16 136 0 127 0 0 empty empty empty 0 -9 0 10 #fcfcfc #000000 #000000 0 1;
#X obj 128 1016 vsl 16 136 0 127 0 0 empty empty empty 0 -9 0 10 #fcfcfc #000000 #000000 0 1;
#X obj 30 981 unpack 0 0 0 0 0 0;
#X obj 318 1023 vsl 16 136 0 127 0 0 empty empty empty 0 -9 0 10 #fcfcfc #000000 #000000 0 1;
#X obj 338 1023 vsl 16 136 0 127 0 0 empty empty empty 0 -9 0 10 #fcfcfc #000000 #000000 0 1;
#X obj 358 1023 vsl 16 136 0 127 0 0 empty empty empty 0 -9 0 10 #fcfcfc #000000 #000000 0 1;
#X obj 378 1023 vsl 16 136 0 127 0 0 empty empty empty 0 -9 0 10 #fcfcfc #000000 #000000 0 1;
#X obj 398 1023 vsl 16 136 0 127 0 0 empty empty empty 0 -9 0 10 #fcfcfc #000000 #000000 0 1;
#X obj 418 1023 vsl 16 136 0 127 0 0 empty empty empty 0 -9 0 10 #fcfcfc #000000 #000000 0 1;
#X obj 320 988 unpack 0 0 0 0 0 0;
#X obj -244 1169 pack 0 0 0 0 0 0;
#X obj -224 1189 spigot;
#N canvas 63 88 450 300 midisend 0;
#X obj 253 16 inlet;
#X obj 194 85 ctlout 1 1;
#X obj 256 84 ctlout 2 1;
#X obj 322 83 ctlout 3 1;
#X obj 193 104 ctlout 4 1;
#X obj 262 104 ctlout 5 1;
#X obj 330 104 ctlout 6 1;
#X obj 253 39 unpack 0 0 0 0 0 0;
#X connect 0 0 7 0;
#X connect 7 0 1 0;
#X connect 7 1 2 0;
#X connect 7 2 3 0;
#X connect 7 3 4 0;
#X connect 7 4 5 0;
#X connect 7 5 6 0;
#X restore -220 1208 pd midisend;
#X obj -243 1189 tgl 16 0 empty empty empty 0 -8 0 10 #fcfcfc #000000 #000000 0 1;
#X obj -99 1172 pack 0 0 0 0 0 0;
#X obj -79 1192 spigot;
#N canvas 63 88 450 300 midisend 0;
#X obj 253 16 inlet;
#X obj 194 85 ctlout 1 1;
#X obj 256 84 ctlout 2 1;
#X obj 322 83 ctlout 3 1;
#X obj 193 104 ctlout 4 1;
#X obj 262 104 ctlout 5 1;
#X obj 330 104 ctlout 6 1;
#X obj 253 39 unpack 0 0 0 0 0 0;
#X floatatom 368 40 5 0 0 0 - - - 0;
#X connect 0 0 7 0;
#X connect 7 0 1 0;
#X connect 7 0 8 0;
#X connect 7 1 2 0;
#X connect 7 2 3 0;
#X connect 7 3 4 0;
#X connect 7 4 5 0;
#X connect 7 5 6 0;
#X restore -75 1211 pd midisend;
#X obj -98 1192 tgl 16 0 empty empty empty 0 -8 0 10 #fcfcfc #000000 #000000 0 1;
#X obj 40 1170 pack 0 0 0 0 0 0;
#X obj 60 1190 spigot;
#N canvas 63 88 450 300 midisend 0;
#X obj 253 16 inlet;
#X obj 194 85 ctlout 1 1;
#X obj 256 84 ctlout 2 1;
#X obj 322 83 ctlout 3 1;
#X obj 193 104 ctlout 4 1;
#X obj 262 104 ctlout 5 1;
#X obj 330 104 ctlout 6 1;
#X obj 253 39 unpack 0 0 0 0 0 0;
#X floatatom 368 40 5 0 0 0 - - - 0;
#X connect 0 0 7 0;
#X connect 7 0 1 0;
#X connect 7 0 8 0;
#X connect 7 1 2 0;
#X connect 7 2 3 0;
#X connect 7 3 4 0;
#X connect 7 4 5 0;
#X connect 7 5 6 0;
#X restore 64 1209 pd midisend;
#X obj 41 1190 tgl 16 0 empty empty empty 0 -8 0 10 #fcfcfc #000000 #000000 0 1;
#X obj 190 1174 pack 0 0 0 0 0 0;
#X obj 210 1194 spigot;
#N canvas 63 88 450 300 midisend 0;
#X obj 253 16 inlet;
#X obj 194 85 ctlout 1 1;
#X obj 256 84 ctlout 2 1;
#X obj 322 83 ctlout 3 1;
#X obj 193 104 ctlout 4 1;
#X obj 262 104 ctlout 5 1;
#X obj 330 104 ctlout 6 1;
#X obj 253 39 unpack 0 0 0 0 0 0;
#X floatatom 368 40 5 0 0 0 - - - 0;
#X connect 0 0 7 0;
#X connect 7 0 1 0;
#X connect 7 0 8 0;
#X connect 7 1 2 0;
#X connect 7 2 3 0;
#X connect 7 3 4 0;
#X connect 7 4 5 0;
#X connect 7 5 6 0;
#X restore 214 1213 pd midisend;
#X obj 191 1194 tgl 16 0 empty empty empty 0 -8 0 10 #fcfcfc #000000 #000000 0 1;
#X obj 328 1179 pack 0 0 0 0 0 0;
#X obj 348 1199 spigot;
#N canvas 63 88 450 300 midisend 0;
#X obj 253 16 inlet;
#X obj 194 85 ctlout 1 1;
#X obj 256 84 ctlout 2 1;
#X obj 322 83 ctlout 3 1;
#X obj 193 104 ctlout 4 1;
#X obj 262 104 ctlout 5 1;
#X obj 330 104 ctlout 6 1;
#X obj 253 39 unpack 0 0 0 0 0 0;
#X floatatom 368 40 5 0 0 0 - - - 0;
#X connect 0 0 7 0;
#X connect 7 0 1 0;
#X connect 7 0 8 0;
#X connect 7 1 2 0;
#X connect 7 2 3 0;
#X connect 7 3 4 0;
#X connect 7 4 5 0;
#X connect 7 5 6 0;
#X restore 352 1218 pd midisend;
#X obj 329 1199 tgl 16 0 empty empty empty 0 -8 0 10 #fcfcfc #000000 #000000 0 1;
#X obj 460 1027 vsl 16 136 0 127 0 0 empty empty empty 0 -9 0 10 #fcfcfc #000000 #000000 0 1;
#X obj 480 1027 vsl 16 136 0 127 0 0 empty empty empty 0 -9 0 10 #fcfcfc #000000 #000000 0 1;
#X obj 500 1027 vsl 16 136 0 127 0 0 empty empty empty 0 -9 0 10 #fcfcfc #000000 #000000 0 1;
#X obj 520 1027 vsl 16 136 0 127 0 0 empty empty empty 0 -9 0 10 #fcfcfc #000000 #000000 0 1;
#X obj 540 1027 vsl 16 136 0 127 0 0 empty empty empty 0 -9 0 10 #fcfcfc #000000 #000000 0 1;
#X obj 560 1027 vsl 16 136 0 127 0 0 empty empty empty 0 -9 0 10 #fcfcfc #000000 #000000 0 1;
#X obj 462 992 unpack 0 0 0 0 0 0;
#X obj 470 1183 pack 0 0 0 0 0 0;
#X obj 490 1203 spigot;
#N canvas 63 88 450 300 midisend 0;
#X obj 253 16 inlet;
#X obj 194 85 ctlout 1 1;
#X obj 256 84 ctlout 2 1;
#X obj 322 83 ctlout 3 1;
#X obj 193 104 ctlout 4 1;
#X obj 262 104 ctlout 5 1;
#X obj 330 104 ctlout 6 1;
#X obj 253 39 unpack 0 0 0 0 0 0;
#X floatatom 368 40 5 0 0 0 - - - 0;
#X connect 0 0 7 0;
#X connect 7 0 1 0;
#X connect 7 0 8 0;
#X connect 7 1 2 0;
#X connect 7 2 3 0;
#X connect 7 3 4 0;
#X connect 7 4 5 0;
#X connect 7 5 6 0;
#X restore 494 1222 pd midisend;
#X obj 471 1203 tgl 16 0 empty empty empty 0 -8 0 10 #fcfcfc #000000 #000000 0 1;
#X obj -242 1470 pack 0 0 0 0 0 0;
#X obj -222 1490 spigot;
#N canvas 63 88 450 300 midisend 0;
#X obj 253 16 inlet;
#X obj 194 85 ctlout 1 1;
#X obj 256 84 ctlout 2 1;
#X obj 322 83 ctlout 3 1;
#X obj 193 104 ctlout 4 1;
#X obj 262 104 ctlout 5 1;
#X obj 330 104 ctlout 6 1;
#X obj 253 39 unpack 0 0 0 0 0 0;
#X connect 0 0 7 0;
#X connect 7 0 1 0;
#X connect 7 1 2 0;
#X connect 7 2 3 0;
#X connect 7 3 4 0;
#X connect 7 4 5 0;
#X connect 7 5 6 0;
#X restore -218 1509 pd midisend;
#X obj -241 1490 tgl 16 0 empty empty empty 0 -8 0 10 #fcfcfc #000000 #000000 0 1;
#X obj -97 1473 pack 0 0 0 0 0 0;
#X obj -77 1493 spigot;
#N canvas 63 88 450 300 midisend 0;
#X obj 253 16 inlet;
#X obj 194 85 ctlout 1 1;
#X obj 256 84 ctlout 2 1;
#X obj 322 83 ctlout 3 1;
#X obj 193 104 ctlout 4 1;
#X obj 262 104 ctlout 5 1;
#X obj 330 104 ctlout 6 1;
#X obj 253 39 unpack 0 0 0 0 0 0;
#X floatatom 368 40 5 0 0 0 - - - 0;
#X connect 0 0 7 0;
#X connect 7 0 1 0;
#X connect 7 0 8 0;
#X connect 7 1 2 0;
#X connect 7 2 3 0;
#X connect 7 3 4 0;
#X connect 7 4 5 0;
#X connect 7 5 6 0;
#X restore -73 1512 pd midisend;
#X obj -96 1493 tgl 16 0 empty empty empty 0 -8 0 10 #fcfcfc #000000 #000000 0 1;
#X obj 42 1471 pack 0 0 0 0 0 0;
#X obj 62 1491 spigot;
#N canvas 63 88 450 300 midisend 0;
#X obj 253 16 inlet;
#X obj 194 85 ctlout 1 1;
#X obj 256 84 ctlout 2 1;
#X obj 322 83 ctlout 3 1;
#X obj 193 104 ctlout 4 1;
#X obj 262 104 ctlout 5 1;
#X obj 330 104 ctlout 6 1;
#X obj 253 39 unpack 0 0 0 0 0 0;
#X floatatom 368 40 5 0 0 0 - - - 0;
#X connect 0 0 7 0;
#X connect 7 0 1 0;
#X connect 7 0 8 0;
#X connect 7 1 2 0;
#X connect 7 2 3 0;
#X connect 7 3 4 0;
#X connect 7 4 5 0;
#X connect 7 5 6 0;
#X restore 66 1510 pd midisend;
#X obj 43 1491 tgl 16 0 empty empty empty 0 -8 0 10 #fcfcfc #000000 #000000 0 1;
#X obj 211 1468 pack 0 0 0 0 0 0;
#X obj 231 1488 spigot;
#N canvas 63 88 450 300 midisend 0;
#X obj 253 16 inlet;
#X obj 194 85 ctlout 1 1;
#X obj 256 84 ctlout 2 1;
#X obj 322 83 ctlout 3 1;
#X obj 193 104 ctlout 4 1;
#X obj 262 104 ctlout 5 1;
#X obj 330 104 ctlout 6 1;
#X obj 253 39 unpack 0 0 0 0 0 0;
#X floatatom 368 40 5 0 0 0 - - - 0;
#X connect 0 0 7 0;
#X connect 7 0 1 0;
#X connect 7 0 8 0;
#X connect 7 1 2 0;
#X connect 7 2 3 0;
#X connect 7 3 4 0;
#X connect 7 4 5 0;
#X connect 7 5 6 0;
#X restore 235 1507 pd midisend;
#X obj 212 1488 tgl 16 0 empty empty empty 0 -8 0 10 #fcfcfc #000000 #000000 0 1;
#X obj 349 1473 pack 0 0 0 0 0 0;
#X obj 369 1493 spigot;
#N canvas 63 88 450 300 midisend 0;
#X obj 253 16 inlet;
#X obj 194 85 ctlout 1 1;
#X obj 256 84 ctlout 2 1;
#X obj 322 83 ctlout 3 1;
#X obj 193 104 ctlout 4 1;
#X obj 262 104 ctlout 5 1;
#X obj 330 104 ctlout 6 1;
#X obj 253 39 unpack 0 0 0 0 0 0;
#X floatatom 368 40 5 0 0 0 - - - 0;
#X connect 0 0 7 0;
#X connect 7 0 1 0;
#X connect 7 0 8 0;
#X connect 7 1 2 0;
#X connect 7 2 3 0;
#X connect 7 3 4 0;
#X connect 7 4 5 0;
#X connect 7 5 6 0;
#X restore 373 1512 pd midisend;
#X obj 350 1493 tgl 16 0 empty empty empty 0 -8 0 10 #fcfcfc #000000 #000000 0 1;
#X obj 539 1471 pack 0 0 0 0 0 0;
#X obj 559 1491 spigot;
#N canvas 63 88 450 300 midisend 0;
#X obj 253 16 inlet;
#X obj 194 85 ctlout 1 1;
#X obj 256 84 ctlout 2 1;
#X obj 322 83 ctlout 3 1;
#X obj 193 104 ctlout 4 1;
#X obj 262 104 ctlout 5 1;
#X obj 330 104 ctlout 6 1;
#X obj 253 39 unpack 0 0 0 0 0 0;
#X floatatom 368 40 5 0 0 0 - - - 0;
#X connect 0 0 7 0;
#X connect 7 0 1 0;
#X connect 7 0 8 0;
#X connect 7 1 2 0;
#X connect 7 2 3 0;
#X connect 7 3 4 0;
#X connect 7 4 5 0;
#X connect 7 5 6 0;
#X restore 563 1510 pd midisend;
#X obj 540 1491 tgl 16 0 empty empty empty 0 -8 0 10 #fcfcfc #000000 #000000 0 1;
#X obj -616 606 tgl 16 0 empty empty empty 0 -8 0 10 #fcfcfc #000000 #000000 0 1;
#X obj 282 1096 mtx_check;
#X obj 1532 565 mtx_check;
#X obj 1524 535 iemmatrix/mtx_plot;
#X obj 585 864 print scrolled+1 rolled+1 trasnposed;
#X obj 1374 565 mtx_check;
#X obj 1366 535 iemmatrix/mtx_plot;
#X obj 1217 565 mtx_check;
#X obj 1209 535 iemmatrix/mtx_plot;
#X obj 1057 562 mtx_check;
#X obj 1049 532 iemmatrix/mtx_plot;
#X obj 899 562 mtx_check;
#X obj 891 532 iemmatrix/mtx_plot;
#X obj 742 562 mtx_check;
#X obj 734 531 iemmatrix/mtx_plot;
#X obj 1523 821 mtx_check;
#X obj 1525 843 iemmatrix/mtx_plot;
#X obj 1365 821 mtx_check;
#X obj 1367 843 iemmatrix/mtx_plot;
#X obj 1208 821 mtx_check;
#X obj 1209 844 iemmatrix/mtx_plot;
#X obj 1051 817 mtx_check;
#X obj 1050 840 iemmatrix/mtx_plot;
#X obj 890 818 mtx_check;
#X obj 892 840 iemmatrix/mtx_plot;
#X obj 733 818 mtx_check;
#X obj 735 840 iemmatrix/mtx_plot;
#X msg 1158 565 colormap \$1;
#X obj 1160 988 r col;
#X obj 965 11 s col;
#X msg 1028 -69 white;
#N canvas 553 387 450 300 div 1;
#X obj 132 66 inlet;
#X obj 140 104 list split 3;
#X obj 141 159 unpack 0 0 0 0 0 0;
#X obj 135 179 / 127;
#X obj 179 274 outlet;
#X obj 166 247 list prepend matrix 3 2;
#X obj 212 231 pack 0 0 0 0 0 0;
#X obj 171 179 / 127;
#X obj 207 180 / 127;
#X obj 244 180 / 127;
#X obj 280 178 / 127;
#X obj 314 180 / 127;
#X obj 300 272 list trim;
#X connect 0 0 1 0;
#X connect 1 1 2 0;
#X connect 2 0 3 0;
#X connect 2 1 7 0;
#X connect 2 2 8 0;
#X connect 2 3 9 0;
#X connect 2 4 10 0;
#X connect 2 5 11 0;
#X connect 3 0 6 0;
#X connect 5 0 12 0;
#X connect 6 0 5 0;
#X connect 7 0 6 1;
#X connect 8 0 6 2;
#X connect 9 0 6 3;
#X connect 10 0 6 4;
#X connect 11 0 6 5;
#X connect 12 0 4 0;
#X restore 806 562 pd div;
#N canvas 553 387 450 300 div 0;
#X obj 132 66 inlet;
#X obj 140 104 list split 3;
#X obj 141 159 unpack 0 0 0 0 0 0;
#X obj 135 179 / 127;
#X obj 179 274 outlet;
#X obj 166 247 list prepend matrix 3 2;
#X obj 212 231 pack 0 0 0 0 0 0;
#X obj 171 179 / 127;
#X obj 207 180 / 127;
#X obj 244 180 / 127;
#X obj 280 178 / 127;
#X obj 314 180 / 127;
#X obj 300 272 list trim;
#X connect 0 0 1 0;
#X connect 1 1 2 0;
#X connect 2 0 3 0;
#X connect 2 1 7 0;
#X connect 2 2 8 0;
#X connect 2 3 9 0;
#X connect 2 4 10 0;
#X connect 2 5 11 0;
#X connect 3 0 6 0;
#X connect 5 0 12 0;
#X connect 6 0 5 0;
#X connect 7 0 6 1;
#X connect 8 0 6 2;
#X connect 9 0 6 3;
#X connect 10 0 6 4;
#X connect 11 0 6 5;
#X connect 12 0 4 0;
#X restore 959 562 pd div;
#N canvas 553 387 450 300 div 0;
#X obj 132 66 inlet;
#X obj 140 104 list split 3;
#X obj 141 159 unpack 0 0 0 0 0 0;
#X obj 135 179 / 127;
#X obj 179 274 outlet;
#X obj 166 247 list prepend matrix 3 2;
#X obj 212 231 pack 0 0 0 0 0 0;
#X obj 171 179 / 127;
#X obj 207 180 / 127;
#X obj 244 180 / 127;
#X obj 280 178 / 127;
#X obj 314 180 / 127;
#X obj 300 272 list trim;
#X connect 0 0 1 0;
#X connect 1 1 2 0;
#X connect 2 0 3 0;
#X connect 2 1 7 0;
#X connect 2 2 8 0;
#X connect 2 3 9 0;
#X connect 2 4 10 0;
#X connect 2 5 11 0;
#X connect 3 0 6 0;
#X connect 5 0 12 0;
#X connect 6 0 5 0;
#X connect 7 0 6 1;
#X connect 8 0 6 2;
#X connect 9 0 6 3;
#X connect 10 0 6 4;
#X connect 11 0 6 5;
#X connect 12 0 4 0;
#X restore 1118 563 pd div;
#N canvas 553 387 450 300 div 0;
#X obj 132 66 inlet;
#X obj 140 104 list split 3;
#X obj 141 159 unpack 0 0 0 0 0 0;
#X obj 135 179 / 127;
#X obj 179 274 outlet;
#X obj 166 247 list prepend matrix 3 2;
#X obj 212 231 pack 0 0 0 0 0 0;
#X obj 171 179 / 127;
#X obj 207 180 / 127;
#X obj 244 180 / 127;
#X obj 280 178 / 127;
#X obj 314 180 / 127;
#X obj 300 272 list trim;
#X connect 0 0 1 0;
#X connect 1 1 2 0;
#X connect 2 0 3 0;
#X connect 2 1 7 0;
#X connect 2 2 8 0;
#X connect 2 3 9 0;
#X connect 2 4 10 0;
#X connect 2 5 11 0;
#X connect 3 0 6 0;
#X connect 5 0 12 0;
#X connect 6 0 5 0;
#X connect 7 0 6 1;
#X connect 8 0 6 2;
#X connect 9 0 6 3;
#X connect 10 0 6 4;
#X connect 11 0 6 5;
#X connect 12 0 4 0;
#X restore 1278 566 pd div;
#N canvas 553 387 450 300 div 0;
#X obj 132 66 inlet;
#X obj 140 104 list split 3;
#X obj 141 159 unpack 0 0 0 0 0 0;
#X obj 135 179 / 127;
#X obj 179 274 outlet;
#X obj 166 247 list prepend matrix 3 2;
#X obj 212 231 pack 0 0 0 0 0 0;
#X obj 171 179 / 127;
#X obj 207 180 / 127;
#X obj 244 180 / 127;
#X obj 280 178 / 127;
#X obj 314 180 / 127;
#X obj 300 272 list trim;
#X connect 0 0 1 0;
#X connect 1 1 2 0;
#X connect 2 0 3 0;
#X connect 2 1 7 0;
#X connect 2 2 8 0;
#X connect 2 3 9 0;
#X connect 2 4 10 0;
#X connect 2 5 11 0;
#X connect 3 0 6 0;
#X connect 5 0 12 0;
#X connect 6 0 5 0;
#X connect 7 0 6 1;
#X connect 8 0 6 2;
#X connect 9 0 6 3;
#X connect 10 0 6 4;
#X connect 11 0 6 5;
#X connect 12 0 4 0;
#X restore 1435 565 pd div;
#N canvas 553 387 450 300 div 0;
#X obj 132 66 inlet;
#X obj 140 104 list split 3;
#X obj 141 159 unpack 0 0 0 0 0 0;
#X obj 135 179 / 127;
#X obj 179 274 outlet;
#X obj 166 247 list prepend matrix 3 2;
#X obj 212 231 pack 0 0 0 0 0 0;
#X obj 171 179 / 127;
#X obj 207 180 / 127;
#X obj 244 180 / 127;
#X obj 280 178 / 127;
#X obj 314 180 / 127;
#X obj 300 272 list trim;
#X connect 0 0 1 0;
#X connect 1 1 2 0;
#X connect 2 0 3 0;
#X connect 2 1 7 0;
#X connect 2 2 8 0;
#X connect 2 3 9 0;
#X connect 2 4 10 0;
#X connect 2 5 11 0;
#X connect 3 0 6 0;
#X connect 5 0 12 0;
#X connect 6 0 5 0;
#X connect 7 0 6 1;
#X connect 8 0 6 2;
#X connect 9 0 6 3;
#X connect 10 0 6 4;
#X connect 11 0 6 5;
#X connect 12 0 4 0;
#X restore 1593 565 pd div;
#N canvas 553 387 450 300 div 1;
#X obj 132 66 inlet;
#X obj 140 104 list split 3;
#X obj 141 159 unpack 0 0 0 0 0 0;
#X obj 135 179 / 127;
#X obj 179 274 outlet;
#X obj 166 247 list prepend matrix 3 2;
#X obj 212 231 pack 0 0 0 0 0 0;
#X obj 171 179 / 127;
#X obj 207 180 / 127;
#X obj 244 180 / 127;
#X obj 280 178 / 127;
#X obj 314 180 / 127;
#X obj 300 272 list trim;
#X connect 0 0 1 0;
#X connect 1 1 2 0;
#X connect 2 0 3 0;
#X connect 2 1 7 0;
#X connect 2 2 8 0;
#X connect 2 3 9 0;
#X connect 2 4 10 0;
#X connect 2 5 11 0;
#X connect 3 0 6 0;
#X connect 5 0 12 0;
#X connect 6 0 5 0;
#X connect 7 0 6 1;
#X connect 8 0 6 2;
#X connect 9 0 6 3;
#X connect 10 0 6 4;
#X connect 11 0 6 5;
#X connect 12 0 4 0;
#X restore 794 818 pd div;
#N canvas 553 387 450 300 div 1;
#X obj 132 66 inlet;
#X obj 140 104 list split 3;
#X obj 141 159 unpack 0 0 0 0 0 0;
#X obj 135 179 / 127;
#X obj 179 274 outlet;
#X obj 166 247 list prepend matrix 3 2;
#X obj 212 231 pack 0 0 0 0 0 0;
#X obj 171 179 / 127;
#X obj 207 180 / 127;
#X obj 244 180 / 127;
#X obj 280 178 / 127;
#X obj 314 180 / 127;
#X obj 300 272 list trim;
#X connect 0 0 1 0;
#X connect 1 1 2 0;
#X connect 2 0 3 0;
#X connect 2 1 7 0;
#X connect 2 2 8 0;
#X connect 2 3 9 0;
#X connect 2 4 10 0;
#X connect 2 5 11 0;
#X connect 3 0 6 0;
#X connect 5 0 12 0;
#X connect 6 0 5 0;
#X connect 7 0 6 1;
#X connect 8 0 6 2;
#X connect 9 0 6 3;
#X connect 10 0 6 4;
#X connect 11 0 6 5;
#X connect 12 0 4 0;
#X restore 952 817 pd div;
#N canvas 553 387 450 300 div 0;
#X obj 132 66 inlet;
#X obj 140 104 list split 3;
#X obj 141 159 unpack 0 0 0 0 0 0;
#X obj 135 179 / 127;
#X obj 179 274 outlet;
#X obj 166 247 list prepend matrix 3 2;
#X obj 212 231 pack 0 0 0 0 0 0;
#X obj 171 179 / 127;
#X obj 207 180 / 127;
#X obj 244 180 / 127;
#X obj 280 178 / 127;
#X obj 314 180 / 127;
#X obj 300 272 list trim;
#X connect 0 0 1 0;
#X connect 1 1 2 0;
#X connect 2 0 3 0;
#X connect 2 1 7 0;
#X connect 2 2 8 0;
#X connect 2 3 9 0;
#X connect 2 4 10 0;
#X connect 2 5 11 0;
#X connect 3 0 6 0;
#X connect 5 0 12 0;
#X connect 6 0 5 0;
#X connect 7 0 6 1;
#X connect 8 0 6 2;
#X connect 9 0 6 3;
#X connect 10 0 6 4;
#X connect 11 0 6 5;
#X connect 12 0 4 0;
#X restore 1112 818 pd div;
#N canvas 553 387 450 300 div 0;
#X obj 132 66 inlet;
#X obj 140 104 list split 3;
#X obj 141 159 unpack 0 0 0 0 0 0;
#X obj 135 179 / 127;
#X obj 179 274 outlet;
#X obj 166 247 list prepend matrix 3 2;
#X obj 212 231 pack 0 0 0 0 0 0;
#X obj 171 179 / 127;
#X obj 207 180 / 127;
#X obj 244 180 / 127;
#X obj 280 178 / 127;
#X obj 314 180 / 127;
#X obj 300 272 list trim;
#X connect 0 0 1 0;
#X connect 1 1 2 0;
#X connect 2 0 3 0;
#X connect 2 1 7 0;
#X connect 2 2 8 0;
#X connect 2 3 9 0;
#X connect 2 4 10 0;
#X connect 2 5 11 0;
#X connect 3 0 6 0;
#X connect 5 0 12 0;
#X connect 6 0 5 0;
#X connect 7 0 6 1;
#X connect 8 0 6 2;
#X connect 9 0 6 3;
#X connect 10 0 6 4;
#X connect 11 0 6 5;
#X connect 12 0 4 0;
#X restore 1272 820 pd div;
#N canvas 553 387 450 300 div 0;
#X obj 132 66 inlet;
#X obj 140 104 list split 3;
#X obj 141 159 unpack 0 0 0 0 0 0;
#X obj 135 179 / 127;
#X obj 179 274 outlet;
#X obj 166 247 list prepend matrix 3 2;
#X obj 212 231 pack 0 0 0 0 0 0;
#X obj 171 179 / 127;
#X obj 207 180 / 127;
#X obj 244 180 / 127;
#X obj 280 178 / 127;
#X obj 314 180 / 127;
#X obj 300 272 list trim;
#X connect 0 0 1 0;
#X connect 1 1 2 0;
#X connect 2 0 3 0;
#X connect 2 1 7 0;
#X connect 2 2 8 0;
#X connect 2 3 9 0;
#X connect 2 4 10 0;
#X connect 2 5 11 0;
#X connect 3 0 6 0;
#X connect 5 0 12 0;
#X connect 6 0 5 0;
#X connect 7 0 6 1;
#X connect 8 0 6 2;
#X connect 9 0 6 3;
#X connect 10 0 6 4;
#X connect 11 0 6 5;
#X connect 12 0 4 0;
#X restore 1427 821 pd div;
#N canvas 553 387 450 300 div 0;
#X obj 132 66 inlet;
#X obj 140 104 list split 3;
#X obj 141 159 unpack 0 0 0 0 0 0;
#X obj 135 179 / 127;
#X obj 179 274 outlet;
#X obj 166 247 list prepend matrix 3 2;
#X obj 212 231 pack 0 0 0 0 0 0;
#X obj 171 179 / 127;
#X obj 207 180 / 127;
#X obj 244 180 / 127;
#X obj 280 178 / 127;
#X obj 314 180 / 127;
#X obj 300 272 list trim;
#X connect 0 0 1 0;
#X connect 1 1 2 0;
#X connect 2 0 3 0;
#X connect 2 1 7 0;
#X connect 2 2 8 0;
#X connect 2 3 9 0;
#X connect 2 4 10 0;
#X connect 2 5 11 0;
#X connect 3 0 6 0;
#X connect 5 0 12 0;
#X connect 6 0 5 0;
#X connect 7 0 6 1;
#X connect 8 0 6 2;
#X connect 9 0 6 3;
#X connect 10 0 6 4;
#X connect 11 0 6 5;
#X connect 12 0 4 0;
#X restore 1586 821 pd div;
#X obj 1521 162 mtx_check;
#X obj 1521 183 iemmatrix/mtx_plot;
#X obj 1363 162 mtx_check;
#X obj 1365 184 iemmatrix/mtx_plot;
#X obj 1206 162 mtx_check;
#X obj 1208 184 iemmatrix/mtx_plot;
#X obj 1043 160 mtx_check;
#X obj 1048 181 iemmatrix/mtx_plot;
#X obj 890 181 iemmatrix/mtx_plot;
#X obj 731 159 mtx_check;
#X obj 734 180 iemmatrix/mtx_plot;
#X obj 1521 316 mtx_check;
#X obj 1524 689 iemmatrix/mtx_plot;
#X obj 1363 316 mtx_check;
#X obj 1366 689 iemmatrix/mtx_plot;
#X obj 1206 316 mtx_check;
#X obj 1208 690 iemmatrix/mtx_plot;
#X obj 1048 315 mtx_check;
#X obj 1049 686 iemmatrix/mtx_plot;
#X obj 888 313 mtx_check;
#X obj 891 686 iemmatrix/mtx_plot;
#X obj 731 313 mtx_check;
#X obj 734 686 iemmatrix/mtx_plot;
#X msg 1147 162 colormap \$1;
#X obj 1153 137 r col;
#N canvas 553 387 450 300 div 1;
#X obj 132 66 inlet;
#X obj 140 104 list split 3;
#X obj 141 159 unpack 0 0 0 0 0 0;
#X obj 135 179 / 127;
#X obj 179 274 outlet;
#X obj 166 247 list prepend matrix 3 2;
#X obj 212 231 pack 0 0 0 0 0 0;
#X obj 171 179 / 127;
#X obj 207 180 / 127;
#X obj 244 180 / 127;
#X obj 280 178 / 127;
#X obj 314 180 / 127;
#X obj 300 272 list trim;
#X connect 0 0 1 0;
#X connect 1 1 2 0;
#X connect 2 0 3 0;
#X connect 2 1 7 0;
#X connect 2 2 8 0;
#X connect 2 3 9 0;
#X connect 2 4 10 0;
#X connect 2 5 11 0;
#X connect 3 0 6 0;
#X connect 5 0 12 0;
#X connect 6 0 5 0;
#X connect 7 0 6 1;
#X connect 8 0 6 2;
#X connect 9 0 6 3;
#X connect 10 0 6 4;
#X connect 11 0 6 5;
#X connect 12 0 4 0;
#X restore 795 159 pd div;
#N canvas 553 387 450 300 div 0;
#X obj 132 66 inlet;
#X obj 140 104 list split 3;
#X obj 141 159 unpack 0 0 0 0 0 0;
#X obj 135 179 / 127;
#X obj 179 274 outlet;
#X obj 166 247 list prepend matrix 3 2;
#X obj 212 231 pack 0 0 0 0 0 0;
#X obj 171 179 / 127;
#X obj 207 180 / 127;
#X obj 244 180 / 127;
#X obj 280 178 / 127;
#X obj 314 180 / 127;
#X obj 300 272 list trim;
#X connect 0 0 1 0;
#X connect 1 1 2 0;
#X connect 2 0 3 0;
#X connect 2 1 7 0;
#X connect 2 2 8 0;
#X connect 2 3 9 0;
#X connect 2 4 10 0;
#X connect 2 5 11 0;
#X connect 3 0 6 0;
#X connect 5 0 12 0;
#X connect 6 0 5 0;
#X connect 7 0 6 1;
#X connect 8 0 6 2;
#X connect 9 0 6 3;
#X connect 10 0 6 4;
#X connect 11 0 6 5;
#X connect 12 0 4 0;
#X restore 895 158 pd div;
#N canvas 553 387 450 300 div 0;
#X obj 132 66 inlet;
#X obj 140 104 list split 3;
#X obj 141 159 unpack 0 0 0 0 0 0;
#X obj 135 179 / 127;
#X obj 179 274 outlet;
#X obj 166 247 list prepend matrix 3 2;
#X obj 212 231 pack 0 0 0 0 0 0;
#X obj 171 179 / 127;
#X obj 207 180 / 127;
#X obj 244 180 / 127;
#X obj 280 178 / 127;
#X obj 314 180 / 127;
#X obj 300 272 list trim;
#X connect 0 0 1 0;
#X connect 1 1 2 0;
#X connect 2 0 3 0;
#X connect 2 1 7 0;
#X connect 2 2 8 0;
#X connect 2 3 9 0;
#X connect 2 4 10 0;
#X connect 2 5 11 0;
#X connect 3 0 6 0;
#X connect 5 0 12 0;
#X connect 6 0 5 0;
#X connect 7 0 6 1;
#X connect 8 0 6 2;
#X connect 9 0 6 3;
#X connect 10 0 6 4;
#X connect 11 0 6 5;
#X connect 12 0 4 0;
#X restore 1104 160 pd div;
#N canvas 553 387 450 300 div 0;
#X obj 132 66 inlet;
#X obj 140 104 list split 3;
#X obj 141 159 unpack 0 0 0 0 0 0;
#X obj 135 179 / 127;
#X obj 179 274 outlet;
#X obj 166 247 list prepend matrix 3 2;
#X obj 212 231 pack 0 0 0 0 0 0;
#X obj 171 179 / 127;
#X obj 207 180 / 127;
#X obj 244 180 / 127;
#X obj 280 178 / 127;
#X obj 314 180 / 127;
#X obj 300 272 list trim;
#X connect 0 0 1 0;
#X connect 1 1 2 0;
#X connect 2 0 3 0;
#X connect 2 1 7 0;
#X connect 2 2 8 0;
#X connect 2 3 9 0;
#X connect 2 4 10 0;
#X connect 2 5 11 0;
#X connect 3 0 6 0;
#X connect 5 0 12 0;
#X connect 6 0 5 0;
#X connect 7 0 6 1;
#X connect 8 0 6 2;
#X connect 9 0 6 3;
#X connect 10 0 6 4;
#X connect 11 0 6 5;
#X connect 12 0 4 0;
#X restore 1267 163 pd div;
#N canvas 553 387 450 300 div 0;
#X obj 132 66 inlet;
#X obj 140 104 list split 3;
#X obj 141 159 unpack 0 0 0 0 0 0;
#X obj 135 179 / 127;
#X obj 179 274 outlet;
#X obj 166 247 list prepend matrix 3 2;
#X obj 212 231 pack 0 0 0 0 0 0;
#X obj 171 179 / 127;
#X obj 207 180 / 127;
#X obj 244 180 / 127;
#X obj 280 178 / 127;
#X obj 314 180 / 127;
#X obj 300 272 list trim;
#X connect 0 0 1 0;
#X connect 1 1 2 0;
#X connect 2 0 3 0;
#X connect 2 1 7 0;
#X connect 2 2 8 0;
#X connect 2 3 9 0;
#X connect 2 4 10 0;
#X connect 2 5 11 0;
#X connect 3 0 6 0;
#X connect 5 0 12 0;
#X connect 6 0 5 0;
#X connect 7 0 6 1;
#X connect 8 0 6 2;
#X connect 9 0 6 3;
#X connect 10 0 6 4;
#X connect 11 0 6 5;
#X connect 12 0 4 0;
#X restore 1424 162 pd div;
#N canvas 553 387 450 300 div 0;
#X obj 132 66 inlet;
#X obj 140 104 list split 3;
#X obj 141 159 unpack 0 0 0 0 0 0;
#X obj 135 179 / 127;
#X obj 179 274 outlet;
#X obj 166 247 list prepend matrix 3 2;
#X obj 212 231 pack 0 0 0 0 0 0;
#X obj 171 179 / 127;
#X obj 207 180 / 127;
#X obj 244 180 / 127;
#X obj 280 178 / 127;
#X obj 314 180 / 127;
#X obj 300 272 list trim;
#X connect 0 0 1 0;
#X connect 1 1 2 0;
#X connect 2 0 3 0;
#X connect 2 1 7 0;
#X connect 2 2 8 0;
#X connect 2 3 9 0;
#X connect 2 4 10 0;
#X connect 2 5 11 0;
#X connect 3 0 6 0;
#X connect 5 0 12 0;
#X connect 6 0 5 0;
#X connect 7 0 6 1;
#X connect 8 0 6 2;
#X connect 9 0 6 3;
#X connect 10 0 6 4;
#X connect 11 0 6 5;
#X connect 12 0 4 0;
#X restore 1582 162 pd div;
#N canvas 553 387 450 300 div 1;
#X obj 132 66 inlet;
#X obj 140 104 list split 3;
#X obj 141 159 unpack 0 0 0 0 0 0;
#X obj 135 179 / 127;
#X obj 179 274 outlet;
#X obj 166 247 list prepend matrix 3 2;
#X obj 212 231 pack 0 0 0 0 0 0;
#X obj 171 179 / 127;
#X obj 207 180 / 127;
#X obj 244 180 / 127;
#X obj 280 178 / 127;
#X obj 314 180 / 127;
#X obj 300 272 list trim;
#X connect 0 0 1 0;
#X connect 1 1 2 0;
#X connect 2 0 3 0;
#X connect 2 1 7 0;
#X connect 2 2 8 0;
#X connect 2 3 9 0;
#X connect 2 4 10 0;
#X connect 2 5 11 0;
#X connect 3 0 6 0;
#X connect 5 0 12 0;
#X connect 6 0 5 0;
#X connect 7 0 6 1;
#X connect 8 0 6 2;
#X connect 9 0 6 3;
#X connect 10 0 6 4;
#X connect 11 0 6 5;
#X connect 12 0 4 0;
#X restore 792 313 pd div;
#N canvas 553 387 450 300 div 1;
#X obj 132 66 inlet;
#X obj 140 104 list split 3;
#X obj 141 159 unpack 0 0 0 0 0 0;
#X obj 135 179 / 127;
#X obj 179 274 outlet;
#X obj 166 247 list prepend matrix 3 2;
#X obj 212 231 pack 0 0 0 0 0 0;
#X obj 171 179 / 127;
#X obj 207 180 / 127;
#X obj 244 180 / 127;
#X obj 280 178 / 127;
#X obj 314 180 / 127;
#X obj 300 272 list trim;
#X connect 0 0 1 0;
#X connect 1 1 2 0;
#X connect 2 0 3 0;
#X connect 2 1 7 0;
#X connect 2 2 8 0;
#X connect 2 3 9 0;
#X connect 2 4 10 0;
#X connect 2 5 11 0;
#X connect 3 0 6 0;
#X connect 5 0 12 0;
#X connect 6 0 5 0;
#X connect 7 0 6 1;
#X connect 8 0 6 2;
#X connect 9 0 6 3;
#X connect 10 0 6 4;
#X connect 11 0 6 5;
#X connect 12 0 4 0;
#X restore 952 313 pd div;
#N canvas 553 387 450 300 div 0;
#X obj 132 66 inlet;
#X obj 140 104 list split 3;
#X obj 141 159 unpack 0 0 0 0 0 0;
#X obj 135 179 / 127;
#X obj 179 274 outlet;
#X obj 166 247 list prepend matrix 3 2;
#X obj 212 231 pack 0 0 0 0 0 0;
#X obj 171 179 / 127;
#X obj 207 180 / 127;
#X obj 244 180 / 127;
#X obj 280 178 / 127;
#X obj 314 180 / 127;
#X obj 300 272 list trim;
#X connect 0 0 1 0;
#X connect 1 1 2 0;
#X connect 2 0 3 0;
#X connect 2 1 7 0;
#X connect 2 2 8 0;
#X connect 2 3 9 0;
#X connect 2 4 10 0;
#X connect 2 5 11 0;
#X connect 3 0 6 0;
#X connect 5 0 12 0;
#X connect 6 0 5 0;
#X connect 7 0 6 1;
#X connect 8 0 6 2;
#X connect 9 0 6 3;
#X connect 10 0 6 4;
#X connect 11 0 6 5;
#X connect 12 0 4 0;
#X restore 1110 313 pd div;
#N canvas 553 387 450 300 div 0;
#X obj 132 66 inlet;
#X obj 140 104 list split 3;
#X obj 141 159 unpack 0 0 0 0 0 0;
#X obj 135 179 / 127;
#X obj 179 274 outlet;
#X obj 166 247 list prepend matrix 3 2;
#X obj 212 231 pack 0 0 0 0 0 0;
#X obj 171 179 / 127;
#X obj 207 180 / 127;
#X obj 244 180 / 127;
#X obj 280 178 / 127;
#X obj 314 180 / 127;
#X obj 300 272 list trim;
#X connect 0 0 1 0;
#X connect 1 1 2 0;
#X connect 2 0 3 0;
#X connect 2 1 7 0;
#X connect 2 2 8 0;
#X connect 2 3 9 0;
#X connect 2 4 10 0;
#X connect 2 5 11 0;
#X connect 3 0 6 0;
#X connect 5 0 12 0;
#X connect 6 0 5 0;
#X connect 7 0 6 1;
#X connect 8 0 6 2;
#X connect 9 0 6 3;
#X connect 10 0 6 4;
#X connect 11 0 6 5;
#X connect 12 0 4 0;
#X restore 1270 315 pd div;
#N canvas 553 387 450 300 div 0;
#X obj 132 66 inlet;
#X obj 140 104 list split 3;
#X obj 141 159 unpack 0 0 0 0 0 0;
#X obj 135 179 / 127;
#X obj 179 274 outlet;
#X obj 166 247 list prepend matrix 3 2;
#X obj 212 231 pack 0 0 0 0 0 0;
#X obj 171 179 / 127;
#X obj 207 180 / 127;
#X obj 244 180 / 127;
#X obj 280 178 / 127;
#X obj 314 180 / 127;
#X obj 300 272 list trim;
#X connect 0 0 1 0;
#X connect 1 1 2 0;
#X connect 2 0 3 0;
#X connect 2 1 7 0;
#X connect 2 2 8 0;
#X connect 2 3 9 0;
#X connect 2 4 10 0;
#X connect 2 5 11 0;
#X connect 3 0 6 0;
#X connect 5 0 12 0;
#X connect 6 0 5 0;
#X connect 7 0 6 1;
#X connect 8 0 6 2;
#X connect 9 0 6 3;
#X connect 10 0 6 4;
#X connect 11 0 6 5;
#X connect 12 0 4 0;
#X restore 1425 316 pd div;
#N canvas 553 387 450 300 div 0;
#X obj 132 66 inlet;
#X obj 140 104 list split 3;
#X obj 141 159 unpack 0 0 0 0 0 0;
#X obj 135 179 / 127;
#X obj 179 274 outlet;
#X obj 166 247 list prepend matrix 3 2;
#X obj 212 231 pack 0 0 0 0 0 0;
#X obj 171 179 / 127;
#X obj 207 180 / 127;
#X obj 244 180 / 127;
#X obj 280 178 / 127;
#X obj 314 180 / 127;
#X obj 300 272 list trim;
#X connect 0 0 1 0;
#X connect 1 1 2 0;
#X connect 2 0 3 0;
#X connect 2 1 7 0;
#X connect 2 2 8 0;
#X connect 2 3 9 0;
#X connect 2 4 10 0;
#X connect 2 5 11 0;
#X connect 3 0 6 0;
#X connect 5 0 12 0;
#X connect 6 0 5 0;
#X connect 7 0 6 1;
#X connect 8 0 6 2;
#X connect 9 0 6 3;
#X connect 10 0 6 4;
#X connect 11 0 6 5;
#X connect 12 0 4 0;
#X restore 1584 316 pd div;
#X obj 548 49 vsl 16 136 0 127 0 0 empty empty empty 0 -9 0 10 #fcfcfc #000000 #000000 0 1;
#X obj 568 49 vsl 16 136 0 127 0 0 empty empty empty 0 -9 0 10 #fcfcfc #000000 #000000 0 1;
#X obj 588 49 vsl 16 136 0 127 0 0 empty empty empty 0 -9 0 10 #fcfcfc #000000 #000000 0 1;
#X obj 608 49 vsl 16 136 0 127 0 0 empty empty empty 0 -9 0 10 #fcfcfc #000000 #000000 0 1;
#X obj 628 49 vsl 16 136 0 127 0 0 empty empty empty 0 -9 0 10 #fcfcfc #000000 #000000 0 1;
#X obj 648 49 vsl 16 136 0 127 0 0 empty empty empty 0 -9 0 10 #fcfcfc #000000 #000000 0 1;
#X text 1514 267 selfie and things;
#X obj 1523 204 tgl 150 0 goo empty empty 0 -8 0 10 #fcfcfc #000000 #000000 0 1;
#X obj 1766 554 r goo;
#X obj 1768 591 tgl 16 0 empty empty empty 0 -8 0 10 #fcfcfc #000000 #000000 0 1;
#X obj 300 -63 mtx_reverse;
#X obj 734 357 iemmatrix/mtx_plot;
#N canvas 553 387 450 300 div 0;
#X obj 132 66 inlet;
#X obj 140 104 list split 3;
#X obj 141 159 unpack 0 0 0 0 0 0;
#X obj 135 179 / 127;
#X obj 179 274 outlet;
#X obj 166 247 list prepend matrix 3 2;
#X obj 212 231 pack 0 0 0 0 0 0;
#X obj 171 179 / 127;
#X obj 207 180 / 127;
#X obj 244 180 / 127;
#X obj 280 178 / 127;
#X obj 314 180 / 127;
#X obj 300 272 list trim;
#X connect 0 0 1 0;
#X connect 1 1 2 0;
#X connect 2 0 3 0;
#X connect 2 1 7 0;
#X connect 2 2 8 0;
#X connect 2 3 9 0;
#X connect 2 4 10 0;
#X connect 2 5 11 0;
#X connect 3 0 6 0;
#X connect 5 0 12 0;
#X connect 6 0 5 0;
#X connect 7 0 6 1;
#X connect 8 0 6 2;
#X connect 9 0 6 3;
#X connect 10 0 6 4;
#X connect 11 0 6 5;
#X connect 12 0 4 0;
#X restore 811 69 pd div;
#X obj 736 337 mtx_reverse;
#X obj 889 356 iemmatrix/mtx_plot;
#X obj 891 336 mtx_reverse;
#X obj 1049 357 iemmatrix/mtx_plot;
#X obj 1051 337 mtx_reverse;
#X obj 1204 356 iemmatrix/mtx_plot;
#X obj 1206 336 mtx_reverse;
#X obj 1366 357 iemmatrix/mtx_plot;
#X obj 1368 337 mtx_reverse;
#X obj 1521 356 iemmatrix/mtx_plot;
#X obj 1523 336 mtx_reverse;
#X msg 341 9 420;
#X msg 395 62 345;
#X obj 342 59 / 2;
#X floatatom 341 84 5 0 0 0 - - - 0;
#X connect 2 0 102 0;
#X connect 2 0 172 0;
#X connect 2 0 174 0;
#X connect 2 0 176 0;
#X connect 2 0 180 0;
#X connect 2 0 170 0;
#X connect 2 0 434 0;
#X connect 2 1 3 0;
#X connect 5 0 13 3;
#X connect 5 0 169 0;
#X connect 6 0 13 0;
#X connect 7 0 6 0;
#X connect 8 0 7 0;
#X connect 9 0 2 0;
#X connect 9 0 412 0;
#X connect 10 0 23 0;
#X connect 10 0 107 0;
#X connect 10 0 413 0;
#X connect 11 0 13 4;
#X connect 11 0 169 1;
#X connect 12 0 13 8;
#X connect 12 0 169 5;
#X connect 13 0 9 0;
#X connect 13 0 21 0;
#X connect 13 0 194 0;
#X connect 14 0 22 0;
#X connect 14 0 110 0;
#X connect 14 0 415 0;
#X connect 15 0 199 0;
#X connect 16 0 199 1;
#X connect 17 0 199 2;
#X connect 18 0 199 3;
#X connect 19 0 199 4;
#X connect 20 0 199 5;
#X connect 21 1 59 0;
#X connect 21 1 25 0;
#X connect 22 1 32 0;
#X connect 22 1 80 0;
#X connect 22 1 123 0;
#X connect 23 1 39 0;
#X connect 23 1 66 0;
#X connect 23 1 122 0;
#X connect 24 1 46 0;
#X connect 24 1 73 0;
#X connect 24 1 121 0;
#X connect 25 0 15 0;
#X connect 25 1 16 0;
#X connect 25 2 17 0;
#X connect 25 3 18 0;
#X connect 25 4 19 0;
#X connect 25 5 20 0;
#X connect 26 0 211 0;
#X connect 27 0 211 1;
#X connect 28 0 211 2;
#X connect 29 0 211 3;
#X connect 30 0 211 4;
#X connect 31 0 211 5;
#X connect 32 0 26 0;
#X connect 32 1 27 0;
#X connect 32 2 28 0;
#X connect 32 3 29 0;
#X connect 32 4 30 0;
#X connect 32 5 31 0;
#X connect 33 0 203 0;
#X connect 34 0 203 1;
#X connect 35 0 203 2;
#X connect 36 0 203 3;
#X connect 37 0 203 4;
#X connect 38 0 203 5;
#X connect 39 0 33 0;
#X connect 39 1 34 0;
#X connect 39 2 35 0;
#X connect 39 3 36 0;
#X connect 39 4 37 0;
#X connect 39 5 38 0;
#X connect 40 0 207 0;
#X connect 41 0 207 1;
#X connect 42 0 207 2;
#X connect 43 0 207 3;
#X connect 44 0 207 4;
#X connect 45 0 207 5;
#X connect 46 0 40 0;
#X connect 46 1 41 0;
#X connect 46 2 42 0;
#X connect 46 3 43 0;
#X connect 46 4 44 0;
#X connect 46 5 45 0;
#X connect 47 0 24 0;
#X connect 47 0 111 0;
#X connect 47 0 414 0;
#X connect 48 1 55 0;
#X connect 48 1 87 0;
#X connect 48 1 166 0;
#X connect 49 0 215 0;
#X connect 50 0 215 1;
#X connect 51 0 215 2;
#X connect 52 0 215 3;
#X connect 53 0 215 4;
#X connect 54 0 215 5;
#X connect 55 0 49 0;
#X connect 55 1 50 0;
#X connect 55 2 51 0;
#X connect 55 3 52 0;
#X connect 55 4 53 0;
#X connect 55 5 54 0;
#X connect 56 0 48 0;
#X connect 56 0 115 0;
#X connect 56 0 416 0;
#X connect 57 1 94 0;
#X connect 57 1 167 0;
#X connect 57 1 225 0;
#X connect 58 0 57 0;
#X connect 58 0 114 0;
#X connect 58 0 387 0;
#X connect 59 0 60 0;
#X connect 59 1 61 0;
#X connect 59 2 62 0;
#X connect 59 3 63 0;
#X connect 59 4 64 0;
#X connect 59 5 65 0;
#X connect 59 7 408 0;
#X connect 60 0 230 0;
#X connect 61 0 230 1;
#X connect 62 0 230 2;
#X connect 63 0 230 3;
#X connect 64 0 230 4;
#X connect 65 0 230 5;
#X connect 66 0 67 0;
#X connect 66 1 68 0;
#X connect 66 2 69 0;
#X connect 66 3 70 0;
#X connect 66 4 71 0;
#X connect 66 5 72 0;
#X connect 66 7 406 0;
#X connect 67 0 234 0;
#X connect 68 0 234 1;
#X connect 69 0 234 2;
#X connect 70 0 234 3;
#X connect 71 0 234 4;
#X connect 72 0 234 5;
#X connect 73 0 74 0;
#X connect 73 1 75 0;
#X connect 73 2 76 0;
#X connect 73 3 77 0;
#X connect 73 4 78 0;
#X connect 73 5 79 0;
#X connect 73 7 404 0;
#X connect 74 0 238 0;
#X connect 75 0 238 1;
#X connect 76 0 238 2;
#X connect 77 0 238 3;
#X connect 78 0 238 4;
#X connect 79 0 238 5;
#X connect 80 0 81 0;
#X connect 80 1 82 0;
#X connect 80 2 83 0;
#X connect 80 3 84 0;
#X connect 80 4 85 0;
#X connect 80 5 86 0;
#X connect 80 7 402 0;
#X connect 81 0 242 0;
#X connect 82 0 242 1;
#X connect 83 0 242 2;
#X connect 84 0 242 3;
#X connect 85 0 242 4;
#X connect 86 0 242 5;
#X connect 87 0 88 0;
#X connect 87 1 89 0;
#X connect 87 2 90 0;
#X connect 87 3 91 0;
#X connect 87 4 92 0;
#X connect 87 5 93 0;
#X connect 87 7 400 0;
#X connect 88 0 246 0;
#X connect 89 0 246 1;
#X connect 90 0 246 2;
#X connect 91 0 246 3;
#X connect 92 0 246 4;
#X connect 93 0 246 5;
#X connect 94 0 95 0;
#X connect 94 1 96 0;
#X connect 94 2 97 0;
#X connect 94 3 98 0;
#X connect 94 4 99 0;
#X connect 94 5 100 0;
#X connect 94 7 398 0;
#X connect 95 0 250 0;
#X connect 96 0 250 1;
#X connect 97 0 250 2;
#X connect 98 0 250 3;
#X connect 99 0 250 4;
#X connect 100 0 250 5;
#X connect 101 1 116 0;
#X connect 101 1 124 0;
#X connect 101 1 260 0;
#X connect 102 0 101 0;
#X connect 102 0 195 0;
#X connect 102 0 375 0;
#X connect 103 0 13 5;
#X connect 103 0 169 2;
#X connect 104 0 13 6;
#X connect 104 0 169 3;
#X connect 105 0 13 7;
#X connect 105 0 169 4;
#X connect 106 1 117 0;
#X connect 106 1 131 0;
#X connect 106 1 274 0;
#X connect 107 0 106 0;
#X connect 107 0 355 0;
#X connect 108 1 118 0;
#X connect 108 1 138 0;
#X connect 108 1 281 0;
#X connect 109 1 119 0;
#X connect 109 1 145 0;
#X connect 109 1 267 0;
#X connect 110 0 109 0;
#X connect 110 0 351 0;
#X connect 111 0 108 0;
#X connect 111 0 353 0;
#X connect 112 1 120 0;
#X connect 112 1 152 0;
#X connect 112 1 288 0;
#X connect 113 1 159 0;
#X connect 113 1 315 0;
#X connect 113 1 348 0;
#X connect 114 0 113 0;
#X connect 114 0 346 0;
#X connect 115 0 112 0;
#X connect 115 0 349 0;
#X connect 124 0 125 0;
#X connect 124 1 126 0;
#X connect 124 2 127 0;
#X connect 124 3 128 0;
#X connect 124 4 129 0;
#X connect 124 5 130 0;
#X connect 124 7 369 0;
#X connect 125 0 320 0;
#X connect 126 0 320 1;
#X connect 127 0 320 2;
#X connect 128 0 320 3;
#X connect 129 0 320 4;
#X connect 130 0 320 5;
#X connect 131 0 132 0;
#X connect 131 1 133 0;
#X connect 131 2 134 0;
#X connect 131 3 135 0;
#X connect 131 4 136 0;
#X connect 131 5 137 0;
#X connect 131 7 367 0;
#X connect 132 0 324 0;
#X connect 133 0 324 1;
#X connect 134 0 324 2;
#X connect 135 0 324 3;
#X connect 136 0 324 4;
#X connect 137 0 324 5;
#X connect 138 0 139 0;
#X connect 138 1 140 0;
#X connect 138 2 141 0;
#X connect 138 3 142 0;
#X connect 138 4 143 0;
#X connect 138 5 144 0;
#X connect 138 7 365 0;
#X connect 139 0 328 0;
#X connect 140 0 328 1;
#X connect 141 0 328 2;
#X connect 142 0 328 3;
#X connect 143 0 328 4;
#X connect 144 0 328 5;
#X connect 145 0 146 0;
#X connect 145 1 147 0;
#X connect 145 2 148 0;
#X connect 145 3 149 0;
#X connect 145 4 150 0;
#X connect 145 5 151 0;
#X connect 145 7 363 0;
#X connect 146 0 332 0;
#X connect 147 0 332 1;
#X connect 148 0 332 2;
#X connect 149 0 332 3;
#X connect 150 0 332 4;
#X connect 151 0 332 5;
#X connect 152 0 153 0;
#X connect 152 1 154 0;
#X connect 152 2 155 0;
#X connect 152 3 156 0;
#X connect 152 4 157 0;
#X connect 152 5 158 0;
#X connect 152 7 361 0;
#X connect 153 0 336 0;
#X connect 154 0 336 1;
#X connect 155 0 336 2;
#X connect 156 0 336 3;
#X connect 157 0 336 4;
#X connect 158 0 336 5;
#X connect 159 0 160 0;
#X connect 159 1 161 0;
#X connect 159 2 162 0;
#X connect 159 3 163 0;
#X connect 159 4 164 0;
#X connect 159 5 165 0;
#X connect 159 7 359 0;
#X connect 160 0 340 0;
#X connect 161 0 340 1;
#X connect 162 0 340 2;
#X connect 163 0 340 3;
#X connect 164 0 340 4;
#X connect 165 0 340 5;
#X connect 170 0 10 0;
#X connect 171 0 170 1;
#X connect 172 0 47 0;
#X connect 173 0 172 1;
#X connect 174 0 14 0;
#X connect 175 0 174 1;
#X connect 176 0 178 0;
#X connect 177 0 176 1;
#X connect 178 0 56 0;
#X connect 179 0 58 0;
#X connect 180 0 179 0;
#X connect 181 0 180 1;
#X connect 182 0 186 0;
#X connect 183 0 373 0;
#X connect 184 0 183 0;
#X connect 185 0 182 0;
#X connect 186 0 184 0;
#X connect 187 0 182 0;
#X connect 188 0 182 0;
#X connect 189 0 182 0;
#X connect 190 0 182 0;
#X connect 198 0 196 0;
#X connect 199 0 200 0;
#X connect 200 0 201 0;
#X connect 202 0 200 1;
#X connect 203 0 204 0;
#X connect 204 0 205 0;
#X connect 206 0 204 1;
#X connect 207 0 208 0;
#X connect 208 0 209 0;
#X connect 210 0 208 1;
#X connect 211 0 212 0;
#X connect 212 0 213 0;
#X connect 214 0 212 1;
#X connect 215 0 216 0;
#X connect 216 0 217 0;
#X connect 218 0 216 1;
#X connect 219 0 226 0;
#X connect 220 0 226 1;
#X connect 221 0 226 2;
#X connect 222 0 226 3;
#X connect 223 0 226 4;
#X connect 224 0 226 5;
#X connect 225 0 219 0;
#X connect 225 1 220 0;
#X connect 225 2 221 0;
#X connect 225 3 222 0;
#X connect 225 4 223 0;
#X connect 225 5 224 0;
#X connect 226 0 227 0;
#X connect 227 0 228 0;
#X connect 229 0 227 1;
#X connect 230 0 231 0;
#X connect 231 0 232 0;
#X connect 233 0 231 1;
#X connect 234 0 235 0;
#X connect 235 0 236 0;
#X connect 237 0 235 1;
#X connect 238 0 239 0;
#X connect 239 0 240 0;
#X connect 241 0 239 1;
#X connect 242 0 243 0;
#X connect 243 0 244 0;
#X connect 245 0 243 1;
#X connect 246 0 247 0;
#X connect 247 0 248 0;
#X connect 249 0 247 1;
#X connect 250 0 251 0;
#X connect 251 0 252 0;
#X connect 253 0 251 1;
#X connect 254 0 289 0;
#X connect 255 0 289 1;
#X connect 256 0 289 2;
#X connect 257 0 289 3;
#X connect 258 0 289 4;
#X connect 259 0 289 5;
#X connect 260 0 254 0;
#X connect 260 1 255 0;
#X connect 260 2 256 0;
#X connect 260 3 257 0;
#X connect 260 4 258 0;
#X connect 260 5 259 0;
#X connect 261 0 301 0;
#X connect 262 0 301 1;
#X connect 263 0 301 2;
#X connect 264 0 301 3;
#X connect 265 0 301 4;
#X connect 266 0 301 5;
#X connect 267 0 261 0;
#X connect 267 1 262 0;
#X connect 267 2 263 0;
#X connect 267 3 264 0;
#X connect 267 4 265 0;
#X connect 267 5 266 0;
#X connect 268 0 293 0;
#X connect 269 0 293 1;
#X connect 270 0 293 2;
#X connect 271 0 293 3;
#X connect 272 0 293 4;
#X connect 273 0 293 5;
#X connect 274 0 268 0;
#X connect 274 1 269 0;
#X connect 274 2 270 0;
#X connect 274 3 271 0;
#X connect 274 4 272 0;
#X connect 274 5 273 0;
#X connect 275 0 297 0;
#X connect 276 0 297 1;
#X connect 277 0 297 2;
#X connect 278 0 297 3;
#X connect 279 0 297 4;
#X connect 280 0 297 5;
#X connect 281 0 275 0;
#X connect 281 1 276 0;
#X connect 281 2 277 0;
#X connect 281 3 278 0;
#X connect 281 4 279 0;
#X connect 281 5 280 0;
#X connect 282 0 305 0;
#X connect 283 0 305 1;
#X connect 284 0 305 2;
#X connect 285 0 305 3;
#X connect 286 0 305 4;
#X connect 287 0 305 5;
#X connect 288 0 282 0;
#X connect 288 1 283 0;
#X connect 288 2 284 0;
#X connect 288 3 285 0;
#X connect 288 4 286 0;
#X connect 288 5 287 0;
#X connect 289 0 290 0;
#X connect 290 0 291 0;
#X connect 292 0 290 1;
#X connect 293 0 294 0;
#X connect 294 0 295 0;
#X connect 296 0 294 1;
#X connect 297 0 298 0;
#X connect 298 0 299 0;
#X connect 300 0 298 1;
#X connect 301 0 302 0;
#X connect 302 0 303 0;
#X connect 304 0 302 1;
#X connect 305 0 306 0;
#X connect 306 0 307 0;
#X connect 308 0 306 1;
#X connect 309 0 316 0;
#X connect 310 0 316 1;
#X connect 311 0 316 2;
#X connect 312 0 316 3;
#X connect 313 0 316 4;
#X connect 314 0 316 5;
#X connect 315 0 309 0;
#X connect 315 1 310 0;
#X connect 315 2 311 0;
#X connect 315 3 312 0;
#X connect 315 4 313 0;
#X connect 315 5 314 0;
#X connect 316 0 317 0;
#X connect 317 0 318 0;
#X connect 319 0 317 1;
#X connect 320 0 321 0;
#X connect 321 0 322 0;
#X connect 323 0 321 1;
#X connect 324 0 325 0;
#X connect 325 0 326 0;
#X connect 327 0 325 1;
#X connect 328 0 329 0;
#X connect 329 0 330 0;
#X connect 331 0 329 1;
#X connect 332 0 333 0;
#X connect 333 0 334 0;
#X connect 335 0 333 1;
#X connect 336 0 337 0;
#X connect 337 0 338 0;
#X connect 339 0 337 1;
#X connect 340 0 341 0;
#X connect 341 0 342 0;
#X connect 343 0 341 1;
#X connect 344 0 197 0;
#X connect 346 0 380 0;
#X connect 349 0 379 0;
#X connect 351 0 378 0;
#X connect 353 0 377 0;
#X connect 355 0 376 0;
#X connect 357 0 358 0;
#X connect 359 0 386 0;
#X connect 361 0 385 0;
#X connect 363 0 384 0;
#X connect 365 0 383 0;
#X connect 367 0 382 0;
#X connect 369 0 381 0;
#X connect 371 0 358 0;
#X connect 371 0 356 0;
#X connect 371 0 354 0;
#X connect 371 0 352 0;
#X connect 371 0 350 0;
#X connect 371 0 347 0;
#X connect 371 0 360 0;
#X connect 371 0 362 0;
#X connect 371 0 366 0;
#X connect 371 0 368 0;
#X connect 371 0 370 0;
#X connect 371 0 364 0;
#X connect 372 0 371 0;
#X connect 374 0 182 0;
#X connect 375 0 357 0;
#X connect 376 0 356 0;
#X connect 377 0 354 0;
#X connect 378 0 352 0;
#X connect 379 0 350 0;
#X connect 380 0 347 0;
#X connect 381 0 370 0;
#X connect 382 0 368 0;
#X connect 383 0 366 0;
#X connect 384 0 364 0;
#X connect 385 0 362 0;
#X connect 386 0 360 0;
#X connect 387 0 417 0;
#X connect 389 0 416 0;
#X connect 391 0 415 0;
#X connect 393 0 414 0;
#X connect 396 0 397 0;
#X connect 396 0 437 0;
#X connect 398 0 423 0;
#X connect 400 0 422 0;
#X connect 402 0 421 0;
#X connect 404 0 420 0;
#X connect 406 0 419 0;
#X connect 408 0 418 0;
#X connect 410 0 397 0;
#X connect 410 0 395 0;
#X connect 410 0 394 0;
#X connect 410 0 392 0;
#X connect 410 0 390 0;
#X connect 410 0 388 0;
#X connect 410 0 399 0;
#X connect 410 0 401 0;
#X connect 410 0 405 0;
#X connect 410 0 407 0;
#X connect 410 0 409 0;
#X connect 410 0 403 0;
#X connect 411 0 410 0;
#X connect 411 0 435 0;
#X connect 411 0 438 0;
#X connect 411 0 440 0;
#X connect 411 0 442 0;
#X connect 411 0 444 0;
#X connect 411 0 446 0;
#X connect 412 0 396 0;
#X connect 413 0 395 0;
#X connect 413 0 439 0;
#X connect 414 0 394 0;
#X connect 414 0 441 0;
#X connect 415 0 392 0;
#X connect 415 0 443 0;
#X connect 416 0 390 0;
#X connect 416 0 445 0;
#X connect 417 0 388 0;
#X connect 417 0 447 0;
#X connect 418 0 409 0;
#X connect 419 0 407 0;
#X connect 420 0 405 0;
#X connect 421 0 403 0;
#X connect 422 0 401 0;
#X connect 423 0 399 0;
#X connect 424 0 13 3;
#X connect 425 0 13 4;
#X connect 426 0 13 5;
#X connect 427 0 13 6;
#X connect 428 0 13 7;
#X connect 429 0 13 8;
#X connect 432 0 433 0;
#X connect 437 0 435 0;
#X connect 439 0 438 0;
#X connect 441 0 440 0;
#X connect 443 0 442 0;
#X connect 445 0 444 0;
#X connect 447 0 446 0;
#X connect 448 0 450 0;
#X connect 449 0 450 0;
#X connect 450 0 451 0;
