#N canvas 0 25 1126 776 10;
#X declare -stdpath ./;
#X obj 317 692 dac~;
#X obj 1067 394 + 20;
#X obj 1055 349 random 100;
#X obj 1142 393 + 20;
#X obj 1121 350 random 100;
#X obj 1053 607 soundfiler;
#X obj 1050 650 tabplay~ one;
#X obj 1122 607 table one;
#X msg 1053 629 bang;
#X obj 1052 561 loadbang;
#X obj 1049 736 dac~;
#X obj 1243 604 soundfiler;
#X msg 1243 626 bang;
#X obj 1242 558 loadbang;
#X obj 1235 736 dac~;
#X obj 1312 604 table two;
#X obj 1240 647 tabplay~ two;
#X msg 1052 585 read -resize k.wav one;
#X msg 1242 581 read -resize s.wav two;
#X obj 296 527 vcf~;
#X obj 314 571 sig~;
#X floatatom 314 550 5 0 0 0 - - - 0;
#X floatatom 361 571 5 0 0 0 - - - 0;
#X obj 297 598 vcf~ 1;
#X obj 464 368 hsl 128 15 800 8000 0 0 empty empty empty -2 -8 0 10 #fcfcfc #000000 #000000 0 1;
#X msg 344 554 7;
#X obj 341 527 loadbang;
#X obj 1231 294 spigot;
#X obj 702 579 *~;
#X obj 761 556 tgl 15 0 empty empty empty 17 7 0 10 #fcfcfc #000000 #000000 0 1;
#X obj 1226 432 + 20;
#X obj 1205 389 random 30;
#X obj 777 478 * 1;
#X obj 508 517 tgl 15 0 empty empty empty 17 7 0 10 #fcfcfc #000000 #000000 0 1;
#X obj 549 518 tgl 15 0 empty empty empty 17 7 0 10 #fcfcfc #000000 #000000 0 1;
#X obj 547 499 < 5800;
#X obj 524 533 +;
#X msg 548 556 \$1;
#X floatatom 584 560 5 0 0 0 - - - 0;
#X obj 572 516 sel 0;
#X msg 612 515 0;
#X obj 640 547 t f;
#X obj 750 457 line;
#X obj 748 440 \$1 \$1;
#X obj 806 403 loadbang;
#X floatatom 353 651 5 0 0 0 - - - 0;
#X obj 506 498 > 900;
#X msg 1276 315 119;
#X obj 1292 351 - 44.5;
#X floatatom 1292 378 5 0 0 0 - - - 0;
#X msg 1301 426 74.5;
#X obj 124 544 vsl 15 128 0 4 0 0 empty empty empty 0 -9 0 10 #fcfcfc #000000 #000000 0 1;
#X obj 124 688 int;
#X text 739 909 800 - 6000;
#X obj 753 961 r rightx;
#X obj 751 989 / 4096;
#X obj 751 1060 + 800;
#X obj 659 1038 / 4096;
#N canvas 110 54 1313 766 tether 0;
#X floatatom 37 449 5 0 0 0 - - - 0;
#X floatatom 93 449 5 0 0 0 - - - 0;
#X floatatom 73 405 6 0 0 0 - - - 0;
#X obj 201 174 tgl 35 0 empty empty empty 0 -6 0 8 #14e814 #000000 #000000 0 25;
#X floatatom 581 350 12 0 0 1 value - - 0;
#X symbolatom 541 366 15 0 0 1 event_code - - 0;
#X symbolatom 502 382 15 0 0 1 event_type - - 0;
#X obj 12 12 cnv 15 700 20 empty empty hid 2 11 1 18 #e0e0e0 #404040 0;
#X text 284 342 outlet message format:;
#X floatatom 148 353 5 0 0 1 ev_syn - - 0;
#X obj 121 352 +;
#X msg 121 332 1;
#X msg 384 150 close;
#X msg 384 129 refresh;
#X text 445 127 refresh device list;
#X text 432 543 released under the GNU GPL;
#X msg 446 211 poll 20;
#X msg 384 211 poll 2;
#X text 380 196 start polling and set the poll delay in ms;
#X text 366 43 !!! This software is very much alpha \, so any aspect of it could change without notice !!!;
#X obj 26 301 route key rel abs syn;
#X obj 19 512 tgl 25 0 empty empty empty 0 -6 0 8 #bcbcbc #000000 #000000 0 1;
#N canvas 278 328 631 544 Event_Codes 0;
#X text 28 48 (For a complete listing of Linux Input Events \, see /usr/include/linux/input.h.);
#X obj 11 9 cnv 15 580 30 empty empty Event_Codes 20 12 1 14 #d8fcd8 #404040 0;
#X text 32 118 EVENT CODE;
#X text 162 118 #define;
#X text 232 118 number;
#X text 32 133 -----------------------------------;
#X text 32 148 X Axis;
#X text 32 163 Y Axis;
#X text 32 178 Z Axis;
#X text 32 193 Horizontal Wheel;
#X text 32 208 Dial;
#X text 32 223 Wheel;
#X text 32 238 Misc;
#X text 162 148 REL_X;
#X text 162 163 REL_Y;
#X text 162 178 REL_Z;
#X text 162 193 REL_HWHEEL;
#X text 162 208 REL_DIAL;
#X text 162 223 REL_WHEEL;
#X text 162 238 REL_MISC;
#X text 247 148 0;
#X text 247 163 1;
#X text 247 178 2;
#X text 247 193 6;
#X text 247 208 7;
#X text 247 223 8;
#X text 247 238 9;
#X text 307 118 EVENT CODE;
#X text 457 118 #define;
#X text 547 118 number;
#X text 307 148 Absolute X;
#X text 307 163 Absolute Y;
#X text 307 178 Absolute Z;
#X text 307 193 RX;
#X text 307 208 RY;
#X text 307 223 RZ;
#X text 307 238 Throttle;
#X text 307 253 Rudder;
#X text 307 268 Wheel;
#X text 307 283 Gas Pedal;
#X text 307 298 Brake Pedal;
#X text 307 313 Hat Switch 0 X-axis;
#X text 307 328 Hat Switch 0 Y-axis;
#X text 307 343 Hat Switch 1 X-axis;
#X text 307 358 Hat Switch 1 Y-axis;
#X text 307 373 Hat Switch 2 X-axis;
#X text 307 388 Hat Switch 2 Y-axis;
#X text 307 403 Hat Switch 3 X-axis;
#X text 307 418 Hat Switch 3 Y-axis;
#X text 307 433 Pressure;
#X text 307 448 Distance;
#X text 307 463 Tilt X-Axis;
#X text 307 478 Tilt Y-Axis;
#X text 307 493 Misc;
#X text 457 148 ABS_X;
#X text 457 163 ABS_Y;
#X text 457 178 ABS_Z;
#X text 457 193 ABS_RX;
#X text 457 208 ABS_RY;
#X text 457 223 ABS_RZ;
#X text 457 238 ABS_THROTTLE;
#X text 457 253 ABS_RUDDER;
#X text 457 268 ABS_WHEEL;
#X text 457 283 ABS_GAS;
#X text 457 298 ABS_BRAKE;
#X text 457 313 ABS_HAT0X;
#X text 457 328 ABS_HAT0Y;
#X text 457 343 ABS_HAT1X;
#X text 457 358 ABS_HAT1Y;
#X text 457 373 ABS_HAT2X;
#X text 457 388 ABS_HAT2Y;
#X text 457 403 ABS_HAT3X;
#X text 457 418 ABS_HAT3Y;
#X text 457 433 ABS_PRESSURE;
#X text 457 448 ABS_DISTANCE;
#X text 457 463 ABS_TILT_X;
#X text 457 478 ABS_TILT_Y;
#X text 457 493 ABS_MISC;
#X text 563 148 0;
#X text 563 163 1;
#X text 563 178 2;
#X text 563 193 3;
#X text 563 208 4;
#X text 563 223 5;
#X text 563 238 6;
#X text 563 253 7;
#X text 563 268 8;
#X text 563 283 9;
#X text 563 298 10;
#X text 563 313 16;
#X text 563 328 17;
#X text 563 343 18;
#X text 563 358 19;
#X text 563 373 20;
#X text 563 388 21;
#X text 563 403 22;
#X text 563 418 23;
#X text 563 433 24;
#X text 563 448 25;
#X text 563 463 26;
#X text 563 478 27;
#X text 563 493 28;
#X obj 30 89 cnv 15 250 25 empty empty Relative_Axes 20 12 1 12 #e8fcec #404040 0;
#X obj 308 89 cnv 15 280 25 empty empty Absolute_Axes 20 12 1 12 #e8fcec #404040 0;
#X text 307 133 ----------------------------------------;
#X text 32 285 EVENT CODE;
#X text 138 285 #define;
#X text 232 285 number;
#X text 32 300 -----------------------------------;
#X obj 30 256 cnv 15 250 25 empty empty Joystick_Buttons 20 12 1 12 #e8fcec #404040 0;
#X text 138 315 BTN_TRIGGER;
#X text 32 315 Trigger;
#X text 32 330 Thumb;
#X text 32 345 Thumb 2;
#X text 32 360 Top;
#X text 32 375 Top 2;
#X text 32 390 Pinkie;
#X text 32 405 Base 1;
#X text 138 404 BTN_BASE;
#X text 138 330 BTN_THUMB;
#X text 138 345 BTN_THUMB2;
#X text 138 360 BTN_TOP;
#X text 138 375 BTN_TOP2;
#X text 138 390 BTN_PINKIE;
#X text 245 315 288;
#X text 245 330 289;
#X text 245 345 290;
#X text 245 360 291;
#X text 245 375 292;
#X text 245 390 293;
#X text 245 405 294;
#X text 245 419 295;
#X text 245 434 296;
#X text 245 448 297;
#X text 138 418 BTN_BASE2;
#X text 138 433 BTN_BASE3;
#X text 138 447 BTN_BASE4;
#X text 32 419 Base 2;
#X text 32 434 Base 3;
#X text 32 448 Base 4;
#X text 32 463 Base 5;
#X text 32 477 Base 6;
#X text 138 462 BTN_BASE5;
#X text 138 476 BTN_BASE6;
#X text 245 463 298;
#X text 245 477 299;
#X restore 603 101 pd Event_Codes;
#N canvas 50 289 469 317 Event_Types 0;
#X text 28 48 (For a complete listing of Linux Input Events \, see /usr/include/linux/input.h.);
#X text 61 90 EVENT TYPE;
#X text 61 135 Keys and Buttons;
#X text 61 150 Relative Axes;
#X text 61 165 Absolute Axes;
#X text 61 180 Misc Events;
#X text 61 195 LED Event;
#X text 61 210 Sounds;
#X text 61 225 Autorepeat Values;
#X text 61 240 Force Feedback;
#X text 230 90 #define;
#X text 230 135 EV_KEY;
#X text 230 150 EV_REL;
#X text 230 165 EV_ABS;
#X text 230 180 EV_MSC;
#X text 230 195 EV_LED;
#X text 230 210 EV_SND;
#X text 230 225 EV_REP;
#X text 230 240 EV_FF;
#X text 315 90 number;
#X text 331 120 0;
#X text 331 135 1;
#X text 331 150 2;
#X text 331 165 3;
#X text 331 180 4;
#X text 331 195 17;
#X text 331 210 18;
#X text 331 225 20;
#X text 331 240 21;
#X obj 11 9 cnv 15 400 30 empty empty Event_Types 20 12 1 14 #fcfcc8 #404040 0;
#X text 230 120 EV_SYN;
#X text 61 270 Force Feedback Status;
#X text 61 120 Syncronization Events;
#X text 230 270 EV_FF_STATUS;
#X text 331 270 23;
#X text 61 105 -------------------------------------------;
#X text 331 255 22;
#X text 230 255 EV_PWR;
#X text 61 255 Power Events (for UPS);
#X msg 37 37;
#X msg 37 37;
#X restore 603 81 pd Event_Types;
#N canvas 0 22 450 300 Event_Values 0;
#X text 28 48 (For a complete listing of Linux Input Events \, see /usr/include/linux/input.h.);
#X obj 11 9 cnv 15 400 30 empty empty Event_Values 20 12 1 14 #fce0c0 #404040 0;
#X restore 603 121 pd Event_Values;
#X floatatom 150 449 5 0 0 0 - - - 0;
#X obj 431 404 route abs_hat0x abs_hat0y abs_hat1x abs_hat1y;
#X floatatom 431 426 7 0 0 0 - - - 0;
#X msg 384 171 print;
#X text 447 151 close the device;
#X text 447 172 print the device and element lists;
#X text 19 222 Any non-zero value starts polling \,;
#X text 18 235 0 stops the polling. If the number;
#X text 19 248 is greater than 1 \, then the poll;
#X text 19 261 delay is set to that number.;
#X obj 37 429 route rel_x rel_y rel_z rel_wheel;
#X floatatom 206 449 5 0 0 0 - - - 0;
#X obj 502 331 unpack s s f;
#X text 308 356 event_type event_code value;
#X obj 423 106 route abs_x abs_y abs_z abs_rx abs_ry abs_rz abs_throttle;
#X obj 431 442 tgl 15 0 empty empty empty 0 -6 0 8 #fcfcfc #000000 #000000 0 -1;
#X floatatom 508 426 7 0 0 0 - - - 0;
#X obj 508 442 tgl 15 0 empty empty empty 0 -6 0 8 #fcfcfc #000000 #000000 0 1;
#X floatatom 586 426 7 0 0 0 - - - 0;
#X obj 586 442 tgl 15 0 empty empty empty 0 -6 0 8 #fcfcfc #000000 #000000 0 1;
#X floatatom 129 405 6 0 0 0 - - - 0;
#X floatatom 173 405 6 0 0 0 - - - 0;
#X floatatom 223 405 6 0 0 0 - - - 0;
#X floatatom 273 405 6 0 0 0 - - - 0;
#X floatatom 323 405 6 0 0 0 - - - 0;
#X floatatom 373 405 6 0 0 0 - - - 0;
#X obj 49 512 tgl 25 0 empty empty empty 0 -6 0 8 #bcbcbc #000000 #000000 0 1;
#X obj 79 512 tgl 25 0 empty empty empty 0 -6 0 8 #bcbcbc #000000 #000000 0 1;
#X obj 109 512 tgl 25 0 empty empty empty 0 -6 0 8 #bcbcbc #000000 #000000 0 1;
#X obj 139 512 tgl 25 0 empty empty empty 0 -6 0 8 #bcbcbc #000000 #000000 0 1;
#X obj 169 512 tgl 25 0 empty empty empty 0 -6 0 8 #bcbcbc #000000 #000000 0 1;
#X obj 199 512 tgl 25 0 empty empty empty 0 -6 0 8 #bcbcbc #000000 #000000 0 1;
#X obj 229 512 tgl 25 0 empty empty empty 0 -6 0 8 #bcbcbc #000000 #000000 0 1;
#X obj 259 512 tgl 25 0 empty empty empty 0 -6 0 8 #bcbcbc #000000 #000000 0 1;
#X obj 289 512 tgl 25 0 empty empty empty 0 -6 0 8 #bcbcbc #000000 #000000 0 1;
#X obj 319 512 tgl 25 0 empty empty empty 0 -6 0 8 #bcbcbc #000000 #000000 0 1;
#X obj 349 512 tgl 25 0 empty empty empty 0 -6 0 8 #bcbcbc #000000 #000000 0 1;
#X obj 379 512 tgl 25 0 empty empty empty 0 -6 0 8 #bcbcbc #000000 #000000 0 1;
#X obj 409 512 tgl 25 0 empty empty empty 0 -6 0 8 #bcbcbc #000000 #000000 0 1;
#X obj 19 470 route btn_0 btn_1 btn_2 btn_3 btn_4 btn_5 btn_6 btn_7 btn_8 btn_9 btn_10 btn_11 btn_12 btn_13 btn_14 btn_15;
#X obj 439 512 tgl 25 0 empty empty empty 0 -6 0 8 #bcbcbc #000000 #000000 0 1;
#X obj 469 512 tgl 25 0 empty empty empty 0 -6 0 8 #bcbcbc #000000 #000000 0 1;
#X msg 35 165 debug 0;
#X msg 308 155 info;
#N canvas 752 103 411 235 see 0;
#N canvas 108 318 543 264 route 0;
#X obj 27 14 inlet;
#X obj 72 226 outlet;
#X obj 19 226 outlet;
#X obj 172 226 outlet;
#X obj 222 204 symbol;
#X obj 222 226 outlet;
#X obj 272 204 symbol;
#X obj 272 226 outlet;
#X obj 322 204 symbol;
#X obj 322 226 outlet;
#X obj 372 204 symbol;
#X obj 372 226 outlet;
#X obj 122 225 outlet;
#X obj 422 204 symbol;
#X obj 422 226 outlet;
#X obj 472 204 symbol;
#X obj 472 226 outlet;
#X obj 26 63 route open device poll total product manufacturer transport type vendorID productID;
#X connect 0 0 17 0;
#X connect 4 0 5 0;
#X connect 6 0 7 0;
#X connect 8 0 9 0;
#X connect 10 0 11 0;
#X connect 13 0 14 0;
#X connect 15 0 16 0;
#X connect 17 0 2 0;
#X connect 17 1 1 0;
#X connect 17 2 12 0;
#X connect 17 3 3 0;
#X connect 17 4 4 0;
#X connect 17 5 6 0;
#X connect 17 6 8 0;
#X connect 17 7 10 0;
#X connect 17 8 13 0;
#X connect 17 9 15 0;
#X restore 117 70 pd route info;
#X obj 81 96 tgl 15 0 empty empty open 0 -6 0 8 #fcfcfc #000000 #000000 0 1;
#X obj 110 22 inlet;
#X obj 123 43 print info;
#X symbolatom 304 93 0 0 0 0 productID - - 0;
#X symbolatom 304 112 0 0 0 0 vendorID - - 0;
#X symbolatom 304 151 0 0 0 0 transport - - 0;
#X symbolatom 304 171 0 0 0 0 manufacturer - - 0;
#X symbolatom 186 192 0 0 0 0 product - - 0;
#X floatatom 97 140 5 0 0 0 device - - 0;
#X floatatom 97 162 5 0 0 0 poll - - 0;
#X symbolatom 304 131 0 0 0 0 type - - 0;
#X floatatom 97 182 5 0 0 0 total - - 0;
#X connect 0 0 1 0;
#X connect 0 1 9 0;
#X connect 0 2 10 0;
#X connect 0 3 12 0;
#X connect 0 4 8 0;
#X connect 0 5 7 0;
#X connect 0 6 6 0;
#X connect 0 7 11 0;
#X connect 0 8 5 0;
#X connect 0 9 4 0;
#X connect 2 0 0 0;
#X connect 2 0 3 0;
#X restore 430 281 pd see device info;
#N canvas 553 77 380 450 open 0;
#X obj 77 61 hradio 15 1 0 8 empty empty empty 0 -6 0 8 #fcfcfc #000000 #000000 0;
#X msg 78 81 open mouse \$1;
#X obj 121 201 hradio 15 1 0 8 empty empty empty 0 -6 0 8 #fcfcfc #000000 #000000 0;
#X msg 130 221 open keyboard \$1;
#X obj 50 13 hradio 15 1 0 8 empty empty empty 0 -6 0 8 #fcfcfc #000000 #000000 0;
#X obj 55 417 outlet;
#X obj 85 108 hradio 15 1 0 8 empty empty empty 0 -6 0 8 #fcfcfc #000000 #000000 0;
#X msg 94 128 open joystick \$1;
#X msg 59 33 open pointer \$1;
#X obj 101 155 hradio 15 1 0 8 empty empty empty 0 -6 0 8 #fcfcfc #000000 #000000 0;
#X msg 110 175 open gamepad \$1;
#X obj 137 244 hradio 15 1 0 8 empty empty empty 0 -6 0 8 #fcfcfc #000000 #000000 0;
#X msg 146 264 open keypad \$1;
#X obj 141 291 hradio 15 1 0 8 empty empty empty 0 -6 0 8 #fcfcfc #000000 #000000 0;
#X msg 150 311 open multiaxiscontroller \$1;
#X text 155 342 or just open the first one:;
#X msg 138 363 open mouse;
#X msg 159 381 open joystick;
#X connect 0 0 1 0;
#X connect 1 0 5 0;
#X connect 2 0 3 0;
#X connect 3 0 5 0;
#X connect 4 0 8 0;
#X connect 6 0 7 0;
#X connect 7 0 5 0;
#X connect 8 0 5 0;
#X connect 9 0 10 0;
#X connect 10 0 5 0;
#X connect 11 0 12 0;
#X connect 12 0 5 0;
#X connect 13 0 14 0;
#X connect 14 0 5 0;
#X connect 16 0 5 0;
#X connect 17 0 5 0;
#X restore 213 69 pd open by device type;
#N canvas 796 51 470 320 open 0;
#X text 217 82 Gravis/Destroyer Tiltpad;
#X msg 76 81 open 0x047D 0x4008;
#X msg 73 53 open 0x046d 0xc01d;
#X text 211 53 Logitech USB-PS/2 Optical Mouse;
#X obj 10 277 outlet;
#X text 9 12 You can use the hex values of the USB vendor and product IDs (it is not case sensitive):;
#X text 221 111 Overtone CUI v1.0;
#X msg 80 110 open 0x1043 0x0015;
#X msg 83 136 open 0x06a3 0xff12;
#X text 221 134 Saitek Cyborgforce;
#X connect 1 0 4 0;
#X connect 2 0 4 0;
#X connect 7 0 4 0;
#X connect 8 0 4 0;
#X restore 184 47 pd open by vendor/product ID;
#N canvas 114 93 467 346 test 0;
#X obj 144 45 inlet;
#X obj 88 104 route DESKTOP;
#X obj 87 158 route DESKTOP57;
#X obj 70 207 bng 15 250 50 0 empty empty empty 0 -6 0 8 #fcfcfc #000000 #000000;
#X floatatom 95 212 5 0 0 0 - - - 0;
#X obj 148 215 spigot;
#X obj 146 256 print test;
#X obj 189 192 tgl 15 0 empty empty empty 0 -6 0 8 #fcfcfc #000000 #000000 0 1;
#X obj 292 122 spigot;
#X obj 290 163 print test;
#X obj 333 99 tgl 15 0 empty empty empty 0 -6 0 8 #fcfcfc #000000 #000000 0 1;
#X connect 0 0 1 0;
#X connect 0 0 8 0;
#X connect 1 0 2 0;
#X connect 2 0 3 0;
#X connect 2 0 4 0;
#X connect 2 0 5 0;
#X connect 5 0 6 0;
#X connect 7 0 5 1;
#X connect 8 0 9 0;
#X connect 10 0 8 1;
#X restore 207 313 pd test;
#X msg 514 211 poll 200;
#X text 79 543 (C) Copyright 2004 Hans-Christoph Steiner <hans@eds.org>;
#N canvas 162 133 570 420 serin 0;
#X obj 209 61 cnv 15 15 15 empty \$0-debug-canvas 6 4 8 0 14 #e0e0e0 #000000 0;
#X obj 60 61 hradio 15 1 1 10 empty empty empty 0 -6 0 8 #fce0e0 #000000 #000000 0;
#X obj 60 13 inlet;
#X msg 200 202 label \$1;
#X obj 200 180 makefilename %d;
#X obj 59 108 int;
#X obj 59 337 outlet;
#X msg 201 306 set \$1 \$2;
#X obj 59 266 trigger bang anything;
#X obj 201 286 list;
#X msg 60 210 debug \$1;
#X obj 200 225 send \$0-debug-canvas;
#X connect 1 0 5 0;
#X connect 2 0 1 0;
#X connect 3 0 11 0;
#X connect 4 0 3 0;
#X connect 5 0 4 0;
#X connect 5 0 10 0;
#X connect 7 0 6 0;
#X connect 8 0 6 0;
#X connect 8 1 9 0;
#X connect 9 0 7 0;
#X connect 10 0 8 0;
#X coords 0 -1 1 1 165 17 1 60 60;
#X restore 35 144 pd serin;
#X msg 272 124 open 5;
#N canvas 162 133 570 420 serin 0;
#X obj 286 61 cnv 15 30 15 empty \$0-open-canvas 0 4 8 0 14 #e0e0e0 #000000 0;
#X obj 60 61 hradio 15 1 1 15 empty empty empty 0 -6 0 8 #d8fcd8 #000000 #000000 5;
#X obj 60 13 inlet;
#X msg 200 202 label \$1;
#X obj 200 180 makefilename %d;
#X obj 59 108 int;
#X obj 59 337 outlet;
#X msg 201 306 set \$1 \$2;
#X obj 59 266 trigger bang anything;
#X obj 201 286 list;
#X msg 60 210 open \$1;
#X obj 200 225 send \$0-open-canvas;
#X connect 1 0 5 0;
#X connect 2 0 1 0;
#X connect 3 0 11 0;
#X connect 4 0 3 0;
#X connect 5 0 4 0;
#X connect 5 0 10 0;
#X connect 7 0 6 0;
#X connect 8 0 6 0;
#X connect 8 1 9 0;
#X connect 9 0 7 0;
#X connect 10 0 8 0;
#X coords 0 -1 1 1 257 17 1 60 60;
#X restore 272 102 pd serin;
#X obj 51 291 snapshot~;
#X floatatom 51 314 5 0 0 0 - - - 0;
#X obj 61 264 metro 100;
#X obj 51 220 vline~;
#X obj 61 242 loadbang;
#X obj 275 450 /;
#X floatatom 303 451 5 0 0 0 - - - 0;
#X obj 293 428 + 2000;
#X obj 311 559 - 0.5;
#X obj 56 584 s b;
#X obj 741 439 s rightx;
#X obj 798 388 s lefty;
#X obj 151 104 loadbang;
#X obj 799 438 s righty;
#X obj 748 390 s leftx;
#X obj 696 520 outlet;
#X obj 743 515 outlet;
#X obj 844 509 outlet;
#X obj 796 511 outlet;
#X obj 857 437 s rightz;
#X obj 945 507 outlet;
#X obj 890 507 outlet;
#X obj 853 390 s leftz;
#X floatatom 684 288 5 0 0 0 - - - 0;
#X floatatom 947 443 5 0 0 0 - - - 0;
#X floatatom 1003 443 5 0 0 0 - - - 0;
#X obj 1111 162 tgl 35 0 empty empty empty 0 -6 0 8 #14e814 #000000 #000000 0 25;
#X floatatom 1685 333 5 0 0 1 value - - 0;
#X symbolatom 1551 358 15 0 0 1 event_code - - 0;
#X symbolatom 1464 375 15 0 0 1 event_type - - 0;
#X obj 922 0 cnv 15 600 20 empty empty hidio 2 11 1 18 #e0e0e0 #404040 0;
#X msg 1236 102 close;
#X msg 1274 147 refresh;
#X text 1336 146 refresh device list;
#X floatatom 1060 443 5 0 0 0 - - - 0;
#X floatatom 1116 443 5 0 0 0 - - - 0;
#X floatatom 1033 399 6 0 0 0 - - - 0;
#X floatatom 1083 399 6 0 0 0 - - - 0;
#X floatatom 1133 399 6 0 0 0 - - - 0;
#X floatatom 1183 399 6 0 0 0 - - - 0;
#X floatatom 1233 399 6 0 0 0 - - - 0;
#X floatatom 1283 399 6 0 0 0 - - - 0;
#X msg 945 153 debug 6;
#X msg 1274 124 info;
#N canvas 162 133 570 420 serin 0;
#X obj 209 61 cnv 15 15 15 empty \$0-debug-canvas 6 4 8 0 14 #e0e0e0 #000000 0;
#X obj 60 61 hradio 15 1 1 10 empty empty empty 0 -6 0 8 #fce0e0 #000000 #000000 6;
#X obj 60 13 inlet;
#X msg 200 202 label \$1;
#X obj 200 180 makefilename %d;
#X obj 59 108 int;
#X obj 59 337 outlet;
#X msg 201 306 set \$1 \$2;
#X obj 59 266 trigger bang anything;
#X obj 201 286 list;
#X msg 60 210 debug \$1;
#X obj 200 225 send \$0-debug-canvas;
#X connect 1 0 5 0;
#X connect 2 0 1 0;
#X connect 3 0 11 0;
#X connect 4 0 3 0;
#X connect 5 0 4 0;
#X connect 5 0 10 0;
#X connect 7 0 6 0;
#X connect 8 0 6 0;
#X connect 8 1 9 0;
#X connect 9 0 7 0;
#X connect 10 0 8 0;
#X coords 0 -1 1 1 165 17 1 60 60;
#X restore 945 132 pd serin;
#N canvas 162 133 570 420 serin 0;
#X obj 286 61 cnv 15 30 15 empty \$0-open-canvas 0 4 8 0 14 #e0e0e0 #000000 0;
#X obj 60 61 hradio 15 1 1 15 empty empty empty 0 -6 0 8 #d8fcd8 #000000 #000000 0;
#X obj 60 13 inlet;
#X msg 200 202 label \$1;
#X obj 200 180 makefilename %d;
#X obj 59 108 int;
#X obj 59 337 outlet;
#X msg 201 306 set \$1 \$2;
#X obj 59 266 trigger bang anything;
#X obj 201 286 list;
#X msg 60 210 open \$1;
#X obj 200 225 send \$0-open-canvas;
#X connect 1 0 5 0;
#X connect 2 0 1 0;
#X connect 3 0 11 0;
#X connect 4 0 3 0;
#X connect 5 0 4 0;
#X connect 5 0 10 0;
#X connect 7 0 6 0;
#X connect 8 0 6 0;
#X connect 8 1 9 0;
#X connect 9 0 7 0;
#X connect 10 0 8 0;
#X coords 0 -1 1 1 257 17 1 60 60;
#X restore 1182 81 pd serin;
#X obj 1226 242 hidio;
#X obj 1464 313 unpack symbol symbol float float;
#X floatatom 1603 334 2 0 0 1 instance - - 0;
#X obj 899 338 route x y z rx ry rz slider dial;
#X obj 930 312 route key relative absolute;
#N canvas 0 22 454 304 remove 0;
#X obj 134 12 inlet;
#X obj 109 60 unpack symbol symbol float float;
#X obj 110 107 pack symbol symbol float;
#X obj 110 135 list trim;
#X obj 116 196 outlet;
#X connect 0 0 1 0;
#X connect 1 0 2 0;
#X connect 1 1 2 1;
#X connect 1 3 2 2;
#X connect 2 0 3 0;
#X connect 3 0 4 0;
#X restore 1019 270 pd remove instance numbers;
#N canvas 114 93 487 366 raw 0;
#X obj 144 45 inlet;
#X obj 88 104 route DESKTOP;
#X obj 87 158 route DESKTOP57;
#X obj 70 207 bng 15 250 50 0 empty empty empty 0 -6 0 8 #fcfcfc #000000 #000000;
#X floatatom 95 212 5 0 0 0 - - - 0;
#X obj 148 215 spigot;
#X obj 146 256 print test;
#X obj 189 192 tgl 15 0 empty empty empty 0 -6 0 8 #fcfcfc #000000 #000000 0 1;
#X obj 292 122 spigot;
#X obj 333 99 tgl 15 0 empty empty empty 0 -6 0 8 #fcfcfc #000000 #000000 0 1;
#X obj 354 45 inlet;
#X obj 290 162 print RAW;
#X connect 0 0 1 0;
#X connect 0 0 8 0;
#X connect 1 0 2 0;
#X connect 2 0 3 0;
#X connect 2 0 4 0;
#X connect 2 0 5 0;
#X connect 5 0 6 0;
#X connect 7 0 5 1;
#X connect 8 0 11 0;
#X connect 9 0 8 1;
#X connect 10 0 9 0;
#X restore 1235 282 pd raw;
#X floatatom 983 399 6 0 0 0 - - - 0;
#X obj 1282 283 tgl 15 0 empty empty empty 0 -6 0 8 #fcfcfc #000000 #000000 0 1;
#N canvas 766 107 771 427 output 0;
#X obj 286 341 outlet;
#X msg 112 70 255;
#X obj 108 112 pack 0 16;
#X obj 159 92 + 16;
#X obj 157 68 hradio 15 1 0 8 empty empty empty 0 -8 0 10 #fcfcfc #000000 #000000 0;
#X floatatom 171 114 5 0 0 0 - - - 0;
#X msg 77 71 127;
#X msg 47 71 0;
#X obj 50 36 select 1 0;
#X obj 49 13 tgl 15 0 empty empty empty 17 7 0 10 #fcfcfc #000000 #000000 0 1;
#X msg 108 143 write 1 1 \$2 \$1;
#X msg 366 86 255;
#X msg 331 87 127;
#X msg 301 87 0;
#X obj 304 52 select 1 0;
#X obj 303 29 tgl 15 0 empty empty empty 17 7 0 10 #fcfcfc #000000 #000000 0 1;
#X msg 278 186 write led power 0 \$1;
#X msg 616 87 255;
#X msg 581 88 127;
#X msg 551 88 0;
#X obj 554 53 select 1 0;
#X obj 553 30 tgl 15 0 empty empty empty 17 7 0 10 #fcfcfc #000000 #000000 0 1;
#X text 179 13 taku's JxCore2 board;
#X text 511 12 Dan's CUI IO v1.0;
#X msg 511 144 write absolute slider 0 \$1;
#X obj 283 150 pack 0 symbol;
#X msg 392 117 kana;
#X msg 428 115 mute;
#X msg 422 265 write led 1 0 \$1;
#X obj 420 240 pack;
#X msg 421 295 write 8 1 0 \$1;
#X msg 419 197 write 0x000c 0x0001 0 1023;
#N canvas 552 22 800 488 ifeel 0;
#X obj 127 257 outlet;
#X msg 545 30 set 0x11 0x0a \$1 \$2 0x00 \$3 0x00;
#X msg 187 201 write 0xff00 0x0002 6 0;
#X text 300 80 0x11;
#X text 308 99 0x0a;
#X msg 197 221 write 0xff00 0x0002 7 0;
#X text 307 120 amplitude;
#X text 309 140 frequency (pulses/second);
#X msg 167 161 write 0xff00 0x0002 4 0;
#X text 331 181 pulse count (0-255);
#X msg 177 181 write 0xff00 0x0002 5 255;
#X msg 157 141 write 0xff00 0x0002 3 5;
#X msg 147 121 write 0xff00 0x0002 2 255;
#X msg 127 81 write 0xff00 0x0002 0 17;
#X msg 137 101 write 0xff00 0x0002 1 10;
#X connect 2 0 0 0;
#X connect 5 0 0 0;
#X connect 8 0 0 0;
#X connect 10 0 0 0;
#X connect 11 0 0 0;
#X connect 12 0 0 0;
#X connect 13 0 0 0;
#X connect 14 0 0 0;
#X restore 48 259 pd ifeel;
#X connect 1 0 2 0;
#X connect 2 0 10 0;
#X connect 3 0 2 1;
#X connect 3 0 5 0;
#X connect 4 0 3 0;
#X connect 6 0 2 0;
#X connect 7 0 2 0;
#X connect 8 0 7 0;
#X connect 8 1 1 0;
#X connect 9 0 8 0;
#X connect 10 0 0 0;
#X connect 11 0 25 0;
#X connect 12 0 25 0;
#X connect 13 0 25 0;
#X connect 14 0 13 0;
#X connect 14 1 11 0;
#X connect 15 0 14 0;
#X connect 16 0 0 0;
#X connect 17 0 24 0;
#X connect 18 0 24 0;
#X connect 19 0 24 0;
#X connect 20 0 19 0;
#X connect 20 1 17 0;
#X connect 21 0 20 0;
#X connect 24 0 0 0;
#X connect 25 0 16 0;
#X connect 26 0 25 1;
#X connect 27 0 25 1;
#X connect 28 0 0 0;
#X connect 30 0 0 0;
#X connect 31 0 0 0;
#X connect 32 0 0 0;
#X restore 1277 217 pd output support;
#X obj 947 418 route x y wheel rx ry;
#X obj 1161 443 print NOT MAPPED;
#X text 1337 170 print a list of devices to the Pd window;
#X msg 1274 170 devices;
#X msg 1274 191 elements;
#X text 1337 192 print a list of elements for the current device;
#N canvas 840 22 558 266 key_0 0;
#X obj 17 17 inlet;
#X obj 17 54 route key;
#X obj 17 86 route key_0;
#X obj 17 206 tgl 25 0 empty empty empty 0 -6 0 8 #bcbcbc #000000 #000000 0 1;
#X obj 47 206 tgl 25 0 empty empty empty 0 -6 0 8 #bcbcbc #000000 #000000 0 133004;
#X obj 77 206 tgl 25 0 empty empty empty 0 -6 0 8 #bcbcbc #000000 #000000 0 133004;
#X obj 107 206 tgl 25 0 empty empty empty 0 -6 0 8 #bcbcbc #000000 #000000 0 1;
#X obj 137 206 tgl 25 0 empty empty empty 0 -6 0 8 #bcbcbc #000000 #000000 0 1;
#X obj 167 206 tgl 25 0 empty empty empty 0 -6 0 8 #bcbcbc #000000 #000000 0 1;
#X obj 197 206 tgl 25 0 empty empty empty 0 -6 0 8 #bcbcbc #000000 #000000 0 1;
#X obj 227 206 tgl 25 0 empty empty empty 0 -6 0 8 #bcbcbc #000000 #000000 0 1;
#X obj 257 206 tgl 25 0 empty empty empty 0 -6 0 8 #bcbcbc #000000 #000000 0 1;
#X obj 287 206 tgl 25 0 empty empty empty 0 -6 0 8 #bcbcbc #000000 #000000 0 1;
#X obj 317 206 tgl 25 0 empty empty empty 0 -6 0 8 #bcbcbc #000000 #000000 0 1;
#X obj 347 206 tgl 25 0 empty empty empty 0 -6 0 8 #bcbcbc #000000 #000000 0 1;
#X obj 377 206 tgl 25 0 empty empty empty 0 -6 0 8 #bcbcbc #000000 #000000 0 1;
#X obj 407 206 tgl 25 0 empty empty empty 0 -6 0 8 #bcbcbc #000000 #000000 0 1;
#X obj 437 206 tgl 25 0 empty empty empty 0 -6 0 8 #bcbcbc #000000 #000000 0 1;
#X obj 467 206 tgl 25 0 empty empty empty 0 -6 0 8 #bcbcbc #000000 #000000 0 1;
#X obj 17 114 route 4 5 6 7 8 9 10 11 12 13 14 15 16 17 18 19 0;
#X msg 381 142 0;
#X text 177 31 On some platforms \, you key a duplicate set of key messages where the key type is key_0 and the value is the number of the key pressed.;
#X connect 0 0 1 0;
#X connect 1 0 2 0;
#X connect 2 0 19 0;
#X connect 19 0 3 0;
#X connect 19 1 4 0;
#X connect 19 2 5 0;
#X connect 19 3 6 0;
#X connect 19 4 7 0;
#X connect 19 5 8 0;
#X connect 19 6 9 0;
#X connect 19 7 10 0;
#X connect 19 8 11 0;
#X connect 19 9 12 0;
#X connect 19 10 13 0;
#X connect 19 11 14 0;
#X connect 19 12 15 0;
#X connect 19 13 16 0;
#X connect 19 14 17 0;
#X connect 19 15 18 0;
#X connect 19 16 20 0;
#X connect 20 0 3 0;
#X connect 20 0 4 0;
#X connect 20 0 18 0;
#X connect 20 0 17 0;
#X connect 20 0 16 0;
#X connect 20 0 15 0;
#X connect 20 0 14 0;
#X connect 20 0 13 0;
#X connect 20 0 12 0;
#X connect 20 0 11 0;
#X connect 20 0 10 0;
#X connect 20 0 9 0;
#X connect 20 0 8 0;
#X connect 20 0 7 0;
#X connect 20 0 6 0;
#X connect 20 0 5 0;
#X restore 1023 291 pd key_0 key mapping;
#X text 1294 103 close the current device;
#X text 1336 123 output device info to the right status outlet;
#N canvas 743 25 413 290 device 0;
#N canvas 108 318 543 264 route 0;
#X obj 27 14 inlet;
#X obj 72 226 outlet;
#X obj 19 226 outlet;
#X obj 172 226 outlet;
#X obj 222 204 symbol;
#X obj 222 226 outlet;
#X obj 272 204 symbol;
#X obj 272 226 outlet;
#X obj 322 204 symbol;
#X obj 322 226 outlet;
#X obj 372 204 symbol;
#X obj 372 226 outlet;
#X obj 122 225 outlet;
#X obj 422 204 symbol;
#X obj 422 226 outlet;
#X obj 472 204 symbol;
#X obj 472 226 outlet;
#X obj 26 63 route open device poll total product manufacturer transport type vendorID productID;
#X connect 0 0 17 0;
#X connect 4 0 5 0;
#X connect 6 0 7 0;
#X connect 8 0 9 0;
#X connect 10 0 11 0;
#X connect 13 0 14 0;
#X connect 15 0 16 0;
#X connect 17 0 2 0;
#X connect 17 1 1 0;
#X connect 17 2 12 0;
#X connect 17 3 3 0;
#X connect 17 4 4 0;
#X connect 17 5 6 0;
#X connect 17 6 8 0;
#X connect 17 7 10 0;
#X connect 17 8 13 0;
#X connect 17 9 15 0;
#X restore 111 119 pd route info;
#X obj 75 145 tgl 15 0 empty empty open 0 -6 0 8 #fcfcfc #000000 #000000 0 1;
#X obj 110 22 inlet;
#X obj 157 85 print info;
#X symbolatom 298 142 0 0 0 0 productID - - 0;
#X symbolatom 298 161 0 0 0 0 vendorID - - 0;
#X symbolatom 298 200 0 0 0 0 transport - - 0;
#X symbolatom 298 220 0 0 0 0 manufacturer - - 0;
#X symbolatom 180 241 0 0 0 0 product - - 0;
#X floatatom 91 189 5 0 0 0 device - - 0;
#X floatatom 91 211 5 0 0 0 poll - - 0;
#X symbolatom 298 180 0 0 0 0 type - - 0;
#X floatatom 91 231 5 0 0 0 total - - 0;
#X obj 242 20 inlet;
#N canvas 0 22 450 300 spigot 0;
#X obj 78 31 inlet;
#X obj 83 263 outlet;
#X obj 210 32 inlet;
#X obj 210 67 select 0;
#X msg 210 90 0;
#X obj 255 89 bang;
#X obj 82 148 spigot;
#X msg 255 110 1;
#X connect 0 0 6 0;
#X connect 2 0 3 0;
#X connect 3 0 4 0;
#X connect 3 1 5 0;
#X connect 4 0 6 1;
#X connect 5 0 7 0;
#X connect 6 0 1 0;
#X connect 7 0 6 1;
#X restore 157 65 pd spigot;
#X connect 0 0 1 0;
#X connect 0 1 9 0;
#X connect 0 2 10 0;
#X connect 0 3 12 0;
#X connect 0 4 8 0;
#X connect 0 5 7 0;
#X connect 0 6 6 0;
#X connect 0 7 11 0;
#X connect 0 8 5 0;
#X connect 0 9 4 0;
#X connect 2 0 0 0;
#X connect 2 0 14 0;
#X connect 13 0 14 1;
#X connect 14 0 3 0;
#X restore 1462 281 pd device info;
#X obj 1552 282 tgl 15 0 empty empty empty 17 7 0 10 #fcfcfc #000000 #000000 0 1;
#X msg 1182 102 open 0;
#X obj 1459 455 bng 15 250 50 0 empty empty empty 17 7 0 10 #fcfcfc #000000 #000000;
#X obj 1443 422 sel button_1;
#X obj 782 581 tgl 15 0 empty empty empty 17 7 0 10 #fcfcfc #000000 #000000 0 1;
#X msg 1003 61 open 0x14b7 0x0982;
#X obj 1003 40 loadbang;
#X obj 1024 568 s note6;
#X obj 1074 568 s note7;
#X obj 1129 567 s note8;
#X obj 1182 567 s note9;
#X obj 1237 566 s note10;
#X obj 864 198 random 100;
#X obj 848 155 metro 500;
#X obj 971 568 s note5;
#X obj 37 37;
#X obj 936 685 s note20;
#X obj 989 685 s note21;
#X obj 1039 685 s note22;
#X obj 1094 684 s note23;
#X obj 1147 684 s note24;
#X obj 1202 683 s note25;
#X obj 936 603 / 4096;
#X obj 997 605 / 4096;
#X obj 1079 602 / 4096;
#X obj 1139 602 / 4096;
#X obj 1197 599 / 4096;
#X obj 1031 603 / 4096;
#X obj 783 661 * -1;
#X obj 784 680 + 1;
#X obj 1203 629 * 12;
#X obj 1208 657 - 6;
#X obj 1003 635 * 12;
#X obj 1008 663 - 6;
#X obj 1150 660 - 6;
#X obj 1145 632 * 12;
#X obj 1085 632 * 12;
#X obj 942 633 * 12;
#X obj 947 661 - 6;
#X obj 1037 633 * 12;
#X obj 1042 661 - 6;
#X obj 1090 660 - 6;
#X obj 290 603 vsl 15 128 0 4096 0 0 empty empty empty 0 -9 0 10 #fcfcfc #000000 #000000 0 1;
#X obj 432 680 ctlin 12 1;
#X obj 434 700 / 127;
#X obj 434 721 * 4096;
#X obj 350 704 / 127;
#X obj 350 725 * 4096;
#X obj 516 699 / 127;
#X obj 487 608 ctlin 11 1;
#X obj 568 606 ctlin 12 1;
#X obj 570 626 / 127;
#X obj 570 647 * 4096;
#X obj 486 630 / 127;
#X obj 486 651 * 4096;
#X obj 652 625 / 127;
#X obj 653 642 * 4096;
#X obj 650 605 ctlin 15 1;
#X obj 739 615 vsl 15 128 0 127 0 0 empty empty empty 0 -9 0 10 #fcfcfc #000000 #000000 0 1;
#X obj 519 735 + 400;
#X obj 518 716 * 6000;
#X obj 72 697 / 127;
#X obj 351 682 ctlin 15 1;
#X obj 72 718 * 8000;
#X obj 73 675 ctlin 16 1;
#X obj 513 678 ctlin 14 1;
#X obj 379 598 r ax;
#X obj 450 596 r az;
#X obj 415 597 r ay;
#X connect 2 0 83 0;
#X connect 2 0 85 0;
#X connect 2 0 92 0;
#X connect 2 0 93 0;
#X connect 9 0 10 1;
#X connect 10 0 9 0;
#X connect 11 0 10 0;
#X connect 20 0 64 0;
#X connect 20 1 35 0;
#X connect 20 2 39 0;
#X connect 20 3 11 0;
#X connect 26 0 27 0;
#X connect 26 1 41 0;
#X connect 26 2 43 0;
#X connect 27 0 40 0;
#X connect 35 0 0 0;
#X connect 35 1 1 0;
#X connect 35 2 25 0;
#X connect 35 3 36 0;
#X connect 37 0 6 0;
#X connect 37 1 5 0;
#X connect 37 2 4 0;
#X connect 39 0 2 0;
#X connect 39 0 93 0;
#X connect 39 1 45 0;
#X connect 39 1 94 0;
#X connect 39 2 46 0;
#X connect 39 2 96 0;
#X connect 39 2 100 0;
#X connect 39 3 47 0;
#X connect 39 3 95 0;
#X connect 39 4 48 0;
#X connect 39 4 99 0;
#X connect 39 5 49 0;
#X connect 39 5 97 0;
#X connect 39 5 98 0;
#X connect 39 6 50 0;
#X connect 39 7 26 0;
#X connect 41 0 42 0;
#X connect 43 0 44 0;
#X connect 45 0 89 0;
#X connect 45 0 94 0;
#X connect 46 0 100 0;
#X connect 46 0 96 0;
#X connect 47 0 88 0;
#X connect 47 0 95 0;
#X connect 48 0 91 0;
#X connect 48 0 99 0;
#X connect 49 0 98 0;
#X connect 64 0 21 0;
#X connect 64 1 51 0;
#X connect 64 2 52 0;
#X connect 64 3 53 0;
#X connect 64 4 54 0;
#X connect 64 5 55 0;
#X connect 64 6 56 0;
#X connect 64 7 57 0;
#X connect 64 8 58 0;
#X connect 64 9 59 0;
#X connect 64 10 60 0;
#X connect 64 11 61 0;
#X connect 64 12 62 0;
#X connect 64 13 63 0;
#X connect 64 14 65 0;
#X connect 64 15 66 0;
#X connect 75 0 67 0;
#X connect 77 0 76 0;
#X connect 78 0 79 0;
#X connect 80 0 78 0;
#X connect 81 0 78 0;
#X connect 82 0 80 0;
#X connect 83 0 84 0;
#X connect 84 0 86 0;
#X connect 85 0 83 1;
#X connect 104 0 124 0;
#X connect 106 0 147 0;
#X connect 109 0 124 0;
#X connect 110 0 124 0;
#X connect 114 0 151 0;
#X connect 114 0 167 0;
#X connect 115 0 152 0;
#X connect 115 0 171 0;
#X connect 116 0 153 0;
#X connect 116 0 168 0;
#X connect 117 0 154 0;
#X connect 117 0 169 0;
#X connect 118 0 155 0;
#X connect 118 0 170 0;
#X connect 120 0 124 0;
#X connect 121 0 124 0;
#X connect 122 0 120 0;
#X connect 123 0 145 0;
#X connect 124 0 130 0;
#X connect 124 0 125 0;
#X connect 124 0 129 0;
#X connect 124 1 143 0;
#X connect 125 0 107 0;
#X connect 125 1 106 0;
#X connect 125 2 126 0;
#X connect 125 3 105 0;
#X connect 127 0 131 0;
#X connect 127 0 92 0;
#X connect 127 0 93 0;
#X connect 127 1 114 0;
#X connect 127 1 89 0;
#X connect 127 1 94 0;
#X connect 127 2 115 0;
#X connect 127 2 100 0;
#X connect 127 2 96 0;
#X connect 127 3 116 0;
#X connect 127 3 88 0;
#X connect 127 3 95 0;
#X connect 127 4 117 0;
#X connect 127 4 91 0;
#X connect 127 4 99 0;
#X connect 127 5 118 0;
#X connect 127 5 97 0;
#X connect 127 5 98 0;
#X connect 127 6 119 0;
#X connect 128 1 134 0;
#X connect 128 2 127 0;
#X connect 129 0 128 0;
#X connect 129 0 140 0;
#X connect 131 0 158 0;
#X connect 131 0 166 0;
#X connect 132 0 130 1;
#X connect 133 0 124 0;
#X connect 134 0 102 0;
#X connect 134 1 103 0;
#X connect 134 2 112 0;
#X connect 134 4 113 0;
#X connect 134 5 135 0;
#X connect 137 0 124 0;
#X connect 138 0 124 0;
#X connect 144 0 143 1;
#X connect 145 0 124 0;
#X connect 147 0 148 0;
#X connect 148 0 87 0;
#X connect 149 0 124 0;
#X connect 150 0 149 0;
#X connect 150 0 104 0;
#X connect 150 0 157 0;
#X connect 157 0 156 0;
#X connect 166 0 181 0;
#X connect 167 0 176 0;
#X connect 168 0 180 0;
#X connect 169 0 179 0;
#X connect 170 0 174 0;
#X connect 171 0 183 0;
#X connect 172 0 173 0;
#X connect 174 0 175 0;
#X connect 175 0 165 0;
#X connect 176 0 177 0;
#X connect 177 0 161 0;
#X connect 178 0 164 0;
#X connect 179 0 178 0;
#X connect 180 0 185 0;
#X connect 181 0 182 0;
#X connect 182 0 160 0;
#X connect 183 0 184 0;
#X connect 184 0 162 0;
#X connect 185 0 163 0;
#X connect 186 0 2 0;
#X connect 186 0 45 0;
#X connect 186 0 46 0;
#X connect 186 0 47 0;
#X connect 186 0 48 0;
#X connect 186 0 49 0;
#X connect 186 0 50 0;
#X connect 187 0 188 0;
#X connect 188 0 189 0;
#X connect 189 0 46 0;
#X connect 190 0 191 0;
#X connect 191 0 45 0;
#X connect 192 0 204 0;
#X connect 193 0 197 0;
#X connect 194 0 195 0;
#X connect 195 0 196 0;
#X connect 197 0 198 0;
#X connect 199 0 200 0;
#X connect 201 0 199 0;
#X connect 203 0 47 0;
#X connect 204 0 203 0;
#X connect 205 0 207 0;
#X connect 206 0 190 0;
#X connect 207 0 2 0;
#X connect 208 0 205 0;
#X connect 209 0 192 0;
#X connect 209 0 202 0;
#X connect 210 0 190 0;
#X connect 211 0 192 0;
#X connect 212 0 188 0;
#X restore 227 -44 pd tether;
#X floatatom 163 659 5 0 0 0 - - - 0;
#X msg 1010 998 63;
#X msg 1035 990 84;
#X msg 981 996 63;
#X obj 599 464 / 10;
#X obj 706 55 readsf~ 2;
#X floatatom 1143 273 5 0 0 0 - - - 0;
#X obj 1182 637 sel 0;
#X msg 972 567 1;
#X msg 1002 566 0;
#X obj 999 653 t b;
#X obj 1045 967 mod 2;
#X obj 936 611 t b;
#X obj 164 703 change;
#X msg 1762 179 tempo \$1;
#X msg 1551 180 resolution \$1;
#X obj 1654 179 pack f f;
#X floatatom 1661 298 5 0 0 1 beat_time - - 0;
#X floatatom 1624 316 5 0 0 1 phase - - 0;
#X floatatom 1587 338 5 0 0 1 step - - 0;
#X floatatom 1698 277 5 0 0 1 tempo - - 0;
#X obj 1474 160 tgl 15 0 empty empty empty 17 7 0 10 #fcfcfc #000000 #000000 0 1;
#X floatatom 1746 109 5 0 0 2 tempo - - 0;
#X floatatom 1699 160 5 0 0 2 quantum - - 0;
#X floatatom 1654 160 5 0 0 2 beat - - 0;
#X floatatom 1551 160 5 0 0 2 resolution - - 0;
#X msg 1474 180 connect \$1;
#X floatatom 1669 373 5 0 0 0 - - - 0;
#X obj 1669 351 r #abl_link_num_peers;
#X floatatom 1644 471 5 0 0 0 - - - 0;
#X obj 581 639 sel 1;
#X msg 578 671 0;
#X msg 610 667 1;
#X obj 946 517 sel 0 2 4 6;
#X obj 1648 438 mod 4;
#X msg 1702 580 1;
#X msg 1732 579 0;
#X floatatom 1688 474 5 0 0 0 - - - 0;
#X obj 1651 599 tgl 15 0 empty empty empty 17 7 0 10 #fcfcfc #000000 #000000 0 1;
#X obj 1580 696 *~;
#X obj 1639 673 tgl 15 0 empty empty empty 17 7 0 10 #fcfcfc #000000 #000000 0 1;
#X obj 1658 799 dac~;
#X floatatom 1703 771 5 0 0 0 - - - 0;
#X obj 1664 758 *~ 1;
#X obj 1931 759 sel 1;
#X msg 1928 791 0;
#X msg 1960 787 1;
#X floatatom 1749 475 5 0 0 0 - - - 0;
#X msg 1905 574 1;
#X msg 1935 573 0;
#X obj 1854 593 tgl 15 0 empty empty empty 17 7 0 10 #fcfcfc #000000 #000000 0 1;
#X obj 1783 690 *~;
#X obj 1842 667 tgl 15 0 empty empty empty 17 7 0 10 #fcfcfc #000000 #000000 0 1;
#X obj 1740 868 dac~;
#X obj 1746 827 *~ 1;
#X obj 1227 952 tgl 15 0 empty empty empty 17 7 0 10 #fcfcfc #000000 #000000 0 1;
#X obj 1279 923 tgl 15 0 empty empty empty 17 7 0 10 #fcfcfc #000000 #000000 0 1;
#X obj 1335 909 tgl 15 0 empty empty empty 17 7 0 10 #fcfcfc #000000 #000000 0 1;
#X floatatom 1589 474 5 0 0 0 - - - 0;
#X obj 1593 441 mod 2;
#X msg 1546 584 1;
#X msg 1576 583 0;
#X obj 1495 603 tgl 15 0 empty empty empty 17 7 0 10 #fcfcfc #000000 #000000 0 1;
#X obj 1424 700 *~;
#X obj 1483 677 tgl 15 0 empty empty empty 17 7 0 10 #fcfcfc #000000 #000000 0 1;
#X obj 1520 534 sel 0 1;
#X obj 1174 950 tgl 15 0 empty empty empty 17 7 0 10 #fcfcfc #000000 #000000 0 1;
#X obj 1460 923 random 4;
#X msg 1448 1044 1;
#X msg 1448 1024 0;
#X msg 1477 1044 1;
#X msg 1477 1024 0;
#X msg 1504 1042 1;
#X msg 1504 1022 0;
#X msg 1538 1045 1;
#X msg 1538 1025 0;
#X obj 1637 80 loadbang;
#X obj 1470 356 random 10;
#X obj 1464 377 t b;
#X floatatom 1802 475 5 0 0 0 - - - 0;
#X obj 1458 504 sel 0 8;
#X obj 1642 948 hsl 128 15 0 0.9 0 0 empty empty empty -2 -8 0 10 #fcfcfc #000000 #000000 0 1;
#X obj 1639 978 moses 1;
#X text 1654 929 Harmonicity-Env;
#X floatatom 1647 1002 5 0 0 0 - - - 0;
#X obj 1639 1073 line~;
#X obj 1639 1049 pack 0 100;
#X obj 1583 1060 s_buzz;
#X obj 296 501 noise~;
#X obj 1391 745 vcf~;
#X obj 1409 789 sig~;
#X floatatom 1409 768 5 0 0 0 - - - 0;
#X floatatom 1456 789 5 0 0 0 - - - 0;
#X obj 1392 816 vcf~ 1;
#X msg 1439 772 7;
#X obj 1436 745 loadbang;
#X obj 1391 719 noise~;
#X text 1441 815 comment;
#X obj 1625 820 vcf~;
#X obj 1643 864 sig~;
#X floatatom 1643 843 5 0 0 0 - - - 0;
#X floatatom 1690 864 5 0 0 0 - - - 0;
#X obj 1626 891 vcf~ 1;
#X msg 1673 847 7;
#X obj 1670 820 loadbang;
#X obj 1625 794 noise~;
#X text 1675 890 comment;
#X obj 1851 810 dac~;
#X obj 1818 831 vcf~;
#X obj 1836 875 sig~;
#X floatatom 1826 856 5 0 0 0 - - - 0;
#X floatatom 1883 875 5 0 0 0 - - - 0;
#X obj 1819 902 vcf~ 1;
#X msg 1866 858 7;
#X obj 1863 831 loadbang;
#X obj 1818 805 noise~;
#X text 1868 901 comment;
#X obj 314 638 *~ 1;
#X obj 1379 439 + 1000;
#X msg 788 424 90;
#X obj 1816 1033 line;
#X obj 1814 1016 \$1 \$1;
#X obj 1872 979 loadbang;
#X obj 1380 413 random 4000;
#X floatatom 1401 186 5 0 0 0 - - - 0;
#X obj 1392 248 hsl 128 15 0 5000 0 0 empty empty empty -2 -8 0 10 #fcfcfc #000000 #000000 0 1;
#X obj 1456 994 sel 0 1 2 3 4;
#X obj 1860 168 sel 0;
#X obj 653 1004 r lefty;
#X obj 1802 127 * 4;
#X obj 839 978 / 4096;
#X obj 833 944 r leftx;
#X obj 838 1002 * 4000;
#X obj 202 217 sqrt;
#X obj 171 116 -;
#X obj 247 115 -;
#X obj 171 158 *;
#X obj 244 156 *;
#X obj 321 113 -;
#X obj 318 154 *;
#X obj 257 197 expr $f1+$f2+$f3;
#X obj 205 257 hsl 128 15 0 5000 0 0 empty empty empty -2 -8 0 10 #fcfcfc #000000 #000000 0 1;
#X obj 202 237 - 900;
#X obj 201 273 / 3000;
#X floatatom 206 310 5 0 0 0 - - - 0;
#X obj 554 136 tgl 15 0 empty empty empty 17 7 0 10 #fcfcfc #000000 #000000 0 1;
#X obj 519 89 tgl 15 0 empty empty empty 17 7 0 10 #fcfcfc #000000 #000000 0 1;
#X obj 513 54 > 2400;
#X obj 249 356 < 0.6;
#X obj 1219 1022 *~;
#X obj 1298 1097 dac~;
#X obj 931 311 s ch;
#X obj 1006 208 tgl 15 0 empty empty empty 17 7 0 10 #fcfcfc #000000 #000000 0 1;
#X obj 1167 156 tgl 15 0 empty empty empty 17 7 0 10 #fcfcfc #000000 #000000 0 1;
#X obj 1072 139 tgl 15 0 empty empty empty 17 7 0 10 #fcfcfc #000000 #000000 0 1;
#X obj 953 206 tgl 15 0 empty empty empty 17 7 0 10 #fcfcfc #000000 #000000 0 1;
#X obj 915 227 spigot;
#X obj 968 229 spigot;
#X obj 1030 225 spigot;
#X obj 1095 222 spigot;
#X obj 1306 1054 *~;
#X obj 1465 1104 tgl 15 0 empty empty empty 17 7 0 10 #fcfcfc #000000 #000000 0 1;
#X obj 1872 250 mod 32;
#X obj 1469 1083 tgl 15 0 empty empty empty 17 7 0 10 #fcfcfc #000000 #000000 0 1;
#X obj 1417 1080 < 3900;
#X obj 1425 640 phasor~;
#X obj 1581 636 phasor~;
#X obj 1783 630 phasor~;
#X obj 742 522 phasor~;
#X msg 1497 24;
#X obj 37 37 swap;
#X msg 1297 121 84;
#X obj 1298 156 * 4;
#X floatatom 1298 182 5 0 0 0 - - - 0;
#X obj 1896 342 sel 8 24;
#X obj 2000 423 soundfiler;
#X msg 2000 445 bang;
#X obj 1999 377 loadbang;
#X obj 1998 552 dac~;
#X msg 1999 400 read -resize h.wav three;
#X obj 2069 423 table three;
#X obj 1997 466 tabplay~ three;
#X obj 2001 490 *~ 0.5;
#X obj 749 1033 * 5000;
#X obj 1801 950 / 4096;
#X obj 1777 1006 * -1;
#X obj 1783 1025 + 1;
#X obj 1803 923 r leftx;
#X obj 494 -12 r rightz;
#X obj 1931 269 sel 0;
#X obj 1932 248 mod 8;
#X obj 1369 1068 / 10;
#X msg 1842 118 4;
#X obj 853 186 noteout 1;
#X obj 840 156 makenote 127 127;
#X obj 387 67 ctlout 6 1;
#X obj 404 -29 / 4096;
#X obj 312 29 * 127;
#X floatatom 381 82 5 0 0 0 - - - 0;
#X floatatom 399 130 5 0 0 0 - - - 0;
#X obj 397 174 ctlout 5 1;
#X obj 474 109 / 4096;
#X obj 432 144 * 127;
#X obj 1048 675 *~ 0.5;
#X obj 1244 671 *~ 0.5;
#X obj 2028 228 s modded;
#X obj 178 738 s sed;
#X msg 1415 289 \; pd dsp 0;
#X obj 1895 205 bng 15 250 50 0 empty empty empty 17 7 0 10 #fcfcfc #000000 #000000;
#X obj 1996 310 sel 0;
#X obj 1010 862 r ch;
#X obj 711 123 dac~;
#X obj 975 869 t b;
#X obj 709 91 *~ 1;
#X obj 738 86 *~ 1;
#X obj 2068 332 bng 15 250 50 0 empty empty empty 17 7 0 10 #fcfcfc #000000 #000000;
#X obj 1993 285 mod 512;
#X floatatom 67 842 0 0 0 0 - - - 0;
#X text 97 841 <-- delay time;
#X text 81 913 add the original and the delayed signal;
#X obj 46 914 +~;
#X text 125 890 feedback gain;
#X obj 67 866 delread~ G02-del 160;
#X obj 86 939 delwrite~ G02-del 2000;
#X obj 67 793 swap 60000;
#X obj 67 822 /;
#X floatatom 60 774 5 0 0 0 - - - 0;
#X obj 197 1050 dac~;
#X obj 1931 120 sel 0;
#X obj 2069 280 sel 128;
#X msg 1813 201 0;
#X obj 1415 82 loadbang;
#X obj 1236 47 key;
#X floatatom 1240 80 5 0 0 0 - - - 0;
#X obj 1221 97 sel 32;
#X obj 1977 57 int;
#X obj 2017 64 + 1;
#X obj 807 753 osc~ 440;
#X floatatom 1820 279 5 0 0 0 - - - 0;
#X obj 818 802 *~;
#X obj 1148 977 *~;
#X obj 1189 973 *~;
#X obj 1251 969 *~;
#X obj 1316 966 *~;
#X floatatom 2034 126 5 0 0 0 - - - 0;
#X msg 1849 39 24;
#X msg 1376 47;
#X obj 1350 119 r oscControl;
#X obj 1428 118 r oscControl2;
#X obj 1902 447 s note4;
#X obj 1897 475 s note3;
#X obj 1899 516 s note2;
#X obj 1349 144 sel 1;
#X obj 1981 624 int;
#X obj 1981 646 s note;
#X obj 2097 40 r x;
#X obj 2106 105 + 5;
#X obj 2120 160 / 10;
#X obj 2114 230 + 60;
#X obj 2112 197 * 150;
#X obj 2125 261 int;
#X obj 141 778 / 6;
#X obj 67 890 *~ 0.5;
#X obj 1149 1015 r righty;
#X obj 1150 1032 * -1;
#X obj 1154 1058 + 4096;
#X obj 1152 1080 + 1000;
#X obj 1015 705 lop~;
#X floatatom 950 686 5 0 0 0 - - - 0;
#X obj 905 650 r x2;
#X obj 931 738 * 10000;
#X msg 1483 289 \; pd dsp 1;
#X obj 1557 11 bng 15 250 50 0 empty empty empty 17 7 0 10 #fcfcfc #000000 #000000;
#X msg 1577 70 4;
#X obj 1554 -65 r oscControl2;
#X msg 1634 -29 1;
#X obj 1671 -7 change;
#X msg 1565 123 16;
#X msg 1543 71 0;
#X obj 913 674 + 6;
#X obj 911 713 / 12;
#X obj 712 -7 loadbang;
#X obj 901 18 + 6;
#X obj 899 57 / 12;
#X obj 893 -6 r x3;
#X msg 624 23 open 39711__lonemonk__lp-noise-1.wav \, start;
#X obj 531 179 loadbang;
#X obj 806 293 loadbang;
#X obj 1503 1078 loadbang;
#X obj 217 176 +;
#X floatatom 172 239 5 0 0 0 - - - 0;
#X obj 452 307 / 127;
#X obj 451 335 * 8000;
#X obj 357 236 ctlin 11 1;
#X obj 430 230 ctlin 12 1;
#X obj 1807 442 mod 12;
#X obj 1693 441 mod 8;
#X obj 505 237 ctlin 19 1;
#X obj 166 337 < 40;
#X floatatom 246 754 5 0 0 0 - - - 0;
#X obj 658 1063 * 4;
#X obj 1958 960 / 127;
#X obj 1990 998 * 2;
#X msg 1848 990 50;
#X obj 1589 1096 ctlin 30 1;
#X obj 1692 1097 tgl 15 0 empty empty empty 17 7 0 10 #fcfcfc #000000 #000000 0 1;
#X obj 990 -4 readsf~ 2;
#X obj 1053 -70 loadbang;
#X obj 2106 362 bng 15 250 50 0 empty empty empty 17 7 0 10 #fcfcfc #000000 #000000;
#X obj 2133 362 bng 15 250 50 0 empty empty empty 17 7 0 10 #fcfcfc #000000 #000000;
#X floatatom 1992 343 5 0 0 0 - - - 0;
#X obj 965 -83 loadbang;
#X msg 1133 -22 1;
#X obj 2102 307 mod 64;
#X obj 2105 332 sel 1 32;
#X obj 1287 532 bng 15 250 50 0 empty empty empty 17 7 0 10 #fcfcfc #000000 #000000;
#N canvas 410 203 994 521 loop 0;
#N canvas 0 0 450 300 (subpatch) 0;
#X array tab28 176403 float 0;
#X coords 0 1.02 176403 -1.02 200 130 1;
#X restore 594 296 graph;
#X obj 542 479 loadbang;
#X obj 405 210 hip~ 5;
#X obj 583 98 adc~ 1;
#X obj 583 128 hip~ 5;
#X msg 651 58 bang;
#X obj 405 176 *~;
#X obj 445 149 r cutoff;
#X obj 405 59 r phase;
#X msg 49 88 bang;
#X obj 149 143 delay 5;
#X msg 49 179 \; cutoff 0 5;
#X obj 662 178 line~;
#X obj 583 173 *~;
#X text 605 437 ------ 4 seconds ------;
#X obj 722 98 del 3990;
#X msg 722 126 0 10;
#X obj 542 538 soundfiler;
#X obj 445 176 vline~;
#X obj 405 89 vline~;
#X obj 651 218 tabwrite~ tab28;
#X obj 405 119 tabread4~ tab28;
#X msg 149 178 \; phase 1 \, 4.41e+08 1e+07 \; cutoff 1;
#X msg 662 116 0 \, 1 5;
#X obj 741 14 declare -stdpath ./;
#X obj 75 65 r downbeat;
#X obj 474 368 dac~;
#X msg 542 509 read 96loopgood.wav tab28;
#X obj 467 227 *~ 0.6;
#X obj 493 30 inlet;
#X obj 456 260 *~ 1;
#X obj 186 68 bng 15 250 50 0 empty empty empty 17 7 0 10 #fcfcfc #000000 #000000;
#X obj 267 69 int;
#X obj 298 72 + 1;
#X floatatom 267 92 5 0 0 0 - - - 0;
#X msg 340 111 0;
#X obj 341 282 sel 1;
#X obj 140 311 readsf~ 2;
#X obj 386 265 t b;
#X obj 338 88 sel 8;
#X obj 260 362 loadbang;
#X obj 34 360 *~ 0.2;
#X obj 142 357 *~ 0.2;
#X msg 246 382 0.17;
#X msg 218 326 open disco120dittylonger.wav \, start;
#X msg 210 305 open billiejean120.wav \, start;
#X msg 204 410 0.6;
#X obj 91 415 dac~ 1 2;
#X connect 1 0 27 0;
#X connect 2 0 28 0;
#X connect 3 0 4 0;
#X connect 4 0 13 0;
#X connect 5 0 15 0;
#X connect 5 0 23 0;
#X connect 5 0 20 0;
#X connect 6 0 2 0;
#X connect 7 0 18 0;
#X connect 8 0 19 0;
#X connect 9 0 11 0;
#X connect 9 0 10 0;
#X connect 10 0 22 0;
#X connect 12 0 13 1;
#X connect 13 0 20 0;
#X connect 15 0 16 0;
#X connect 16 0 12 0;
#X connect 18 0 6 1;
#X connect 19 0 21 0;
#X connect 21 0 6 0;
#X connect 23 0 12 0;
#X connect 25 0 9 0;
#X connect 25 0 31 0;
#X connect 27 0 17 0;
#X connect 28 0 30 0;
#X connect 29 0 30 1;
#X connect 31 0 32 0;
#X connect 32 0 33 0;
#X connect 32 0 34 0;
#X connect 33 0 32 1;
#X connect 34 0 36 0;
#X connect 34 0 39 0;
#X connect 35 0 32 0;
#X connect 36 0 38 0;
#X connect 37 0 41 0;
#X connect 37 1 42 0;
#X connect 38 0 45 0;
#X connect 39 0 35 0;
#X connect 40 0 46 0;
#X connect 41 0 47 0;
#X connect 42 0 47 1;
#X connect 43 0 41 1;
#X connect 43 0 42 1;
#X connect 45 0 37 0;
#X connect 46 0 42 1;
#X connect 46 0 41 1;
#X restore 1467 -28 pd loop;
#X floatatom 1878 -7 5 0 0 0 - - - 0;
#X obj 1874 -50 * 4;
#X obj 2081 532 s downbeat;
#X obj 2103 503 s downbeat;
#X obj 533 283 ctlin 18 1;
#X obj 1969 930 ctlin 20 1;
#X obj 1676 530 sel 0 6;
#X obj 1759 511 sel 0 6;
#X obj 1755 442 mod 12;
#X obj 1465 203 print;
#X msg 1341 9 1;
#X obj 1333 51 change;
#X msg 965 -40 open rundmc96fixed.wav;
#X obj 1416 18 sel 0;
#X obj 1039 26 *~ 0.6;
#X obj 1093 26 *~ 0.6;
#X obj 1616 934 / 127;
#X obj 1605 916 r ay;
#X obj 562 1037 / 127;
#X obj 711 891 / 127;
#X obj 918 954 ctlin 3 1;
#X obj 922 979 / 127;
#X obj 2030 1060 / 127;
#X obj 707 869 ctlin 2 1;
#X obj 532 1014 ctlin 1 1;
#X obj 1938 1073 ctlin 4 1;
#X msg 1119 105 36;
#X msg 1159 103 38;
#X msg 1288 -17 42;
#X obj 1264 -45 sel 0 4 8 12 16 20 24 28;
#X msg 779 294 0;
#X msg 1654 200 reset 1;
#X obj 1465 -63 tgl 15 0 empty empty empty 17 7 0 10 #fcfcfc #000000 #000000 0 1;
#X obj 1443 -63 tgl 15 0 empty empty empty 17 7 0 10 #fcfcfc #000000 #000000 0 1;
#X obj 788 257 sel 0 1;
#X obj 1801 304 sel 16;
#X obj 1834 344 sel 0 16;
#X obj 1050 81 dac~ 3 4;
#X msg 1494 -80;
#X obj 1384 -81 loadbang;
#X msg 1342 -74;
#X msg 1448 -88 0;
#X msg 823 -61 open rundmc96fixed.wav \, start;
#N canvas 92 117 450 300 bass 0;
#X obj 329 179 noteout 2;
#X floatatom 237 141 5 0 0 0 - - - 0;
#X msg 364 53 39;
#X obj 192 62 r baa;
#X msg 327 54 62;
#X obj 323 90 makenote 127 1800;
#X connect 1 0 5 0;
#X connect 2 0 5 0;
#X connect 3 0 4 0;
#X connect 4 0 5 0;
#X connect 5 0 0 0;
#X connect 5 1 0 1;
#X restore 1981 -39 pd bass;
#X obj 2112 456 s baa;
#X obj 189 1010 *~ 0.1;
#X obj 53 419 random 5;
#X obj 49 480 line;
#X obj 55 453 \$1 \$1;
#X obj 50 394 metro 500;
#X obj 29 391 tgl 15 0 empty empty empty 17 7 0 10 #fcfcfc #000000 #000000 0 1;
#X msg 120 453 500;
#X obj 172 476 line;
#X obj 178 449 \$1 \$1;
#X obj 173 390 metro 500;
#X obj 152 387 tgl 15 0 empty empty empty 17 7 0 10 #fcfcfc #000000 #000000 0 1;
#X msg 243 449 500;
#X floatatom 604 368 5 0 0 0 - - - 0;
#X obj 176 415 random 7920;
#X obj 175 510 + 80;
#X obj 2035 892 line;
#X obj 2041 865 \$1 \$1;
#X obj 2036 806 metro 500;
#X obj 30 368 tgl 15 0 empty empty empty 17 7 0 10 #fcfcfc #000000 #000000 0 1;
#X msg 2106 865 500;
#X obj 2039 831 random 127;
#X obj 2073 913 / 127;
#X obj 74 244 tgl 15 0 empty empty empty 17 7 0 10 #fcfcfc #000000 #000000 0 1;
#X text 62 225 go rand;
#X msg 806 315 1500;
#N canvas 92 117 450 300 gate 0;
#X obj 203 41 notein;
#X obj 200 79 sel 63;
#X obj 200 125 bng 15 250 50 0 empty empty empty 17 7 0 10 #fcfcfc #000000 #000000;
#X obj 197 205 ctlout 63 1;
#X obj 254 134 sel 1 0;
#X obj 254 109 tgl 15 0 empty empty empty 17 7 0 10 #fcfcfc #000000 #000000 0 1;
#X msg 242 166 127;
#X msg 273 167 0;
#X connect 0 0 1 0;
#X connect 1 0 2 0;
#X connect 2 0 5 0;
#X connect 4 0 6 0;
#X connect 4 1 7 0;
#X connect 5 0 4 0;
#X connect 6 0 3 0;
#X connect 7 0 3 0;
#X restore 55 83 pd gate effect;
#X msg 1908 32 120;
#X obj 593 824 vsl 15 128 0 1 0 0 empty empty empty 0 -9 0 10 #fcfcfc #000000 #000000 0 1;
#X obj 546 771 / 127;
#X floatatom 673 839 5 0 0 0 - - - 0;
#X floatatom 673 707 5 0 0 0 - - - 0;
#X obj 665 749 * -1;
#X obj 669 776 + 1;
#X obj 1764 74 print;
#X obj 1587 257 abl_link~ 1 0 4 480;
#X msg 1853 64 30;
#X obj 518 824 * -1;
#X obj 1332 1080 notein;
#X obj 1335 1101 sel 63;
#X obj 1842 641 pipe 0;
#X obj 1652 641 pipe 0;
#X obj 1487 649 pipe 0;
#X obj 752 585 pipe 0;
#X obj 816 589 r pi;
#X obj 1889 626 r pi;
#X obj 889 1089 s pi;
#X obj 394 1001 * 4;
#X obj 429 1011 int;
#X obj 429 1032 change;
#X floatatom 370 1036 5 0 0 0 - - - 0;
#X obj 369 978 / 127;
#X msg 857 1102 0;
#X obj 944 1096 loadbang;
#X obj 353 1072 float;
#X floatatom 355 1095 5 0 0 0 - - - 0;
#X obj 2111 478 s trip;
#X obj 302 1011 r trip;
#X obj 295 1057 bng 15 250 50 0 empty empty empty 17 7 0 10 #fcfcfc #000000 #000000;
#X floatatom 323 963 5 0 0 0 - - - 0;
#X msg 926 1056 0;
#X obj 2154 363 sel 16;
#X obj 2164 393 bng 15 250 50 0 empty empty empty 17 7 0 10 #fcfcfc #000000 #000000;
#X obj 2167 422 sel 48;
#X obj 2173 448 bng 15 250 50 0 empty empty empty 17 7 0 10 #fcfcfc #000000 #000000;
#X msg 1001 1065 0;
#X msg 886 1058 0;
#X obj 368 942 ctlin 2 1;
#X obj 906 1031 sel 0 1 2 3 4;
#X msg 964 1062 0;
#X msg 1042 1070 125;
#X obj 457 808 swap;
#X obj 455 789 tgl 16 0 empty empty empty 0 -8 0 10 #fcfcfc #000000 #000000 0 1;
#X obj 457 826 tgl 16 0 empty empty empty 0 -8 0 10 #fcfcfc #000000 #000000 0 1;
#X obj 542 726 ctlin 5 1;
#X obj 647 916 / 10;
#X obj 758 938 + 0;
#X obj 1397 1102 bng 16 250 50 0 empty empty empty 0 -8 0 10 #fcfcfc #000000 #000000;
#X connect 2 0 1 0;
#X connect 4 0 3 0;
#X connect 5 0 8 0;
#X connect 6 0 262 0;
#X connect 8 0 6 0;
#X connect 9 0 17 0;
#X connect 11 0 12 0;
#X connect 12 0 16 0;
#X connect 13 0 18 0;
#X connect 16 0 263 0;
#X connect 17 0 5 0;
#X connect 18 0 11 0;
#X connect 19 0 23 0;
#X connect 20 0 23 1;
#X connect 21 0 20 0;
#X connect 22 0 23 2;
#X connect 23 0 176 0;
#X connect 24 0 21 0;
#X connect 24 0 35 0;
#X connect 24 0 46 0;
#X connect 24 0 63 0;
#X connect 24 0 149 0;
#X connect 24 0 168 0;
#X connect 24 0 158 0;
#X connect 24 0 433 0;
#X connect 25 0 22 0;
#X connect 26 0 25 0;
#X connect 28 0 300 0;
#X connect 29 0 216 0;
#X connect 29 0 463 0;
#X connect 31 0 30 0;
#X connect 32 0 45 0;
#X connect 32 0 146 0;
#X connect 32 0 224 0;
#X connect 32 0 225 0;
#X connect 32 0 226 0;
#X connect 32 0 227 0;
#X connect 33 0 36 0;
#X connect 34 0 36 1;
#X connect 34 0 39 0;
#X connect 35 0 34 0;
#X connect 35 0 39 0;
#X connect 36 0 37 0;
#X connect 37 0 38 0;
#X connect 38 0 89 0;
#X connect 39 0 40 0;
#X connect 39 0 41 0;
#X connect 40 0 36 1;
#X connect 41 0 37 0;
#X connect 42 0 32 0;
#X connect 43 0 42 0;
#X connect 44 0 178 0;
#X connect 46 0 33 0;
#X connect 47 0 48 0;
#X connect 48 0 49 0;
#X connect 51 0 52 0;
#X connect 51 0 59 0;
#X connect 52 0 72 0;
#X connect 54 0 55 0;
#X connect 55 0 242 0;
#X connect 56 0 24 0;
#X connect 57 0 359 0;
#X connect 58 0 255 0;
#X connect 58 2 197 0;
#X connect 58 3 260 0;
#X connect 58 5 197 1;
#X connect 63 0 43 0;
#X connect 64 0 272 0;
#X connect 64 1 273 0;
#X connect 64 2 344 0;
#X connect 65 0 66 0;
#X connect 65 0 69 0;
#X connect 65 0 92 0;
#X connect 67 0 29 0;
#X connect 68 0 29 0;
#X connect 69 0 2 0;
#X connect 69 0 4 0;
#X connect 70 0 65 0;
#X connect 72 0 265 0;
#X connect 72 0 358 0;
#X connect 72 0 185 0;
#X connect 73 0 455 0;
#X connect 74 0 455 0;
#X connect 75 0 407 0;
#X connect 78 0 139 0;
#X connect 78 0 310 0;
#X connect 78 0 389 0;
#X connect 79 0 308 0;
#X connect 80 0 85 0;
#X connect 80 0 287 0;
#X connect 81 0 73 0;
#X connect 81 0 285 0;
#X connect 81 0 454 0;
#X connect 82 0 75 1;
#X connect 83 0 75 0;
#X connect 84 0 74 0;
#X connect 85 0 385 0;
#X connect 85 0 455 0;
#X connect 86 0 309 0;
#X connect 87 0 86 0;
#X connect 88 0 92 0;
#X connect 89 0 90 0;
#X connect 89 1 91 0;
#X connect 92 0 71 0;
#X connect 92 0 67 0;
#X connect 92 1 68 0;
#X connect 92 2 67 0;
#X connect 92 3 68 0;
#X connect 93 0 88 0;
#X connect 94 0 97 0;
#X connect 95 0 97 0;
#X connect 96 0 382 0;
#X connect 97 0 217 0;
#X connect 97 0 461 0;
#X connect 98 0 301 0;
#X connect 99 0 98 1;
#X connect 103 0 104 0;
#X connect 103 1 105 0;
#X connect 104 0 102 1;
#X connect 105 0 102 1;
#X connect 106 0 383 0;
#X connect 107 0 109 0;
#X connect 108 0 109 0;
#X connect 109 0 218 0;
#X connect 109 0 460 0;
#X connect 110 0 113 0;
#X connect 110 0 302 0;
#X connect 111 0 110 1;
#X connect 114 0 211 0;
#X connect 114 0 300 1;
#X connect 115 0 212 0;
#X connect 115 0 301 1;
#X connect 116 0 213 0;
#X connect 116 0 302 1;
#X connect 117 0 124 0;
#X connect 118 0 117 0;
#X connect 119 0 121 0;
#X connect 120 0 121 0;
#X connect 121 0 215 0;
#X connect 121 0 462 0;
#X connect 122 0 299 0;
#X connect 123 0 122 1;
#X connect 124 0 119 0;
#X connect 124 1 120 0;
#X connect 125 0 214 0;
#X connect 125 0 299 1;
#X connect 127 0 125 0;
#X connect 128 0 114 0;
#X connect 128 0 115 0;
#X connect 128 0 116 0;
#X connect 129 0 114 0;
#X connect 130 0 125 0;
#X connect 130 0 115 0;
#X connect 130 0 116 0;
#X connect 131 0 115 0;
#X connect 132 0 116 0;
#X connect 132 0 114 0;
#X connect 132 0 125 0;
#X connect 133 0 116 0;
#X connect 134 0 115 0;
#X connect 134 0 114 0;
#X connect 134 0 125 0;
#X connect 135 0 336 0;
#X connect 135 0 456 0;
#X connect 137 0 182 0;
#X connect 139 0 126 0;
#X connect 139 0 379 0;
#X connect 140 0 141 0;
#X connect 141 0 143 0;
#X connect 141 0 145 0;
#X connect 144 0 146 1;
#X connect 145 0 144 0;
#X connect 146 0 98 0;
#X connect 146 0 122 0;
#X connect 146 0 110 0;
#X connect 146 0 28 0;
#X connect 147 0 19 0;
#X connect 148 0 152 0;
#X connect 149 0 152 1;
#X connect 150 0 149 0;
#X connect 151 0 152 2;
#X connect 152 0 122 0;
#X connect 153 0 151 0;
#X connect 154 0 153 0;
#X connect 155 0 148 0;
#X connect 157 0 161 0;
#X connect 158 0 161 1;
#X connect 159 0 158 0;
#X connect 160 0 161 2;
#X connect 161 0 98 0;
#X connect 162 0 160 0;
#X connect 163 0 162 0;
#X connect 164 0 157 0;
#X connect 167 0 171 0;
#X connect 168 0 171 1;
#X connect 169 0 168 0;
#X connect 170 0 171 2;
#X connect 171 0 110 0;
#X connect 172 0 170 0;
#X connect 173 0 172 0;
#X connect 174 0 167 0;
#X connect 176 0 28 0;
#X connect 178 0 43 1;
#X connect 179 0 244 0;
#X connect 179 0 140 0;
#X connect 180 0 179 0;
#X connect 181 0 362 0;
#X connect 182 0 177 0;
#X connect 184 0 182 1;
#X connect 185 0 128 0;
#X connect 185 0 127 0;
#X connect 185 1 130 0;
#X connect 185 1 129 0;
#X connect 185 2 132 0;
#X connect 185 2 131 0;
#X connect 185 3 134 0;
#X connect 185 3 133 0;
#X connect 187 0 57 0;
#X connect 188 0 81 0;
#X connect 189 0 191 0;
#X connect 190 0 189 0;
#X connect 191 0 184 0;
#X connect 192 0 201 0;
#X connect 192 0 349 0;
#X connect 193 0 195 0;
#X connect 193 0 195 1;
#X connect 194 0 196 0;
#X connect 194 0 196 1;
#X connect 195 0 348 0;
#X connect 196 0 348 1;
#X connect 197 0 198 0;
#X connect 197 0 198 1;
#X connect 200 0 202 0;
#X connect 201 0 200 0;
#X connect 202 0 203 0;
#X connect 202 0 207 0;
#X connect 204 0 208 1;
#X connect 206 0 205 0;
#X connect 208 0 219 0;
#X connect 211 0 216 1;
#X connect 212 0 218 1;
#X connect 213 0 217 1;
#X connect 214 0 215 1;
#X connect 215 0 210 0;
#X connect 216 0 210 0;
#X connect 217 0 210 0;
#X connect 218 0 210 0;
#X connect 219 0 279 0;
#X connect 219 0 209 0;
#X connect 219 0 209 1;
#X connect 220 0 250 0;
#X connect 221 0 233 0;
#X connect 221 0 297 0;
#X connect 221 0 412 0;
#X connect 222 0 220 0;
#X connect 224 0 122 0;
#X connect 225 0 98 0;
#X connect 226 0 110 0;
#X connect 227 0 28 0;
#X connect 230 0 231 0;
#X connect 231 0 232 0;
#X connect 233 0 238 0;
#X connect 233 1 238 0;
#X connect 234 0 235 0;
#X connect 235 0 240 0;
#X connect 236 0 238 0;
#X connect 238 0 234 0;
#X connect 240 0 241 0;
#X connect 241 0 326 0;
#X connect 242 0 56 0;
#X connect 243 0 180 0;
#X connect 244 0 245 0;
#X connect 247 0 206 0;
#X connect 249 0 248 0;
#X connect 250 0 219 1;
#X connect 251 0 188 1;
#X connect 253 0 252 0;
#X connect 253 1 252 1;
#X connect 255 0 256 0;
#X connect 256 0 254 0;
#X connect 257 0 254 0;
#X connect 258 0 259 0;
#X connect 260 0 261 0;
#X connect 261 0 259 0;
#X connect 262 0 326 0;
#X connect 263 0 326 0;
#X connect 269 0 271 0;
#X connect 275 0 268 0;
#X connect 275 0 369 0;
#X connect 276 0 320 0;
#X connect 279 0 282 0;
#X connect 279 0 421 0;
#X connect 281 0 321 0;
#X connect 283 0 284 0;
#X connect 283 1 284 1;
#X connect 284 0 276 0;
#X connect 285 0 283 0;
#X connect 287 0 267 0;
#X connect 290 0 80 0;
#X connect 291 0 292 0;
#X connect 291 0 293 0;
#X connect 294 0 295 0;
#X connect 294 0 275 0;
#X connect 294 0 249 0;
#X connect 294 0 221 0;
#X connect 294 0 303 0;
#X connect 294 0 372 0;
#X connect 295 0 294 1;
#X connect 297 0 405 0;
#X connect 297 0 411 0;
#X connect 299 0 208 0;
#X connect 300 0 208 0;
#X connect 301 0 208 0;
#X connect 302 0 208 0;
#X connect 304 0 188 0;
#X connect 304 0 377 0;
#X connect 306 0 311 0;
#X connect 312 0 313 0;
#X connect 314 0 315 0;
#X connect 315 0 316 0;
#X connect 316 0 318 0;
#X connect 317 0 319 0;
#X connect 318 0 317 0;
#X connect 319 0 81 0;
#X connect 320 0 281 0;
#X connect 321 0 279 1;
#X connect 322 0 323 0;
#X connect 323 0 324 0;
#X connect 324 0 325 0;
#X connect 326 0 10 0;
#X connect 326 0 10 1;
#X connect 327 0 326 1;
#X connect 328 0 338 0;
#X connect 329 0 326 1;
#X connect 331 0 337 0;
#X connect 331 0 332 0;
#X connect 331 0 336 0;
#X connect 332 0 82 0;
#X connect 333 0 335 0;
#X connect 335 0 331 0;
#X connect 336 0 84 0;
#X connect 337 0 83 0;
#X connect 338 0 339 0;
#X connect 339 0 329 0;
#X connect 340 0 344 0;
#X connect 341 0 342 0;
#X connect 342 0 273 1;
#X connect 342 0 272 1;
#X connect 343 0 341 0;
#X connect 344 0 64 0;
#X connect 345 0 204 0;
#X connect 346 0 445 0;
#X connect 347 0 222 0;
#X connect 348 0 192 0;
#X connect 349 0 357 0;
#X connect 351 0 24 0;
#X connect 352 0 193 0;
#X connect 353 0 194 0;
#X connect 354 0 138 0;
#X connect 355 0 96 0;
#X connect 356 0 193 1;
#X connect 356 0 350 0;
#X connect 357 0 204 0;
#X connect 359 0 51 0;
#X connect 360 0 361 0;
#X connect 361 0 180 0;
#X connect 362 0 180 1;
#X connect 363 0 364 0;
#X connect 364 0 222 0;
#X connect 365 0 390 0;
#X connect 365 1 391 0;
#X connect 365 2 418 0;
#X connect 367 0 476 0;
#X connect 368 0 476 0;
#X connect 371 0 365 0;
#X connect 372 0 373 0;
#X connect 372 0 481 0;
#X connect 372 0 483 0;
#X connect 373 0 367 0;
#X connect 373 0 420 0;
#X connect 373 1 368 0;
#X connect 377 0 376 0;
#X connect 380 0 194 1;
#X connect 381 0 360 0;
#X connect 382 0 94 0;
#X connect 382 1 95 0;
#X connect 383 0 107 0;
#X connect 383 1 108 0;
#X connect 384 0 106 0;
#X connect 386 0 387 0;
#X connect 387 0 371 0;
#X connect 388 0 365 0;
#X connect 389 0 386 0;
#X connect 390 0 413 0;
#X connect 391 0 413 1;
#X connect 392 0 140 0;
#X connect 393 0 392 0;
#X connect 394 0 359 0;
#X connect 395 0 496 0;
#X connect 396 0 397 0;
#X connect 397 0 191 0;
#X connect 398 0 140 0;
#X connect 399 0 395 0;
#X connect 400 0 394 0;
#X connect 401 0 398 0;
#X connect 402 0 253 0;
#X connect 403 0 253 0;
#X connect 404 0 253 0;
#X connect 405 0 404 0;
#X connect 405 1 404 0;
#X connect 405 2 404 0;
#X connect 405 3 404 0;
#X connect 405 4 404 0;
#X connect 405 5 404 0;
#X connect 405 6 404 0;
#X connect 405 7 404 0;
#X connect 406 0 327 0;
#X connect 407 0 455 0;
#X connect 408 0 375 0;
#X connect 409 0 410 0;
#X connect 410 0 406 0;
#X connect 410 1 445 0;
#X connect 411 0 403 0;
#X connect 412 0 17 0;
#X connect 412 0 238 0;
#X connect 412 0 402 0;
#X connect 412 0 374 0;
#X connect 412 1 18 0;
#X connect 412 1 238 0;
#X connect 415 0 417 0;
#X connect 417 0 409 0;
#X connect 417 0 408 0;
#X connect 418 0 365 0;
#X connect 421 0 286 0;
#X connect 421 0 286 1;
#X connect 422 0 424 0;
#X connect 423 0 51 0;
#X connect 424 0 423 0;
#X connect 425 0 422 0;
#X connect 425 0 427 0;
#X connect 426 0 425 0;
#X connect 427 0 424 1;
#X connect 428 0 435 0;
#X connect 429 0 428 0;
#X connect 430 0 432 0;
#X connect 430 0 434 0;
#X connect 431 0 430 0;
#X connect 432 0 429 1;
#X connect 434 0 429 0;
#X connect 435 0 24 0;
#X connect 436 0 442 0;
#X connect 437 0 436 0;
#X connect 438 0 440 0;
#X connect 438 0 441 0;
#X connect 439 0 438 0;
#X connect 440 0 437 1;
#X connect 441 0 437 0;
#X connect 442 0 140 0;
#X connect 443 0 439 0;
#X connect 443 0 426 0;
#X connect 443 0 431 0;
#X connect 445 0 327 0;
#X connect 449 0 448 0;
#X connect 451 0 452 0;
#X connect 452 0 453 0;
#X connect 453 0 448 0;
#X connect 455 0 78 0;
#X connect 455 0 93 0;
#X connect 455 0 118 0;
#X connect 455 0 137 0;
#X connect 455 0 186 0;
#X connect 455 0 264 0;
#X connect 455 0 294 0;
#X connect 455 0 355 0;
#X connect 455 0 384 0;
#X connect 455 1 77 0;
#X connect 455 2 76 0;
#X connect 455 2 312 0;
#X connect 455 3 79 0;
#X connect 456 0 188 0;
#X connect 458 0 459 0;
#X connect 458 0 497 0;
#X connect 459 0 222 0;
#X connect 460 0 110 1;
#X connect 461 0 98 1;
#X connect 462 0 122 1;
#X connect 463 0 28 1;
#X connect 464 0 463 1;
#X connect 465 0 460 1;
#X connect 465 0 461 1;
#X connect 465 0 462 1;
#X connect 467 0 468 0;
#X connect 468 0 469 0;
#X connect 469 0 470 0;
#X connect 470 0 474 1;
#X connect 471 0 467 0;
#X connect 472 0 466 0;
#X connect 473 0 472 0;
#X connect 474 0 475 0;
#X connect 475 0 488 0;
#X connect 477 0 478 0;
#X connect 478 0 474 0;
#X connect 479 0 471 0;
#X connect 480 0 466 0;
#X connect 481 0 482 0;
#X connect 482 0 476 0;
#X connect 483 0 484 0;
#X connect 484 0 476 0;
#X connect 485 0 466 0;
#X connect 486 0 466 0;
#X connect 487 0 471 0;
#X connect 488 0 486 0;
#X connect 488 1 480 0;
#X connect 488 2 489 0;
#X connect 488 3 485 0;
#X connect 488 4 490 0;
#X connect 489 0 466 0;
#X connect 490 0 466 0;
#X connect 491 0 493 0;
#X connect 492 0 491 0;
#X connect 492 0 491 1;
#X connect 494 0 449 0;
#X connect 495 0 496 1;
#X connect 496 0 242 0;
